<svg width="32" height="32" viewBox="0 0 32 32" fill="none" xmlns="http://www.w3.org/2000/svg">
<path d="M16.0152 0C7.16413 0 0 7.19466 0 16.0762C0 24.0533 5.80246 30.6789 13.3833 31.9289V21.0352H9.30832V16.2591H13.3833V12.7939C13.3833 9.03398 16.4217 6.49349 20.1613 6.49349C21.8278 6.49349 22.8644 6.74754 22.8644 6.74754V10.7513H20.1613C19.0333 10.7513 18.1187 11.6659 18.1187 12.7939V16.2591H22.4884L21.8787 21.0352H18.1187V32C25.9536 30.9533 32 24.2159 32 16.0762C32.0102 7.19466 24.846 0 16.0051 0H16.0152Z" fill="#729EA4"/>
</svg>
