<svg width="60" height="154" viewBox="0 0 60 154" fill="none" xmlns="http://www.w3.org/2000/svg">
<path d="M45.7222 22.2002L46.7322 21.6102C46.4022 20.9302 46.2122 20.3102 46.1322 19.7702C46.0522 19.2302 46.1222 18.6702 46.3622 18.1102C46.8322 17.2902 47.7122 16.7302 49.0122 16.4102C50.3122 16.1002 51.4122 15.8602 52.3122 15.6902C53.2022 15.4502 53.9122 15.1302 54.4222 14.7302C54.9322 14.3302 55.3222 13.8102 55.5922 13.1502C56.2122 11.5502 56.1922 9.93024 55.4922 8.27024C54.8022 6.61024 53.6422 5.40024 52.0322 4.64024H52.0122C51.6522 4.47024 51.0822 4.36024 50.2922 4.28024C50.0922 4.26024 49.8922 4.24023 49.6922 4.24023C49.0922 4.24023 48.4722 4.33024 47.8322 4.51024C47.4822 4.63024 47.1922 4.77023 46.9622 4.92023C46.7322 5.07023 46.5422 5.29024 46.4222 5.58024C46.2522 6.07024 46.2822 6.58024 46.5222 7.08024C46.7622 7.59024 47.0322 7.92024 47.3322 8.07024C47.6122 8.08024 48.2522 7.94024 49.2622 7.64024C50.2722 7.34024 51.4022 7.39024 52.6422 7.82024C53.3222 8.12024 53.7722 8.50024 53.9922 8.99024C54.2122 9.48024 54.2022 10.0202 53.9422 10.6302C53.5722 11.3002 52.8422 11.7902 51.7322 12.1102C50.6222 12.4302 49.5522 12.6702 48.5322 12.8402C46.9822 13.1802 45.8222 13.5702 45.0622 14.0102C44.3022 14.4502 43.7922 15.0002 43.5322 15.6502C43.1222 16.8302 43.2022 18.0402 43.7822 19.3202C44.3622 20.5902 45.0122 21.5602 45.7122 22.2202L45.7222 22.2002Z" fill="#062529"/>
<path d="M41.7622 29.41H41.8122C42.4422 29.68 43.0422 29.71 43.6222 29.48C44.2022 29.25 44.6422 28.79 44.9522 28.12C45.2122 27.49 45.2222 26.88 45.0022 26.29C44.7822 25.7 44.3622 25.26 43.7422 24.98C43.4322 24.86 43.1222 24.79 42.8222 24.79C42.5222 24.79 42.2322 24.85 41.9422 24.97C41.3622 25.21 40.9222 25.6501 40.6422 26.2701C40.3622 26.9601 40.3322 27.59 40.5622 28.16C40.7822 28.73 41.1822 29.15 41.7722 29.41H41.7622Z" fill="#062529"/>
<path d="M28.2021 5.07006C28.4621 4.97006 29.0021 4.58006 29.8121 3.90006C30.6221 3.22006 31.6821 2.83006 32.9921 2.73006C33.7321 2.73006 34.2921 2.91006 34.6921 3.27006C35.0921 3.63006 35.2921 4.13006 35.2921 4.79006C35.2221 5.55006 34.7421 6.29006 33.8521 7.02006C32.9621 7.75006 32.0821 8.40006 31.2021 8.97006C29.9121 9.90006 29.0121 10.7101 28.4821 11.4101C27.9521 12.1101 27.7021 12.8201 27.7221 13.5201C27.8121 14.7601 28.3821 15.8501 29.4221 16.7901C30.4621 17.7301 31.4421 18.3501 32.3421 18.6801L33.0421 17.7401C32.4721 17.2401 32.0421 16.7501 31.7521 16.2801C31.4621 15.8101 31.3021 15.2801 31.3021 14.6701C31.4121 13.7401 31.9921 12.8701 33.0521 12.0701C34.1121 11.2701 35.0221 10.6101 35.7821 10.1001C36.5121 9.53007 37.0321 8.96006 37.3421 8.39006C37.6521 7.82006 37.8121 7.18006 37.8021 6.48006C37.7421 4.77006 37.0621 3.28006 35.7621 2.03006C34.4621 0.78006 32.9221 0.120059 31.1421 0.0600586H31.1221C30.7321 0.0600586 30.1521 0.180059 29.3921 0.420059C28.6321 0.660059 27.9221 1.06006 27.2321 1.61006C26.9621 1.86006 26.7421 2.09006 26.5921 2.32006C26.4421 2.55006 26.3621 2.83006 26.3621 3.15006C26.4021 3.67006 26.6321 4.11006 27.0521 4.49006C27.4721 4.86006 27.8521 5.06006 28.1921 5.08006L28.2021 5.07006Z" fill="#062529"/>
<path d="M29.992 22.7203C29.552 23.1703 29.332 23.7403 29.312 24.4203C29.332 25.1603 29.542 25.7503 29.972 26.1903C30.402 26.6303 30.952 26.8503 31.592 26.8603H31.642C32.322 26.8503 32.882 26.6203 33.322 26.1903C33.762 25.7503 33.992 25.1603 34.012 24.4203C33.992 23.7403 33.762 23.1803 33.322 22.7203C32.882 22.2703 32.322 22.0303 31.642 22.0103C30.972 22.0303 30.422 22.2703 29.982 22.7203H29.992Z" fill="#062529"/>
<path d="M8.89208 10.5102C9.41208 10.7202 9.82207 10.7702 10.1521 10.6802C10.3721 10.5002 10.7521 9.96018 11.2921 9.06018C11.8321 8.15018 12.7021 7.43019 13.9021 6.91019C14.6021 6.67019 15.1921 6.66018 15.6921 6.86018C16.1821 7.06018 16.5421 7.47018 16.7721 8.09018C16.9621 8.83018 16.7521 9.68019 16.1521 10.6602C15.5521 11.6402 14.9521 12.5402 14.3121 13.3702C13.4121 14.6702 12.8221 15.7502 12.5621 16.5802C12.3021 17.4202 12.2921 18.1502 12.5421 18.8102C13.0421 19.9502 13.9421 20.7902 15.2321 21.3402C16.5321 21.8802 17.6621 22.1602 18.6321 22.1702L18.9821 21.0402C18.2721 20.7602 17.7121 20.4402 17.2821 20.1002C16.8521 19.7602 16.5321 19.3002 16.3321 18.7302C16.1221 17.8102 16.3821 16.8102 17.1221 15.7002C17.8621 14.5902 18.5021 13.6702 19.0421 12.9302C19.5321 12.1502 19.8321 11.4402 19.9321 10.8002C20.0321 10.1602 19.9721 9.50018 19.7221 8.84018C19.0921 7.25018 17.9421 6.08018 16.3021 5.33018C15.2721 4.86018 14.2421 4.64018 13.1921 4.67018C12.5621 4.69018 11.9321 4.80018 11.2921 4.99018H11.2721C10.9021 5.13018 10.3921 5.43018 9.76207 5.90018C9.13207 6.38018 8.58207 6.99018 8.12207 7.74018C7.94207 8.07018 7.82207 8.36019 7.76207 8.63019C7.70207 8.90019 7.70207 9.19018 7.81207 9.48018C8.02207 9.96018 8.39207 10.3002 8.91207 10.5102H8.89208Z" fill="#062529"/>
<path d="M19.0521 25.5202C18.4321 25.7602 17.9821 26.1602 17.7221 26.7402C17.4621 27.3102 17.4421 27.9202 17.6521 28.5702C17.9121 29.2602 18.3321 29.7402 18.8821 30.0102C19.4321 30.2802 20.0121 30.3202 20.6221 30.1202L20.6722 30.1002C21.3122 29.8702 21.7721 29.4702 22.0421 28.9102C22.3121 28.3502 22.3321 27.7302 22.1021 27.0202C21.8621 26.3802 21.4521 25.9302 20.8821 25.6502C20.5321 25.4702 20.1521 25.3802 19.7721 25.4002C19.5421 25.4002 19.3022 25.4502 19.0622 25.5302L19.0521 25.5202Z" fill="#062529"/>
<path d="M58.9121 61.0501C61.0221 50.9201 43.4421 34.1001 43.4421 34.1001L35.7121 37.9501C35.7121 37.9501 47.3121 57.1901 47.3121 61.0501H40.1221C39.9421 61.1601 39.7621 61.2601 39.5821 61.3601C34.7321 64.2901 28.6021 63.8001 23.8221 61.0501H16.3821C0.91211 61.0501 0.912109 99.5501 0.912109 99.5501H12.5121L16.3821 76.4501V107.25L8.65211 153.45H24.1221L31.8521 114.95L39.5821 153.45H55.0521L47.3221 107.25V76.4501C47.3221 76.4501 57.6121 67.3301 58.9221 61.0501H58.9121Z" fill="#062529"/>
<path d="M20.1022 55.5302C21.7222 58.8402 24.8622 61.0902 28.3622 62.0502C28.6122 62.1202 28.8722 62.1801 29.1222 62.2301C29.2022 62.2501 29.2922 62.2602 29.3722 62.2802C29.5422 62.3102 29.7122 62.3502 29.8822 62.3802C30.1622 62.4202 30.4422 62.4602 30.7322 62.4902C30.9622 62.5102 31.1922 62.5402 31.4222 62.5502C31.4922 62.5502 31.5722 62.5501 31.6422 62.5602C31.7422 62.5602 31.8422 62.5602 31.9422 62.5602C32.0622 62.5602 32.1822 62.5702 32.3022 62.5702C35.6222 62.5402 38.8822 61.3402 41.1822 58.7802C42.4322 57.5602 43.3722 56.0902 44.0022 54.4902C41.2522 48.6402 37.7522 43.1202 34.5522 37.5302C35.0222 37.3802 35.4822 37.2202 35.9522 37.0602C34.6922 36.6402 33.3822 36.4202 32.0522 36.4102C31.8722 36.4102 31.6922 36.4102 31.5222 36.4202C22.2722 36.1402 15.4722 47.5801 20.1022 55.5401V55.5302Z" fill="#062529"/>
</svg>
