<svg width="106" height="120" viewBox="0 0 106 120" fill="none" xmlns="http://www.w3.org/2000/svg">
<path d="M51.8951 107.625V92.305H56.0051L45.1851 82.985L34.3651 73.665L23.5451 82.985L22.3651 84.005V80.565H23.1051V79.415H19.6851V80.565H20.425V85.665L12.7151 92.305H16.8251V107.625H23.1851V95.905H31.8551V107.625H51.8751H51.8951ZM36.6251 95.965H46.8451V104.615H36.6251V95.965ZM32.1151 86.135H36.4951V92.295H32.1151V86.135Z" fill="#062529"/>
<path d="M59.615 113.855H7.19498C6.45498 113.855 5.845 113.255 5.845 112.515V18.9951C5.845 18.2651 6.44498 17.6651 7.19498 17.6651H27.795V19.7751H49.005V17.6651H69.605C70.345 17.6651 70.945 18.2651 70.945 18.9951V68.2151C72.705 67.5451 74.535 67.0351 76.435 66.7251V19.0051C76.435 15.2551 73.375 12.2051 69.605 12.2051H49.005V9.95506H46.445V8.13506C46.445 3.74506 42.875 0.185059 38.465 0.185059C34.055 0.185059 30.485 3.75506 30.485 8.13506V9.95506H27.795V12.2051H7.19498C3.42498 12.2051 0.36499 15.2551 0.36499 19.0051V112.525C0.36499 116.275 3.42498 119.325 7.19498 119.325H66.095C63.675 117.835 61.485 115.985 59.605 113.855H59.615ZM38.465 3.83506C40.605 3.83506 42.335 5.55506 42.335 7.67506C42.335 9.79506 40.605 11.5251 38.465 11.5251C36.325 11.5251 34.605 9.80506 34.605 7.67506C34.605 5.54506 36.335 3.83506 38.465 3.83506Z" fill="#062529"/>
<path d="M63.3651 30.9551H15.2351C13.8551 30.9551 12.7251 32.0751 12.7251 33.4551C12.7251 34.8351 13.8451 35.9551 15.2351 35.9551H63.3651C64.7551 35.9551 65.8751 34.8351 65.8751 33.4551C65.8751 32.0751 64.7551 30.9551 63.3651 30.9551Z" fill="#062529"/>
<path d="M63.3651 47.1152H15.2351C13.8551 47.1152 12.7251 48.2352 12.7251 49.6152C12.7251 50.9952 13.8451 52.1152 15.2351 52.1152H63.3651C64.7551 52.1152 65.8751 50.9952 65.8751 49.6152C65.8751 48.2352 64.7551 47.1152 63.3651 47.1152Z" fill="#062529"/>
<path d="M65.8751 65.7651C65.8751 64.3851 64.7551 63.2651 63.3651 63.2651H15.2351C13.8551 63.2651 12.7251 64.3851 12.7251 65.7651C12.7251 67.1451 13.8451 68.2651 15.2351 68.2651H63.3651C64.7551 68.2651 65.8751 67.1451 65.8751 65.7651Z" fill="#062529"/>
<path d="M81.1949 70.605C67.6949 70.605 56.7549 81.505 56.7549 94.955C56.7549 108.405 67.6949 119.305 81.1949 119.305C94.6949 119.305 105.635 108.405 105.635 94.955C105.635 81.505 94.6949 70.605 81.1949 70.605ZM94.6449 84.415C92.5949 85.815 90.7349 87.445 89.0449 89.255C85.2949 93.285 82.6649 97.995 80.6949 103.065C80.0549 104.715 79.0449 105.725 77.4049 106.335C74.7949 107.305 74.6049 107.755 73.0549 104.735C71.3849 101.475 68.9349 98.825 66.2249 96.395C66.0149 96.205 65.7849 96.025 65.5849 95.815C65.0049 95.215 65.0949 94.625 65.8749 94.355C67.7049 93.725 69.5549 93.155 71.3949 92.575C72.0449 92.365 72.4749 92.735 72.8649 93.195C74.1449 94.695 75.1649 96.365 76.1149 98.155C77.0149 96.835 77.8249 95.555 78.7249 94.335C82.2949 89.495 86.8749 85.865 92.2349 83.165C92.9549 82.805 93.6949 82.735 94.4449 83.045C94.7549 83.175 95.1649 83.225 95.2349 83.645C95.3049 84.085 94.9149 84.225 94.6349 84.415H94.6449Z" fill="#062529"/>
</svg>
