<svg width="116" height="117" viewBox="0 0 116 117" fill="none" xmlns="http://www.w3.org/2000/svg">
<path d="M115.696 53.0642C115.504 51.1711 115.234 49.3004 114.862 47.4411C114.49 45.5818 114.028 43.7337 113.475 41.9194C112.923 40.1052 112.28 38.3135 111.559 36.5555C110.838 34.7976 110.026 33.0848 109.124 31.417C108.234 29.738 107.253 28.1153 106.205 26.5377C105.146 24.96 104.018 23.4388 102.812 21.9626C101.606 20.4976 100.333 19.089 98.9913 17.7481C97.65 16.4071 96.2411 15.1337 94.7758 13.928C93.3105 12.7222 91.7889 11.5954 90.2109 10.5361C88.6329 9.47685 87.0098 8.50773 85.3303 7.60624C83.6509 6.71601 81.9376 5.89341 80.1906 5.17221C78.4322 4.45101 76.6513 3.8087 74.8366 3.25654C73.0219 2.70437 71.1735 2.24234 69.3137 1.87047C67.4539 1.49861 65.5715 1.2169 63.6891 1.0366C61.7955 0.845032 59.902 0.754883 58.0084 0.754883C55.2469 0.754883 52.4966 0.957718 49.7576 1.35212C47.0187 1.74653 44.3248 2.33249 41.676 3.1213C39.0272 3.89884 36.4348 4.86796 33.9213 6.01736C31.4077 7.16677 28.9844 8.4852 26.6625 9.98394C24.3405 11.4827 22.1313 13.1279 20.0348 14.9422C17.9383 16.7564 15.9884 18.6947 14.1737 20.7906C12.359 22.8753 10.7021 25.084 9.20298 27.4054C7.70388 29.7267 6.37382 32.1495 5.22413 34.6624C5.11141 34.899 5.05509 35.1582 5.04381 35.4174C5.04381 35.6766 5.07761 35.9358 5.16778 36.1837C5.25796 36.4316 5.3932 36.657 5.57354 36.8485C5.75388 37.0401 5.96804 37.1979 6.20474 37.2993C6.44144 37.412 6.70073 37.4683 6.95997 37.4796C7.23049 37.4796 7.47845 37.4458 7.72643 37.3556C7.9744 37.2655 8.19979 37.1302 8.3914 36.9499C8.58302 36.7696 8.74086 36.5555 8.85357 36.3189C9.32697 35.2822 9.83416 34.2567 10.3752 33.2425C10.826 32.3974 11.3107 31.5748 11.8067 30.7522H29.841C29.0858 33.2876 28.4208 35.9696 27.8798 38.7529H31.9826C32.5236 36.0485 33.2112 33.389 34.0452 30.7522H55.9795V38.7529H59.9809V30.7522H81.9151C82.7379 33.3778 83.4255 36.0485 83.9778 38.7529H88.0806C87.5396 35.9696 86.8858 33.2989 86.1194 30.7522H104.142C104.672 31.6311 105.191 32.5101 105.664 33.4228C106.205 34.437 106.701 35.4625 107.174 36.4992C107.648 37.5472 108.087 38.5952 108.482 39.677C108.888 40.7475 109.26 41.8293 109.587 42.9224C109.925 44.0154 110.218 45.1198 110.488 46.2354C110.747 47.351 110.984 48.4666 111.176 49.5934C111.367 50.7203 111.525 51.8584 111.649 52.9966C111.773 54.1347 111.852 55.2729 111.908 56.4223C111.908 56.535 111.908 56.6364 111.908 56.749H107.963V60.7494H111.897C111.863 61.5946 111.83 62.4397 111.762 63.2849C111.672 64.423 111.537 65.5612 111.367 66.6993C111.198 67.8262 110.995 68.953 110.759 70.0799C110.522 71.1955 110.24 72.3111 109.936 73.4155C109.632 74.5198 109.282 75.6016 108.899 76.6834C108.516 77.7652 108.11 78.8244 107.659 79.8837C107.208 80.943 106.735 81.9797 106.216 82.9939C105.698 84.0193 105.157 85.0222 104.582 86.0139C104.39 86.3294 104.187 86.6449 103.985 86.9604V86.7576H86.1306C86.8858 84.2221 87.5508 81.5402 88.0919 78.7568H83.989C83.448 81.4613 82.7605 84.1207 81.9264 86.7576H59.9921V78.7568H55.9908V86.7576H34.0565C33.2337 84.132 32.5461 81.4613 31.9938 78.7568H27.8911C28.4321 81.5402 29.0858 84.2109 29.8523 86.7576H11.9983V86.983C11.6489 86.4083 11.2882 85.8448 10.95 85.2589C10.3865 84.256 9.85674 83.2418 9.3608 82.2163C8.86485 81.1796 8.39147 80.1429 7.96315 79.0836C7.53484 78.0244 7.14027 76.9538 6.76831 75.8608C6.40762 74.779 6.08076 73.6746 5.7877 72.5703C5.49464 71.466 5.2354 70.3504 5.00997 69.2235C4.78454 68.0966 4.60419 66.9698 4.44639 65.8429C4.29986 64.7048 4.18716 63.5666 4.10826 62.4285C4.07445 61.8763 4.06319 61.3129 4.05192 60.7607H7.99693V56.7603H4.05192C4.06319 56.3659 4.05195 55.9603 4.08577 55.5658C4.1534 54.4277 4.25479 53.2896 4.39005 52.1514C4.52531 51.0133 4.70569 49.8864 4.91984 48.7595C5.134 47.6327 5.38194 46.5171 5.66373 45.4127C5.73136 45.1536 5.75389 44.8944 5.72007 44.6239C5.68626 44.3535 5.59611 44.1056 5.46085 43.8802C5.32559 43.6435 5.1565 43.452 4.94234 43.2942C4.72818 43.1365 4.49148 43.0238 4.23223 42.9562C3.97299 42.8886 3.7138 42.8773 3.44329 42.9111C3.17277 42.9562 2.93603 43.0463 2.69933 43.1815C2.4739 43.3168 2.28228 43.4971 2.12448 43.7112C1.96668 43.9253 1.85399 44.1619 1.79763 44.4324C1.52711 45.5029 1.2904 46.5734 1.07624 47.6552C0.862083 48.737 0.693033 49.8188 0.535232 50.9119C0.388704 52.0049 0.26472 53.098 0.18582 54.1911C0.0956486 55.2841 0.0505353 56.3885 0.0167209 57.4815C-0.0170934 58.5746 0.00547147 59.6789 0.0392858 60.7832C0.0843716 61.8763 0.152003 62.9806 0.253446 64.0737C0.354889 65.1668 0.490119 66.2598 0.64792 67.3416C0.80572 68.4347 1.00863 69.5165 1.23406 70.587C1.45949 71.6576 1.71872 72.7281 2.00051 73.7986C2.28229 74.8579 2.59792 75.9171 2.94734 76.9538C3.29675 78.0018 3.66871 79.0273 4.07449 80.0527C4.48026 81.0782 4.90853 82.0811 5.37066 83.084C5.83279 84.0869 6.31752 85.0673 6.83601 86.0364C7.35449 87.0055 7.89547 87.9634 8.47031 88.8987C9.04515 89.834 9.64257 90.758 10.2625 91.6708C10.8824 92.5723 11.5362 93.4625 12.2124 94.3302C12.8887 95.1979 13.5875 96.043 14.3089 96.8769C15.0303 97.7108 15.7743 98.5109 16.552 99.2997C17.3185 100.088 18.1074 100.855 18.9303 101.587C19.7418 102.331 20.5759 103.052 21.4325 103.74C22.2891 104.438 23.157 105.103 24.0475 105.745C24.9379 106.388 25.8509 107.007 26.7751 107.605C27.6994 108.202 28.6462 108.765 29.6043 109.306C30.5624 109.847 31.5317 110.354 32.5236 110.839C33.5155 111.323 34.5187 111.774 35.5331 112.202C36.5475 112.631 37.5732 113.025 38.6102 113.397C39.6471 113.769 40.6954 114.107 41.7437 114.411C42.8032 114.727 43.8627 114.997 44.9335 115.245C46.0043 115.493 47.0863 115.707 48.1684 115.898C49.2505 116.09 50.3438 116.248 51.4371 116.372C52.5304 116.496 53.6238 116.597 54.7284 116.653C55.8217 116.71 56.9263 116.755 58.0309 116.755C59.9358 116.755 61.8294 116.665 63.7117 116.473C65.6053 116.282 67.4764 116.011 69.3362 115.639C71.1959 115.267 73.0332 114.805 74.8592 114.253C76.6739 113.701 78.4661 113.059 80.2131 112.338C81.9715 111.605 83.6847 110.794 85.3529 109.904C87.0324 109.013 88.6555 108.033 90.2335 106.974C91.8115 105.914 93.3331 104.788 94.7984 103.582C96.2637 102.376 97.6726 101.103 99.0139 99.7617C100.355 98.4207 101.629 97.0121 102.835 95.5472C104.041 94.0823 105.168 92.561 106.228 90.9721C107.287 89.3945 108.256 87.7718 109.147 86.0928C110.037 84.4137 110.849 82.7009 111.582 80.9542C112.314 79.1963 112.945 77.4158 113.498 75.5903C114.05 73.7761 114.512 71.9393 114.884 70.0687C115.256 68.2093 115.527 66.3274 115.718 64.4456C115.91 62.5524 116 60.6593 116 58.7662C116 56.873 115.91 54.9686 115.718 53.0867L115.696 53.0642ZM14.5006 26.7518C15.0191 26.0531 15.5375 25.3545 16.0785 24.6783C16.7999 23.7881 17.5551 22.9204 18.3216 22.0865C19.0993 21.2414 19.8996 20.43 20.7337 19.6412C21.5565 18.8524 22.4131 18.0861 23.2923 17.3537C24.1715 16.6212 25.0732 15.9113 25.9975 15.2352C26.9217 14.559 27.8685 13.9054 28.8266 13.2969C29.7846 12.6772 30.7766 12.0912 31.7685 11.539C32.7716 10.9869 33.786 10.4572 34.823 9.97267C35.8599 9.48812 36.9082 9.0261 37.9678 8.59789C39.0273 8.16968 40.1093 7.78655 41.1914 7.42595C42.0255 7.1555 42.8708 6.91885 43.7162 6.69348C43.7049 6.70474 43.6824 6.71602 43.6711 6.73856C37.81 12.3616 33.6395 19.0327 31.171 26.7743H14.5006V26.7518ZM35.4542 26.7518C40.1769 14.39 47.571 6.03989 55.9908 4.91302V26.7518H35.4542ZM59.9921 26.7518V4.91302C68.4119 6.02862 75.806 14.39 80.5287 26.7518H59.9921ZM72.2893 6.69348C72.2893 6.69348 72.278 6.68222 72.2668 6.67095C73.1685 6.91886 74.0702 7.17803 74.9606 7.47102C76.0427 7.83162 77.1248 8.22603 78.1843 8.65424C79.2438 9.08245 80.292 9.54446 81.329 10.0403C82.366 10.5361 83.3804 11.0657 84.3723 11.6179C85.3755 12.1813 86.3561 12.7673 87.3141 13.3871C88.2722 14.0069 89.219 14.6605 90.132 15.3478C91.045 16.0352 91.9467 16.7339 92.8259 17.4776C93.7051 18.2101 94.5504 18.9764 95.3733 19.7764C96.1961 20.5652 96.9963 21.3879 97.7741 22.233C98.5518 23.0782 99.2957 23.9459 100.017 24.8361C100.524 25.4559 100.986 26.1095 101.46 26.7518H84.8006C82.3322 19.0102 78.1505 12.3166 72.2781 6.69348H72.2893ZM80.5287 90.7355C75.806 103.097 68.4119 111.447 59.9921 112.574V90.7355H80.5287ZM55.9908 90.7355V112.574C47.571 111.459 40.1656 103.097 35.4542 90.7355H55.9908ZM39.0723 109.295C38.0015 108.889 36.942 108.461 35.8938 107.988C34.8455 107.515 33.8198 107.019 32.8054 106.489C31.791 105.959 30.7991 105.396 29.8184 104.799C28.8378 104.202 27.8798 103.571 26.9442 102.917C26.0087 102.263 25.0957 101.576 24.2053 100.855C23.3148 100.134 22.4469 99.3898 21.5903 98.6235C20.7449 97.8573 19.9221 97.0572 19.1331 96.2346C18.3329 95.412 17.5664 94.5668 16.8225 93.6879C16.0786 92.8202 15.3685 91.9187 14.6809 91.0059C14.6133 90.927 14.5682 90.8369 14.5006 90.7467H31.1598C33.6282 98.4771 37.7874 105.137 43.6373 110.76C43.1977 110.636 42.7468 110.535 42.3185 110.399C41.2252 110.073 40.1431 109.701 39.0611 109.295H39.0723ZM98.563 94.3414C97.8078 95.1979 97.0302 96.0317 96.2186 96.8431C95.4071 97.6544 94.5729 98.4433 93.7163 99.1983C92.8597 99.9533 91.9805 100.686 91.0676 101.384C90.1658 102.083 89.2415 102.759 88.2947 103.401C87.3479 104.044 86.3786 104.652 85.398 105.238C84.4174 105.813 83.4029 106.365 82.3885 106.884C81.3628 107.402 80.3258 107.886 79.2776 108.337C78.2293 108.788 77.1586 109.205 76.0765 109.588C74.9945 109.971 73.9124 110.32 72.8078 110.636C72.65 110.681 72.4809 110.715 72.3231 110.76C78.173 105.148 82.3435 98.4658 84.8119 90.7355H101.437C101.201 91.051 100.986 91.3778 100.75 91.682C100.051 92.5948 99.3182 93.4738 98.5743 94.3302L98.563 94.3414Z" fill="#062529"/>
<path d="M11.3526 73.1932C11.6457 73.6328 11.9725 74.0386 12.3444 74.4105C12.7164 74.7824 13.1222 75.1093 13.5618 75.4024C14.0014 75.6954 14.4635 75.9434 14.9482 76.1463C15.4328 76.3491 15.9288 76.4956 16.4473 76.5971C16.9658 76.6985 17.4843 76.7549 18.0028 76.7549H97.9972C98.527 76.7549 99.0455 76.6985 99.5527 76.5971C100.071 76.4956 100.567 76.3379 101.052 76.1463C101.536 75.9434 101.999 75.6954 102.438 75.4024C102.878 75.1093 103.284 74.7824 103.655 74.4105C104.027 74.0386 104.354 73.6328 104.647 73.1932C104.94 72.7536 105.188 72.2915 105.391 71.8069C105.594 71.3222 105.741 70.8263 105.842 70.3078C105.944 69.7893 106 69.2709 106 68.7524V48.7574C106 48.2276 105.944 47.7092 105.842 47.202C105.741 46.6835 105.583 46.1876 105.391 45.7029C105.188 45.2183 104.94 44.7561 104.647 44.3165C104.354 43.877 104.027 43.4712 103.655 43.0993C103.284 42.7273 102.878 42.4005 102.438 42.1074C101.999 41.8144 101.536 41.5664 101.052 41.3635C100.567 41.1606 100.071 41.0141 99.5527 40.9127C99.0342 40.8112 98.5157 40.7549 97.9972 40.7549H18.0028C17.473 40.7549 16.9545 40.8112 16.4473 40.9127C15.9288 41.0141 15.4328 41.1719 14.9482 41.3635C14.4635 41.5664 14.0014 41.8144 13.5618 42.1074C13.1222 42.4005 12.7164 42.7273 12.3444 43.0993C11.9725 43.4712 11.6457 43.877 11.3526 44.3165C11.0595 44.7561 10.8115 45.2183 10.6086 45.7029C10.4058 46.1876 10.2592 46.6835 10.1577 47.202C10.0563 47.7204 10 48.2389 10 48.7574V68.7524C10 69.2821 10.0563 69.8006 10.1577 70.3078C10.2592 70.8263 10.417 71.3222 10.6086 71.8069C10.8115 72.2915 11.0595 72.7536 11.3526 73.1932ZM14.0014 48.7461C14.0014 48.2164 14.1029 47.7092 14.3058 47.2132C14.5086 46.7286 14.8017 46.289 15.1736 45.917C15.5456 45.5451 15.9852 45.2521 16.4699 45.0492C16.9546 44.8463 17.473 44.7449 18.0028 44.7449H97.9972C98.527 44.7449 99.0342 44.8463 99.5301 45.0492C100.015 45.2521 100.454 45.5451 100.826 45.917C101.198 46.289 101.491 46.7286 101.694 47.2132C101.897 47.6979 101.999 48.2164 101.999 48.7461V68.7411C101.999 69.2708 101.897 69.778 101.694 70.274C101.491 70.7586 101.198 71.1982 100.826 71.5702C100.454 71.9421 100.015 72.2352 99.5301 72.4381C99.0454 72.6409 98.527 72.7424 97.9972 72.7424H18.0028C17.473 72.7424 16.9658 72.6409 16.4699 72.4381C15.9852 72.2352 15.5456 71.9421 15.1736 71.5702C14.8017 71.1982 14.5086 70.7586 14.3058 70.274C14.1029 69.7893 14.0014 69.2708 14.0014 68.7411V48.7461Z" fill="#062529"/>
<path d="M23.2353 67.1508C23.3948 67.6218 23.6797 68.0142 24.0899 68.3058C24.5002 68.5973 24.9674 68.7543 25.4688 68.7543C25.9703 68.7543 26.4375 68.6085 26.8477 68.3282C27.2694 68.0479 27.5657 67.6779 27.7594 67.2181L30.973 58.3151L34.1866 67.2181C34.3575 67.6891 34.6538 68.0591 35.064 68.3394C35.4743 68.6197 35.9301 68.7655 36.4429 68.7543H36.4771C36.9899 68.7543 37.4457 68.5973 37.856 68.3058C38.2662 68.0142 38.5511 67.6218 38.7107 67.1508L43.8615 51.464C43.9641 51.2061 44.0097 50.9482 43.9983 50.6679C43.9983 50.3988 43.9185 50.1297 43.8046 49.883C43.6906 49.6363 43.5196 49.4233 43.3145 49.2438C43.1094 49.0644 42.8701 48.9299 42.608 48.8514C42.3459 48.7729 42.0724 48.7393 41.7989 48.7617C41.5254 48.7841 41.2633 48.8626 41.0126 48.9972C40.7619 49.1317 40.5568 49.2999 40.3859 49.513C40.2149 49.726 40.0896 49.9727 40.0212 50.2306L36.3631 61.365L33.2179 52.6638C33.047 52.2041 32.7507 51.8228 32.3291 51.5425C31.9188 51.2622 31.463 51.1164 30.9616 51.1164C30.4602 51.1164 30.0043 51.2622 29.5941 51.5425C29.1838 51.8228 28.8876 52.1928 28.7053 52.6638L25.5714 61.365L21.9134 50.2306C21.8222 49.9951 21.6855 49.7821 21.5146 49.5915C21.3436 49.4008 21.1385 49.2551 20.8991 49.1429C20.6712 49.0308 20.4206 48.9747 20.1585 48.9523C19.8964 48.9411 19.6456 48.9635 19.4063 49.042C19.167 49.1205 18.9391 49.2438 18.734 49.4008C18.5403 49.5578 18.3693 49.7597 18.2553 49.9727C18.13 50.197 18.0503 50.4324 18.0161 50.6903C17.9819 50.937 18.0046 51.1949 18.0616 51.4416L23.2125 67.1284L23.2353 67.1508Z" fill="#062529"/>
<path d="M50.277 67.1508C50.4362 67.6218 50.7205 68.0142 51.13 68.3057C51.5394 68.5972 51.9943 68.7542 52.5061 68.7542C53.0179 68.7654 53.4841 68.6421 53.9049 68.3505C54.3257 68.059 54.6214 67.689 54.792 67.2181L57.9991 58.3157L61.2063 67.2181C61.3768 67.689 61.6726 68.059 62.082 68.3393C62.4914 68.6196 62.9463 68.7654 63.4581 68.7542H63.4922C64.004 68.7542 64.4589 68.5972 64.8683 68.3057C65.2778 68.0142 65.5621 67.6218 65.7213 67.1508L70.8618 51.4651C70.9641 51.2072 71.0097 50.9493 70.9983 50.669C70.9983 50.3999 70.9186 50.1308 70.8049 49.8842C70.6912 49.6375 70.5206 49.4245 70.3159 49.2451C70.1112 49.0657 69.8724 48.9312 69.6108 48.8527C69.3492 48.7742 69.0762 48.7405 68.8033 48.763C68.5303 48.7854 68.2688 48.8639 68.0299 48.9984C67.7911 49.133 67.575 49.3012 67.4044 49.5142C67.2339 49.7272 67.1087 49.9739 67.0405 50.2318L63.3899 61.3654L60.251 52.6648C60.0804 52.2051 59.7847 51.8239 59.3639 51.5436C58.9544 51.2633 58.4995 51.1175 57.9991 51.1175C57.4987 51.1175 57.0439 51.2633 56.6344 51.5436C56.225 51.8239 55.9293 52.1939 55.7473 52.6648L52.6198 61.3654L48.9691 50.2318C48.9009 49.9627 48.7758 49.7272 48.6052 49.5142C48.4346 49.3012 48.2299 49.1218 47.9797 48.9984C47.7295 48.8751 47.4793 48.7854 47.1949 48.763C46.922 48.7405 46.6491 48.763 46.3875 48.8527C46.1259 48.9312 45.8871 49.0657 45.6824 49.2451C45.4777 49.4245 45.3071 49.6375 45.1934 49.8842C45.0683 50.1308 45.0114 50.3887 45 50.669C45 50.9381 45.0341 51.2072 45.1365 51.4651L50.277 67.1508Z" fill="#062529"/>
<path d="M77.2951 67.1524C77.4542 67.623 77.7496 68.0041 78.1587 68.3066C78.5677 68.598 79.0222 68.7549 79.5336 68.7549C80.0449 68.7549 80.4994 68.6204 80.9199 68.3403C81.3403 68.0601 81.6357 67.6791 81.8175 67.2084L85.0219 58.3107L88.2262 67.2084C88.3967 67.6791 88.6921 68.0489 89.1012 68.329C89.5102 68.6092 89.9761 68.7549 90.476 68.7437H90.5102C91.0215 68.7437 91.476 68.598 91.8851 68.2954C92.2942 68.0041 92.5782 67.6118 92.7373 67.1412L97.8619 51.4637C97.9642 51.2059 98.0097 50.9482 97.9983 50.668C97.9983 50.3991 97.9188 50.1301 97.8051 49.8836C97.6915 49.6371 97.5211 49.4241 97.3165 49.2448C97.112 49.0655 96.8734 48.931 96.6121 48.8526C96.3507 48.7742 96.078 48.7406 95.8053 48.763C95.5325 48.7854 95.2712 48.8638 95.0212 48.9983C94.7826 49.1328 94.5667 49.3009 94.3963 49.5138C94.2258 49.7267 94.1008 49.9732 94.0326 50.231L90.3852 61.3588L87.249 52.6627C87.0786 52.2033 86.7831 51.8223 86.3627 51.5421C85.9536 51.262 85.4991 51.1163 84.9991 51.1163C84.4991 51.1163 84.0447 51.262 83.6356 51.5421C83.2266 51.8223 82.9311 52.1921 82.7493 52.6627L79.6131 61.3588L75.9656 50.231C75.8975 49.962 75.7725 49.7267 75.602 49.5138C75.4316 49.3009 75.2271 49.1216 74.9771 48.9983C74.7385 48.8638 74.4771 48.7854 74.193 48.763C73.9203 48.7406 73.6476 48.763 73.3862 48.8526C73.1249 48.9423 72.8863 49.0655 72.6817 49.2448C72.4772 49.4241 72.3068 49.6371 72.1932 49.8836C72.0682 50.1301 72.0114 50.3879 72 50.668C72 50.937 72.0341 51.2059 72.1363 51.4637L77.2723 67.1412L77.2951 67.1524Z" fill="#062529"/>
</svg>
