<svg width="111" height="28" viewBox="0 0 111 28" fill="none" xmlns="http://www.w3.org/2000/svg">
<g clip-path="url(#clip0_8_57)">
<path d="M4.92 21.9502C4.51 21.9502 4.06 21.8602 3.56 21.6902C3.06 21.5202 2.63 21.1702 2.27 20.6602C1.91 20.1502 1.73 19.4002 1.73 18.4202V8.7202H0.58C0.19 8.7202 0 8.43019 0 7.85019V7.5002C0 6.9202 0.19 6.6302 0.58 6.6302H1.74L2.09 3.5902C2.15 3.1702 2.45 2.9502 2.99 2.9502H3.22C3.61 2.9502 3.87 3.0002 4.02 3.1102C4.16 3.2202 4.24 3.3802 4.24 3.5902V6.6302H6.18C6.57 6.6302 6.76 6.9202 6.76 7.5002V7.85019C6.76 8.43019 6.57 8.7202 6.18 8.7202H4.24V18.1302C4.24 18.8102 4.31 19.2602 4.46 19.5102C4.61 19.7502 4.89 19.8702 5.31 19.8702C5.66 19.8702 5.91 19.8502 6.08 19.8002C6.25 19.7502 6.37 19.7302 6.47 19.7302C6.6 19.7302 6.71 19.8302 6.77 20.0202C6.84 20.2102 6.88 20.4202 6.9 20.6402C6.92 20.8602 6.93 21.0202 6.93 21.1202C6.93 21.3102 6.81 21.4702 6.58 21.6002C6.35 21.7302 6.08 21.8202 5.77 21.8702C5.46 21.9302 5.18 21.9602 4.93 21.9602L4.92 21.9502Z" fill="#253439"/>
<path d="M10.92 21.83C10.5 21.83 10.2 21.77 10.04 21.66C9.88004 21.55 9.79004 21.39 9.79004 21.2V0.64C9.79004 0.22 10.16 0 10.89 0H11.18C11.91 0 12.28 0.21 12.28 0.64V8.4C12.67 7.86 13.18 7.4 13.82 7.02C14.46 6.64 15.16 6.46 15.93 6.46C16.61 6.46 17.23 6.6 17.81 6.87C18.39 7.14 18.86 7.57 19.21 8.14C19.57 8.72 19.75 9.48 19.75 10.43V21.2C19.75 21.39 19.67 21.55 19.5 21.66C19.33 21.77 19.04 21.83 18.62 21.83H18.39C17.97 21.83 17.67 21.77 17.51 21.66C17.35 21.54 17.26 21.39 17.26 21.2V10.92C17.26 10.19 17.08 9.61 16.72 9.2C16.36 8.78 15.82 8.58 15.08 8.58C14.58 8.58 14.12 8.7 13.72 8.94C13.31 9.18 12.99 9.46 12.75 9.78C12.51 10.1 12.35 10.37 12.27 10.61V21.21C12.27 21.4 12.19 21.56 12.02 21.67C11.85 21.78 11.56 21.84 11.14 21.84H10.91L10.92 21.83Z" fill="#253439"/>
<path d="M28.87 21.95C26.94 21.95 25.48 21.32 24.5 20.07C23.52 18.82 23.02 16.89 23.02 14.31C23.02 11.73 23.5 9.78996 24.47 8.45996C25.43 7.12996 26.85 6.45996 28.73 6.45996C30.41 6.45996 31.67 7.10996 32.52 8.39996C33.37 9.68996 33.79 11.58 33.79 14.05C33.79 14.82 33.45 15.21 32.78 15.21H25.57C25.63 16.81 25.93 17.99 26.47 18.74C27.01 19.49 27.87 19.87 29.05 19.87C29.73 19.87 30.32 19.77 30.85 19.58C31.37 19.39 31.8 19.2 32.14 19.02C32.48 18.84 32.69 18.75 32.79 18.75C32.98 18.75 33.14 18.92 33.27 19.26C33.4 19.6 33.46 19.88 33.46 20.11C33.46 20.28 33.26 20.52 32.85 20.82C32.44 21.12 31.9 21.38 31.21 21.62C30.52 21.85 29.75 21.97 28.88 21.97L28.87 21.95ZM25.6 13.12H31.33C31.33 10.07 30.43 8.53996 28.64 8.53996C26.67 8.53996 25.66 10.07 25.6 13.12Z" fill="#253439"/>
<path d="M36.2001 15.1198C35.8101 15.1198 35.6201 14.8298 35.6201 14.2498V13.9598C35.6201 13.3798 35.8101 13.0898 36.2001 13.0898H40.8301C41.2201 13.0898 41.4101 13.3798 41.4101 13.9598V14.2498C41.4101 14.8298 41.2201 15.1198 40.8301 15.1198H36.2001Z" fill="#253439"/>
<path d="M45.3199 27.8C44.5899 27.8 44.2199 27.59 44.2199 27.16V10.98C44.2199 9.77996 44.1699 8.90996 44.0799 8.35996C43.9799 7.80996 43.9299 7.43996 43.9299 7.23996C43.9299 7.02996 44.1299 6.87996 44.5399 6.78996C44.9499 6.69996 45.2999 6.65996 45.6099 6.65996C45.8599 6.65996 46.0399 6.78996 46.1499 7.03996C46.2599 7.28996 46.3799 7.74996 46.5099 8.39996C46.9699 7.71996 47.5099 7.22996 48.1199 6.91996C48.7299 6.60996 49.3599 6.45996 50.0199 6.45996C50.9699 6.45996 51.7799 6.77996 52.4499 7.42996C53.1299 8.07996 53.6499 8.96996 54.0299 10.12C54.4099 11.27 54.5899 12.6 54.5899 14.1C54.5899 16.61 54.1499 18.54 53.2599 19.91C52.3699 21.27 51.2099 21.95 49.7799 21.95C49.0699 21.95 48.4699 21.81 47.9999 21.53C47.5299 21.25 47.0999 20.9 46.7099 20.47V27.16C46.7099 27.58 46.3499 27.8 45.6399 27.8H45.3199ZM49.1399 19.81C50.1199 19.81 50.8499 19.32 51.3299 18.33C51.7999 17.35 52.0399 15.93 52.0399 14.07C52.0399 12.33 51.8199 10.98 51.3899 10.02C50.9599 9.05996 50.2899 8.56996 49.4099 8.56996C48.4099 8.56996 47.5099 9.23996 46.7199 10.57V18.5C47.3999 19.37 48.2099 19.8 49.1499 19.8L49.1399 19.81Z" fill="#253439"/>
<path d="M61.1299 21.95C60.7199 21.95 60.2799 21.86 59.7799 21.69C59.2799 21.52 58.8599 21.17 58.4899 20.66C58.1199 20.15 57.9399 19.4 57.9399 18.42V0.64C57.9399 0.43 58.0199 0.27 58.1899 0.16C58.3499 0.05 58.6499 0 59.0699 0H59.2999C59.7199 0 60.0199 0.05 60.1799 0.16C60.3399 0.27 60.4299 0.43 60.4299 0.64V18.13C60.4299 18.81 60.4999 19.26 60.6499 19.51C60.7899 19.75 61.0799 19.87 61.4999 19.87C61.8499 19.87 62.0999 19.85 62.2699 19.8C62.4399 19.75 62.5599 19.73 62.6599 19.73C62.7999 19.73 62.8999 19.83 62.9599 20.02C63.0299 20.21 63.0699 20.42 63.0899 20.64C63.1099 20.86 63.1199 21.02 63.1199 21.12C63.1199 21.31 62.9999 21.47 62.7699 21.6C62.5399 21.73 62.2699 21.82 61.9599 21.87C61.6499 21.93 61.3699 21.96 61.1199 21.96L61.1299 21.95Z" fill="#253439"/>
<path d="M70.6601 21.95C68.7301 21.95 67.2701 21.32 66.2901 20.07C65.3101 18.82 64.8101 16.89 64.8101 14.31C64.8101 11.73 65.2901 9.78996 66.2601 8.45996C67.2301 7.12996 68.6401 6.45996 70.5201 6.45996C72.2001 6.45996 73.4601 7.10996 74.3101 8.39996C75.1601 9.68996 75.5801 11.58 75.5801 14.05C75.5801 14.82 75.2401 15.21 74.5701 15.21H67.3601C67.4201 16.81 67.7201 17.99 68.2601 18.74C68.8001 19.49 69.6601 19.87 70.8401 19.87C71.5101 19.87 72.1101 19.77 72.6301 19.58C73.1501 19.39 73.5801 19.2 73.9201 19.02C74.2601 18.84 74.4701 18.75 74.5701 18.75C74.7601 18.75 74.9201 18.92 75.0501 19.26C75.1701 19.6 75.2401 19.88 75.2401 20.11C75.2401 20.28 75.0401 20.52 74.6301 20.82C74.2201 21.12 73.6801 21.38 72.9901 21.62C72.3001 21.85 71.5301 21.97 70.6601 21.97V21.95ZM67.3901 13.12H73.1201C73.1201 10.07 72.2201 8.53996 70.4301 8.53996C68.4601 8.53996 67.4501 10.07 67.3901 13.12Z" fill="#253439"/>
<path d="M79.89 21.8302C79.47 21.8302 79.17 21.7702 79.01 21.6602C78.85 21.5502 78.76 21.3902 78.76 21.2002V10.9802C78.76 9.78019 78.71 8.9102 78.62 8.3602C78.52 7.8102 78.47 7.4402 78.47 7.2402C78.47 7.0302 78.67 6.8802 79.08 6.7902C79.49 6.7002 79.84 6.6602 80.15 6.6602C80.42 6.6602 80.61 6.8102 80.72 7.0902C80.83 7.3802 80.95 7.8902 81.08 8.6202C81.56 7.9402 82.13 7.4102 82.77 7.0302C83.42 6.6402 84.13 6.4502 84.9 6.4502C85.58 6.4502 86.2 6.5902 86.78 6.8602C87.36 7.1302 87.83 7.5602 88.18 8.1302C88.53 8.7002 88.72 9.4702 88.72 10.4202V21.1902C88.72 21.3802 88.64 21.5402 88.47 21.6502C88.3 21.7702 88.01 21.8202 87.59 21.8202H87.36C86.94 21.8202 86.64 21.7602 86.48 21.6502C86.31 21.5302 86.23 21.3802 86.23 21.1902V10.9102C86.23 10.1802 86.05 9.6002 85.69 9.1902C85.33 8.7702 84.79 8.5702 84.05 8.5702C83.55 8.5702 83.09 8.6902 82.69 8.9302C82.28 9.1702 81.96 9.4502 81.72 9.7702C81.48 10.0902 81.32 10.3602 81.24 10.6002V21.2002C81.24 21.3902 81.16 21.5502 80.99 21.6602C80.82 21.7702 80.53 21.8302 80.11 21.8302H79.88H79.89Z" fill="#253439"/>
<path d="M96.2801 21.9502C95.8701 21.9502 95.4201 21.8602 94.9201 21.6902C94.4201 21.5202 93.9901 21.1702 93.6301 20.6602C93.2701 20.1502 93.0901 19.4002 93.0901 18.4202V8.7202H91.9301C91.5401 8.7202 91.3501 8.43019 91.3501 7.85019V7.5002C91.3501 6.9202 91.5401 6.6302 91.9301 6.6302H93.0901L93.4401 3.5902C93.5001 3.1702 93.8001 2.9502 94.3401 2.9502H94.5701C94.9601 2.9502 95.2201 3.0002 95.3701 3.1102C95.5201 3.2202 95.5901 3.3802 95.5901 3.5902V6.6302H97.5301C97.9201 6.6302 98.1101 6.9202 98.1101 7.5002V7.85019C98.1101 8.43019 97.9201 8.7202 97.5301 8.7202H95.5901V18.1302C95.5901 18.8102 95.6601 19.2602 95.8101 19.5102C95.9501 19.7502 96.2401 19.8702 96.6601 19.8702C97.0101 19.8702 97.2601 19.8502 97.4301 19.8002C97.5901 19.7502 97.7201 19.7302 97.8201 19.7302C97.9501 19.7302 98.0601 19.8302 98.1201 20.0202C98.1901 20.2102 98.2301 20.4202 98.2501 20.6402C98.2701 20.8602 98.2801 21.0202 98.2801 21.1202C98.2801 21.3102 98.1601 21.4702 97.9301 21.6002C97.7001 21.7302 97.4301 21.8202 97.1201 21.8702C96.8101 21.9202 96.5301 21.9602 96.2801 21.9602V21.9502Z" fill="#253439"/>
<path d="M103.44 27.7998C102.74 27.7998 102.4 27.6398 102.4 27.3098C102.4 27.2498 102.4 27.1798 102.43 27.0898C102.45 26.9998 102.47 26.9398 102.49 26.8998L104.11 21.8298L99.79 7.46982C99.77 7.38982 99.76 7.31982 99.75 7.24982C99.75 7.17982 99.74 7.11982 99.74 7.05982C99.74 6.72982 100.12 6.56982 100.87 6.56982H101.25C101.52 6.56982 101.75 6.59982 101.95 6.66982C102.14 6.73982 102.26 6.85982 102.3 7.02982L105.17 18.3498H105.29L107.87 7.02982C107.91 6.85982 108.03 6.73982 108.23 6.66982C108.43 6.59982 108.67 6.56982 108.94 6.56982H109.29C109.99 6.56982 110.33 6.72982 110.33 7.05982V7.22982C110.33 7.28982 110.31 7.36982 110.27 7.45982L104.88 27.3298C104.84 27.4998 104.72 27.6198 104.52 27.6898C104.32 27.7598 104.08 27.7898 103.81 27.7898H103.46L103.44 27.7998Z" fill="#253439"/>
</g>
<defs>
<clipPath id="clip0_8_57">
<rect width="110.3" height="27.8" fill="white"/>
</clipPath>
</defs>
</svg>
