<svg width="99" height="26" viewBox="0 0 99 26" fill="none" xmlns="http://www.w3.org/2000/svg">
<g clip-path="url(#clip0_6_12)">
<path d="M30.6049 13.8206C30.2484 13.8206 30.0747 13.5556 30.0747 13.0254V12.7603C30.0747 12.2302 30.2484 11.9651 30.6049 11.9651H34.837C35.1935 11.9651 35.3671 12.2302 35.3671 12.7603V13.0254C35.3671 13.5556 35.1935 13.8206 34.837 13.8206H30.6049Z" fill="#EDF0F2"/>
<path d="M38.9411 25.4109C38.2738 25.4109 37.9356 25.219 37.9356 24.8259V10.0364C37.9356 8.93953 37.8899 8.1443 37.8076 7.64156C37.7162 7.13883 37.6705 6.80063 37.6705 6.61781C37.6705 6.42586 37.8533 6.28875 38.2281 6.20649C38.6029 6.12422 38.9228 6.08766 39.2062 6.08766C39.4347 6.08766 39.5992 6.20649 39.6998 6.435C39.8003 6.66352 39.91 7.08399 40.0288 7.67813C40.4493 7.05656 40.9429 6.60867 41.5005 6.32531C42.058 6.04196 42.6339 5.90485 43.2372 5.90485C44.1055 5.90485 44.8459 6.19735 45.4583 6.79149C46.0799 7.38563 46.5552 8.19914 46.9026 9.25031C47.2499 10.3015 47.4144 11.5172 47.4144 12.8883C47.4144 15.1826 47.0122 16.9467 46.1987 18.199C45.3852 19.4421 44.3249 20.0637 43.0178 20.0637C42.3688 20.0637 41.8204 19.9357 41.3908 19.6798C40.9612 19.4238 40.5681 19.1039 40.2116 18.7109V24.8259C40.2116 25.2098 39.8826 25.4109 39.2336 25.4109H38.9411ZM42.4328 18.1076C43.3286 18.1076 43.9958 17.6597 44.4346 16.7548C44.8642 15.859 45.0836 14.561 45.0836 12.8609C45.0836 11.2704 44.8825 10.0364 44.4894 9.15891C44.0964 8.28141 43.484 7.83352 42.6796 7.83352C41.7655 7.83352 40.9429 8.44594 40.2208 9.66164V16.9102C40.8423 17.7054 41.5827 18.0984 42.4419 18.0984L42.4328 18.1076Z" fill="#EDF0F2"/>
<path d="M53.3925 20.0637C53.0177 20.0637 52.6155 19.9814 52.1585 19.826C51.7015 19.6706 51.3176 19.3507 50.9794 18.8845C50.6412 18.4184 50.4766 17.7328 50.4766 16.837V0.585C50.4766 0.393047 50.5497 0.246797 50.7051 0.14625C50.8514 0.0457031 51.1256 0 51.5095 0H51.7197C52.1037 0 52.3779 0.0457031 52.5241 0.14625C52.6704 0.246797 52.7526 0.393047 52.7526 0.585V16.572C52.7526 17.1935 52.8166 17.6048 52.9537 17.8334C53.0817 18.0527 53.3468 18.1624 53.7307 18.1624C54.0506 18.1624 54.2791 18.1441 54.4345 18.0984C54.5899 18.0527 54.6996 18.0345 54.791 18.0345C54.919 18.0345 55.0104 18.1259 55.0652 18.2995C55.1292 18.4732 55.1658 18.6652 55.184 18.8663C55.2023 19.0673 55.2115 19.2136 55.2115 19.305C55.2115 19.4787 55.1018 19.6249 54.8915 19.7438C54.6813 19.8626 54.4345 19.9448 54.1512 19.9905C53.8678 20.0454 53.6119 20.0728 53.3833 20.0728L53.3925 20.0637Z" fill="#EDF0F2"/>
<path d="M62.1032 20.0637C60.3391 20.0637 59.0045 19.4878 58.1087 18.3452C57.213 17.2027 56.7559 15.4385 56.7559 13.0802C56.7559 10.722 57.1947 8.94867 58.0813 7.73297C58.968 6.51727 60.2568 5.90485 61.9752 5.90485C63.5108 5.90485 64.6626 6.49899 65.4395 7.67813C66.2165 8.85727 66.6004 10.5848 66.6004 12.8426C66.6004 13.5464 66.2896 13.9029 65.6772 13.9029H59.0868C59.1416 15.3654 59.4158 16.444 59.9094 17.1295C60.403 17.8151 61.1891 18.1624 62.2677 18.1624C62.8801 18.1624 63.4286 18.071 63.9039 17.8973C64.3792 17.7237 64.7722 17.55 65.083 17.3855C65.3938 17.2209 65.5858 17.1387 65.6772 17.1387C65.8508 17.1387 65.9971 17.2941 66.1159 17.6048C66.2256 17.9156 66.2896 18.1716 66.2896 18.3818C66.2896 18.5372 66.1068 18.7566 65.732 19.0308C65.3572 19.305 64.8637 19.5427 64.233 19.762C63.6022 19.9723 62.8984 20.082 62.1032 20.082V20.0637ZM59.1142 11.9925H64.3518C64.3518 9.20461 63.5291 7.8061 61.893 7.8061C60.0923 7.8061 59.169 9.20461 59.1142 11.9925Z" fill="#EDF0F2"/>
<path d="M70.5402 19.954C70.1562 19.954 69.882 19.8992 69.7358 19.7986C69.5895 19.6981 69.5073 19.5518 69.5073 19.3781V10.0364C69.5073 8.93955 69.4616 8.14432 69.3793 7.64158C69.2879 7.13885 69.2422 6.80064 69.2422 6.61783C69.2422 6.42588 69.425 6.28877 69.7998 6.2065C70.1745 6.12424 70.4945 6.08767 70.7778 6.08767C71.0246 6.08767 71.1983 6.22478 71.2988 6.48072C71.3994 6.7458 71.5091 7.21197 71.6279 7.87924C72.0666 7.25767 72.5877 6.77322 73.1727 6.42588C73.7668 6.06939 74.4158 5.89572 75.1196 5.89572C75.7412 5.89572 76.3079 6.02369 76.838 6.27049C77.3682 6.51728 77.7978 6.91033 78.1177 7.43135C78.4377 7.95236 78.6113 8.65619 78.6113 9.52455V19.369C78.6113 19.5427 78.5382 19.6889 78.3828 19.7895C78.2274 19.8992 77.9623 19.9449 77.5784 19.9449H77.3682C76.9843 19.9449 76.7101 19.89 76.5638 19.7895C76.4084 19.6798 76.3353 19.5427 76.3353 19.369V9.97244C76.3353 9.30517 76.1708 8.77502 75.8417 8.40025C75.5127 8.01635 75.0191 7.83353 74.3427 7.83353C73.8856 7.83353 73.4652 7.94322 73.0995 8.1626C72.7248 8.38197 72.4323 8.63791 72.2129 8.93041C71.9935 9.22291 71.8473 9.46971 71.7741 9.68908V19.3781C71.7741 19.5518 71.701 19.6981 71.5456 19.7986C71.3902 19.8992 71.1252 19.954 70.7412 19.954H70.531H70.5402Z" fill="#EDF0F2"/>
<path d="M85.5219 20.0637C85.1471 20.0637 84.7358 19.9815 84.2788 19.8261C83.8217 19.6707 83.4287 19.3507 83.0996 18.8846C82.7706 18.4184 82.606 17.7329 82.606 16.8371V7.97067H81.5457C81.1892 7.97067 81.0156 7.7056 81.0156 7.17544V6.85552C81.0156 6.32536 81.1892 6.06028 81.5457 6.06028H82.606L82.926 3.28153C82.9808 2.89763 83.255 2.69653 83.7486 2.69653H83.9588C84.3153 2.69653 84.553 2.74224 84.6901 2.84278C84.8272 2.94333 84.8912 3.08958 84.8912 3.28153V6.06028H86.6645C87.021 6.06028 87.1946 6.32536 87.1946 6.85552V7.17544C87.1946 7.7056 87.021 7.97067 86.6645 7.97067H84.8912V16.572C84.8912 17.1936 84.9552 17.6049 85.0923 17.8334C85.2203 18.0528 85.4853 18.1625 85.8692 18.1625C86.1892 18.1625 86.4177 18.1442 86.5731 18.0985C86.7193 18.0528 86.8381 18.0345 86.9295 18.0345C87.0484 18.0345 87.1489 18.1259 87.2038 18.2996C87.2678 18.4733 87.3043 18.6652 87.3226 18.8663C87.3409 19.0674 87.35 19.2136 87.35 19.305C87.35 19.4787 87.2403 19.625 87.0301 19.7438C86.8199 19.8626 86.5731 19.9449 86.2897 19.9906C86.0063 20.0363 85.7504 20.0729 85.5219 20.0729V20.0637Z" fill="#EDF0F2"/>
<path d="M92.0664 25.4109C91.4265 25.4109 91.1157 25.2647 91.1157 24.9631C91.1157 24.9082 91.1157 24.8442 91.1432 24.762C91.1614 24.6797 91.1797 24.6249 91.198 24.5883L92.6788 19.954L88.73 6.82806C88.7118 6.75493 88.7026 6.69095 88.6935 6.62696C88.6935 6.56298 88.6843 6.50814 88.6843 6.45329C88.6843 6.15165 89.0317 6.0054 89.7172 6.0054H90.0646C90.3114 6.0054 90.5216 6.03282 90.7044 6.09681C90.8781 6.16079 90.9878 6.27048 91.0243 6.42587L93.6477 16.7731H93.7574L96.1157 6.42587C96.1522 6.27048 96.2619 6.16079 96.4447 6.09681C96.6275 6.03282 96.8469 6.0054 97.0937 6.0054H97.4136C98.0535 6.0054 98.3643 6.15165 98.3643 6.45329V6.60868C98.3643 6.66353 98.346 6.73665 98.3094 6.81892L93.3826 24.9813C93.346 25.1367 93.2364 25.2464 93.0535 25.3104C92.8707 25.3744 92.6514 25.4018 92.4046 25.4018H92.0846L92.0664 25.4109Z" fill="#EDF0F2"/>
<path d="M23.0823 25.7126C22.4424 25.7126 22.1317 25.5664 22.1317 25.2647C22.1317 25.2099 22.1317 25.1459 22.1591 25.0636C22.1774 24.9814 22.1956 24.9265 22.2139 24.89L23.6947 20.2557L19.746 7.12972C19.7277 7.0566 19.7185 6.99261 19.7094 6.92863C19.7094 6.86465 19.7003 6.8098 19.7003 6.75496C19.7003 6.45332 20.0476 6.30707 20.7332 6.30707H21.0805C21.3273 6.30707 21.5375 6.33449 21.7203 6.39847C21.894 6.46246 22.0037 6.57215 22.0403 6.72754L24.6636 17.0747H24.7733L27.1316 6.72754C27.1682 6.57215 27.2778 6.46246 27.4607 6.39847C27.6435 6.33449 27.8628 6.30707 28.1096 6.30707H28.4296C29.0694 6.30707 29.3802 6.45332 29.3802 6.75496V6.91035C29.3802 6.96519 29.3619 7.03832 29.3253 7.12058L24.3985 25.283C24.362 25.4384 24.2523 25.5481 24.0695 25.6121C23.8867 25.6761 23.6673 25.7035 23.4205 25.7035H23.1006L23.0823 25.7126Z" fill="#EDF0F2"/>
<path d="M1.55578 20.3653C1.17187 20.3653 0.897657 20.3105 0.751407 20.21C0.605157 20.1094 0.522891 19.9632 0.522891 19.7895V10.4478C0.522891 9.3509 0.477189 8.55566 0.394923 8.05293C0.303517 7.55019 0.257812 7.21199 0.257812 7.02918C0.257812 6.83722 0.440626 6.70011 0.815391 6.61785C1.19016 6.53558 1.51008 6.49902 1.79344 6.49902C2.04023 6.49902 2.21391 6.63613 2.31445 6.89207C2.415 7.15715 2.52469 7.62332 2.64352 8.29058C3.08227 7.66902 3.60328 7.18457 4.18828 6.83722C4.78242 6.48074 5.43141 6.30707 6.13523 6.30707C6.7568 6.30707 7.32351 6.43504 7.85367 6.68183C8.38383 6.92863 8.81344 7.32168 9.13336 7.84269C9.45328 8.36371 9.62695 9.06754 9.62695 9.9359V19.7803C9.62695 19.954 9.55383 20.1003 9.39844 20.2008C9.24305 20.3105 8.97796 20.3562 8.59406 20.3562H8.38383C7.99992 20.3562 7.72571 20.3014 7.57945 20.2008C7.42406 20.0911 7.35094 19.954 7.35094 19.7803V10.3838C7.35094 9.71652 7.18641 9.18636 6.85734 8.8116C6.52828 8.42769 6.03469 8.24488 5.35828 8.24488C4.90125 8.24488 4.48078 8.35457 4.11516 8.57394C3.74039 8.79332 3.44789 9.04926 3.22852 9.34176C3.00914 9.63426 2.86289 9.88105 2.78976 10.1004V19.7895C2.78976 19.9632 2.71664 20.1094 2.56125 20.21C2.40586 20.3105 2.14078 20.3653 1.75687 20.3653H1.54664H1.55578Z" fill="#EDF0F2"/>
<path d="M9.35462 8.29058C9.53251 8.74466 9.62695 9.29554 9.62695 9.9359C9.70008 9.71652 9.72024 9.63426 9.93962 9.34176C10.159 9.04926 10.4515 8.79332 10.8263 8.57394C11.1919 8.35457 11.6124 8.24488 12.0694 8.24488C12.7458 8.24488 13.2394 8.42769 13.5684 8.8116C13.8975 9.18636 14.062 9.71652 14.062 10.3838V19.7803C14.062 19.954 14.1352 20.0911 14.2906 20.2008C14.4368 20.3014 14.711 20.3562 15.0949 20.3562H15.3052C15.6891 20.3562 15.9542 20.3105 16.1095 20.2008C16.2649 20.1003 16.3381 19.954 16.3381 19.7803V9.9359C16.3381 9.06754 16.1644 8.36371 15.8445 7.84269C15.5245 7.32168 15.0949 6.92863 14.5648 6.68183C14.0346 6.43504 13.4679 6.30707 12.8463 6.30707C12.1425 6.30707 11.4935 6.48074 10.8994 6.83722C10.3144 7.18457 9.79337 7.66902 9.35462 8.29058Z" fill="#EDF0F2"/>
</g>
<defs>
<clipPath id="clip0_6_12">
<rect width="98.7188" height="25.5937" fill="white" transform="translate(0.257812)"/>
</clipPath>
</defs>
</svg>
