<svg width="50" height="34" viewBox="0 0 50 34" fill="none" xmlns="http://www.w3.org/2000/svg">
<g clip-path="url(#clip0_6_6)">
<path d="M13.1129 23.078C10.8609 23.078 8.61226 21.7925 8.41466 17.5611H5.01788C5.25978 23.4019 8.40444 26.1603 12.8846 26.1603C15.8283 26.1603 18.1859 24.9362 19.501 23.7565L18.0973 21.264C17.1911 21.9903 15.3786 23.078 13.1129 23.078Z" fill="#EDF0F2"/>
<path d="M5.00093 10.8577H8.40111V4.48503H18.0054V1.35837H0.742188V4.48503H5.00093V10.8577Z" fill="#EDF0F2"/>
<path d="M27.5179 10.8577C28.6115 6.71497 32.1173 4.03156 36.6759 4.03156C41.2344 4.03156 44.713 6.7252 45.7964 10.8577H49.2613C48.0587 4.9999 43.1458 0.949219 36.6282 0.949219C30.1106 0.949219 25.2727 4.90784 24.0257 10.8577H27.5145H27.5179Z" fill="#EDF0F2"/>
<path d="M45.4317 17.5611C44.0485 21.0492 40.7709 23.2144 36.6314 23.2144C32.4919 23.2144 29.2417 21.0424 27.8652 17.5611H23.7155V33.6445H27.16V21.5368C29.3814 24.7112 33.0064 26.3444 36.8563 26.3444C42.7504 26.3444 47.4452 22.8086 48.9954 17.5611H45.4317Z" fill="#EDF0F2"/>
</g>
<defs>
<clipPath id="clip0_6_6">
<rect width="48.5156" height="32.6953" fill="white" transform="translate(0.742188 0.949219)"/>
</clipPath>
</defs>
</svg>
