<svg width="32" height="32" viewBox="0 0 32 32" fill="none" xmlns="http://www.w3.org/2000/svg">
<path d="M16.0728 27.7243C14.9181 27.7243 13.8049 27.5579 12.7438 27.2354C13.0039 26.684 13.7945 25.0507 13.9818 24.3641C14.1586 23.6983 14.6996 21.4928 14.6996 21.4928C15.459 22.3355 16.4057 22.8973 17.5292 22.8556C21.8257 22.7308 23.5526 19.225 23.8335 15.8335C24.052 12.9831 22.3147 8.29129 16.2497 8.29129C10.6944 8.29129 8.66576 12.1716 8.28084 14.4603C7.85431 16.9987 9.04033 19.9012 11.0065 19.974L11.4122 18.4135C10.5799 17.4252 10.1326 16.2393 10.5071 14.4499C10.8088 12.9623 12.6086 10.0806 16.3121 10.1847C20.619 10.2991 21.2744 13.909 20.9519 16.0416C20.1092 21.6073 16.9363 20.8895 16.8218 20.8583C15.6047 20.619 15.3446 19.7347 15.3966 18.8608C15.4382 17.9454 16.1976 16.9779 16.4369 15.3654C16.593 14.3355 16.4682 12.9727 15.1053 12.8166C13.6489 12.6606 12.9727 14.1586 12.8478 14.7308C12.5877 16.0312 12.7334 16.5722 13.0871 17.6437C13.0871 17.6437 11.974 22.3979 11.5474 24.0208C11.4122 24.5722 11.3498 25.9766 11.3394 26.6944C7.20932 24.8843 4.32767 20.7646 4.32767 15.9584C4.32767 9.48764 9.58126 4.23407 16.052 4.23407C22.5227 4.23407 27.7763 9.48764 27.7763 15.9584C27.7867 22.4707 22.5436 27.7243 16.0728 27.7243ZM16 0C7.15735 0 0 7.16775 0 16C0 24.8322 7.16775 32 16 32C24.8322 32 32 24.8322 32 16C31.9896 7.15735 24.8218 0 16 0Z" fill="#729EA4"/>
</svg>
