<svg width="174" height="118" viewBox="0 0 174 118" fill="none" xmlns="http://www.w3.org/2000/svg">
<g clip-path="url(#clip0_14_97)">
<path d="M44.3675 79.6878C36.2907 79.6878 28.2261 75.0878 27.5174 59.9458H15.335C16.2025 80.8469 27.4807 90.7179 43.5489 90.7179C54.1062 90.7179 62.5618 86.3376 67.2784 82.1159L62.2441 73.1966C58.9938 75.7955 52.4933 79.6878 44.3675 79.6878Z" fill="#253439"/>
<path d="M15.2739 35.9577H27.4685V13.1531H61.9142V1.96436H0V13.1531H15.2739V35.9577Z" fill="#253439"/>
<path d="M96.0297 35.9575C99.952 21.1327 112.526 11.5301 128.875 11.5301C145.224 11.5301 157.7 21.1693 161.585 35.9575H174.012C169.699 14.9954 152.079 0.5 128.704 0.5C105.328 0.5 87.9773 14.6659 83.5051 35.9575H96.0175H96.0297Z" fill="#253439"/>
<path d="M160.278 59.9458C155.317 72.4279 143.562 80.1759 128.716 80.1759C113.87 80.1759 102.213 72.4035 97.2762 59.9458H82.3933V117.5H94.7468V74.1727C102.714 85.5323 115.715 91.3768 129.522 91.3768C150.661 91.3768 167.499 78.7239 173.059 59.9458H160.278Z" fill="#253439"/>
</g>
<defs>
<clipPath id="clip0_14_97">
<rect width="174" height="117" fill="white" transform="translate(0 0.5)"/>
</clipPath>
</defs>
</svg>
