<svg width="32" height="32" viewBox="0 0 32 32" fill="none" xmlns="http://www.w3.org/2000/svg">
<path d="M25.342 12.4005C25.342 12.4005 25.6228 18.528 20.9622 22.3251C13.9922 27.9948 6.47071 23.3966 6.47071 23.3966C6.47071 23.3966 8.30167 23.4278 9.92455 22.9909C11.5266 22.5644 12.6918 21.5032 12.6918 21.5032C12.6918 21.5032 10.9337 21.1391 10.0182 20.4733C9.10273 19.8075 8.73858 18.5384 8.73858 18.5384C8.73858 18.5384 9.35238 18.5904 9.72689 18.58C10.1118 18.5696 10.5695 18.3823 10.5695 18.3823C10.5695 18.3823 9.3108 18.2263 8.13525 16.9155C7.20937 15.8752 7.27177 14.1482 7.27177 14.1482C7.27177 14.1482 7.82313 14.4811 8.11442 14.554C8.40571 14.6372 8.9779 14.6372 8.9779 14.6372C8.9779 14.6372 7.86473 13.9818 7.38619 12.2861C6.89724 10.6008 7.83352 8.87386 7.83352 8.87386C7.83352 8.87386 9.4772 10.8713 11.9219 12.1404C14.3563 13.42 16.6554 13.3784 16.6554 13.3784C16.6554 13.3784 16.3225 12.3693 16.9051 10.8713C17.4876 9.37321 18.7984 8.29128 20.8167 8.14564C22.8245 7.97919 24.1144 9.50845 24.1144 9.50845C24.1144 9.50845 24.7386 9.39402 25.446 9.13394C26.1534 8.88426 26.8609 8.55136 26.8609 8.55136C26.8609 8.55136 26.6112 9.31079 26.1222 9.91417C25.6333 10.5071 25.0923 10.8713 25.0923 10.8713C25.0923 10.8713 25.7269 10.8296 26.3719 10.6528C27.0065 10.4759 27.3602 10.2887 27.3602 10.2887C26.6216 11.5058 25.3524 12.4213 25.3524 12.4213L25.342 12.4005ZM16 0C7.15735 0 0 7.16775 0 16C0 24.8322 7.16775 32 16 32C24.8322 32 32 24.8322 32 16C31.9896 7.15735 24.8218 0 16 0Z" fill="#729EA4"/>
</svg>
