<?xml version="1.0" standalone="no"?>
<!DOCTYPE svg PUBLIC "-//W3C//DTD SVG 1.1//EN" "http://www.w3.org/Graphics/SVG/1.1/DTD/svg11.dtd" >
<svg xmlns="http://www.w3.org/2000/svg" xmlns:xlink="http://www.w3.org/1999/xlink" version="1.1">
<metadata>
Created by FontForge 20190801 at Wed Jul  8 16:58:05 2020
 By www-data
Copyright (c) 2020 by Francesco Canovaro. All rights reserved.
</metadata>
<defs>
<font id="eastmantrial_regular" horiz-adv-x="675" >
  <font-face 
    font-family="eastmantrial_regular"
    font-weight="400"
    font-stretch="normal"
    units-per-em="1000"
    panose-1="0 0 5 0 0 0 0 0 0 0"
    ascent="800"
    descent="-200"
    x-height="541"
    cap-height="700"
    bbox="-792 -221 1408 1100"
    underline-thickness="63"
    underline-position="-199"
    unicode-range="U+0020-F8FF"
  />
<missing-glyph horiz-adv-x="612" 
 />
    <glyph glyph-name=".notdef" horiz-adv-x="612" 
 />
    <glyph glyph-name=".null" horiz-adv-x="0" 
 />
    <glyph glyph-name="nonmarkingreturn" horiz-adv-x="333" 
 />
    <glyph glyph-name="space" unicode=" " horiz-adv-x="297" 
 />
    <glyph glyph-name="exclam" unicode="!" horiz-adv-x="222" 
d="M73 390v311h75v-310l-11 -192h-54zM61 0v90h99v-90h-99z" />
    <glyph glyph-name="quotedbl" unicode="&#x22;" horiz-adv-x="313" 
d="M131 700l-23 -175h-42l8 175h57zM247 700l-23 -175h-41l8 175h56z" />
    <glyph glyph-name="numbersign" unicode="#" horiz-adv-x="721" 
d="M655 486v-57h-129l-44 -163h135v-58h-151l-48 -178h-68l48 178h-155l-48 -178h-68l48 178h-109v58h125l44 163h-131v57h147l49 181h68l-49 -181h155l49 181h68l-49 -181h113zM259 266h155l44 163h-155z" />
    <glyph glyph-name="dollar" unicode="$" horiz-adv-x="635" 
d="M584 186q0 -83 -63.5 -135.5t-166.5 -59.5v-56h-61v56q-144 11 -245 103l37 59q93 -77 208 -89v255q-114 28 -169 73.5t-55 125.5q0 83 62.5 133.5t161.5 57.5v58h61v-58q113 -10 205 -78l-42 -57q-75 51 -163 63v-258q123 -28 176.5 -69.5t53.5 -123.5zM150 517
q0 -47 33 -74.5t110 -48.5v244q-67 -4 -105 -36.5t-38 -84.5zM354 305v-242q71 5 110 37.5t39 81.5q0 50 -34.5 77t-114.5 46z" />
    <glyph glyph-name="percent" unicode="%" horiz-adv-x="829" 
 />
    <glyph glyph-name="ampersand" unicode="&#x26;" horiz-adv-x="833" 
d="M811 426v-69h-118q-2 -54 -26.5 -119t-70.5 -120q84 -56 147 -55l-5 -63q-88 -1 -191 69q-94 -77 -225 -77q-72 0 -124 18.5t-79.5 50.5t-40 67t-12.5 74q0 96 59 164.5t142 103.5q-4 21 -4 46q0 87 52.5 140t142.5 53q76 0 115 -39t39 -98q0 -62 -68 -146h267zM543 159
q75 83 79 198h-154v69q70 62 70 131q0 73 -91 73q-54 0 -80 -32t-26 -82q0 -88 58 -185.5t144 -171.5zM320 67q99 0 170 47q-70 60 -125 138.5t-81 155.5q-140 -75 -140 -195q0 -66 44 -106t132 -40z" />
    <glyph glyph-name="quotesingle" unicode="'" horiz-adv-x="197" 
d="M131 700l-23 -175h-42l8 175h57z" />
    <glyph glyph-name="parenleft" unicode="(" horiz-adv-x="354" 
d="M324 -137l-50 -40q-208 171 -208 457q0 140 53.5 256.5t154.5 199.5l50 -40q-183 -160 -183 -416q0 -257 183 -417z" />
    <glyph glyph-name="parenright" unicode=")" horiz-adv-x="354" 
d="M29 696l51 40q208 -171 208 -456q0 -140 -53.5 -257t-154.5 -200l-51 40q183 159 183 417q0 257 -183 416z" />
    <glyph glyph-name="asterisk" unicode="*" horiz-adv-x="451" 
d="M309 545l-57 -11l39 -43l58 -74l-43 -31l-52 78l-28 51l-29 -51l-52 -78l-44 31l59 74l39 42l-57 12l-89 26l15 50l88 -32l53 -24l-7 58l-2 93h52l-3 -93l-7 -58l53 24l88 32l15 -50zM225 541h1v1z" />
    <glyph glyph-name="plus" unicode="+" horiz-adv-x="503" 
d="M281 363h192v-60h-192v-176h-60v176h-192v60h192v172h60v-172z" />
    <glyph glyph-name="comma" unicode="," horiz-adv-x="222" 
d="M78 -120l-21 31q55 38 51 89h-46v90h95q31 -156 -79 -210z" />
    <glyph glyph-name="hyphen" unicode="-" horiz-adv-x="447" 
d="M418 251v-60h-389v60h389z" />
    <glyph glyph-name="period" unicode="." horiz-adv-x="222" 
d="M61 0v90h99v-90h-99z" />
    <glyph glyph-name="slash" unicode="/" horiz-adv-x="576" 
d="M137 -115h-71l373 815h71z" />
    <glyph glyph-name="zero" unicode="0" horiz-adv-x="1344" 
d="M817 504h443v-162h-1174v162h444v1q0 8 1 12v2v1q0 4 2 12q0 3 2 9q12 47 50 77t88 30q59 0 101.5 -42t42.5 -101v-1zM675 371q54 0 92.5 38.5t38.5 93.5q0 54 -38.5 92.5t-92.5 38.5q-55 0 -93.5 -38.5t-38.5 -92.5q0 -55 38.5 -93.5t93.5 -38.5zM735 602q8 -7 17 -11
h-159q10 9 18 13q12 6 20 8q17 9 42 9q23 0 44 -9zM764 427h-155l152 155q30 -39 30 -78q0 -20 -6 -41q-5 -17 -21 -36zM583 577h155l-153 -154q-14 15 -23 38q-7 20 -7 43q0 12 1 18q2 12 7 22q6 19 20 33zM192 477h-81v-27h26v-75h29v75h26v27zM204 477v-102h30v31h8
l13 -22q3 -9 12 -9h26l-18 32q-10 10 -19 10h3q8 0 16 7t8 17q0 16 -11 26t-26 10h-42zM304 477v-102h29v102h-29zM434 375h23l-44 102h-26l-44 -102h23q7 0 14 10l2 7h36l4 -7q3 -10 12 -10zM497 477h-29v-102h64v27h-35v75zM892 477q-23 0 -37.5 -15t-14.5 -38
q0 -22 15 -37t37 -15q23 0 38 14.5t15 37.5t-15 38t-38 15zM1054 374v101h-29v-35q0 -12 3 -20h-1l-31 46q-4 9 -12 9h-25v-101h30l1 40q0 10 -4 19l35 -53q6 -6 11 -6h22zM1103 475h-29v-101h65v26h-36v75zM1166 404v-30h30v30q0 6 3 10l37 61h-28q-8 0 -12 -7l-11 -19
q-1 -3 -2.5 -9.5t-1.5 -7.5q0 8 -4 17l-11 19q-4 7 -12 7h-27l37 -61q2 -3 2 -10zM245 434h-11v15h10q8 0 8 -8q0 -7 -7 -7zM892 400q-10 0 -17 7t-7 17t7 17.5t17 7.5t16.5 -7t6.5 -18q0 -24 -23 -24zM404 426l6 -13h-19l5 13q4 12 4 19h1q0 -10 3 -19zM632 392
q-16 6 -37 22h157q-3 -3 -9 -7t-8 -6q-13 -7 -18 -9q-3 -1 -11 -2.5t-11 -2.5q-12 -3 -22 -3q-23 0 -41 8zM131 313h-40v-67h7v29h28v7h-28v23h33v8zM168 252q-18 0 -18 20v41h-8v-41q0 -12 7.5 -19.5t18.5 -7.5q12 0 19.5 7.5t7.5 19.5v41h-8v-41q0 -20 -19 -20zM220 313
h-7v-67h36v7h-29v60zM270 313h-7v-67h38v7h-31v60zM369 246l29 67h-5q-4 0 -4 -3l-21 -49q-2 -6 -2 -7q0 1 -2 7l-21 49q-1 3 -5 3h-5l30 -67h6zM408 313v-67h41v7h-34v23h28v8h-28v21h34v8h-41zM464 313v-67h8v28h10l20 -25q4 -3 7 -3h5l-21 27q-2 2 -4 2h2q16 3 16 18
q0 9 -6 14.5t-14 5.5h-23zM520 257l-2 -2q10 -10 21 -10q21 0 21 20q0 15 -19 20q-12 6 -12 11q0 10 11 10q6 0 11 -3q3 -2 5 2l1 2q-5 6 -17 6q-19 0 -19 -17q0 -10 18 -18q15 -6 15 -13q0 -13 -15 -13q-7 2 -13 6q-1 1 -3 0.5t-3 -1.5zM576 313v-67h6v67h-6zM632 313
q-14 0 -24.5 -10t-10.5 -24t10.5 -24t24.5 -10q15 0 24.5 10t9.5 24t-9.5 24t-24.5 10zM735 246v67h-9v-50q0 -3 1 -5l-35 53q-3 2 -6 2h-6v-67h8v52q0 1 -0.5 2.5t-0.5 2.5l39 -55q0 -2 2 -2h7zM632 252q-11 0 -19.5 8t-8.5 19t8.5 19t19.5 8t19 -8t8 -19t-8.5 -19
t-18.5 -8zM487 282h-15v23h15q12 0 12 -12q0 -11 -12 -11zM1242 280l-2 4l-19 17l-2 -3q-2 -3 1 -6l10 -9h-457v-7h456l-9 -9q-2 -4 -1 -6l2 -3l19 18q2 2 2 4zM560 212q-21 0 -35.5 -14t-14.5 -35q0 -22 14.5 -36t35.5 -14q22 0 36.5 14t14.5 36q0 21 -14.5 35t-36.5 14z
M811 140l-5 -11q18 -16 38 -16q16 0 26.5 9t10.5 23q0 26 -30 32q-10 3 -10 6q0 4 5 4q1 0 5 -2q14 -5 19 6l5 10q-10 11 -29 11q-15 0 -24.5 -8t-9.5 -21q0 -20 32 -31q8 -3 8 -7q0 -6 -8 -6q-3 0 -13 5q-11 6 -20 -4zM927 163q0 -22 14 -36t36 -14q27 0 37 19l-6 9
q-8 10 -19 2q-6 -4 -13 -4q-9 0 -15 7t-6 17t6 16.5t15 6.5q5 0 13 -4q11 -8 19 2l6 9q-10 19 -37 19q-22 0 -36 -14t-14 -35zM1072 212q-22 0 -36.5 -14t-14.5 -35q0 -22 14.5 -36t36.5 -14t36 14t14 36q0 21 -14 35t-36 14zM85 127v-13h78v27h-28q-6 0 -13 -5l38 51
q4 4 4 11v13h-75v-26h26q7 0 11 4l-36 -49q-5 -6 -5 -13zM176 211v-97h67v27h-39v10h32v24h-32v10h39v26h-67zM326 211h-77v-26h26v-71h28v71h23v26zM405 114h22l-43 97h-24l-43 -97h22q9 0 12 10l3 6h35l3 -6q3 -10 13 -10zM502 211h-67v-97h29v33h31v25h-31v13h38v26z
M715 114v97h-29v-34q0 -11 3 -18l-29 43q-6 9 -13 9h-22v-97h28v39q0 8 -3 17h1l33 -50q4 -6 10 -6h21zM803 211h-77v-26h24v-71h29v71h24v26zM1249 114v97h-24q-8 0 -11 -9l-18 -35q-2 -6 -2 -11h-1q0 6 -3 11l-17 35q-6 9 -12 9h-25v-97h28v42q0 8 -3 15h1l19 -41
q3 -7 13 -7q7 0 11 7l19 41q-2 -10 -2 -15v-42h27zM560 139q-9 0 -15.5 7t-6.5 17t6.5 16.5t15.5 6.5q22 0 22 -23q0 -24 -22 -24zM1072 139q-10 0 -16 6.5t-6 17.5q0 10 6 16.5t16 6.5q9 0 15.5 -6.5t6.5 -16.5t-6.5 -17t-15.5 -7zM375 162l6 -13h-18l5 13q3 12 3 19h1
q0 -13 3 -19zM889 127q0 -14 15 -14q14 0 14 14q0 16 -14 16q-15 0 -15 -16z" />
    <glyph glyph-name="one" unicode="1" horiz-adv-x="1344" 
d="M817 504h443v-162h-1174v162h444v1q0 8 1 12v2v1q0 4 2 12q0 3 2 9q12 47 50 77t88 30q59 0 101.5 -42t42.5 -101v-1zM675 371q54 0 92.5 38.5t38.5 93.5q0 54 -38.5 92.5t-92.5 38.5q-55 0 -93.5 -38.5t-38.5 -92.5q0 -55 38.5 -93.5t93.5 -38.5zM735 602q8 -7 17 -11
h-159q10 9 18 13q12 6 20 8q17 9 42 9q23 0 44 -9zM764 427h-155l152 155q30 -39 30 -78q0 -20 -6 -41q-5 -17 -21 -36zM583 577h155l-153 -154q-14 15 -23 38q-7 20 -7 43q0 12 1 18q2 12 7 22q6 19 20 33zM192 477h-81v-27h26v-75h29v75h26v27zM204 477v-102h30v31h8
l13 -22q3 -9 12 -9h26l-18 32q-10 10 -19 10h3q8 0 16 7t8 17q0 16 -11 26t-26 10h-42zM304 477v-102h29v102h-29zM434 375h23l-44 102h-26l-44 -102h23q7 0 14 10l2 7h36l4 -7q3 -10 12 -10zM497 477h-29v-102h64v27h-35v75zM892 477q-23 0 -37.5 -15t-14.5 -38
q0 -22 15 -37t37 -15q23 0 38 14.5t15 37.5t-15 38t-38 15zM1054 374v101h-29v-35q0 -12 3 -20h-1l-31 46q-4 9 -12 9h-25v-101h30l1 40q0 10 -4 19l35 -53q6 -6 11 -6h22zM1103 475h-29v-101h65v26h-36v75zM1166 404v-30h30v30q0 6 3 10l37 61h-28q-8 0 -12 -7l-11 -19
q-1 -3 -2.5 -9.5t-1.5 -7.5q0 8 -4 17l-11 19q-4 7 -12 7h-27l37 -61q2 -3 2 -10zM245 434h-11v15h10q8 0 8 -8q0 -7 -7 -7zM892 400q-10 0 -17 7t-7 17t7 17.5t17 7.5t16.5 -7t6.5 -18q0 -24 -23 -24zM404 426l6 -13h-19l5 13q4 12 4 19h1q0 -10 3 -19zM632 392
q-16 6 -37 22h157q-3 -3 -9 -7t-8 -6q-13 -7 -18 -9q-3 -1 -11 -2.5t-11 -2.5q-12 -3 -22 -3q-23 0 -41 8zM131 313h-40v-67h7v29h28v7h-28v23h33v8zM168 252q-18 0 -18 20v41h-8v-41q0 -12 7.5 -19.5t18.5 -7.5q12 0 19.5 7.5t7.5 19.5v41h-8v-41q0 -20 -19 -20zM220 313
h-7v-67h36v7h-29v60zM270 313h-7v-67h38v7h-31v60zM369 246l29 67h-5q-4 0 -4 -3l-21 -49q-2 -6 -2 -7q0 1 -2 7l-21 49q-1 3 -5 3h-5l30 -67h6zM408 313v-67h41v7h-34v23h28v8h-28v21h34v8h-41zM464 313v-67h8v28h10l20 -25q4 -3 7 -3h5l-21 27q-2 2 -4 2h2q16 3 16 18
q0 9 -6 14.5t-14 5.5h-23zM520 257l-2 -2q10 -10 21 -10q21 0 21 20q0 15 -19 20q-12 6 -12 11q0 10 11 10q6 0 11 -3q3 -2 5 2l1 2q-5 6 -17 6q-19 0 -19 -17q0 -10 18 -18q15 -6 15 -13q0 -13 -15 -13q-7 2 -13 6q-1 1 -3 0.5t-3 -1.5zM576 313v-67h6v67h-6zM632 313
q-14 0 -24.5 -10t-10.5 -24t10.5 -24t24.5 -10q15 0 24.5 10t9.5 24t-9.5 24t-24.5 10zM735 246v67h-9v-50q0 -3 1 -5l-35 53q-3 2 -6 2h-6v-67h8v52q0 1 -0.5 2.5t-0.5 2.5l39 -55q0 -2 2 -2h7zM632 252q-11 0 -19.5 8t-8.5 19t8.5 19t19.5 8t19 -8t8 -19t-8.5 -19
t-18.5 -8zM487 282h-15v23h15q12 0 12 -12q0 -11 -12 -11zM1242 280l-2 4l-19 17l-2 -3q-2 -3 1 -6l10 -9h-457v-7h456l-9 -9q-2 -4 -1 -6l2 -3l19 18q2 2 2 4zM560 212q-21 0 -35.5 -14t-14.5 -35q0 -22 14.5 -36t35.5 -14q22 0 36.5 14t14.5 36q0 21 -14.5 35t-36.5 14z
M811 140l-5 -11q18 -16 38 -16q16 0 26.5 9t10.5 23q0 26 -30 32q-10 3 -10 6q0 4 5 4q1 0 5 -2q14 -5 19 6l5 10q-10 11 -29 11q-15 0 -24.5 -8t-9.5 -21q0 -20 32 -31q8 -3 8 -7q0 -6 -8 -6q-3 0 -13 5q-11 6 -20 -4zM927 163q0 -22 14 -36t36 -14q27 0 37 19l-6 9
q-8 10 -19 2q-6 -4 -13 -4q-9 0 -15 7t-6 17t6 16.5t15 6.5q5 0 13 -4q11 -8 19 2l6 9q-10 19 -37 19q-22 0 -36 -14t-14 -35zM1072 212q-22 0 -36.5 -14t-14.5 -35q0 -22 14.5 -36t36.5 -14t36 14t14 36q0 21 -14 35t-36 14zM85 127v-13h78v27h-28q-6 0 -13 -5l38 51
q4 4 4 11v13h-75v-26h26q7 0 11 4l-36 -49q-5 -6 -5 -13zM176 211v-97h67v27h-39v10h32v24h-32v10h39v26h-67zM326 211h-77v-26h26v-71h28v71h23v26zM405 114h22l-43 97h-24l-43 -97h22q9 0 12 10l3 6h35l3 -6q3 -10 13 -10zM502 211h-67v-97h29v33h31v25h-31v13h38v26z
M715 114v97h-29v-34q0 -11 3 -18l-29 43q-6 9 -13 9h-22v-97h28v39q0 8 -3 17h1l33 -50q4 -6 10 -6h21zM803 211h-77v-26h24v-71h29v71h24v26zM1249 114v97h-24q-8 0 -11 -9l-18 -35q-2 -6 -2 -11h-1q0 6 -3 11l-17 35q-6 9 -12 9h-25v-97h28v42q0 8 -3 15h1l19 -41
q3 -7 13 -7q7 0 11 7l19 41q-2 -10 -2 -15v-42h27zM560 139q-9 0 -15.5 7t-6.5 17t6.5 16.5t15.5 6.5q22 0 22 -23q0 -24 -22 -24zM1072 139q-10 0 -16 6.5t-6 17.5q0 10 6 16.5t16 6.5q9 0 15.5 -6.5t6.5 -16.5t-6.5 -17t-15.5 -7zM375 162l6 -13h-18l5 13q3 12 3 19h1
q0 -13 3 -19zM889 127q0 -14 15 -14q14 0 14 14q0 16 -14 16q-15 0 -15 -16z" />
    <glyph glyph-name="two" unicode="2" horiz-adv-x="1344" 
d="M817 504h443v-162h-1174v162h444v1q0 8 1 12v2v1q0 4 2 12q0 3 2 9q12 47 50 77t88 30q59 0 101.5 -42t42.5 -101v-1zM675 371q54 0 92.5 38.5t38.5 93.5q0 54 -38.5 92.5t-92.5 38.5q-55 0 -93.5 -38.5t-38.5 -92.5q0 -55 38.5 -93.5t93.5 -38.5zM735 602q8 -7 17 -11
h-159q10 9 18 13q12 6 20 8q17 9 42 9q23 0 44 -9zM764 427h-155l152 155q30 -39 30 -78q0 -20 -6 -41q-5 -17 -21 -36zM583 577h155l-153 -154q-14 15 -23 38q-7 20 -7 43q0 12 1 18q2 12 7 22q6 19 20 33zM192 477h-81v-27h26v-75h29v75h26v27zM204 477v-102h30v31h8
l13 -22q3 -9 12 -9h26l-18 32q-10 10 -19 10h3q8 0 16 7t8 17q0 16 -11 26t-26 10h-42zM304 477v-102h29v102h-29zM434 375h23l-44 102h-26l-44 -102h23q7 0 14 10l2 7h36l4 -7q3 -10 12 -10zM497 477h-29v-102h64v27h-35v75zM892 477q-23 0 -37.5 -15t-14.5 -38
q0 -22 15 -37t37 -15q23 0 38 14.5t15 37.5t-15 38t-38 15zM1054 374v101h-29v-35q0 -12 3 -20h-1l-31 46q-4 9 -12 9h-25v-101h30l1 40q0 10 -4 19l35 -53q6 -6 11 -6h22zM1103 475h-29v-101h65v26h-36v75zM1166 404v-30h30v30q0 6 3 10l37 61h-28q-8 0 -12 -7l-11 -19
q-1 -3 -2.5 -9.5t-1.5 -7.5q0 8 -4 17l-11 19q-4 7 -12 7h-27l37 -61q2 -3 2 -10zM245 434h-11v15h10q8 0 8 -8q0 -7 -7 -7zM892 400q-10 0 -17 7t-7 17t7 17.5t17 7.5t16.5 -7t6.5 -18q0 -24 -23 -24zM404 426l6 -13h-19l5 13q4 12 4 19h1q0 -10 3 -19zM632 392
q-16 6 -37 22h157q-3 -3 -9 -7t-8 -6q-13 -7 -18 -9q-3 -1 -11 -2.5t-11 -2.5q-12 -3 -22 -3q-23 0 -41 8zM131 313h-40v-67h7v29h28v7h-28v23h33v8zM168 252q-18 0 -18 20v41h-8v-41q0 -12 7.5 -19.5t18.5 -7.5q12 0 19.5 7.5t7.5 19.5v41h-8v-41q0 -20 -19 -20zM220 313
h-7v-67h36v7h-29v60zM270 313h-7v-67h38v7h-31v60zM369 246l29 67h-5q-4 0 -4 -3l-21 -49q-2 -6 -2 -7q0 1 -2 7l-21 49q-1 3 -5 3h-5l30 -67h6zM408 313v-67h41v7h-34v23h28v8h-28v21h34v8h-41zM464 313v-67h8v28h10l20 -25q4 -3 7 -3h5l-21 27q-2 2 -4 2h2q16 3 16 18
q0 9 -6 14.5t-14 5.5h-23zM520 257l-2 -2q10 -10 21 -10q21 0 21 20q0 15 -19 20q-12 6 -12 11q0 10 11 10q6 0 11 -3q3 -2 5 2l1 2q-5 6 -17 6q-19 0 -19 -17q0 -10 18 -18q15 -6 15 -13q0 -13 -15 -13q-7 2 -13 6q-1 1 -3 0.5t-3 -1.5zM576 313v-67h6v67h-6zM632 313
q-14 0 -24.5 -10t-10.5 -24t10.5 -24t24.5 -10q15 0 24.5 10t9.5 24t-9.5 24t-24.5 10zM735 246v67h-9v-50q0 -3 1 -5l-35 53q-3 2 -6 2h-6v-67h8v52q0 1 -0.5 2.5t-0.5 2.5l39 -55q0 -2 2 -2h7zM632 252q-11 0 -19.5 8t-8.5 19t8.5 19t19.5 8t19 -8t8 -19t-8.5 -19
t-18.5 -8zM487 282h-15v23h15q12 0 12 -12q0 -11 -12 -11zM1242 280l-2 4l-19 17l-2 -3q-2 -3 1 -6l10 -9h-457v-7h456l-9 -9q-2 -4 -1 -6l2 -3l19 18q2 2 2 4zM560 212q-21 0 -35.5 -14t-14.5 -35q0 -22 14.5 -36t35.5 -14q22 0 36.5 14t14.5 36q0 21 -14.5 35t-36.5 14z
M811 140l-5 -11q18 -16 38 -16q16 0 26.5 9t10.5 23q0 26 -30 32q-10 3 -10 6q0 4 5 4q1 0 5 -2q14 -5 19 6l5 10q-10 11 -29 11q-15 0 -24.5 -8t-9.5 -21q0 -20 32 -31q8 -3 8 -7q0 -6 -8 -6q-3 0 -13 5q-11 6 -20 -4zM927 163q0 -22 14 -36t36 -14q27 0 37 19l-6 9
q-8 10 -19 2q-6 -4 -13 -4q-9 0 -15 7t-6 17t6 16.5t15 6.5q5 0 13 -4q11 -8 19 2l6 9q-10 19 -37 19q-22 0 -36 -14t-14 -35zM1072 212q-22 0 -36.5 -14t-14.5 -35q0 -22 14.5 -36t36.5 -14t36 14t14 36q0 21 -14 35t-36 14zM85 127v-13h78v27h-28q-6 0 -13 -5l38 51
q4 4 4 11v13h-75v-26h26q7 0 11 4l-36 -49q-5 -6 -5 -13zM176 211v-97h67v27h-39v10h32v24h-32v10h39v26h-67zM326 211h-77v-26h26v-71h28v71h23v26zM405 114h22l-43 97h-24l-43 -97h22q9 0 12 10l3 6h35l3 -6q3 -10 13 -10zM502 211h-67v-97h29v33h31v25h-31v13h38v26z
M715 114v97h-29v-34q0 -11 3 -18l-29 43q-6 9 -13 9h-22v-97h28v39q0 8 -3 17h1l33 -50q4 -6 10 -6h21zM803 211h-77v-26h24v-71h29v71h24v26zM1249 114v97h-24q-8 0 -11 -9l-18 -35q-2 -6 -2 -11h-1q0 6 -3 11l-17 35q-6 9 -12 9h-25v-97h28v42q0 8 -3 15h1l19 -41
q3 -7 13 -7q7 0 11 7l19 41q-2 -10 -2 -15v-42h27zM560 139q-9 0 -15.5 7t-6.5 17t6.5 16.5t15.5 6.5q22 0 22 -23q0 -24 -22 -24zM1072 139q-10 0 -16 6.5t-6 17.5q0 10 6 16.5t16 6.5q9 0 15.5 -6.5t6.5 -16.5t-6.5 -17t-15.5 -7zM375 162l6 -13h-18l5 13q3 12 3 19h1
q0 -13 3 -19zM889 127q0 -14 15 -14q14 0 14 14q0 16 -14 16q-15 0 -15 -16z" />
    <glyph glyph-name="three" unicode="3" horiz-adv-x="1344" 
d="M817 504h443v-162h-1174v162h444v1q0 8 1 12v2v1q0 4 2 12q0 3 2 9q12 47 50 77t88 30q59 0 101.5 -42t42.5 -101v-1zM675 371q54 0 92.5 38.5t38.5 93.5q0 54 -38.5 92.5t-92.5 38.5q-55 0 -93.5 -38.5t-38.5 -92.5q0 -55 38.5 -93.5t93.5 -38.5zM735 602q8 -7 17 -11
h-159q10 9 18 13q12 6 20 8q17 9 42 9q23 0 44 -9zM764 427h-155l152 155q30 -39 30 -78q0 -20 -6 -41q-5 -17 -21 -36zM583 577h155l-153 -154q-14 15 -23 38q-7 20 -7 43q0 12 1 18q2 12 7 22q6 19 20 33zM192 477h-81v-27h26v-75h29v75h26v27zM204 477v-102h30v31h8
l13 -22q3 -9 12 -9h26l-18 32q-10 10 -19 10h3q8 0 16 7t8 17q0 16 -11 26t-26 10h-42zM304 477v-102h29v102h-29zM434 375h23l-44 102h-26l-44 -102h23q7 0 14 10l2 7h36l4 -7q3 -10 12 -10zM497 477h-29v-102h64v27h-35v75zM892 477q-23 0 -37.5 -15t-14.5 -38
q0 -22 15 -37t37 -15q23 0 38 14.5t15 37.5t-15 38t-38 15zM1054 374v101h-29v-35q0 -12 3 -20h-1l-31 46q-4 9 -12 9h-25v-101h30l1 40q0 10 -4 19l35 -53q6 -6 11 -6h22zM1103 475h-29v-101h65v26h-36v75zM1166 404v-30h30v30q0 6 3 10l37 61h-28q-8 0 -12 -7l-11 -19
q-1 -3 -2.5 -9.5t-1.5 -7.5q0 8 -4 17l-11 19q-4 7 -12 7h-27l37 -61q2 -3 2 -10zM245 434h-11v15h10q8 0 8 -8q0 -7 -7 -7zM892 400q-10 0 -17 7t-7 17t7 17.5t17 7.5t16.5 -7t6.5 -18q0 -24 -23 -24zM404 426l6 -13h-19l5 13q4 12 4 19h1q0 -10 3 -19zM632 392
q-16 6 -37 22h157q-3 -3 -9 -7t-8 -6q-13 -7 -18 -9q-3 -1 -11 -2.5t-11 -2.5q-12 -3 -22 -3q-23 0 -41 8zM131 313h-40v-67h7v29h28v7h-28v23h33v8zM168 252q-18 0 -18 20v41h-8v-41q0 -12 7.5 -19.5t18.5 -7.5q12 0 19.5 7.5t7.5 19.5v41h-8v-41q0 -20 -19 -20zM220 313
h-7v-67h36v7h-29v60zM270 313h-7v-67h38v7h-31v60zM369 246l29 67h-5q-4 0 -4 -3l-21 -49q-2 -6 -2 -7q0 1 -2 7l-21 49q-1 3 -5 3h-5l30 -67h6zM408 313v-67h41v7h-34v23h28v8h-28v21h34v8h-41zM464 313v-67h8v28h10l20 -25q4 -3 7 -3h5l-21 27q-2 2 -4 2h2q16 3 16 18
q0 9 -6 14.5t-14 5.5h-23zM520 257l-2 -2q10 -10 21 -10q21 0 21 20q0 15 -19 20q-12 6 -12 11q0 10 11 10q6 0 11 -3q3 -2 5 2l1 2q-5 6 -17 6q-19 0 -19 -17q0 -10 18 -18q15 -6 15 -13q0 -13 -15 -13q-7 2 -13 6q-1 1 -3 0.5t-3 -1.5zM576 313v-67h6v67h-6zM632 313
q-14 0 -24.5 -10t-10.5 -24t10.5 -24t24.5 -10q15 0 24.5 10t9.5 24t-9.5 24t-24.5 10zM735 246v67h-9v-50q0 -3 1 -5l-35 53q-3 2 -6 2h-6v-67h8v52q0 1 -0.5 2.5t-0.5 2.5l39 -55q0 -2 2 -2h7zM632 252q-11 0 -19.5 8t-8.5 19t8.5 19t19.5 8t19 -8t8 -19t-8.5 -19
t-18.5 -8zM487 282h-15v23h15q12 0 12 -12q0 -11 -12 -11zM1242 280l-2 4l-19 17l-2 -3q-2 -3 1 -6l10 -9h-457v-7h456l-9 -9q-2 -4 -1 -6l2 -3l19 18q2 2 2 4zM560 212q-21 0 -35.5 -14t-14.5 -35q0 -22 14.5 -36t35.5 -14q22 0 36.5 14t14.5 36q0 21 -14.5 35t-36.5 14z
M811 140l-5 -11q18 -16 38 -16q16 0 26.5 9t10.5 23q0 26 -30 32q-10 3 -10 6q0 4 5 4q1 0 5 -2q14 -5 19 6l5 10q-10 11 -29 11q-15 0 -24.5 -8t-9.5 -21q0 -20 32 -31q8 -3 8 -7q0 -6 -8 -6q-3 0 -13 5q-11 6 -20 -4zM927 163q0 -22 14 -36t36 -14q27 0 37 19l-6 9
q-8 10 -19 2q-6 -4 -13 -4q-9 0 -15 7t-6 17t6 16.5t15 6.5q5 0 13 -4q11 -8 19 2l6 9q-10 19 -37 19q-22 0 -36 -14t-14 -35zM1072 212q-22 0 -36.5 -14t-14.5 -35q0 -22 14.5 -36t36.5 -14t36 14t14 36q0 21 -14 35t-36 14zM85 127v-13h78v27h-28q-6 0 -13 -5l38 51
q4 4 4 11v13h-75v-26h26q7 0 11 4l-36 -49q-5 -6 -5 -13zM176 211v-97h67v27h-39v10h32v24h-32v10h39v26h-67zM326 211h-77v-26h26v-71h28v71h23v26zM405 114h22l-43 97h-24l-43 -97h22q9 0 12 10l3 6h35l3 -6q3 -10 13 -10zM502 211h-67v-97h29v33h31v25h-31v13h38v26z
M715 114v97h-29v-34q0 -11 3 -18l-29 43q-6 9 -13 9h-22v-97h28v39q0 8 -3 17h1l33 -50q4 -6 10 -6h21zM803 211h-77v-26h24v-71h29v71h24v26zM1249 114v97h-24q-8 0 -11 -9l-18 -35q-2 -6 -2 -11h-1q0 6 -3 11l-17 35q-6 9 -12 9h-25v-97h28v42q0 8 -3 15h1l19 -41
q3 -7 13 -7q7 0 11 7l19 41q-2 -10 -2 -15v-42h27zM560 139q-9 0 -15.5 7t-6.5 17t6.5 16.5t15.5 6.5q22 0 22 -23q0 -24 -22 -24zM1072 139q-10 0 -16 6.5t-6 17.5q0 10 6 16.5t16 6.5q9 0 15.5 -6.5t6.5 -16.5t-6.5 -17t-15.5 -7zM375 162l6 -13h-18l5 13q3 12 3 19h1
q0 -13 3 -19zM889 127q0 -14 15 -14q14 0 14 14q0 16 -14 16q-15 0 -15 -16z" />
    <glyph glyph-name="four" unicode="4" horiz-adv-x="1344" 
d="M817 504h443v-162h-1174v162h444v1q0 8 1 12v2v1q0 4 2 12q0 3 2 9q12 47 50 77t88 30q59 0 101.5 -42t42.5 -101v-1zM675 371q54 0 92.5 38.5t38.5 93.5q0 54 -38.5 92.5t-92.5 38.5q-55 0 -93.5 -38.5t-38.5 -92.5q0 -55 38.5 -93.5t93.5 -38.5zM735 602q8 -7 17 -11
h-159q10 9 18 13q12 6 20 8q17 9 42 9q23 0 44 -9zM764 427h-155l152 155q30 -39 30 -78q0 -20 -6 -41q-5 -17 -21 -36zM583 577h155l-153 -154q-14 15 -23 38q-7 20 -7 43q0 12 1 18q2 12 7 22q6 19 20 33zM192 477h-81v-27h26v-75h29v75h26v27zM204 477v-102h30v31h8
l13 -22q3 -9 12 -9h26l-18 32q-10 10 -19 10h3q8 0 16 7t8 17q0 16 -11 26t-26 10h-42zM304 477v-102h29v102h-29zM434 375h23l-44 102h-26l-44 -102h23q7 0 14 10l2 7h36l4 -7q3 -10 12 -10zM497 477h-29v-102h64v27h-35v75zM892 477q-23 0 -37.5 -15t-14.5 -38
q0 -22 15 -37t37 -15q23 0 38 14.5t15 37.5t-15 38t-38 15zM1054 374v101h-29v-35q0 -12 3 -20h-1l-31 46q-4 9 -12 9h-25v-101h30l1 40q0 10 -4 19l35 -53q6 -6 11 -6h22zM1103 475h-29v-101h65v26h-36v75zM1166 404v-30h30v30q0 6 3 10l37 61h-28q-8 0 -12 -7l-11 -19
q-1 -3 -2.5 -9.5t-1.5 -7.5q0 8 -4 17l-11 19q-4 7 -12 7h-27l37 -61q2 -3 2 -10zM245 434h-11v15h10q8 0 8 -8q0 -7 -7 -7zM892 400q-10 0 -17 7t-7 17t7 17.5t17 7.5t16.5 -7t6.5 -18q0 -24 -23 -24zM404 426l6 -13h-19l5 13q4 12 4 19h1q0 -10 3 -19zM632 392
q-16 6 -37 22h157q-3 -3 -9 -7t-8 -6q-13 -7 -18 -9q-3 -1 -11 -2.5t-11 -2.5q-12 -3 -22 -3q-23 0 -41 8zM131 313h-40v-67h7v29h28v7h-28v23h33v8zM168 252q-18 0 -18 20v41h-8v-41q0 -12 7.5 -19.5t18.5 -7.5q12 0 19.5 7.5t7.5 19.5v41h-8v-41q0 -20 -19 -20zM220 313
h-7v-67h36v7h-29v60zM270 313h-7v-67h38v7h-31v60zM369 246l29 67h-5q-4 0 -4 -3l-21 -49q-2 -6 -2 -7q0 1 -2 7l-21 49q-1 3 -5 3h-5l30 -67h6zM408 313v-67h41v7h-34v23h28v8h-28v21h34v8h-41zM464 313v-67h8v28h10l20 -25q4 -3 7 -3h5l-21 27q-2 2 -4 2h2q16 3 16 18
q0 9 -6 14.5t-14 5.5h-23zM520 257l-2 -2q10 -10 21 -10q21 0 21 20q0 15 -19 20q-12 6 -12 11q0 10 11 10q6 0 11 -3q3 -2 5 2l1 2q-5 6 -17 6q-19 0 -19 -17q0 -10 18 -18q15 -6 15 -13q0 -13 -15 -13q-7 2 -13 6q-1 1 -3 0.5t-3 -1.5zM576 313v-67h6v67h-6zM632 313
q-14 0 -24.5 -10t-10.5 -24t10.5 -24t24.5 -10q15 0 24.5 10t9.5 24t-9.5 24t-24.5 10zM735 246v67h-9v-50q0 -3 1 -5l-35 53q-3 2 -6 2h-6v-67h8v52q0 1 -0.5 2.5t-0.5 2.5l39 -55q0 -2 2 -2h7zM632 252q-11 0 -19.5 8t-8.5 19t8.5 19t19.5 8t19 -8t8 -19t-8.5 -19
t-18.5 -8zM487 282h-15v23h15q12 0 12 -12q0 -11 -12 -11zM1242 280l-2 4l-19 17l-2 -3q-2 -3 1 -6l10 -9h-457v-7h456l-9 -9q-2 -4 -1 -6l2 -3l19 18q2 2 2 4zM560 212q-21 0 -35.5 -14t-14.5 -35q0 -22 14.5 -36t35.5 -14q22 0 36.5 14t14.5 36q0 21 -14.5 35t-36.5 14z
M811 140l-5 -11q18 -16 38 -16q16 0 26.5 9t10.5 23q0 26 -30 32q-10 3 -10 6q0 4 5 4q1 0 5 -2q14 -5 19 6l5 10q-10 11 -29 11q-15 0 -24.5 -8t-9.5 -21q0 -20 32 -31q8 -3 8 -7q0 -6 -8 -6q-3 0 -13 5q-11 6 -20 -4zM927 163q0 -22 14 -36t36 -14q27 0 37 19l-6 9
q-8 10 -19 2q-6 -4 -13 -4q-9 0 -15 7t-6 17t6 16.5t15 6.5q5 0 13 -4q11 -8 19 2l6 9q-10 19 -37 19q-22 0 -36 -14t-14 -35zM1072 212q-22 0 -36.5 -14t-14.5 -35q0 -22 14.5 -36t36.5 -14t36 14t14 36q0 21 -14 35t-36 14zM85 127v-13h78v27h-28q-6 0 -13 -5l38 51
q4 4 4 11v13h-75v-26h26q7 0 11 4l-36 -49q-5 -6 -5 -13zM176 211v-97h67v27h-39v10h32v24h-32v10h39v26h-67zM326 211h-77v-26h26v-71h28v71h23v26zM405 114h22l-43 97h-24l-43 -97h22q9 0 12 10l3 6h35l3 -6q3 -10 13 -10zM502 211h-67v-97h29v33h31v25h-31v13h38v26z
M715 114v97h-29v-34q0 -11 3 -18l-29 43q-6 9 -13 9h-22v-97h28v39q0 8 -3 17h1l33 -50q4 -6 10 -6h21zM803 211h-77v-26h24v-71h29v71h24v26zM1249 114v97h-24q-8 0 -11 -9l-18 -35q-2 -6 -2 -11h-1q0 6 -3 11l-17 35q-6 9 -12 9h-25v-97h28v42q0 8 -3 15h1l19 -41
q3 -7 13 -7q7 0 11 7l19 41q-2 -10 -2 -15v-42h27zM560 139q-9 0 -15.5 7t-6.5 17t6.5 16.5t15.5 6.5q22 0 22 -23q0 -24 -22 -24zM1072 139q-10 0 -16 6.5t-6 17.5q0 10 6 16.5t16 6.5q9 0 15.5 -6.5t6.5 -16.5t-6.5 -17t-15.5 -7zM375 162l6 -13h-18l5 13q3 12 3 19h1
q0 -13 3 -19zM889 127q0 -14 15 -14q14 0 14 14q0 16 -14 16q-15 0 -15 -16z" />
    <glyph glyph-name="five" unicode="5" horiz-adv-x="1344" 
d="M817 504h443v-162h-1174v162h444v1q0 8 1 12v2v1q0 4 2 12q0 3 2 9q12 47 50 77t88 30q59 0 101.5 -42t42.5 -101v-1zM675 371q54 0 92.5 38.5t38.5 93.5q0 54 -38.5 92.5t-92.5 38.5q-55 0 -93.5 -38.5t-38.5 -92.5q0 -55 38.5 -93.5t93.5 -38.5zM735 602q8 -7 17 -11
h-159q10 9 18 13q12 6 20 8q17 9 42 9q23 0 44 -9zM764 427h-155l152 155q30 -39 30 -78q0 -20 -6 -41q-5 -17 -21 -36zM583 577h155l-153 -154q-14 15 -23 38q-7 20 -7 43q0 12 1 18q2 12 7 22q6 19 20 33zM192 477h-81v-27h26v-75h29v75h26v27zM204 477v-102h30v31h8
l13 -22q3 -9 12 -9h26l-18 32q-10 10 -19 10h3q8 0 16 7t8 17q0 16 -11 26t-26 10h-42zM304 477v-102h29v102h-29zM434 375h23l-44 102h-26l-44 -102h23q7 0 14 10l2 7h36l4 -7q3 -10 12 -10zM497 477h-29v-102h64v27h-35v75zM892 477q-23 0 -37.5 -15t-14.5 -38
q0 -22 15 -37t37 -15q23 0 38 14.5t15 37.5t-15 38t-38 15zM1054 374v101h-29v-35q0 -12 3 -20h-1l-31 46q-4 9 -12 9h-25v-101h30l1 40q0 10 -4 19l35 -53q6 -6 11 -6h22zM1103 475h-29v-101h65v26h-36v75zM1166 404v-30h30v30q0 6 3 10l37 61h-28q-8 0 -12 -7l-11 -19
q-1 -3 -2.5 -9.5t-1.5 -7.5q0 8 -4 17l-11 19q-4 7 -12 7h-27l37 -61q2 -3 2 -10zM245 434h-11v15h10q8 0 8 -8q0 -7 -7 -7zM892 400q-10 0 -17 7t-7 17t7 17.5t17 7.5t16.5 -7t6.5 -18q0 -24 -23 -24zM404 426l6 -13h-19l5 13q4 12 4 19h1q0 -10 3 -19zM632 392
q-16 6 -37 22h157q-3 -3 -9 -7t-8 -6q-13 -7 -18 -9q-3 -1 -11 -2.5t-11 -2.5q-12 -3 -22 -3q-23 0 -41 8zM131 313h-40v-67h7v29h28v7h-28v23h33v8zM168 252q-18 0 -18 20v41h-8v-41q0 -12 7.5 -19.5t18.5 -7.5q12 0 19.5 7.5t7.5 19.5v41h-8v-41q0 -20 -19 -20zM220 313
h-7v-67h36v7h-29v60zM270 313h-7v-67h38v7h-31v60zM369 246l29 67h-5q-4 0 -4 -3l-21 -49q-2 -6 -2 -7q0 1 -2 7l-21 49q-1 3 -5 3h-5l30 -67h6zM408 313v-67h41v7h-34v23h28v8h-28v21h34v8h-41zM464 313v-67h8v28h10l20 -25q4 -3 7 -3h5l-21 27q-2 2 -4 2h2q16 3 16 18
q0 9 -6 14.5t-14 5.5h-23zM520 257l-2 -2q10 -10 21 -10q21 0 21 20q0 15 -19 20q-12 6 -12 11q0 10 11 10q6 0 11 -3q3 -2 5 2l1 2q-5 6 -17 6q-19 0 -19 -17q0 -10 18 -18q15 -6 15 -13q0 -13 -15 -13q-7 2 -13 6q-1 1 -3 0.5t-3 -1.5zM576 313v-67h6v67h-6zM632 313
q-14 0 -24.5 -10t-10.5 -24t10.5 -24t24.5 -10q15 0 24.5 10t9.5 24t-9.5 24t-24.5 10zM735 246v67h-9v-50q0 -3 1 -5l-35 53q-3 2 -6 2h-6v-67h8v52q0 1 -0.5 2.5t-0.5 2.5l39 -55q0 -2 2 -2h7zM632 252q-11 0 -19.5 8t-8.5 19t8.5 19t19.5 8t19 -8t8 -19t-8.5 -19
t-18.5 -8zM487 282h-15v23h15q12 0 12 -12q0 -11 -12 -11zM1242 280l-2 4l-19 17l-2 -3q-2 -3 1 -6l10 -9h-457v-7h456l-9 -9q-2 -4 -1 -6l2 -3l19 18q2 2 2 4zM560 212q-21 0 -35.5 -14t-14.5 -35q0 -22 14.5 -36t35.5 -14q22 0 36.5 14t14.5 36q0 21 -14.5 35t-36.5 14z
M811 140l-5 -11q18 -16 38 -16q16 0 26.5 9t10.5 23q0 26 -30 32q-10 3 -10 6q0 4 5 4q1 0 5 -2q14 -5 19 6l5 10q-10 11 -29 11q-15 0 -24.5 -8t-9.5 -21q0 -20 32 -31q8 -3 8 -7q0 -6 -8 -6q-3 0 -13 5q-11 6 -20 -4zM927 163q0 -22 14 -36t36 -14q27 0 37 19l-6 9
q-8 10 -19 2q-6 -4 -13 -4q-9 0 -15 7t-6 17t6 16.5t15 6.5q5 0 13 -4q11 -8 19 2l6 9q-10 19 -37 19q-22 0 -36 -14t-14 -35zM1072 212q-22 0 -36.5 -14t-14.5 -35q0 -22 14.5 -36t36.5 -14t36 14t14 36q0 21 -14 35t-36 14zM85 127v-13h78v27h-28q-6 0 -13 -5l38 51
q4 4 4 11v13h-75v-26h26q7 0 11 4l-36 -49q-5 -6 -5 -13zM176 211v-97h67v27h-39v10h32v24h-32v10h39v26h-67zM326 211h-77v-26h26v-71h28v71h23v26zM405 114h22l-43 97h-24l-43 -97h22q9 0 12 10l3 6h35l3 -6q3 -10 13 -10zM502 211h-67v-97h29v33h31v25h-31v13h38v26z
M715 114v97h-29v-34q0 -11 3 -18l-29 43q-6 9 -13 9h-22v-97h28v39q0 8 -3 17h1l33 -50q4 -6 10 -6h21zM803 211h-77v-26h24v-71h29v71h24v26zM1249 114v97h-24q-8 0 -11 -9l-18 -35q-2 -6 -2 -11h-1q0 6 -3 11l-17 35q-6 9 -12 9h-25v-97h28v42q0 8 -3 15h1l19 -41
q3 -7 13 -7q7 0 11 7l19 41q-2 -10 -2 -15v-42h27zM560 139q-9 0 -15.5 7t-6.5 17t6.5 16.5t15.5 6.5q22 0 22 -23q0 -24 -22 -24zM1072 139q-10 0 -16 6.5t-6 17.5q0 10 6 16.5t16 6.5q9 0 15.5 -6.5t6.5 -16.5t-6.5 -17t-15.5 -7zM375 162l6 -13h-18l5 13q3 12 3 19h1
q0 -13 3 -19zM889 127q0 -14 15 -14q14 0 14 14q0 16 -14 16q-15 0 -15 -16z" />
    <glyph glyph-name="six" unicode="6" horiz-adv-x="1344" 
d="M817 504h443v-162h-1174v162h444v1q0 8 1 12v2v1q0 4 2 12q0 3 2 9q12 47 50 77t88 30q59 0 101.5 -42t42.5 -101v-1zM675 371q54 0 92.5 38.5t38.5 93.5q0 54 -38.5 92.5t-92.5 38.5q-55 0 -93.5 -38.5t-38.5 -92.5q0 -55 38.5 -93.5t93.5 -38.5zM735 602q8 -7 17 -11
h-159q10 9 18 13q12 6 20 8q17 9 42 9q23 0 44 -9zM764 427h-155l152 155q30 -39 30 -78q0 -20 -6 -41q-5 -17 -21 -36zM583 577h155l-153 -154q-14 15 -23 38q-7 20 -7 43q0 12 1 18q2 12 7 22q6 19 20 33zM192 477h-81v-27h26v-75h29v75h26v27zM204 477v-102h30v31h8
l13 -22q3 -9 12 -9h26l-18 32q-10 10 -19 10h3q8 0 16 7t8 17q0 16 -11 26t-26 10h-42zM304 477v-102h29v102h-29zM434 375h23l-44 102h-26l-44 -102h23q7 0 14 10l2 7h36l4 -7q3 -10 12 -10zM497 477h-29v-102h64v27h-35v75zM892 477q-23 0 -37.5 -15t-14.5 -38
q0 -22 15 -37t37 -15q23 0 38 14.5t15 37.5t-15 38t-38 15zM1054 374v101h-29v-35q0 -12 3 -20h-1l-31 46q-4 9 -12 9h-25v-101h30l1 40q0 10 -4 19l35 -53q6 -6 11 -6h22zM1103 475h-29v-101h65v26h-36v75zM1166 404v-30h30v30q0 6 3 10l37 61h-28q-8 0 -12 -7l-11 -19
q-1 -3 -2.5 -9.5t-1.5 -7.5q0 8 -4 17l-11 19q-4 7 -12 7h-27l37 -61q2 -3 2 -10zM245 434h-11v15h10q8 0 8 -8q0 -7 -7 -7zM892 400q-10 0 -17 7t-7 17t7 17.5t17 7.5t16.5 -7t6.5 -18q0 -24 -23 -24zM404 426l6 -13h-19l5 13q4 12 4 19h1q0 -10 3 -19zM632 392
q-16 6 -37 22h157q-3 -3 -9 -7t-8 -6q-13 -7 -18 -9q-3 -1 -11 -2.5t-11 -2.5q-12 -3 -22 -3q-23 0 -41 8zM131 313h-40v-67h7v29h28v7h-28v23h33v8zM168 252q-18 0 -18 20v41h-8v-41q0 -12 7.5 -19.5t18.5 -7.5q12 0 19.5 7.5t7.5 19.5v41h-8v-41q0 -20 -19 -20zM220 313
h-7v-67h36v7h-29v60zM270 313h-7v-67h38v7h-31v60zM369 246l29 67h-5q-4 0 -4 -3l-21 -49q-2 -6 -2 -7q0 1 -2 7l-21 49q-1 3 -5 3h-5l30 -67h6zM408 313v-67h41v7h-34v23h28v8h-28v21h34v8h-41zM464 313v-67h8v28h10l20 -25q4 -3 7 -3h5l-21 27q-2 2 -4 2h2q16 3 16 18
q0 9 -6 14.5t-14 5.5h-23zM520 257l-2 -2q10 -10 21 -10q21 0 21 20q0 15 -19 20q-12 6 -12 11q0 10 11 10q6 0 11 -3q3 -2 5 2l1 2q-5 6 -17 6q-19 0 -19 -17q0 -10 18 -18q15 -6 15 -13q0 -13 -15 -13q-7 2 -13 6q-1 1 -3 0.5t-3 -1.5zM576 313v-67h6v67h-6zM632 313
q-14 0 -24.5 -10t-10.5 -24t10.5 -24t24.5 -10q15 0 24.5 10t9.5 24t-9.5 24t-24.5 10zM735 246v67h-9v-50q0 -3 1 -5l-35 53q-3 2 -6 2h-6v-67h8v52q0 1 -0.5 2.5t-0.5 2.5l39 -55q0 -2 2 -2h7zM632 252q-11 0 -19.5 8t-8.5 19t8.5 19t19.5 8t19 -8t8 -19t-8.5 -19
t-18.5 -8zM487 282h-15v23h15q12 0 12 -12q0 -11 -12 -11zM1242 280l-2 4l-19 17l-2 -3q-2 -3 1 -6l10 -9h-457v-7h456l-9 -9q-2 -4 -1 -6l2 -3l19 18q2 2 2 4zM560 212q-21 0 -35.5 -14t-14.5 -35q0 -22 14.5 -36t35.5 -14q22 0 36.5 14t14.5 36q0 21 -14.5 35t-36.5 14z
M811 140l-5 -11q18 -16 38 -16q16 0 26.5 9t10.5 23q0 26 -30 32q-10 3 -10 6q0 4 5 4q1 0 5 -2q14 -5 19 6l5 10q-10 11 -29 11q-15 0 -24.5 -8t-9.5 -21q0 -20 32 -31q8 -3 8 -7q0 -6 -8 -6q-3 0 -13 5q-11 6 -20 -4zM927 163q0 -22 14 -36t36 -14q27 0 37 19l-6 9
q-8 10 -19 2q-6 -4 -13 -4q-9 0 -15 7t-6 17t6 16.5t15 6.5q5 0 13 -4q11 -8 19 2l6 9q-10 19 -37 19q-22 0 -36 -14t-14 -35zM1072 212q-22 0 -36.5 -14t-14.5 -35q0 -22 14.5 -36t36.5 -14t36 14t14 36q0 21 -14 35t-36 14zM85 127v-13h78v27h-28q-6 0 -13 -5l38 51
q4 4 4 11v13h-75v-26h26q7 0 11 4l-36 -49q-5 -6 -5 -13zM176 211v-97h67v27h-39v10h32v24h-32v10h39v26h-67zM326 211h-77v-26h26v-71h28v71h23v26zM405 114h22l-43 97h-24l-43 -97h22q9 0 12 10l3 6h35l3 -6q3 -10 13 -10zM502 211h-67v-97h29v33h31v25h-31v13h38v26z
M715 114v97h-29v-34q0 -11 3 -18l-29 43q-6 9 -13 9h-22v-97h28v39q0 8 -3 17h1l33 -50q4 -6 10 -6h21zM803 211h-77v-26h24v-71h29v71h24v26zM1249 114v97h-24q-8 0 -11 -9l-18 -35q-2 -6 -2 -11h-1q0 6 -3 11l-17 35q-6 9 -12 9h-25v-97h28v42q0 8 -3 15h1l19 -41
q3 -7 13 -7q7 0 11 7l19 41q-2 -10 -2 -15v-42h27zM560 139q-9 0 -15.5 7t-6.5 17t6.5 16.5t15.5 6.5q22 0 22 -23q0 -24 -22 -24zM1072 139q-10 0 -16 6.5t-6 17.5q0 10 6 16.5t16 6.5q9 0 15.5 -6.5t6.5 -16.5t-6.5 -17t-15.5 -7zM375 162l6 -13h-18l5 13q3 12 3 19h1
q0 -13 3 -19zM889 127q0 -14 15 -14q14 0 14 14q0 16 -14 16q-15 0 -15 -16z" />
    <glyph glyph-name="seven" unicode="7" horiz-adv-x="1344" 
d="M817 504h443v-162h-1174v162h444v1q0 8 1 12v2v1q0 4 2 12q0 3 2 9q12 47 50 77t88 30q59 0 101.5 -42t42.5 -101v-1zM675 371q54 0 92.5 38.5t38.5 93.5q0 54 -38.5 92.5t-92.5 38.5q-55 0 -93.5 -38.5t-38.5 -92.5q0 -55 38.5 -93.5t93.5 -38.5zM735 602q8 -7 17 -11
h-159q10 9 18 13q12 6 20 8q17 9 42 9q23 0 44 -9zM764 427h-155l152 155q30 -39 30 -78q0 -20 -6 -41q-5 -17 -21 -36zM583 577h155l-153 -154q-14 15 -23 38q-7 20 -7 43q0 12 1 18q2 12 7 22q6 19 20 33zM192 477h-81v-27h26v-75h29v75h26v27zM204 477v-102h30v31h8
l13 -22q3 -9 12 -9h26l-18 32q-10 10 -19 10h3q8 0 16 7t8 17q0 16 -11 26t-26 10h-42zM304 477v-102h29v102h-29zM434 375h23l-44 102h-26l-44 -102h23q7 0 14 10l2 7h36l4 -7q3 -10 12 -10zM497 477h-29v-102h64v27h-35v75zM892 477q-23 0 -37.5 -15t-14.5 -38
q0 -22 15 -37t37 -15q23 0 38 14.5t15 37.5t-15 38t-38 15zM1054 374v101h-29v-35q0 -12 3 -20h-1l-31 46q-4 9 -12 9h-25v-101h30l1 40q0 10 -4 19l35 -53q6 -6 11 -6h22zM1103 475h-29v-101h65v26h-36v75zM1166 404v-30h30v30q0 6 3 10l37 61h-28q-8 0 -12 -7l-11 -19
q-1 -3 -2.5 -9.5t-1.5 -7.5q0 8 -4 17l-11 19q-4 7 -12 7h-27l37 -61q2 -3 2 -10zM245 434h-11v15h10q8 0 8 -8q0 -7 -7 -7zM892 400q-10 0 -17 7t-7 17t7 17.5t17 7.5t16.5 -7t6.5 -18q0 -24 -23 -24zM404 426l6 -13h-19l5 13q4 12 4 19h1q0 -10 3 -19zM632 392
q-16 6 -37 22h157q-3 -3 -9 -7t-8 -6q-13 -7 -18 -9q-3 -1 -11 -2.5t-11 -2.5q-12 -3 -22 -3q-23 0 -41 8zM131 313h-40v-67h7v29h28v7h-28v23h33v8zM168 252q-18 0 -18 20v41h-8v-41q0 -12 7.5 -19.5t18.5 -7.5q12 0 19.5 7.5t7.5 19.5v41h-8v-41q0 -20 -19 -20zM220 313
h-7v-67h36v7h-29v60zM270 313h-7v-67h38v7h-31v60zM369 246l29 67h-5q-4 0 -4 -3l-21 -49q-2 -6 -2 -7q0 1 -2 7l-21 49q-1 3 -5 3h-5l30 -67h6zM408 313v-67h41v7h-34v23h28v8h-28v21h34v8h-41zM464 313v-67h8v28h10l20 -25q4 -3 7 -3h5l-21 27q-2 2 -4 2h2q16 3 16 18
q0 9 -6 14.5t-14 5.5h-23zM520 257l-2 -2q10 -10 21 -10q21 0 21 20q0 15 -19 20q-12 6 -12 11q0 10 11 10q6 0 11 -3q3 -2 5 2l1 2q-5 6 -17 6q-19 0 -19 -17q0 -10 18 -18q15 -6 15 -13q0 -13 -15 -13q-7 2 -13 6q-1 1 -3 0.5t-3 -1.5zM576 313v-67h6v67h-6zM632 313
q-14 0 -24.5 -10t-10.5 -24t10.5 -24t24.5 -10q15 0 24.5 10t9.5 24t-9.5 24t-24.5 10zM735 246v67h-9v-50q0 -3 1 -5l-35 53q-3 2 -6 2h-6v-67h8v52q0 1 -0.5 2.5t-0.5 2.5l39 -55q0 -2 2 -2h7zM632 252q-11 0 -19.5 8t-8.5 19t8.5 19t19.5 8t19 -8t8 -19t-8.5 -19
t-18.5 -8zM487 282h-15v23h15q12 0 12 -12q0 -11 -12 -11zM1242 280l-2 4l-19 17l-2 -3q-2 -3 1 -6l10 -9h-457v-7h456l-9 -9q-2 -4 -1 -6l2 -3l19 18q2 2 2 4zM560 212q-21 0 -35.5 -14t-14.5 -35q0 -22 14.5 -36t35.5 -14q22 0 36.5 14t14.5 36q0 21 -14.5 35t-36.5 14z
M811 140l-5 -11q18 -16 38 -16q16 0 26.5 9t10.5 23q0 26 -30 32q-10 3 -10 6q0 4 5 4q1 0 5 -2q14 -5 19 6l5 10q-10 11 -29 11q-15 0 -24.5 -8t-9.5 -21q0 -20 32 -31q8 -3 8 -7q0 -6 -8 -6q-3 0 -13 5q-11 6 -20 -4zM927 163q0 -22 14 -36t36 -14q27 0 37 19l-6 9
q-8 10 -19 2q-6 -4 -13 -4q-9 0 -15 7t-6 17t6 16.5t15 6.5q5 0 13 -4q11 -8 19 2l6 9q-10 19 -37 19q-22 0 -36 -14t-14 -35zM1072 212q-22 0 -36.5 -14t-14.5 -35q0 -22 14.5 -36t36.5 -14t36 14t14 36q0 21 -14 35t-36 14zM85 127v-13h78v27h-28q-6 0 -13 -5l38 51
q4 4 4 11v13h-75v-26h26q7 0 11 4l-36 -49q-5 -6 -5 -13zM176 211v-97h67v27h-39v10h32v24h-32v10h39v26h-67zM326 211h-77v-26h26v-71h28v71h23v26zM405 114h22l-43 97h-24l-43 -97h22q9 0 12 10l3 6h35l3 -6q3 -10 13 -10zM502 211h-67v-97h29v33h31v25h-31v13h38v26z
M715 114v97h-29v-34q0 -11 3 -18l-29 43q-6 9 -13 9h-22v-97h28v39q0 8 -3 17h1l33 -50q4 -6 10 -6h21zM803 211h-77v-26h24v-71h29v71h24v26zM1249 114v97h-24q-8 0 -11 -9l-18 -35q-2 -6 -2 -11h-1q0 6 -3 11l-17 35q-6 9 -12 9h-25v-97h28v42q0 8 -3 15h1l19 -41
q3 -7 13 -7q7 0 11 7l19 41q-2 -10 -2 -15v-42h27zM560 139q-9 0 -15.5 7t-6.5 17t6.5 16.5t15.5 6.5q22 0 22 -23q0 -24 -22 -24zM1072 139q-10 0 -16 6.5t-6 17.5q0 10 6 16.5t16 6.5q9 0 15.5 -6.5t6.5 -16.5t-6.5 -17t-15.5 -7zM375 162l6 -13h-18l5 13q3 12 3 19h1
q0 -13 3 -19zM889 127q0 -14 15 -14q14 0 14 14q0 16 -14 16q-15 0 -15 -16z" />
    <glyph glyph-name="eight" unicode="8" horiz-adv-x="1344" 
d="M817 504h443v-162h-1174v162h444v1q0 8 1 12v2v1q0 4 2 12q0 3 2 9q12 47 50 77t88 30q59 0 101.5 -42t42.5 -101v-1zM675 371q54 0 92.5 38.5t38.5 93.5q0 54 -38.5 92.5t-92.5 38.5q-55 0 -93.5 -38.5t-38.5 -92.5q0 -55 38.5 -93.5t93.5 -38.5zM735 602q8 -7 17 -11
h-159q10 9 18 13q12 6 20 8q17 9 42 9q23 0 44 -9zM764 427h-155l152 155q30 -39 30 -78q0 -20 -6 -41q-5 -17 -21 -36zM583 577h155l-153 -154q-14 15 -23 38q-7 20 -7 43q0 12 1 18q2 12 7 22q6 19 20 33zM192 477h-81v-27h26v-75h29v75h26v27zM204 477v-102h30v31h8
l13 -22q3 -9 12 -9h26l-18 32q-10 10 -19 10h3q8 0 16 7t8 17q0 16 -11 26t-26 10h-42zM304 477v-102h29v102h-29zM434 375h23l-44 102h-26l-44 -102h23q7 0 14 10l2 7h36l4 -7q3 -10 12 -10zM497 477h-29v-102h64v27h-35v75zM892 477q-23 0 -37.5 -15t-14.5 -38
q0 -22 15 -37t37 -15q23 0 38 14.5t15 37.5t-15 38t-38 15zM1054 374v101h-29v-35q0 -12 3 -20h-1l-31 46q-4 9 -12 9h-25v-101h30l1 40q0 10 -4 19l35 -53q6 -6 11 -6h22zM1103 475h-29v-101h65v26h-36v75zM1166 404v-30h30v30q0 6 3 10l37 61h-28q-8 0 -12 -7l-11 -19
q-1 -3 -2.5 -9.5t-1.5 -7.5q0 8 -4 17l-11 19q-4 7 -12 7h-27l37 -61q2 -3 2 -10zM245 434h-11v15h10q8 0 8 -8q0 -7 -7 -7zM892 400q-10 0 -17 7t-7 17t7 17.5t17 7.5t16.5 -7t6.5 -18q0 -24 -23 -24zM404 426l6 -13h-19l5 13q4 12 4 19h1q0 -10 3 -19zM632 392
q-16 6 -37 22h157q-3 -3 -9 -7t-8 -6q-13 -7 -18 -9q-3 -1 -11 -2.5t-11 -2.5q-12 -3 -22 -3q-23 0 -41 8zM131 313h-40v-67h7v29h28v7h-28v23h33v8zM168 252q-18 0 -18 20v41h-8v-41q0 -12 7.5 -19.5t18.5 -7.5q12 0 19.5 7.5t7.5 19.5v41h-8v-41q0 -20 -19 -20zM220 313
h-7v-67h36v7h-29v60zM270 313h-7v-67h38v7h-31v60zM369 246l29 67h-5q-4 0 -4 -3l-21 -49q-2 -6 -2 -7q0 1 -2 7l-21 49q-1 3 -5 3h-5l30 -67h6zM408 313v-67h41v7h-34v23h28v8h-28v21h34v8h-41zM464 313v-67h8v28h10l20 -25q4 -3 7 -3h5l-21 27q-2 2 -4 2h2q16 3 16 18
q0 9 -6 14.5t-14 5.5h-23zM520 257l-2 -2q10 -10 21 -10q21 0 21 20q0 15 -19 20q-12 6 -12 11q0 10 11 10q6 0 11 -3q3 -2 5 2l1 2q-5 6 -17 6q-19 0 -19 -17q0 -10 18 -18q15 -6 15 -13q0 -13 -15 -13q-7 2 -13 6q-1 1 -3 0.5t-3 -1.5zM576 313v-67h6v67h-6zM632 313
q-14 0 -24.5 -10t-10.5 -24t10.5 -24t24.5 -10q15 0 24.5 10t9.5 24t-9.5 24t-24.5 10zM735 246v67h-9v-50q0 -3 1 -5l-35 53q-3 2 -6 2h-6v-67h8v52q0 1 -0.5 2.5t-0.5 2.5l39 -55q0 -2 2 -2h7zM632 252q-11 0 -19.5 8t-8.5 19t8.5 19t19.5 8t19 -8t8 -19t-8.5 -19
t-18.5 -8zM487 282h-15v23h15q12 0 12 -12q0 -11 -12 -11zM1242 280l-2 4l-19 17l-2 -3q-2 -3 1 -6l10 -9h-457v-7h456l-9 -9q-2 -4 -1 -6l2 -3l19 18q2 2 2 4zM560 212q-21 0 -35.5 -14t-14.5 -35q0 -22 14.5 -36t35.5 -14q22 0 36.5 14t14.5 36q0 21 -14.5 35t-36.5 14z
M811 140l-5 -11q18 -16 38 -16q16 0 26.5 9t10.5 23q0 26 -30 32q-10 3 -10 6q0 4 5 4q1 0 5 -2q14 -5 19 6l5 10q-10 11 -29 11q-15 0 -24.5 -8t-9.5 -21q0 -20 32 -31q8 -3 8 -7q0 -6 -8 -6q-3 0 -13 5q-11 6 -20 -4zM927 163q0 -22 14 -36t36 -14q27 0 37 19l-6 9
q-8 10 -19 2q-6 -4 -13 -4q-9 0 -15 7t-6 17t6 16.5t15 6.5q5 0 13 -4q11 -8 19 2l6 9q-10 19 -37 19q-22 0 -36 -14t-14 -35zM1072 212q-22 0 -36.5 -14t-14.5 -35q0 -22 14.5 -36t36.5 -14t36 14t14 36q0 21 -14 35t-36 14zM85 127v-13h78v27h-28q-6 0 -13 -5l38 51
q4 4 4 11v13h-75v-26h26q7 0 11 4l-36 -49q-5 -6 -5 -13zM176 211v-97h67v27h-39v10h32v24h-32v10h39v26h-67zM326 211h-77v-26h26v-71h28v71h23v26zM405 114h22l-43 97h-24l-43 -97h22q9 0 12 10l3 6h35l3 -6q3 -10 13 -10zM502 211h-67v-97h29v33h31v25h-31v13h38v26z
M715 114v97h-29v-34q0 -11 3 -18l-29 43q-6 9 -13 9h-22v-97h28v39q0 8 -3 17h1l33 -50q4 -6 10 -6h21zM803 211h-77v-26h24v-71h29v71h24v26zM1249 114v97h-24q-8 0 -11 -9l-18 -35q-2 -6 -2 -11h-1q0 6 -3 11l-17 35q-6 9 -12 9h-25v-97h28v42q0 8 -3 15h1l19 -41
q3 -7 13 -7q7 0 11 7l19 41q-2 -10 -2 -15v-42h27zM560 139q-9 0 -15.5 7t-6.5 17t6.5 16.5t15.5 6.5q22 0 22 -23q0 -24 -22 -24zM1072 139q-10 0 -16 6.5t-6 17.5q0 10 6 16.5t16 6.5q9 0 15.5 -6.5t6.5 -16.5t-6.5 -17t-15.5 -7zM375 162l6 -13h-18l5 13q3 12 3 19h1
q0 -13 3 -19zM889 127q0 -14 15 -14q14 0 14 14q0 16 -14 16q-15 0 -15 -16z" />
    <glyph glyph-name="nine" unicode="9" horiz-adv-x="1344" 
d="M817 504h443v-162h-1174v162h444v1q0 8 1 12v2v1q0 4 2 12q0 3 2 9q12 47 50 77t88 30q59 0 101.5 -42t42.5 -101v-1zM675 371q54 0 92.5 38.5t38.5 93.5q0 54 -38.5 92.5t-92.5 38.5q-55 0 -93.5 -38.5t-38.5 -92.5q0 -55 38.5 -93.5t93.5 -38.5zM735 602q8 -7 17 -11
h-159q10 9 18 13q12 6 20 8q17 9 42 9q23 0 44 -9zM764 427h-155l152 155q30 -39 30 -78q0 -20 -6 -41q-5 -17 -21 -36zM583 577h155l-153 -154q-14 15 -23 38q-7 20 -7 43q0 12 1 18q2 12 7 22q6 19 20 33zM192 477h-81v-27h26v-75h29v75h26v27zM204 477v-102h30v31h8
l13 -22q3 -9 12 -9h26l-18 32q-10 10 -19 10h3q8 0 16 7t8 17q0 16 -11 26t-26 10h-42zM304 477v-102h29v102h-29zM434 375h23l-44 102h-26l-44 -102h23q7 0 14 10l2 7h36l4 -7q3 -10 12 -10zM497 477h-29v-102h64v27h-35v75zM892 477q-23 0 -37.5 -15t-14.5 -38
q0 -22 15 -37t37 -15q23 0 38 14.5t15 37.5t-15 38t-38 15zM1054 374v101h-29v-35q0 -12 3 -20h-1l-31 46q-4 9 -12 9h-25v-101h30l1 40q0 10 -4 19l35 -53q6 -6 11 -6h22zM1103 475h-29v-101h65v26h-36v75zM1166 404v-30h30v30q0 6 3 10l37 61h-28q-8 0 -12 -7l-11 -19
q-1 -3 -2.5 -9.5t-1.5 -7.5q0 8 -4 17l-11 19q-4 7 -12 7h-27l37 -61q2 -3 2 -10zM245 434h-11v15h10q8 0 8 -8q0 -7 -7 -7zM892 400q-10 0 -17 7t-7 17t7 17.5t17 7.5t16.5 -7t6.5 -18q0 -24 -23 -24zM404 426l6 -13h-19l5 13q4 12 4 19h1q0 -10 3 -19zM632 392
q-16 6 -37 22h157q-3 -3 -9 -7t-8 -6q-13 -7 -18 -9q-3 -1 -11 -2.5t-11 -2.5q-12 -3 -22 -3q-23 0 -41 8zM131 313h-40v-67h7v29h28v7h-28v23h33v8zM168 252q-18 0 -18 20v41h-8v-41q0 -12 7.5 -19.5t18.5 -7.5q12 0 19.5 7.5t7.5 19.5v41h-8v-41q0 -20 -19 -20zM220 313
h-7v-67h36v7h-29v60zM270 313h-7v-67h38v7h-31v60zM369 246l29 67h-5q-4 0 -4 -3l-21 -49q-2 -6 -2 -7q0 1 -2 7l-21 49q-1 3 -5 3h-5l30 -67h6zM408 313v-67h41v7h-34v23h28v8h-28v21h34v8h-41zM464 313v-67h8v28h10l20 -25q4 -3 7 -3h5l-21 27q-2 2 -4 2h2q16 3 16 18
q0 9 -6 14.5t-14 5.5h-23zM520 257l-2 -2q10 -10 21 -10q21 0 21 20q0 15 -19 20q-12 6 -12 11q0 10 11 10q6 0 11 -3q3 -2 5 2l1 2q-5 6 -17 6q-19 0 -19 -17q0 -10 18 -18q15 -6 15 -13q0 -13 -15 -13q-7 2 -13 6q-1 1 -3 0.5t-3 -1.5zM576 313v-67h6v67h-6zM632 313
q-14 0 -24.5 -10t-10.5 -24t10.5 -24t24.5 -10q15 0 24.5 10t9.5 24t-9.5 24t-24.5 10zM735 246v67h-9v-50q0 -3 1 -5l-35 53q-3 2 -6 2h-6v-67h8v52q0 1 -0.5 2.5t-0.5 2.5l39 -55q0 -2 2 -2h7zM632 252q-11 0 -19.5 8t-8.5 19t8.5 19t19.5 8t19 -8t8 -19t-8.5 -19
t-18.5 -8zM487 282h-15v23h15q12 0 12 -12q0 -11 -12 -11zM1242 280l-2 4l-19 17l-2 -3q-2 -3 1 -6l10 -9h-457v-7h456l-9 -9q-2 -4 -1 -6l2 -3l19 18q2 2 2 4zM560 212q-21 0 -35.5 -14t-14.5 -35q0 -22 14.5 -36t35.5 -14q22 0 36.5 14t14.5 36q0 21 -14.5 35t-36.5 14z
M811 140l-5 -11q18 -16 38 -16q16 0 26.5 9t10.5 23q0 26 -30 32q-10 3 -10 6q0 4 5 4q1 0 5 -2q14 -5 19 6l5 10q-10 11 -29 11q-15 0 -24.5 -8t-9.5 -21q0 -20 32 -31q8 -3 8 -7q0 -6 -8 -6q-3 0 -13 5q-11 6 -20 -4zM927 163q0 -22 14 -36t36 -14q27 0 37 19l-6 9
q-8 10 -19 2q-6 -4 -13 -4q-9 0 -15 7t-6 17t6 16.5t15 6.5q5 0 13 -4q11 -8 19 2l6 9q-10 19 -37 19q-22 0 -36 -14t-14 -35zM1072 212q-22 0 -36.5 -14t-14.5 -35q0 -22 14.5 -36t36.5 -14t36 14t14 36q0 21 -14 35t-36 14zM85 127v-13h78v27h-28q-6 0 -13 -5l38 51
q4 4 4 11v13h-75v-26h26q7 0 11 4l-36 -49q-5 -6 -5 -13zM176 211v-97h67v27h-39v10h32v24h-32v10h39v26h-67zM326 211h-77v-26h26v-71h28v71h23v26zM405 114h22l-43 97h-24l-43 -97h22q9 0 12 10l3 6h35l3 -6q3 -10 13 -10zM502 211h-67v-97h29v33h31v25h-31v13h38v26z
M715 114v97h-29v-34q0 -11 3 -18l-29 43q-6 9 -13 9h-22v-97h28v39q0 8 -3 17h1l33 -50q4 -6 10 -6h21zM803 211h-77v-26h24v-71h29v71h24v26zM1249 114v97h-24q-8 0 -11 -9l-18 -35q-2 -6 -2 -11h-1q0 6 -3 11l-17 35q-6 9 -12 9h-25v-97h28v42q0 8 -3 15h1l19 -41
q3 -7 13 -7q7 0 11 7l19 41q-2 -10 -2 -15v-42h27zM560 139q-9 0 -15.5 7t-6.5 17t6.5 16.5t15.5 6.5q22 0 22 -23q0 -24 -22 -24zM1072 139q-10 0 -16 6.5t-6 17.5q0 10 6 16.5t16 6.5q9 0 15.5 -6.5t6.5 -16.5t-6.5 -17t-15.5 -7zM375 162l6 -13h-18l5 13q3 12 3 19h1
q0 -13 3 -19zM889 127q0 -14 15 -14q14 0 14 14q0 16 -14 16q-15 0 -15 -16z" />
    <glyph glyph-name="colon" unicode=":" horiz-adv-x="222" 
d="M160 452h-99v90h99v-90zM61 0v90h99v-90h-99z" />
    <glyph glyph-name="semicolon" unicode=";" horiz-adv-x="225" 
d="M168 452h-99v90h99v-90zM78 -120l-21 31q55 38 51 89h-46v90h95q31 -156 -79 -210z" />
    <glyph glyph-name="less" unicode="&#x3c;" horiz-adv-x="549" 
d="M483 156l-28 -39l-389 228v27l391 229l26 -40l-353 -203z" />
    <glyph glyph-name="equal" unicode="=" horiz-adv-x="447" 
d="M418 481v-57h-389v57h389zM418 285v-57h-389v57h389z" />
    <glyph glyph-name="greater" unicode="&#x3e;" horiz-adv-x="549" 
d="M483 345l-389 -228l-28 39l353 202l-353 203l26 40l391 -229v-27z" />
    <glyph glyph-name="question" unicode="?" horiz-adv-x="526" 
d="M269 199h-68q-4 69 23 116.5t81 88.5q28 24 43 38.5t28.5 38.5t13.5 48q0 52 -39.5 80.5t-108.5 28.5q-94 0 -194 -68l-27 64q116 74 230 74q98 0 156.5 -47t58.5 -125q0 -35 -17.5 -67.5t-35 -49t-52.5 -46.5q-55 -46 -73 -81.5t-19 -92.5zM188 0v90h99v-90h-99z" />
    <glyph glyph-name="at" unicode="@" horiz-adv-x="977" 
d="M501 703q179 0 294.5 -115.5t115.5 -295.5q0 -95 -46.5 -159t-123.5 -64q-114 0 -133 101q-59 -85 -162 -85q-88 0 -139.5 58.5t-45.5 149.5q6 89 65 147t146 58q49 0 92.5 -26t66.5 -74l19 117l64 -10l-42 -252q-21 -132 75 -132q47 0 74.5 49.5t27.5 120.5
q0 161 -98 255.5t-250 94.5q-164 0 -268.5 -101.5t-104.5 -260.5q0 -161 107.5 -255.5t292.5 -94.5l-1 -61q-131 0 -234.5 47t-165 141.5t-61.5 222.5q0 184 122 304t313 120zM460 148q63 0 104.5 39t45.5 105q4 65 -32.5 104t-99.5 39q-62 0 -102.5 -40t-45.5 -104
t32 -103.5t98 -39.5z" />
    <glyph glyph-name="A" unicode="A" horiz-adv-x="765" 
d="M743 0h-83l-73 161h-411l-73 -161h-81l321 700h78zM382 612l-174 -381h347z" />
    <glyph glyph-name="B" unicode="B" horiz-adv-x="747" 
d="M532 359q72 -14 114 -61t42 -114q0 -85 -66.5 -134.5t-181.5 -49.5h-342v700h329q106 0 167 -47t61 -129q0 -59 -32.5 -103.5t-90.5 -61.5zM410 630h-235v-241h243q79 0 120 31.5t41 89.5q0 120 -169 120zM175 70h252q91 0 137.5 32t46.5 92q0 61 -47.5 93t-135.5 32
h-253v-249z" />
    <glyph glyph-name="C" unicode="C" horiz-adv-x="724" 
d="M428 -10q-154 0 -258 103.5t-104 256.5t103 256.5t257 103.5q160 0 265 -107l-50 -50q-86 86 -213 86q-120 0 -200.5 -82.5t-80.5 -205.5q0 -126 80.5 -208t200.5 -82q128 0 215 89l50 -49q-103 -111 -265 -111z" />
    <glyph glyph-name="D" unicode="D" horiz-adv-x="818" 
d="M375 0h-277v700h277q172 0 274.5 -95t102.5 -254q0 -161 -102.5 -256t-274.5 -95zM175 631v-562h196q138 0 219 75.5t81 205.5q0 131 -81 206t-220 75h-195z" />
    <glyph glyph-name="E" unicode="E" horiz-adv-x="689" 
d="M174 324v-255h463v-69h-539v700h529v-69h-453v-238h400v-69h-400z" />
    <glyph glyph-name="F" unicode="F" horiz-adv-x="643" 
d="M616 700v-69h-445v-263h392v-70h-392v-298h-77v700h522z" />
    <glyph glyph-name="G" unicode="G" horiz-adv-x="769" 
d="M430 -10q-158 0 -261 101.5t-103 257.5q0 157 102.5 259t259.5 102q154 0 260 -104l-50 -49q-87 82 -208 82q-124 0 -203.5 -80.5t-79.5 -209.5q0 -128 79.5 -208t207.5 -80q115 0 195 70v223h71v-257q-109 -107 -270 -107z" />
    <glyph glyph-name="H" unicode="H" horiz-adv-x="782" 
d="M606 386v314h78v-700h-78v316h-430v-316h-78v700h78v-314h430z" />
    <glyph glyph-name="I" unicode="I" horiz-adv-x="273" 
d="M175 0h-77v700h77v-700z" />
    <glyph glyph-name="J" unicode="J" horiz-adv-x="565" 
d="M250 -10q-73 0 -135 34t-96 92l51 46q30 -46 76 -73t101 -27q76 0 121.5 50.5t45.5 134.5v384h-256v69h331v-453q0 -116 -65 -186.5t-174 -70.5z" />
    <glyph glyph-name="K" unicode="K" horiz-adv-x="723" 
d="M694 0h-91l-250 350l-178 -193v-157h-77v700h77v-445l404 445h97l-270 -293z" />
    <glyph glyph-name="L" unicode="L" horiz-adv-x="610" 
d="M586 0h-488v700h77v-631h411v-69z" />
    <glyph glyph-name="M" unicode="M" horiz-adv-x="903" 
d="M452 234l282 466h71v-700h-77v558l-262 -423h-28l-263 423v-558h-77v700h71z" />
    <glyph glyph-name="N" unicode="N" horiz-adv-x="793" 
d="M175 0h-77v700h67l453 -565v565h78v-700h-65l-456 568v-568z" />
    <glyph glyph-name="O" unicode="O" horiz-adv-x="858" 
d="M428 -10q-157 0 -259.5 101.5t-102.5 258.5t102.5 258.5t260.5 101.5t260.5 -101.5t102.5 -258.5t-103 -258.5t-261 -101.5zM429 62q124 0 202.5 80t78.5 208t-79 208.5t-202 80.5t-202 -80.5t-79 -208.5t78.5 -208t202.5 -80z" />
    <glyph glyph-name="P" unicode="P" horiz-adv-x="684" 
d="M359 700q134 0 210 -62t76 -171q0 -111 -77 -173t-211 -62h-182v-232h-77v700h261zM175 302h181q101 0 156.5 42.5t55.5 123.5q0 79 -55 121t-156 42h-182v-329z" />
    <glyph glyph-name="Q" unicode="Q" horiz-adv-x="858" 
d="M870 69v-68q-96 0 -236.5 -5t-195.5 -6h-10h-2h-1q-156 1 -257.5 102.5t-101.5 257.5q0 157 102.5 258.5t260.5 101.5t260.5 -101.5t102.5 -258.5q0 -90 -36 -164.5t-101 -123.5q124 10 215 7zM148 350q0 -128 78.5 -208t202.5 -80t202.5 80t78.5 208t-79 208.5
t-202 80.5t-202 -80.5t-79 -208.5z" />
    <glyph glyph-name="R" unicode="R" horiz-adv-x="704" 
d="M660 0h-98l-229 255h-158v-255h-77v700h271q137 0 211.5 -58t74.5 -165q0 -94 -58.5 -150t-167.5 -69zM367 631h-192v-307h191q212 0 212 152q0 155 -211 155z" />
    <glyph glyph-name="S" unicode="S" horiz-adv-x="635" 
d="M325 -10q-80 0 -152 28t-125 76l37 59q109 -91 245 -91q82 0 127.5 33.5t45.5 86.5q0 56 -42.5 83t-145.5 49q-126 28 -186 74t-60 130q0 89 71 140.5t181 51.5q131 0 238 -79l-42 -57q-92 65 -201 65q-77 0 -121.5 -33t-44.5 -89q0 -53 42.5 -82t144.5 -52
q132 -29 189.5 -71t57.5 -126q0 -89 -72 -142.5t-187 -53.5z" />
    <glyph glyph-name="T" unicode="T" horiz-adv-x="622" 
d="M29 700h563v-69h-243v-631h-78v631h-242v69z" />
    <glyph glyph-name="U" unicode="U" horiz-adv-x="740" 
d="M370 -9q-136 0 -215 79.5t-79 217.5v412h78v-398q0 -109 57.5 -169.5t158.5 -60.5t159 60.5t58 169.5v398h77v-412q0 -138 -79 -217.5t-215 -79.5z" />
    <glyph glyph-name="V" unicode="V" horiz-adv-x="746" 
d="M411 0h-76l-313 700h82l268 -607h2l268 607h82z" />
    <glyph glyph-name="W" unicode="W" horiz-adv-x="1055" 
d="M762 96l189 604h82l-225 -700h-85l-195 570l-194 -570h-86l-226 700h82l191 -604l198 604h69z" />
    <glyph glyph-name="X" unicode="X" horiz-adv-x="700" 
d="M399 358l271 -358h-91l-228 300l-230 -300h-92l274 360l-260 340h92l215 -285l216 285h91z" />
    <glyph glyph-name="Y" unicode="Y" horiz-adv-x="678" 
d="M576 700h85l-283 -439v-261h-78v264l-283 436h86l237 -371z" />
    <glyph glyph-name="Z" unicode="Z" horiz-adv-x="695" 
d="M635 0h-577v49l464 582h-453v69h562v-49l-464 -582h468v-69z" />
    <glyph glyph-name="bracketleft" unicode="[" horiz-adv-x="323" 
d="M294 -174h-228v908h228v-59h-150v-790h150v-59z" />
    <glyph glyph-name="backslash" unicode="\" horiz-adv-x="621" 
d="M211 700l372 -815h-71l-372 815h71z" />
    <glyph glyph-name="bracketright" unicode="]" horiz-adv-x="323" 
d="M29 734h228v-908h-228v59h150v790h-150v59z" />
    <glyph glyph-name="asciicircum" unicode="^" horiz-adv-x="395" 
d="M232 729l97 -132l-59 -6l-72 104l-73 -104l-59 6l97 132h69z" />
    <glyph glyph-name="underscore" unicode="_" horiz-adv-x="486" 
d="M482 -38v-51h-476v51h476z" />
    <glyph glyph-name="grave" unicode="`" horiz-adv-x="301" 
d="M234 600l-52 -7l-116 127l72 17z" />
    <glyph glyph-name="a" unicode="a" horiz-adv-x="580" 
d="M275 550q114 0 172.5 -55.5t58.5 -158.5v-336h-75v102q-26 -45 -80.5 -78.5t-127.5 -33.5q-86 0 -136.5 46t-50.5 120q0 78 53 125t159 47q80 0 183 -11v18q0 72 -41.5 109.5t-121.5 37.5q-94 0 -166 -60l-38 55q87 73 211 73zM246 59q78 0 131.5 55t53.5 123v16
q-76 12 -166 12q-157 0 -157 -105q0 -49 36 -75t102 -26z" />
    <glyph glyph-name="b" unicode="b" horiz-adv-x="699" 
d="M383 550q113 0 188 -77.5t75 -201.5q0 -121 -75.5 -201t-187.5 -80q-69 0 -127 29t-92 82v-101h-74v738h74v-299q34 53 92 82t127 29zM372 59q87 0 143.5 59.5t56.5 152.5q0 92 -56.5 151t-143.5 59q-91 0 -149.5 -58t-58.5 -152t58.5 -153t149.5 -59z" />
    <glyph glyph-name="c" unicode="c" horiz-adv-x="577" 
d="M337 -10q-122 0 -203 79t-81 201t81 201t203 79q125 0 207 -86l-54 -46q-61 64 -154 64q-90 0 -149 -58t-59 -153q0 -96 59 -154t151 -58q91 0 153 65l53 -45q-81 -89 -207 -89z" />
    <glyph glyph-name="d" unicode="d" horiz-adv-x="700" 
d="M535 440v298h75v-738h-75v100q-35 -53 -92 -81.5t-126 -28.5q-112 0 -187.5 80t-75.5 201q0 124 75 201.5t188 77.5q69 0 126.5 -28.5t91.5 -81.5zM328 59q91 0 149 58.5t58 153.5q0 94 -58 152t-149 58q-87 0 -143.5 -59t-56.5 -151q0 -94 56 -153t144 -59z" />
    <glyph glyph-name="e" unicode="e" horiz-adv-x="618" 
d="M576 242h-447q7 -82 65.5 -132.5t146.5 -50.5q101 0 160 66l49 -44q-83 -90 -213 -90q-124 0 -204 79t-80 201t76.5 200.5t199.5 78.5q111 0 181 -73t70 -190q0 -18 -4 -45zM329 482q-82 0 -135.5 -48t-63.5 -127h377q-8 84 -55.5 129.5t-122.5 45.5z" />
    <glyph glyph-name="f" unicode="f" horiz-adv-x="417" 
d="M222 574v-33h188v-69h-188v-472h-75v472h-101v69h101v41q0 78 43 122t116 44q66 0 116 -23l-15 -66q-41 19 -87 19q-98 0 -98 -104z" />
    <glyph glyph-name="g" unicode="g" horiz-adv-x="615" 
d="M219 122h155q103 0 158 -36.5t55 -98.5q0 -76 -75.5 -121.5t-211.5 -45.5q-115 0 -180 37t-65 102q0 64 83 106q-57 27 -55 85q0 62 66 90q-64 48 -64 134q0 81 60 129t163 48q62 0 103 -19l140 35l17 -62l-91 -15q56 -40 56 -116q0 -83 -60 -131t-163 -48q-63 0 -114 19
q-39 -17 -39 -46q0 -22 17 -34t45 -12zM309 485q-71 0 -110.5 -29t-39.5 -81q0 -54 39.5 -84t110.5 -30t110.5 29.5t39.5 83.5q0 53 -39.5 82t-110.5 29zM304 -112q208 0 208 95q0 70 -158 70h-155h-4q-64 -37 -64 -83q0 -82 173 -82z" />
    <glyph glyph-name="h" unicode="h" horiz-adv-x="661" 
d="M371 550q98 0 157 -62t59 -169v-319h-75v309q0 81 -41.5 126.5t-116.5 45.5q-80 0 -135 -57t-55 -144v-280h-74v738h74v-294q32 48 85.5 77t121.5 29z" />
    <glyph glyph-name="i" unicode="i" horiz-adv-x="242" 
d="M161 617h-79v110h79v-110zM158 0h-74v541h74v-541z" />
    <glyph glyph-name="j" unicode="j" horiz-adv-x="255" 
d="M173 617h-79v110h79v-110zM-66 -153l22 61q23 -14 54 -14q39 0 62.5 22t23.5 63v562h75v-568q0 -71 -42.5 -109t-110.5 -38q-42 0 -84 21z" />
    <glyph glyph-name="k" unicode="k" horiz-adv-x="630" 
d="M610 0h-90l-228 264l-128 -126v-138h-74v738h74v-510l311 313h99l-233 -229z" />
    <glyph glyph-name="l" unicode="l" horiz-adv-x="254" 
d="M164 0h-74v738h74v-738z" />
    <glyph glyph-name="m" unicode="m" horiz-adv-x="1023" 
d="M752 550q91 0 144.5 -60t53.5 -165v-325h-76v315q0 79 -36.5 122.5t-105.5 43.5q-73 0 -125.5 -57.5t-52.5 -141.5v-282h-75v315q0 79 -36.5 122.5t-105.5 43.5q-74 0 -126.5 -57.5t-52.5 -141.5v-282h-74v541h74v-96q32 47 83.5 76t114.5 29q68 0 115.5 -33.5
t68.5 -94.5q28 55 84.5 91.5t127.5 36.5z" />
    <glyph glyph-name="n" unicode="n" horiz-adv-x="655" 
d="M365 550q98 0 157 -62t59 -169v-319h-75v309q0 81 -41.5 126.5t-116.5 45.5q-80 0 -135 -57t-55 -144v-280h-74v541h74v-97q32 48 85.5 77t121.5 29z" />
    <glyph glyph-name="o" unicode="o" 
d="M337 -10q-124 0 -204 79.5t-80 201.5t80 200.5t204 78.5t204.5 -78.5t80.5 -199.5q0 -122 -80.5 -202t-204.5 -80zM338 59q91 0 150 59.5t59 152.5t-59 152t-151 59q-91 0 -150 -59t-59 -152t59 -152.5t151 -59.5z" />
    <glyph glyph-name="p" unicode="p" horiz-adv-x="693" 
d="M377 550q112 0 187.5 -79.5t75.5 -201.5q0 -123 -75 -201t-188 -78q-70 0 -127.5 29t-91.5 83v-273h-74v712h74v-102q34 53 92 82t127 29zM366 60q87 0 143.5 58.5t56.5 150.5q0 93 -56.5 152.5t-143.5 59.5q-91 0 -149.5 -58.5t-58.5 -152.5t58.5 -152t149.5 -58z" />
    <glyph glyph-name="q" unicode="q" horiz-adv-x="692" 
d="M534 440v101h74v-712h-74v272q-34 -53 -91.5 -82t-126.5 -29q-113 0 -188 78t-75 201q0 122 75.5 201.5t186.5 79.5q69 0 127 -29t92 -81zM327 60q91 0 149 58t58 152t-58 152.5t-149 58.5q-88 0 -144 -59t-56 -153q0 -92 56.5 -150.5t143.5 -58.5z" />
    <glyph glyph-name="r" unicode="r" horiz-adv-x="400" 
d="M329 547q24 0 51 -5l-3 -77q-24 7 -50 7q-78 0 -123.5 -64.5t-45.5 -160.5v-247h-74v541h74v-102q27 52 72 80t99 28z" />
    <glyph glyph-name="s" unicode="s" horiz-adv-x="526" 
d="M263 -9q-62 0 -122.5 20t-103.5 51l32 62q91 -64 198 -64q67 0 104.5 22.5t37.5 65.5q0 38 -33.5 58t-119.5 36q-113 21 -157 56.5t-44 98.5q0 71 53 111.5t147 40.5q55 0 114 -15.5t95 -41.5l-31 -63q-74 51 -183 51q-56 0 -87.5 -20t-31.5 -57q0 -34 31 -54t115 -36
q116 -24 161.5 -61.5t45.5 -101.5q0 -75 -59.5 -117t-161.5 -42z" />
    <glyph glyph-name="t" unicode="t" horiz-adv-x="480" 
d="M424 82l15 -59q-53 -33 -132 -33q-73 0 -116.5 42.5t-43.5 117.5v322h-108v69h109l6 146h68v-146h195v-69h-195v-309q0 -48 27 -76.5t71 -28.5q59 0 104 24z" />
    <glyph glyph-name="u" unicode="u" horiz-adv-x="655" 
d="M497 261v280h74v-541h-74v97q-32 -48 -85.5 -77t-121.5 -29q-98 0 -157 62t-59 169v319h75v-309q0 -81 41.5 -126.5t116.5 -45.5q80 0 135 57t55 144z" />
    <glyph glyph-name="v" unicode="v" horiz-adv-x="586" 
d="M333 0h-80l-236 541h82l194 -455l194 455h82z" />
    <glyph glyph-name="w" unicode="w" horiz-adv-x="882" 
d="M628 87l152 454h79l-188 -541h-85l-145 440l-145 -440h-84l-190 541h79l153 -454l148 454h77z" />
    <glyph glyph-name="x" unicode="x" horiz-adv-x="590" 
d="M340 277l221 -277h-87l-180 224l-180 -224h-85l221 276l-212 265h89l168 -214l168 214h87z" />
    <glyph glyph-name="y" unicode="y" horiz-adv-x="592" 
d="M299 86l194 455h82l-236 -541l-22 -51q-30 -69 -71.5 -99.5t-106.5 -30.5q-60 0 -106 29l24 55q38 -20 79 -20q39 0 63 19.5t45 64.5l15 34l-236 540h82z" />
    <glyph glyph-name="z" unicode="z" horiz-adv-x="532" 
d="M495 0h-458v46l348 426h-340v69h446v-46l-351 -427h355v-68z" />
    <glyph glyph-name="braceleft" unicode="{" horiz-adv-x="354" 
d="M208 7q-4 -60 18.5 -87t98.5 -36l-1 -58q-66 3 -107 15t-60.5 35t-24 50t-0.5 68q13 151 13 170q1 47 -28.5 68t-87.5 21v54q58 0 87.5 21t28.5 67q0 20 -13 171q-4 41 0.5 68t24 50t60.5 35t107 15l1 -59q-76 -8 -98.5 -35t-18.5 -87q1 -16 4.5 -50t5.5 -61t2 -51
q0 -101 -102 -111q102 -10 102 -112q0 -5 -12 -161z" />
    <glyph glyph-name="bar" unicode="|" horiz-adv-x="263" 
d="M165 700v-795h-67v795h67z" />
    <glyph glyph-name="braceright" unicode="}" horiz-adv-x="354" 
d="M209 396q-1 -47 28.5 -68t87.5 -21v-54q-58 0 -87.5 -21t-28.5 -67q1 -43 14 -171q4 -41 -1 -68t-24.5 -50t-60.5 -35t-107 -15l-1 59q76 8 99 35t18 87q-1 16 -4.5 50t-5.5 61t-2 51q0 101 102 111q-102 10 -102 112q0 5 12 161q5 60 -18 87t-99 36l1 58q66 -3 107 -15
t60.5 -35t24.5 -50t1 -68q-14 -135 -14 -170z" />
    <glyph glyph-name="asciitilde" unicode="~" horiz-adv-x="502" 
d="M71 583l-42 13q26 78 120 78q42 0 105 -24t92 -24q63 0 85 49l42 -12q-25 -79 -119 -79q-39 0 -103 24.5t-95 24.5q-63 0 -85 -50z" />
    <glyph glyph-name="uni00A0" unicode="&#xa0;" horiz-adv-x="280" 
 />
    <glyph glyph-name="exclamdown" unicode="&#xa1;" horiz-adv-x="222" 
d="M160 451h-99v89h99v-89zM148 -161h-75v311l10 191h54l11 -192v-310z" />
    <glyph glyph-name="cent" unicode="&#xa2;" horiz-adv-x="574" 
d="M338 59q91 0 153 65l53 -45q-81 -89 -207 -89q-17 0 -26 1l-24 -139h-61l26 149q-90 25 -144.5 97.5t-54.5 171.5q0 122 81 201t203 79h12l24 135h60l-25 -143q80 -19 136 -78l-54 -46q-40 43 -94 57l-73 -416h15zM128 271q0 -75 37 -127.5t100 -73.5l72 412h-1
q-90 0 -149 -58t-59 -153z" />
    <glyph glyph-name="sterling" unicode="&#xa3;" horiz-adv-x="592" 
d="M437 280h-236v-220h354v-61h-512v46l87 13v222h-101v47h101v119q0 122 61.5 192.5t168.5 70.5q120 0 203 -104l-45 -44q-61 85 -154 85q-78 0 -120.5 -54t-42.5 -142v-123h236v-47z" />
    <glyph glyph-name="yen" unicode="&#xa5;" horiz-adv-x="678" 
d="M576 700h85l-256 -397h136v-47h-163v-86h163v-47h-163v-123h-78v123h-166v47h166v86h-166v47h140l-257 397h86l237 -371z" />
    <glyph glyph-name="brokenbar" unicode="&#xa6;" horiz-adv-x="255" 
d="M161 700v-300h-67v300h67zM161 213v-301h-67v301h67z" />
    <glyph glyph-name="section" unicode="&#xa7;" horiz-adv-x="641" 
d="M375 647q7 -52 34.5 -114.5t56 -111t51.5 -114.5t23 -128q0 -88 -64 -138t-158 -50q-104 0 -203 55l21 53q70 -39 143 -45q-6 52 -33.5 114.5t-56.5 111t-52.5 115t-23.5 127.5q0 88 64 138t158 50q104 0 203 -55l-21 -53q-71 39 -142 45zM341 53q63 7 98.5 40t35.5 89
q0 55 -23.5 116.5t-52.5 109.5t-55.5 114t-31.5 126q-63 -7 -98.5 -40t-35.5 -89q0 -45 15.5 -92.5t38 -90.5t45.5 -86t41.5 -95t22.5 -102z" />
    <glyph glyph-name="dieresis" unicode="&#xa8;" horiz-adv-x="346" 
d="M123 617h-57v110h57v-110zM280 617h-56v110h56v-110z" />
    <glyph glyph-name="copyright" unicode="&#xa9;" horiz-adv-x="846" 
d="M423 -6q-148 0 -252.5 104.5t-104.5 252.5t104.5 252.5t252.5 104.5t252.5 -104.5t104.5 -252.5t-104.5 -252.5t-252.5 -104.5zM423 51q125 0 213 88t88 212t-88 212t-213 88q-124 0 -212 -88t-88 -212t88 -212t212 -88zM429 159q-84 0 -140.5 55.5t-56.5 140.5
q0 84 56.5 139t140.5 55q92 0 148 -60l-33 -31q-45 45 -112 45q-61 0 -102 -41.5t-41 -106.5t41 -107.5t102 -42.5q65 0 112 49l33 -31q-55 -64 -148 -64z" />
    <glyph glyph-name="ordfeminine" unicode="&#xaa;" horiz-adv-x="311" 
d="M132 669q41 0 83 -5v8q0 64 -73 64q-49 0 -87 -23l-15 40q48 28 109 28q62 0 94 -30.5t32 -84.5v-164h-60v60q-11 -27 -38 -46.5t-60 -19.5q-43 0 -69 22t-26 59q0 42 29 67t81 25zM137 540q32 0 55 23t23 54v12q-25 5 -69 5q-31 0 -48.5 -12.5t-17.5 -33.5q0 -48 57 -48
zM22 400v49h254v-49h-254z" />
    <glyph glyph-name="guillemotleft" unicode="&#xab;" horiz-adv-x="486" 
d="M252 64l-43 -23l-180 204v27l175 204l48 -23l-158 -195zM456 64l-48 -23l-183 213v8l183 214l48 -23l-157 -195z" />
    <glyph glyph-name="logicalnot" unicode="&#xac;" horiz-adv-x="455" 
d="M29 313v60h397v-194h-60v134h-337z" />
    <glyph glyph-name="uni00AD" unicode="&#xad;" horiz-adv-x="447" 
d="M418 251v-60h-389v60h389z" />
    <glyph glyph-name="registered" unicode="&#xae;" horiz-adv-x="434" 
d="M216 710q63 0 107 -44t44 -106q0 -63 -44 -107.5t-107 -44.5q-62 0 -106 44.5t-44 107.5q0 62 44 106t106 44zM216 426q56 0 95 39t39 95q0 55 -39.5 94t-94.5 39t-94 -39t-39 -94t39 -94.5t94 -39.5zM295 594q0 -47 -51 -55l53 -61h-31l-50 59h-36v-59h-26v172h68
q34 0 53.5 -15t19.5 -41zM222 628h-42v-69h42q48 0 48 34q0 35 -48 35z" />
    <glyph glyph-name="macron" unicode="&#xaf;" horiz-adv-x="414" 
d="M348 641h-282l1 49h281v-49z" />
    <glyph glyph-name="degree" unicode="&#xb0;" horiz-adv-x="434" 
d="M216 408q-62 0 -106 44.5t-44 107.5q0 62 44 106t106 44q63 0 107 -44t44 -106q0 -63 -44 -107.5t-107 -44.5zM216 438q50 0 86 35.5t36 86.5q0 49 -36 84.5t-86 35.5t-86 -35.5t-36 -84.5q0 -51 36 -86.5t86 -35.5z" />
    <glyph glyph-name="plusminus" unicode="&#xb1;" horiz-adv-x="503" 
d="M473 363v-60h-192v-151h182v-49h-416v49h174v151h-192v60h192v172h60v-172h192z" />
    <glyph glyph-name="acute" unicode="&#xb4;" horiz-adv-x="301" 
d="M246 720l-115 -127l-53 7l97 137z" />
    <glyph glyph-name="uni00B5" unicode="&#xb5;" horiz-adv-x="655" 
d="M497 261v280h74v-541h-74v97q-32 -48 -85.5 -77t-121.5 -29q-85 0 -142 48l2 -210h-74v356q-2 24 -2 37v319h75v-309q0 -81 41.5 -126.5t116.5 -45.5q80 0 135 57t55 144z" />
    <glyph glyph-name="paragraph" unicode="&#xb6;" horiz-adv-x="733" 
d="M290 700h125v-820h-52v410h-71q-119 0 -186.5 54.5t-67.5 151.5q0 96 67 150t185 54zM583 -120v820h52v-820h-52z" />
    <glyph glyph-name="periodcentered" unicode="&#xb7;" horiz-adv-x="194" 
d="M52 324v83h92v-83h-92z" />
    <glyph glyph-name="cedilla" unicode="&#xb8;" horiz-adv-x="249" 
d="M143 5l-13 -44q34 -5 53.5 -23t19.5 -44q0 -31 -27 -50.5t-78 -19.5q-32 0 -62 7l10 43q21 -7 46 -7q23 0 35 9.5t12 23.5q0 39 -67 40l19 65h52z" />
    <glyph glyph-name="ordmasculine" unicode="&#xba;" horiz-adv-x="350" 
d="M175 496q-64 0 -106 40.5t-42 102.5q0 61 42 101.5t106 40.5t106.5 -40.5t42.5 -101.5q0 -62 -42.5 -102.5t-106.5 -40.5zM175 545q38 0 63 26.5t25 67.5q0 40 -25 67t-63 27t-63 -27t-25 -67t25.5 -67t62.5 -27zM35 400v49h283v-49h-283z" />
    <glyph glyph-name="guillemotright" unicode="&#xbb;" horiz-adv-x="486" 
d="M261 254l-183 -213l-48 23l157 194l-157 195l48 23l183 -214v-8zM457 245l-180 -204l-43 23l158 194l-158 195l48 23l175 -204v-27z" />
    <glyph glyph-name="questiondown" unicode="&#xbf;" horiz-adv-x="526" 
d="M339 541v-90h-99v90h99zM257 342h68q5 -69 -22 -116.5t-82 -89.5q-29 -24 -43.5 -38t-28 -38t-13.5 -49q0 -51 40 -80t109 -29q91 0 194 69l27 -65q-120 -74 -230 -74q-99 0 -157 47t-58 126q0 35 17 66.5t35 49.5t52 46q55 47 73 82.5t19 92.5z" />
    <glyph glyph-name="Agrave" unicode="&#xc0;" horiz-adv-x="765" 
d="M326 865l80 -113l-52 -5l-94 101zM743 0h-83l-73 161h-411l-73 -161h-81l321 700h78zM382 612l-174 -381h347z" />
    <glyph glyph-name="Aacute" unicode="&#xc1;" horiz-adv-x="765" 
d="M439 865l66 -17l-94 -101l-52 5zM743 0h-83l-73 161h-411l-73 -161h-81l321 700h78zM382 612l-174 -381h347z" />
    <glyph glyph-name="Acircumflex" unicode="&#xc2;" horiz-adv-x="765" 
d="M462 754l-78 96l-78 -96l-64 6l105 121h74l105 -121zM743 0h-83l-73 161h-411l-73 -161h-81l321 700h78zM382 612l-174 -381h347z" />
    <glyph glyph-name="Atilde" unicode="&#xc3;" horiz-adv-x="765" 
d="M307 807q-22 0 -36 -15t-14 -39l-40 10q0 41 23.5 66.5t59.5 25.5q29 0 71.5 -24.5t61.5 -24.5q22 0 36 15t14 39l39 -10q0 -41 -23 -66.5t-59 -25.5q-29 0 -71.5 24.5t-61.5 24.5zM743 0h-83l-73 161h-411l-73 -161h-81l321 700h78zM382 612l-174 -381h347z" />
    <glyph glyph-name="Adieresis" unicode="&#xc4;" horiz-adv-x="765" 
d="M278 870h70v-105h-70v105zM429 870h71v-105h-71v105zM743 0h-83l-73 161h-411l-73 -161h-81l321 700h78zM382 612l-174 -381h347z" />
    <glyph glyph-name="Aring" unicode="&#xc5;" horiz-adv-x="765" 
d="M743 0h-83l-73 161h-411l-73 -161h-81l310 675q-61 31 -61 100q0 49 34 81t85 32q52 0 86 -32t34 -81q0 -37 -20.5 -65.5t-54.5 -40.5zM390 843q-29 0 -49 -19.5t-20 -48.5q0 -30 19.5 -49t49.5 -19t49.5 19t19.5 49q0 29 -19.5 48.5t-49.5 19.5zM382 612l-174 -381h347z
" />
    <glyph glyph-name="AE" unicode="&#xc6;" horiz-adv-x="1079" 
d="M565 324v-255h463v-69h-540v178h-279l-106 -178h-81l411 700h585v-69h-453v-238h400v-69h-400zM481 635l-230 -387h237v387h-7z" />
    <glyph glyph-name="Ccedilla" unicode="&#xc7;" horiz-adv-x="724" 
d="M643 150l50 -49q-92 -100 -235 -110l-11 -36q34 -5 53.5 -23t19.5 -44q0 -31 -27 -50.5t-78 -19.5q-32 0 -62 7l10 43q21 -7 46 -7q23 0 35 9.5t12 23.5q0 39 -67 40l17 57q-147 8 -243.5 110t-96.5 249q0 153 103 256.5t257 103.5q160 0 265 -107l-50 -50
q-86 86 -213 86q-120 0 -200.5 -82.5t-80.5 -205.5q0 -126 80.5 -208t200.5 -82q128 0 215 89z" />
    <glyph glyph-name="Egrave" unicode="&#xc8;" horiz-adv-x="689" 
d="M290 865l80 -113l-52 -5l-94 101zM174 324v-255h463v-69h-539v700h529v-69h-453v-238h400v-69h-400z" />
    <glyph glyph-name="Eacute" unicode="&#xc9;" horiz-adv-x="689" 
d="M403 865l66 -17l-94 -101l-52 5zM174 324v-255h463v-69h-539v700h529v-69h-453v-238h400v-69h-400z" />
    <glyph glyph-name="Ecircumflex" unicode="&#xca;" horiz-adv-x="689" 
d="M426 754l-78 96l-78 -96l-64 6l105 121h74l105 -121zM174 324v-255h463v-69h-539v700h529v-69h-453v-238h400v-69h-400z" />
    <glyph glyph-name="Edieresis" unicode="&#xcb;" horiz-adv-x="689" 
d="M242 870h70v-105h-70v105zM393 870h71v-105h-71v105zM174 324v-255h463v-69h-539v700h529v-69h-453v-238h400v-69h-400z" />
    <glyph glyph-name="Igrave" unicode="&#xcc;" horiz-adv-x="273" 
d="M160 752l-52 -5l-94 101l66 17zM175 0h-77v700h77v-700z" />
    <glyph glyph-name="Iacute" unicode="&#xcd;" horiz-adv-x="273" 
d="M259 848l-94 -101l-52 5l80 113zM175 0h-77v700h77v-700z" />
    <glyph glyph-name="Icircumflex" unicode="&#xce;" horiz-adv-x="273" 
d="M175 881l105 -121l-64 -6l-78 96l-78 -96l-64 6l105 121h74zM175 0h-77v700h77v-700z" />
    <glyph glyph-name="Idieresis" unicode="&#xcf;" horiz-adv-x="273" 
d="M102 765h-70v105h70v-105zM254 765h-71v105h71v-105zM175 0h-77v700h77v-700z" />
    <glyph glyph-name="Eth" unicode="&#xd0;" horiz-adv-x="818" 
d="M98 700h277q172 0 274.5 -95t102.5 -254q0 -161 -102.5 -256t-274.5 -95h-277v324h-63v57h63v319zM175 69h196q138 0 219 75.5t81 205.5q0 131 -81 206t-220 75h-195v-250h231v-57h-231v-255z" />
    <glyph glyph-name="Ntilde" unicode="&#xd1;" horiz-adv-x="793" 
d="M272 753l-40 10q0 41 23.5 66.5t59.5 25.5q29 0 71.5 -24.5t61.5 -24.5q22 0 36 15t14 39l39 -10q0 -41 -23 -66.5t-59 -25.5q-29 0 -71.5 24.5t-61.5 24.5q-22 0 -36 -15t-14 -39zM175 0h-77v700h67l453 -565v565h78v-700h-65l-456 568v-568z" />
    <glyph glyph-name="Ograve" unicode="&#xd2;" horiz-adv-x="858" 
d="M452 752l-52 -5l-94 101l66 17zM428 -10q-157 0 -259.5 101.5t-102.5 258.5t102.5 258.5t260.5 101.5t260.5 -101.5t102.5 -258.5t-103 -258.5t-261 -101.5zM429 62q124 0 202.5 80t78.5 208t-79 208.5t-202 80.5t-202 -80.5t-79 -208.5t78.5 -208t202.5 -80z" />
    <glyph glyph-name="Oacute" unicode="&#xd3;" horiz-adv-x="858" 
d="M552 848l-94 -101l-52 5l80 113zM428 -10q-157 0 -259.5 101.5t-102.5 258.5t102.5 258.5t260.5 101.5t260.5 -101.5t102.5 -258.5t-103 -258.5t-261 -101.5zM429 62q124 0 202.5 80t78.5 208t-79 208.5t-202 80.5t-202 -80.5t-79 -208.5t78.5 -208t202.5 -80z" />
    <glyph glyph-name="Ocircumflex" unicode="&#xd4;" horiz-adv-x="858" 
d="M508 754l-78 96l-78 -96l-64 6l105 121h74l105 -121zM429 710q158 0 260.5 -101.5t102.5 -258.5t-103 -258.5t-261 -101.5q-157 0 -259.5 101.5t-102.5 258.5t102.5 258.5t260.5 101.5zM429 62q124 0 202.5 80t78.5 208t-79 208.5t-202 80.5t-202 -80.5t-79 -208.5
t78.5 -208t202.5 -80z" />
    <glyph glyph-name="Otilde" unicode="&#xd5;" horiz-adv-x="858" 
d="M304 753l-40 10q0 41 23.5 66.5t59.5 25.5q29 0 71.5 -24.5t61.5 -24.5q22 0 36 15t14 39l39 -10q0 -41 -23 -66.5t-59 -25.5q-29 0 -71.5 24.5t-61.5 24.5q-22 0 -36 -15t-14 -39zM428 -10q-157 0 -259.5 101.5t-102.5 258.5t102.5 258.5t260.5 101.5t260.5 -101.5
t102.5 -258.5t-103 -258.5t-261 -101.5zM429 62q124 0 202.5 80t78.5 208t-79 208.5t-202 80.5t-202 -80.5t-79 -208.5t78.5 -208t202.5 -80z" />
    <glyph glyph-name="Odieresis" unicode="&#xd6;" horiz-adv-x="858" 
d="M394 765h-70v105h70v-105zM546 765h-71v105h71v-105zM428 -10q-157 0 -259.5 101.5t-102.5 258.5t102.5 258.5t260.5 101.5t260.5 -101.5t102.5 -258.5t-103 -258.5t-261 -101.5zM429 62q124 0 202.5 80t78.5 208t-79 208.5t-202 80.5t-202 -80.5t-79 -208.5t78.5 -208
t202.5 -80z" />
    <glyph glyph-name="multiply" unicode="&#xd7;" horiz-adv-x="397" 
d="M325 520l42 -42l-126 -126l126 -127l-42 -42l-126 126l-127 -127l-43 43l127 127l-126 126l42 43l127 -127z" />
    <glyph glyph-name="Oslash" unicode="&#xd8;" horiz-adv-x="858" 
d="M757 719l41 -41l-90 -90q84 -98 84 -238q0 -157 -103 -258.5t-261 -101.5q-138 0 -236 81l-79 -79l-41 42l78 78q-84 98 -84 238q0 157 102.5 258.5t260.5 101.5q138 0 238 -81zM148 350q0 -107 57 -183l408 408q-75 64 -184 64q-123 0 -202 -80.5t-79 -208.5zM710 350
q0 107 -57 183l-407 -408q76 -63 183 -63q124 0 202.5 80t78.5 208z" />
    <glyph glyph-name="Ugrave" unicode="&#xd9;" horiz-adv-x="740" 
d="M394 752l-52 -5l-94 101l66 17zM370 -9q-136 0 -215 79.5t-79 217.5v412h78v-398q0 -109 57.5 -169.5t158.5 -60.5t159 60.5t58 169.5v398h77v-412q0 -138 -79 -217.5t-215 -79.5z" />
    <glyph glyph-name="Uacute" unicode="&#xda;" horiz-adv-x="740" 
d="M493 848l-94 -101l-52 5l80 113zM370 -9q-136 0 -215 79.5t-79 217.5v412h78v-398q0 -109 57.5 -169.5t158.5 -60.5t159 60.5t58 169.5v398h77v-412q0 -138 -79 -217.5t-215 -79.5z" />
    <glyph glyph-name="Ucircumflex" unicode="&#xdb;" horiz-adv-x="740" 
d="M450 754l-78 96l-78 -96l-64 6l105 121h74l105 -121zM587 302v398h77v-412q0 -138 -79 -217.5t-215 -79.5t-215 79.5t-79 217.5v412h78v-398q0 -109 57.5 -169.5t158.5 -60.5t159 60.5t58 169.5z" />
    <glyph glyph-name="Udieresis" unicode="&#xdc;" horiz-adv-x="740" 
d="M336 765h-70v105h70v-105zM488 765h-71v105h71v-105zM370 -9q-136 0 -215 79.5t-79 217.5v412h78v-398q0 -109 57.5 -169.5t158.5 -60.5t159 60.5t58 169.5v398h77v-412q0 -138 -79 -217.5t-215 -79.5z" />
    <glyph glyph-name="Yacute" unicode="&#xdd;" horiz-adv-x="678" 
d="M396 865l66 -17l-94 -101l-52 5zM576 700h85l-283 -439v-261h-78v264l-283 436h86l237 -371z" />
    <glyph glyph-name="Thorn" unicode="&#xde;" horiz-adv-x="684" 
d="M175 587h184q134 0 210 -62t76 -171q0 -111 -77 -173t-211 -62h-182v-119h-77v700h77v-113zM175 182h181q101 0 156.5 45t55.5 127q0 80 -55.5 125t-155.5 45h-182v-342z" />
    <glyph glyph-name="germandbls" unicode="&#xdf;" horiz-adv-x="665" 
d="M424 384q83 -11 135.5 -61t52.5 -124q0 -93 -66 -150t-172 -57q-71 0 -125 28l5 59q51 -27 104 -27q84 0 133 41.5t49 112.5q0 65 -53.5 104.5t-137.5 39.5q-39 0 -61 -5l-1 50q2 0 14 1.5t22.5 2.5t13.5 2q67 14 109 57t42 98q0 56 -42.5 93.5t-108.5 37.5
q-75 0 -120 -48t-45 -128v-511h-74v512q0 106 65.5 171t173.5 65q97 0 160.5 -53t63.5 -134q0 -59 -38 -107.5t-99 -69.5z" />
    <glyph glyph-name="agrave" unicode="&#xe0;" horiz-adv-x="580" 
d="M210 739l96 -137l-52 -7l-116 127zM275 550q114 0 172.5 -55.5t58.5 -158.5v-336h-75v102q-26 -45 -80.5 -78.5t-127.5 -33.5q-86 0 -136.5 46t-50.5 120q0 78 53 125t159 47q80 0 183 -11v18q0 72 -41.5 109.5t-121.5 37.5q-94 0 -166 -60l-38 55q87 73 211 73zM246 59
q78 0 131.5 55t53.5 123v16q-76 12 -166 12q-157 0 -157 -105q0 -49 36 -75t102 -26z" />
    <glyph glyph-name="aacute" unicode="&#xe1;" horiz-adv-x="580" 
d="M350 739l71 -17l-115 -127l-53 7zM275 550q114 0 172.5 -55.5t58.5 -158.5v-336h-75v102q-26 -45 -80.5 -78.5t-127.5 -33.5q-86 0 -136.5 46t-50.5 120q0 78 53 125t159 47q80 0 183 -11v18q0 72 -41.5 109.5t-121.5 37.5q-94 0 -166 -60l-38 55q87 73 211 73zM246 59
q78 0 131.5 55t53.5 123v16q-76 12 -166 12q-157 0 -157 -105q0 -49 36 -75t102 -26z" />
    <glyph glyph-name="acircumflex" unicode="&#xe2;" horiz-adv-x="580" 
d="M352 593l-72 104l-73 -104l-59 6l97 132h69l97 -132zM275 550q114 0 172.5 -55.5t58.5 -158.5v-336h-75v102q-26 -45 -80.5 -78.5t-127.5 -33.5q-86 0 -136.5 46t-50.5 120q0 78 53 125t159 47q80 0 183 -11v18q0 72 -41.5 109.5t-121.5 37.5q-94 0 -166 -60l-38 55
q87 73 211 73zM246 59q78 0 131.5 55t53.5 123v16q-76 12 -166 12q-157 0 -157 -105q0 -49 36 -75t102 -26z" />
    <glyph glyph-name="atilde" unicode="&#xe3;" horiz-adv-x="580" 
d="M217 663q-22 0 -36 -15t-14 -39l-40 10q0 41 23.5 66.5t59.5 25.5q29 0 71.5 -24.5t61.5 -24.5q22 0 36 15t14 39l39 -10q0 -41 -23 -66.5t-59 -25.5q-29 0 -71.5 24.5t-61.5 24.5zM275 550q114 0 172.5 -55.5t58.5 -158.5v-336h-75v102q-26 -45 -80.5 -78.5
t-127.5 -33.5q-86 0 -136.5 46t-50.5 120q0 78 53 125t159 47q80 0 183 -11v18q0 72 -41.5 109.5t-121.5 37.5q-94 0 -166 -60l-38 55q87 73 211 73zM246 59q78 0 131.5 55t53.5 123v16q-76 12 -166 12q-157 0 -157 -105q0 -49 36 -75t102 -26z" />
    <glyph glyph-name="adieresis" unicode="&#xe4;" horiz-adv-x="580" 
d="M172 729h57v-110h-57v110zM330 729h56v-110h-56v110zM275 550q114 0 172.5 -55.5t58.5 -158.5v-336h-75v102q-26 -45 -80.5 -78.5t-127.5 -33.5q-86 0 -136.5 46t-50.5 120q0 78 53 125t159 47q80 0 183 -11v18q0 72 -41.5 109.5t-121.5 37.5q-94 0 -166 -60l-38 55
q87 73 211 73zM246 59q78 0 131.5 55t53.5 123v16q-76 12 -166 12q-157 0 -157 -105q0 -49 36 -75t102 -26z" />
    <glyph glyph-name="aring" unicode="&#xe5;" horiz-adv-x="587" 
d="M293 589q-51 0 -85 32t-34 81q0 48 34 80t85 32q52 0 86 -32t34 -80q0 -49 -34 -81t-86 -32zM293 770q-29 0 -49 -19.5t-20 -48.5q0 -30 20 -49.5t49 -19.5q30 0 49.5 19.5t19.5 49.5q0 29 -19.5 48.5t-49.5 19.5zM275 550q114 0 172.5 -55.5t58.5 -158.5v-336h-75v102
q-26 -45 -80.5 -78.5t-127.5 -33.5q-86 0 -136.5 46t-50.5 120q0 78 53 125t159 47q80 0 183 -11v18q0 72 -41.5 109.5t-121.5 37.5q-94 0 -166 -60l-38 55q87 73 211 73zM246 59q78 0 131.5 55t53.5 123v16q-76 12 -166 12q-157 0 -157 -105q0 -49 36 -75t102 -26z" />
    <glyph glyph-name="ae" unicode="&#xe6;" horiz-adv-x="990" 
d="M945 242h-447q7 -82 65 -132.5t146 -50.5q101 0 161 66l48 -44q-83 -90 -213 -90q-86 0 -153 40t-101 109q-32 -62 -95.5 -106t-145.5 -44t-133 45.5t-51 120.5t55.5 120.5t156.5 45.5q110 0 182 -11v30q-2 146 -162 146q-45 0 -90.5 -16t-75.5 -44l-41 52q94 71 214 71
q155 0 205 -112q78 112 227 112q112 0 181.5 -73t69.5 -190q0 -15 -3 -45zM697 482q-82 0 -135.5 -48t-62.5 -127h376q-8 84 -55.5 129.5t-122.5 45.5zM228 56q84 0 139 55t54 126l2 -2q-1 3 -1.5 9.5t-0.5 9.5q-71 11 -167 11q-74 0 -115 -28.5t-41 -76.5t34.5 -76
t95.5 -28z" />
    <glyph glyph-name="ccedilla" unicode="&#xe7;" horiz-adv-x="577" 
d="M338 59q91 0 153 65l53 -45q-71 -78 -182 -88l-9 -31q34 -5 53.5 -23t19.5 -44q0 -31 -27 -50.5t-78 -19.5q-32 0 -62 7l10 43q21 -7 46 -7q23 0 35 9.5t12 23.5q0 39 -67 40l15 52q-112 9 -184.5 86.5t-72.5 192.5q0 122 81 201t203 79q125 0 207 -86l-54 -46
q-61 64 -154 64q-90 0 -149 -58t-59 -153q0 -96 59 -154t151 -58z" />
    <glyph glyph-name="egrave" unicode="&#xe8;" horiz-adv-x="618" 
d="M246 737l96 -137l-52 -7l-116 127zM576 242h-447q7 -82 65.5 -132.5t146.5 -50.5q101 0 160 66l49 -44q-83 -90 -213 -90q-124 0 -204 79t-80 201t76.5 200.5t199.5 78.5q111 0 181 -73t70 -190q0 -18 -4 -45zM329 482q-82 0 -135.5 -48t-63.5 -127h377
q-8 84 -55.5 129.5t-122.5 45.5z" />
    <glyph glyph-name="eacute" unicode="&#xe9;" horiz-adv-x="618" 
d="M386 737l71 -17l-115 -127l-53 7zM576 242h-447q7 -82 65.5 -132.5t146.5 -50.5q101 0 160 66l49 -44q-83 -90 -213 -90q-124 0 -204 79t-80 201t76.5 200.5t199.5 78.5q111 0 181 -73t70 -190q0 -18 -4 -45zM329 482q-82 0 -135.5 -48t-63.5 -127h377q-8 84 -55.5 129.5
t-122.5 45.5z" />
    <glyph glyph-name="ecircumflex" unicode="&#xea;" horiz-adv-x="618" 
d="M388 591l-72 104l-73 -104l-59 6l97 132h69l97 -132zM576 242h-447q7 -82 65.5 -132.5t146.5 -50.5q101 0 160 66l49 -44q-83 -90 -213 -90q-124 0 -204 79t-80 201t76.5 200.5t199.5 78.5q111 0 181 -73t70 -190q0 -18 -4 -45zM329 482q-82 0 -135.5 -48t-63.5 -127h377
q-8 84 -55.5 129.5t-122.5 45.5z" />
    <glyph glyph-name="edieresis" unicode="&#xeb;" horiz-adv-x="618" 
d="M208 727h57v-110h-57v110zM366 727h56v-110h-56v110zM576 242h-447q7 -82 65.5 -132.5t146.5 -50.5q101 0 160 66l49 -44q-83 -90 -213 -90q-124 0 -204 79t-80 201t76.5 200.5t199.5 78.5q111 0 181 -73t70 -190q0 -18 -4 -45zM329 482q-82 0 -135.5 -48t-63.5 -127h377
q-8 84 -55.5 129.5t-122.5 45.5z" />
    <glyph glyph-name="igrave" unicode="&#xec;" horiz-adv-x="242" 
d="M147 600l-52 -7l-116 127l72 17zM158 0h-74v541h74v-541z" />
    <glyph glyph-name="iacute" unicode="&#xed;" horiz-adv-x="242" 
d="M262 720l-115 -127l-53 7l97 137zM158 0h-74v541h74v-541z" />
    <glyph glyph-name="icircumflex" unicode="&#xee;" horiz-adv-x="242" 
d="M155 729l97 -132l-59 -6l-72 104l-73 -104l-59 6l97 132h69zM158 0h-74v541h74v-541z" />
    <glyph glyph-name="idieresis" unicode="&#xef;" horiz-adv-x="242" 
d="M70 617h-57v110h57v-110zM227 617h-56v110h56v-110zM158 0h-74v541h74v-541z" />
    <glyph glyph-name="eth" unicode="&#xf0;" 
d="M542 733l-69 -61q71 -56 110 -144.5t39 -199.5q0 -149 -85.5 -243.5t-221.5 -94.5q-115 0 -188.5 67t-73.5 176q0 105 72 173.5t186 68.5q76 0 137.5 -43.5t97.5 -119.5v15q-2 199 -124 300l-123 -110l-37 28l122 108q-81 48 -190 44l22 52q124 6 219 -51l71 63zM315 47
q75 0 133 45t83 124q-19 92 -78.5 146t-134.5 54q-83 0 -137.5 -52.5t-54.5 -133.5t53.5 -132t135.5 -51z" />
    <glyph glyph-name="ntilde" unicode="&#xf1;" horiz-adv-x="655" 
d="M265 661q-22 0 -36 -15t-14 -39l-40 10q0 41 23.5 66.5t59.5 25.5q29 0 71.5 -24.5t61.5 -24.5q22 0 36 15t14 39l39 -10q0 -41 -23 -66.5t-59 -25.5q-29 0 -71.5 24.5t-61.5 24.5zM365 550q98 0 157 -62t59 -169v-319h-75v309q0 81 -41.5 126.5t-116.5 45.5
q-80 0 -135 -57t-55 -144v-280h-74v541h74v-97q32 48 85.5 77t121.5 29z" />
    <glyph glyph-name="ograve" unicode="&#xf2;" 
d="M364 600l-52 -7l-116 127l72 17zM337 -10q-124 0 -204 79.5t-80 201.5t80 200.5t204 78.5t204.5 -78.5t80.5 -199.5q0 -122 -80.5 -202t-204.5 -80zM338 59q91 0 150 59.5t59 152.5t-59 152t-151 59q-91 0 -150 -59t-59 -152t59 -152.5t151 -59.5z" />
    <glyph glyph-name="oacute" unicode="&#xf3;" 
d="M479 720l-115 -127l-53 7l97 137zM337 -10q-124 0 -204 79.5t-80 201.5t80 200.5t204 78.5t204.5 -78.5t80.5 -199.5q0 -122 -80.5 -202t-204.5 -80zM338 59q91 0 150 59.5t59 152.5t-59 152t-151 59q-91 0 -150 -59t-59 -152t59 -152.5t151 -59.5z" />
    <glyph glyph-name="ocircumflex" unicode="&#xf4;" 
d="M410 591l-72 104l-73 -104l-59 6l97 132h69l97 -132zM337 550q124 0 204.5 -78.5t80.5 -199.5q0 -122 -80.5 -202t-204.5 -80t-204 79.5t-80 201.5t80 200.5t204 78.5zM338 59q91 0 150 59.5t59 152.5t-59 152t-151 59q-91 0 -150 -59t-59 -152t59 -152.5t151 -59.5z" />
    <glyph glyph-name="otilde" unicode="&#xf5;" 
d="M225 607l-40 10q0 41 23.5 66.5t59.5 25.5q29 0 71.5 -24.5t61.5 -24.5q22 0 36 15t14 39l39 -10q0 -41 -23 -66.5t-59 -25.5q-29 0 -71.5 24.5t-61.5 24.5q-22 0 -36 -15t-14 -39zM337 -10q-124 0 -204 79.5t-80 201.5t80 200.5t204 78.5t204.5 -78.5t80.5 -199.5
q0 -122 -80.5 -202t-204.5 -80zM338 59q91 0 150 59.5t59 152.5t-59 152t-151 59q-91 0 -150 -59t-59 -152t59 -152.5t151 -59.5z" />
    <glyph glyph-name="odieresis" unicode="&#xf6;" 
d="M287 617h-57v110h57v-110zM444 617h-56v110h56v-110zM337 -10q-124 0 -204 79.5t-80 201.5t80 200.5t204 78.5t204.5 -78.5t80.5 -199.5q0 -122 -80.5 -202t-204.5 -80zM338 59q91 0 150 59.5t59 152.5t-59 152t-151 59q-91 0 -150 -59t-59 -152t59 -152.5t151 -59.5z
" />
    <glyph glyph-name="divide" unicode="&#xf7;" horiz-adv-x="467" 
d="M282 472h-94v85h94v-85zM438 374v-57h-409v57h409zM188 141v84h94v-84h-94z" />
    <glyph glyph-name="oslash" unicode="&#xf8;" 
d="M611 498l-49 -49q60 -74 60 -177q0 -122 -80.5 -202t-204.5 -80q-101 0 -178 56l-46 -46l-45 45l46 46q-61 74 -61 180q0 122 80 200.5t204 78.5q103 0 179 -57l50 50zM128 271q0 -73 38 -128l299 299q-52 40 -128 40q-91 0 -150 -59t-59 -152zM338 59q91 0 150 59.5
t59 152.5q0 74 -37 126l-299 -299q53 -39 127 -39z" />
    <glyph glyph-name="ugrave" unicode="&#xf9;" horiz-adv-x="655" 
d="M250 737l96 -137l-52 -7l-116 127zM497 261v280h74v-541h-74v97q-32 -48 -85.5 -77t-121.5 -29q-98 0 -157 62t-59 169v319h75v-309q0 -81 41.5 -126.5t116.5 -45.5q80 0 135 57t55 144z" />
    <glyph glyph-name="uacute" unicode="&#xfa;" horiz-adv-x="655" 
d="M390 737l71 -17l-115 -127l-53 7zM497 261v280h74v-541h-74v97q-32 -48 -85.5 -77t-121.5 -29q-98 0 -157 62t-59 169v319h75v-309q0 -81 41.5 -126.5t116.5 -45.5q80 0 135 57t55 144z" />
    <glyph glyph-name="ucircumflex" unicode="&#xfb;" horiz-adv-x="655" 
d="M392 591l-72 104l-73 -104l-59 6l97 132h69l97 -132zM497 261v280h74v-541h-74v97q-32 -48 -85.5 -77t-121.5 -29q-98 0 -157 62t-59 169v319h75v-309q0 -81 41.5 -126.5t116.5 -45.5q80 0 135 57t55 144z" />
    <glyph glyph-name="udieresis" unicode="&#xfc;" horiz-adv-x="655" 
d="M212 727h57v-110h-57v110zM370 727h56v-110h-56v110zM497 261v280h74v-541h-74v97q-32 -48 -85.5 -77t-121.5 -29q-98 0 -157 62t-59 169v319h75v-309q0 -81 41.5 -126.5t116.5 -45.5q80 0 135 57t55 144z" />
    <glyph glyph-name="yacute" unicode="&#xfd;" horiz-adv-x="592" 
d="M391 737l71 -17l-115 -127l-53 7zM299 86l194 455h82l-236 -541l-22 -51q-30 -69 -71.5 -99.5t-106.5 -30.5q-60 0 -106 29l24 55q38 -20 79 -20q39 0 63 19.5t45 64.5l15 34l-236 540h82z" />
    <glyph glyph-name="thorn" unicode="&#xfe;" horiz-adv-x="699" 
d="M390 550q111 0 183.5 -79t72.5 -202q0 -120 -72.5 -199.5t-183.5 -79.5q-75 0 -134 38.5t-91 108.5v-308h-75v909h75v-333q32 69 91.5 107t133.5 38zM372 52q87 0 143.5 61.5t56.5 156.5t-56.5 156.5t-143.5 61.5q-90 0 -148.5 -61.5t-58.5 -156.5t58.5 -156.5
t148.5 -61.5z" />
    <glyph glyph-name="ydieresis" unicode="&#xff;" horiz-adv-x="592" 
d="M213 727h57v-110h-57v110zM371 727h56v-110h-56v110zM299 86l194 455h82l-236 -541l-22 -51q-30 -69 -71.5 -99.5t-106.5 -30.5q-60 0 -106 29l24 55q38 -20 79 -20q39 0 63 19.5t45 64.5l15 34l-236 540h82z" />
    <glyph glyph-name="Amacron" unicode="&#x100;" horiz-adv-x="765" 
d="M240 833h281v-49h-282zM743 0h-83l-73 161h-411l-73 -161h-81l321 700h78zM382 612l-174 -381h347z" />
    <glyph glyph-name="amacron" unicode="&#x101;" horiz-adv-x="580" 
d="M152 692h281v-49h-282zM275 550q114 0 172.5 -55.5t58.5 -158.5v-336h-75v102q-26 -45 -80.5 -78.5t-127.5 -33.5q-86 0 -136.5 46t-50.5 120q0 78 53 125t159 47q80 0 183 -11v18q0 72 -41.5 109.5t-121.5 37.5q-94 0 -166 -60l-38 55q87 73 211 73zM246 59
q78 0 131.5 55t53.5 123v16q-76 12 -166 12q-157 0 -157 -105q0 -49 36 -75t102 -26z" />
    <glyph glyph-name="Abreve" unicode="&#x102;" horiz-adv-x="765" 
d="M381 746q-60 0 -95 35t-35 94l57 1q0 -84 73 -84q72 0 72 84l57 -1q0 -59 -35 -94t-94 -35zM743 0h-83l-73 161h-411l-73 -161h-81l321 700h78zM382 612l-174 -381h347z" />
    <glyph glyph-name="abreve" unicode="&#x103;" horiz-adv-x="580" 
d="M280 592q-60 0 -95 35.5t-35 94.5h57q0 -84 73 -84q72 0 72 84h57q0 -59 -35 -94.5t-94 -35.5zM275 550q114 0 172.5 -55.5t58.5 -158.5v-336h-75v102q-26 -45 -80.5 -78.5t-127.5 -33.5q-86 0 -136.5 46t-50.5 120q0 78 53 125t159 47q80 0 183 -11v18q0 72 -41.5 109.5
t-121.5 37.5q-94 0 -166 -60l-38 55q87 73 211 73zM246 59q78 0 131.5 55t53.5 123v16q-76 12 -166 12q-157 0 -157 -105q0 -49 36 -75t102 -26z" />
    <glyph glyph-name="Aogonek" unicode="&#x104;" horiz-adv-x="765" 
d="M768 -136l4 -44q-81 -16 -126.5 4.5t-45.5 67.5q0 30 21 59t57 49h-18l-73 161h-411l-73 -161h-81l321 700h78l322 -700q-37 -19 -57 -44t-20 -47q0 -31 27.5 -43t74.5 -2zM382 612l-174 -381h347z" />
    <glyph glyph-name="aogonek" unicode="&#x105;" horiz-adv-x="580" 
d="M531 -136l4 -44q-81 -16 -126.5 4.5t-45.5 67.5q0 30 21 59t57 49h-10v102q-26 -45 -80.5 -78.5t-127.5 -33.5q-86 0 -136.5 46t-50.5 120q0 78 53 125t159 47q80 0 183 -11v18q0 72 -41.5 109.5t-121.5 37.5q-94 0 -166 -60l-38 55q87 73 211 73q114 0 172.5 -55.5
t58.5 -158.5v-336q-37 -19 -57 -44t-20 -47q0 -31 27.5 -43t74.5 -2zM246 59q78 0 131.5 55t53.5 123v16q-76 12 -166 12q-157 0 -157 -105q0 -49 36 -75t102 -26z" />
    <glyph glyph-name="Cacute" unicode="&#x106;" horiz-adv-x="724" 
d="M550 845l-94 -101l-52 5l80 113zM428 -10q-154 0 -258 103.5t-104 256.5t103 256.5t257 103.5q160 0 265 -107l-50 -50q-86 86 -213 86q-120 0 -200.5 -82.5t-80.5 -205.5q0 -126 80.5 -208t200.5 -82q128 0 215 89l50 -49q-103 -111 -265 -111z" />
    <glyph glyph-name="cacute" unicode="&#x107;" horiz-adv-x="577" 
d="M477 719l-115 -127l-53 7l97 137zM337 -10q-122 0 -203 79t-81 201t81 201t203 79q125 0 207 -86l-54 -46q-61 64 -154 64q-90 0 -149 -58t-59 -153q0 -96 59 -154t151 -58q91 0 153 65l53 -45q-81 -89 -207 -89z" />
    <glyph glyph-name="Ccircumflex" unicode="&#x108;" horiz-adv-x="724" 
d="M507 751l-78 96l-78 -96l-64 6l105 121h74l105 -121zM643 150l50 -49q-103 -111 -265 -111q-154 0 -258 103.5t-104 256.5t103 256.5t257 103.5q160 0 265 -107l-50 -50q-86 86 -213 86q-120 0 -200.5 -82.5t-80.5 -205.5q0 -126 80.5 -208t200.5 -82q128 0 215 89z" />
    <glyph glyph-name="ccircumflex" unicode="&#x109;" horiz-adv-x="577" 
d="M408 590l-72 104l-73 -104l-59 6l97 132h69l97 -132zM338 59q91 0 153 65l53 -45q-81 -89 -207 -89q-122 0 -203 79t-81 201t81 201t203 79q125 0 207 -86l-54 -46q-61 64 -154 64q-90 0 -149 -58t-59 -153q0 -96 59 -154t151 -58z" />
    <glyph glyph-name="Cdotaccent" unicode="&#x10a;" horiz-adv-x="724" 
d="M467 763h-79v106h79v-106zM428 -10q-154 0 -258 103.5t-104 256.5t103 256.5t257 103.5q160 0 265 -107l-50 -50q-86 86 -213 86q-120 0 -200.5 -82.5t-80.5 -205.5q0 -126 80.5 -208t200.5 -82q128 0 215 89l50 -49q-103 -111 -265 -111z" />
    <glyph glyph-name="cdotaccent" unicode="&#x10b;" horiz-adv-x="577" 
d="M376 616h-79v110h79v-110zM337 -10q-122 0 -203 79t-81 201t81 201t203 79q125 0 207 -86l-54 -46q-61 64 -154 64q-90 0 -149 -58t-59 -153q0 -96 59 -154t151 -58q91 0 153 65l53 -45q-81 -89 -207 -89z" />
    <glyph glyph-name="Ccaron" unicode="&#x10c;" horiz-adv-x="724" 
d="M392 745l-105 115l64 5l78 -90l78 90l64 -5l-105 -115h-74zM643 150l50 -49q-103 -111 -265 -111q-154 0 -258 103.5t-104 256.5t103 256.5t257 103.5q160 0 265 -107l-50 -50q-86 86 -213 86q-120 0 -200.5 -82.5t-80.5 -205.5q0 -126 80.5 -208t200.5 -82q128 0 215 89
z" />
    <glyph glyph-name="ccaron" unicode="&#x10d;" horiz-adv-x="577" 
d="M301 590l-97 132l59 6l73 -104l72 104l59 -6l-97 -132h-69zM338 59q91 0 153 65l53 -45q-81 -89 -207 -89q-122 0 -203 79t-81 201t81 201t203 79q125 0 207 -86l-54 -46q-61 64 -154 64q-90 0 -149 -58t-59 -153q0 -96 59 -154t151 -58z" />
    <glyph glyph-name="Dcaron" unicode="&#x10e;" horiz-adv-x="818" 
d="M279 748l-105 115l64 5l78 -90l78 90l64 -5l-105 -115h-74zM98 700h277q172 0 274.5 -95t102.5 -254q0 -161 -102.5 -256t-274.5 -95h-277v700zM175 69h196q138 0 219 75.5t81 205.5q0 131 -81 206t-220 75h-195v-562z" />
    <glyph glyph-name="dcaron" unicode="&#x10f;" horiz-adv-x="743" 
d="M535 440v298h75v-738h-75v100q-35 -53 -92 -81.5t-126 -28.5q-112 0 -187.5 80t-75.5 201q0 124 75 201.5t188 77.5q69 0 126.5 -28.5t91.5 -81.5zM686 530v208h59l-18 -208h-41zM328 59q91 0 149 58.5t58 153.5q0 94 -58 152t-149 58q-87 0 -143.5 -59t-56.5 -151
q0 -94 56 -153t144 -59z" />
    <glyph glyph-name="Dcroat" unicode="&#x110;" horiz-adv-x="818" 
d="M98 700h277q172 0 274.5 -95t102.5 -254q0 -161 -102.5 -256t-274.5 -95h-277v324h-63v57h63v319zM175 69h196q138 0 219 75.5t81 205.5q0 131 -81 206t-220 75h-195v-250h231v-57h-231v-255z" />
    <glyph glyph-name="dcroat" unicode="&#x111;" horiz-adv-x="700" 
d="M610 649h64v-52h-64v-597h-75v100q-35 -53 -92 -81.5t-126 -28.5q-112 0 -187.5 80t-75.5 201q0 124 75 201.5t188 77.5q69 0 126.5 -28.5t91.5 -81.5v157h-177v52h177v89h75v-89zM328 59q91 0 149 58.5t58 153.5q0 94 -58 152t-149 58q-87 0 -143.5 -59t-56.5 -151
q0 -94 56 -153t144 -59z" />
    <glyph glyph-name="Emacron" unicode="&#x112;" horiz-adv-x="689" 
d="M204 833h281v-49h-282zM174 324v-255h463v-69h-539v700h529v-69h-453v-238h400v-69h-400z" />
    <glyph glyph-name="emacron" unicode="&#x113;" horiz-adv-x="618" 
d="M188 690h281v-49h-282zM576 242h-447q7 -82 65.5 -132.5t146.5 -50.5q101 0 160 66l49 -44q-83 -90 -213 -90q-124 0 -204 79t-80 201t76.5 200.5t199.5 78.5q111 0 181 -73t70 -190q0 -18 -4 -45zM329 482q-82 0 -135.5 -48t-63.5 -127h377q-8 84 -55.5 129.5
t-122.5 45.5z" />
    <glyph glyph-name="Ebreve" unicode="&#x114;" horiz-adv-x="689" 
d="M345 746q-60 0 -95 35t-35 94l57 1q0 -84 73 -84q72 0 72 84l57 -1q0 -59 -35 -94t-94 -35zM174 324v-255h463v-69h-539v700h529v-69h-453v-238h400v-69h-400z" />
    <glyph glyph-name="ebreve" unicode="&#x115;" horiz-adv-x="618" 
d="M316 590q-60 0 -95 35.5t-35 94.5h57q0 -84 73 -84q72 0 72 84h57q0 -59 -35 -94.5t-94 -35.5zM576 242h-447q7 -82 65.5 -132.5t146.5 -50.5q101 0 160 66l49 -44q-83 -90 -213 -90q-124 0 -204 79t-80 201t76.5 200.5t199.5 78.5q111 0 181 -73t70 -190q0 -18 -4 -45z
M329 482q-82 0 -135.5 -48t-63.5 -127h377q-8 84 -55.5 129.5t-122.5 45.5z" />
    <glyph glyph-name="Edotaccent" unicode="&#x116;" horiz-adv-x="689" 
d="M307 872h79v-106h-79v106zM174 324v-255h463v-69h-539v700h529v-69h-453v-238h400v-69h-400z" />
    <glyph glyph-name="edotaccent" unicode="&#x117;" horiz-adv-x="618" 
d="M276 727h79v-110h-79v110zM576 242h-447q7 -82 65.5 -132.5t146.5 -50.5q101 0 160 66l49 -44q-83 -90 -213 -90q-124 0 -204 79t-80 201t76.5 200.5t199.5 78.5q111 0 181 -73t70 -190q0 -18 -4 -45zM329 482q-82 0 -135.5 -48t-63.5 -127h377q-8 84 -55.5 129.5
t-122.5 45.5z" />
    <glyph glyph-name="Eogonek" unicode="&#x118;" horiz-adv-x="689" 
d="M662 -136l4 -44q-81 -16 -126.5 4.5t-45.5 67.5q0 30 21 59t57 49h-474v700h529v-69h-453v-238h400v-69h-400v-255h463v-69q-37 -19 -57 -44t-20 -47q0 -31 27.5 -43t74.5 -2z" />
    <glyph glyph-name="eogonek" unicode="&#x119;" horiz-adv-x="618" 
d="M576 242h-447q7 -82 65.5 -132.5t146.5 -50.5q101 0 160 66l49 -44q-31 -34 -71 -55q-35 -31 -35 -63q0 -31 27.5 -43t74.5 -2l4 -44q-81 -16 -126.5 4.5t-45.5 67.5q0 26 15 50q-30 -5 -56 -5q-124 0 -204 79t-80 201t76.5 200.5t199.5 78.5q111 0 181 -73t70 -190
q0 -18 -4 -45zM329 482q-82 0 -135.5 -48t-63.5 -127h377q-8 84 -55.5 129.5t-122.5 45.5z" />
    <glyph glyph-name="Ecaron" unicode="&#x11a;" horiz-adv-x="689" 
d="M311 748l-105 115l64 5l78 -90l78 90l64 -5l-105 -115h-74zM174 324v-255h463v-69h-539v700h529v-69h-453v-238h400v-69h-400z" />
    <glyph glyph-name="ecaron" unicode="&#x11b;" horiz-adv-x="618" 
d="M281 591l-97 132l59 6l73 -104l72 104l59 -6l-97 -132h-69zM576 242h-447q7 -82 65.5 -132.5t146.5 -50.5q101 0 160 66l49 -44q-83 -90 -213 -90q-124 0 -204 79t-80 201t76.5 200.5t199.5 78.5q111 0 181 -73t70 -190q0 -18 -4 -45zM329 482q-82 0 -135.5 -48
t-63.5 -127h377q-8 84 -55.5 129.5t-122.5 45.5z" />
    <glyph glyph-name="Gcircumflex" unicode="&#x11c;" horiz-adv-x="769" 
d="M519 754l-78 96l-78 -96l-64 6l105 121h74l105 -121zM629 131v223h71v-257q-109 -107 -270 -107q-158 0 -261 101.5t-103 257.5q0 157 102.5 259t259.5 102q154 0 260 -104l-50 -49q-87 82 -208 82q-124 0 -203.5 -80.5t-79.5 -209.5q0 -128 79.5 -208t207.5 -80
q115 0 195 70z" />
    <glyph glyph-name="gcircumflex" unicode="&#x11d;" horiz-adv-x="615" 
d="M390 591l-72 104l-73 -104l-59 6l97 132h69l97 -132zM219 122h155q103 0 158 -36.5t55 -98.5q0 -76 -75.5 -121.5t-211.5 -45.5q-115 0 -180 37t-65 102q0 64 83 106q-57 27 -55 85q0 62 66 90q-64 48 -64 134q0 81 60 129t163 48q62 0 103 -19l140 35l17 -62l-91 -15
q56 -40 56 -116q0 -83 -60 -131t-163 -48q-63 0 -114 19q-39 -17 -39 -46q0 -22 17 -34t45 -12zM309 485q-71 0 -110.5 -29t-39.5 -81q0 -54 39.5 -84t110.5 -30t110.5 29.5t39.5 83.5q0 53 -39.5 82t-110.5 29zM304 -112q208 0 208 95q0 70 -158 70h-155h-4
q-64 -37 -64 -83q0 -82 173 -82z" />
    <glyph glyph-name="Gbreve" unicode="&#x11e;" horiz-adv-x="769" 
d="M438 746q-60 0 -95 35t-35 94l57 1q0 -84 73 -84q72 0 72 84l57 -1q0 -59 -35 -94t-94 -35zM629 131v223h71v-257q-109 -107 -270 -107q-158 0 -261 101.5t-103 257.5q0 157 102.5 259t259.5 102q154 0 260 -104l-50 -49q-87 82 -208 82q-124 0 -203.5 -80.5
t-79.5 -209.5q0 -128 79.5 -208t207.5 -80q115 0 195 70z" />
    <glyph glyph-name="gbreve" unicode="&#x11f;" horiz-adv-x="615" 
d="M318 590q-60 0 -95 35.5t-35 94.5h57q0 -84 73 -84q72 0 72 84h57q0 -59 -35 -94.5t-94 -35.5zM219 122h155q103 0 158 -36.5t55 -98.5q0 -76 -75.5 -121.5t-211.5 -45.5q-115 0 -180 37t-65 102q0 64 83 106q-57 27 -55 85q0 62 66 90q-64 48 -64 134q0 81 60 129
t163 48q62 0 103 -19l140 35l17 -62l-91 -15q56 -40 56 -116q0 -83 -60 -131t-163 -48q-63 0 -114 19q-39 -17 -39 -46q0 -22 17 -34t45 -12zM309 485q-71 0 -110.5 -29t-39.5 -81q0 -54 39.5 -84t110.5 -30t110.5 29.5t39.5 83.5q0 53 -39.5 82t-110.5 29zM304 -112
q208 0 208 95q0 70 -158 70h-155h-4q-64 -37 -64 -83q0 -82 173 -82z" />
    <glyph glyph-name="Gdotaccent" unicode="&#x120;" horiz-adv-x="769" 
d="M479 766h-79v106h79v-106zM430 -10q-158 0 -261 101.5t-103 257.5q0 157 102.5 259t259.5 102q154 0 260 -104l-50 -49q-87 82 -208 82q-124 0 -203.5 -80.5t-79.5 -209.5q0 -128 79.5 -208t207.5 -80q115 0 195 70v223h71v-257q-109 -107 -270 -107z" />
    <glyph glyph-name="gdotaccent" unicode="&#x121;" horiz-adv-x="615" 
d="M278 727h79v-110h-79v110zM219 122h155q103 0 158 -36.5t55 -98.5q0 -76 -75.5 -121.5t-211.5 -45.5q-115 0 -180 37t-65 102q0 64 83 106q-57 27 -55 85q0 62 66 90q-64 48 -64 134q0 81 60 129t163 48q62 0 103 -19l140 35l17 -62l-91 -15q56 -40 56 -116
q0 -83 -60 -131t-163 -48q-63 0 -114 19q-39 -17 -39 -46q0 -22 17 -34t45 -12zM309 485q-71 0 -110.5 -29t-39.5 -81q0 -54 39.5 -84t110.5 -30t110.5 29.5t39.5 83.5q0 53 -39.5 82t-110.5 29zM304 -112q208 0 208 95q0 70 -158 70h-155h-4q-64 -37 -64 -83q0 -82 173 -82
z" />
    <glyph glyph-name="uni0122" unicode="&#x122;" horiz-adv-x="769" 
d="M430 -10q-158 0 -261 101.5t-103 257.5q0 157 102.5 259t259.5 102q154 0 260 -104l-50 -49q-87 82 -208 82q-124 0 -203.5 -80.5t-79.5 -209.5q0 -128 79.5 -208t207.5 -80q115 0 195 70v223h71v-257q-109 -107 -270 -107zM358 -219l-15 36q57 23 50 75h-45v75h95
q30 -150 -85 -186z" />
    <glyph glyph-name="uni0123" unicode="&#x123;" horiz-adv-x="615" 
d="M395 659v-75h-95q-30 150 85 186l15 -36q-57 -23 -50 -75h45zM219 122h155q103 0 158 -36.5t55 -98.5q0 -76 -75.5 -121.5t-211.5 -45.5q-115 0 -180 37t-65 102q0 64 83 106q-57 27 -55 85q0 62 66 90q-64 48 -64 134q0 81 60 129t163 48q62 0 103 -19l140 35l17 -62
l-91 -15q56 -40 56 -116q0 -83 -60 -131t-163 -48q-63 0 -114 19q-39 -17 -39 -46q0 -22 17 -34t45 -12zM309 485q-71 0 -110.5 -29t-39.5 -81q0 -54 39.5 -84t110.5 -30t110.5 29.5t39.5 83.5q0 53 -39.5 82t-110.5 29zM304 -112q208 0 208 95q0 70 -158 70h-155h-4
q-64 -37 -64 -83q0 -82 173 -82z" />
    <glyph glyph-name="Hcircumflex" unicode="&#x124;" horiz-adv-x="782" 
d="M470 754l-78 96l-78 -96l-64 6l105 121h74l105 -121zM606 386v314h78v-700h-78v316h-430v-316h-78v700h78v-314h430z" />
    <glyph glyph-name="hcircumflex" unicode="&#x125;" horiz-adv-x="661" 
d="M412 792l-78 96l-78 -96l-64 6l105 121h74l105 -121zM371 550q98 0 157 -62t59 -169v-319h-75v309q0 81 -41.5 126.5t-116.5 45.5q-80 0 -135 -57t-55 -144v-280h-74v738h74v-294q32 48 85.5 77t121.5 29z" />
    <glyph glyph-name="Hbar" unicode="&#x126;" horiz-adv-x="782" 
d="M684 568h46v-57h-46v-511h-78v316h-430v-316h-78v511h-40v57h40v132h78v-132h430v132h78v-132zM176 386h430v125h-430v-125z" />
    <glyph glyph-name="hbar" unicode="&#x127;" horiz-adv-x="661" 
d="M371 550q98 0 157 -62t59 -169v-319h-75v309q0 81 -41.5 126.5t-116.5 45.5q-80 0 -135 -57t-55 -144v-280h-74v597h-81v52h81v89h74v-89h161v-52h-161v-153q32 48 85.5 77t121.5 29z" />
    <glyph glyph-name="Itilde" unicode="&#x128;" horiz-adv-x="273" 
d="M11 753l-40 10q0 41 23.5 66.5t59.5 25.5q29 0 71.5 -24.5t61.5 -24.5q22 0 36 15t14 39l39 -10q0 -41 -23 -66.5t-59 -25.5q-29 0 -71.5 24.5t-61.5 24.5q-22 0 -36 -15t-14 -39zM175 0h-77v700h77v-700z" />
    <glyph glyph-name="itilde" unicode="&#x129;" horiz-adv-x="242" 
d="M8 607l-40 10q0 41 23.5 66.5t59.5 25.5q29 0 71.5 -24.5t61.5 -24.5q22 0 36 15t14 39l39 -10q0 -41 -23 -66.5t-59 -25.5q-29 0 -71.5 24.5t-61.5 24.5q-22 0 -36 -15t-14 -39zM158 0h-74v541h74v-541z" />
    <glyph glyph-name="Imacron" unicode="&#x12a;" horiz-adv-x="273" 
d="M275 784h-282l1 49h281v-49zM175 0h-77v700h77v-700z" />
    <glyph glyph-name="imacron" unicode="&#x12b;" horiz-adv-x="242" 
d="M274 641h-282l1 49h281v-49zM158 0h-74v541h74v-541z" />
    <glyph glyph-name="Ibreve" unicode="&#x12c;" horiz-adv-x="273" 
d="M207 876l57 -1q0 -59 -35 -94t-94 -35q-60 0 -95 35t-35 94l57 1q0 -84 73 -84q72 0 72 84zM175 0h-77v700h77v-700z" />
    <glyph glyph-name="ibreve" unicode="&#x12d;" horiz-adv-x="242" 
d="M193 720h57q0 -59 -35 -94.5t-94 -35.5q-60 0 -95 35.5t-35 94.5h57q0 -84 73 -84q72 0 72 84zM158 0h-74v541h74v-541z" />
    <glyph glyph-name="Iogonek" unicode="&#x12e;" horiz-adv-x="273" 
d="M192 -136l4 -44q-81 -16 -126.5 4.5t-45.5 67.5q0 30 21 59t57 49h-4v700h77v-700h-8q-37 -19 -57 -44t-20 -47q0 -31 27.5 -43t74.5 -2z" />
    <glyph glyph-name="iogonek" unicode="&#x12f;" horiz-adv-x="242" 
d="M82 727h79v-110h-79v110zM183 -136l4 -44q-81 -16 -126.5 4.5t-45.5 67.5q0 30 21 59t57 49h-9v541h74v-541q-37 -19 -57 -44t-20 -47q0 -31 27.5 -43t74.5 -2z" />
    <glyph glyph-name="Idotaccent" unicode="&#x130;" horiz-adv-x="273" 
d="M176 766h-79v106h79v-106zM175 0h-77v700h77v-700z" />
    <glyph glyph-name="dotlessi" unicode="&#x131;" horiz-adv-x="242" 
d="M158 0h-74v541h74v-541z" />
    <glyph glyph-name="IJ" unicode="&#x132;" horiz-adv-x="838" 
d="M175 0h-77v700h77v-700zM523 -10q-73 0 -135 34t-96 92l51 46q30 -46 76 -73t101 -27q76 0 121.5 50.5t45.5 134.5v384h-256v69h331v-453q0 -116 -65 -186.5t-174 -70.5z" />
    <glyph glyph-name="ij" unicode="&#x133;" horiz-adv-x="497" 
d="M161 617h-79v110h79v-110zM415 617h-79v110h79v-110zM158 0h-74v541h74v-541zM176 -153l22 61q23 -14 54 -14q39 0 62.5 22t23.5 63v562h75v-568q0 -71 -42.5 -109t-110.5 -38q-42 0 -84 21z" />
    <glyph glyph-name="Jcircumflex" unicode="&#x134;" horiz-adv-x="565" 
d="M398 754l-78 96l-78 -96l-64 6l105 121h74l105 -121zM158 631v69h331v-453q0 -116 -65 -186.5t-174 -70.5q-73 0 -135 34t-96 92l51 46q30 -46 76 -73t101 -27q76 0 121.5 50.5t45.5 134.5v384h-256z" />
    <glyph glyph-name="jcircumflex" unicode="&#x135;" horiz-adv-x="255" 
d="M168 729l97 -132l-59 -6l-72 104l-73 -104l-59 6l97 132h69zM96 -21v562h75v-568q0 -71 -42.5 -109t-110.5 -38q-42 0 -84 21l22 61q23 -14 54 -14q39 0 62.5 22t23.5 63z" />
    <glyph glyph-name="uni0136" unicode="&#x136;" horiz-adv-x="723" 
d="M676 700l-270 -293l288 -407h-91l-250 350l-178 -193v-157h-77v700h77v-445l404 445h97zM306 -108v75h95q30 -150 -85 -186l-15 36q57 23 50 75h-45z" />
    <glyph glyph-name="uni0137" unicode="&#x137;" horiz-adv-x="630" 
d="M574 541l-233 -229l269 -312h-90l-228 264l-128 -126v-138h-74v738h74v-510l311 313h99zM264 -108v75h95q30 -150 -85 -186l-15 36q57 23 50 75h-45z" />
    <glyph glyph-name="kgreenlandic" unicode="&#x138;" horiz-adv-x="639" 
d="M610 0h-90l-228 264l-128 -126v-138h-74v541h74v-313l311 313h99l-233 -229z" />
    <glyph glyph-name="Lacute" unicode="&#x139;" horiz-adv-x="610" 
d="M424 848l-94 -101l-52 5l80 113zM586 0h-488v700h77v-631h411v-69z" />
    <glyph glyph-name="lacute" unicode="&#x13a;" horiz-adv-x="254" 
d="M268 917l-115 -127l-53 7l97 137zM164 0h-74v738h74v-738z" />
    <glyph glyph-name="uni013B" unicode="&#x13b;" horiz-adv-x="610" 
d="M586 0h-488v700h77v-631h411v-69zM262 -219l-15 36q57 23 50 75h-45v75h95q30 -150 -85 -186z" />
    <glyph glyph-name="uni013C" unicode="&#x13c;" horiz-adv-x="254" 
d="M164 0h-74v738h74v-738zM88 -219l-15 36q57 23 50 75h-45v75h95q30 -150 -85 -186z" />
    <glyph glyph-name="Lcaron" unicode="&#x13d;" horiz-adv-x="610" 
d="M586 0h-488v700h77v-631h411v-69zM457 492v208h59l-18 -208h-41z" />
    <glyph glyph-name="lcaron" unicode="&#x13e;" horiz-adv-x="291" 
d="M164 0h-74v738h74v-738zM232 530v208h59l-19 -208h-40z" />
    <glyph glyph-name="Ldot" unicode="&#x13f;" horiz-adv-x="610" 
d="M586 0h-488v700h77v-631h411v-69zM349 318v83h91v-83h-91z" />
    <glyph glyph-name="ldot" unicode="&#x140;" horiz-adv-x="310" 
d="M164 0h-74v738h74v-738zM239 335v77h86v-77h-86z" />
    <glyph glyph-name="Lslash" unicode="&#x141;" horiz-adv-x="610" 
d="M175 343v-274h411v-69h-488v301l-64 -34l-23 46l87 46v341h77v-300l69 37l23 -45z" />
    <glyph glyph-name="lslash" unicode="&#x142;" horiz-adv-x="254" 
d="M231 456l23 -45l-90 -48v-363h-74v323l-69 -37l-23 46l92 49v357h74v-318z" />
    <glyph glyph-name="Nacute" unicode="&#x143;" horiz-adv-x="793" 
d="M519 848l-94 -101l-52 5l80 113zM175 0h-77v700h67l453 -565v565h78v-700h-65l-456 568v-568z" />
    <glyph glyph-name="nacute" unicode="&#x144;" horiz-adv-x="655" 
d="M398 737l71 -17l-115 -127l-53 7zM365 550q98 0 157 -62t59 -169v-319h-75v309q0 81 -41.5 126.5t-116.5 45.5q-80 0 -135 -57t-55 -144v-280h-74v541h74v-97q32 48 85.5 77t121.5 29z" />
    <glyph glyph-name="uni0145" unicode="&#x145;" horiz-adv-x="793" 
d="M175 0h-77v700h67l453 -565v565h78v-700h-65l-456 568v-568zM358 -219l-15 36q57 23 50 75h-45v75h95q30 -150 -85 -186z" />
    <glyph glyph-name="uni0146" unicode="&#x146;" horiz-adv-x="655" 
d="M365 550q98 0 157 -62t59 -169v-319h-75v309q0 81 -41.5 126.5t-116.5 45.5q-80 0 -135 -57t-55 -144v-280h-74v541h74v-97q32 48 85.5 77t121.5 29zM279 -108v75h95q30 -150 -85 -186l-15 36q57 23 50 75h-45z" />
    <glyph glyph-name="Ncaron" unicode="&#x147;" horiz-adv-x="793" 
d="M361 748l-105 115l64 5l78 -90l78 90l64 -5l-105 -115h-74zM618 135v565h78v-700h-65l-456 568v-568h-77v700h67z" />
    <glyph glyph-name="ncaron" unicode="&#x148;" horiz-adv-x="655" 
d="M293 591l-97 132l59 6l73 -104l72 104l59 -6l-97 -132h-69zM365 550q98 0 157 -62t59 -169v-319h-75v309q0 81 -41.5 126.5t-116.5 45.5q-80 0 -135 -57t-55 -144v-280h-74v541h74v-97q32 48 85.5 77t121.5 29z" />
    <glyph glyph-name="Eng" unicode="&#x14a;" horiz-adv-x="785" 
d="M618 700h78v-700h-2v-31q0 -74 -40.5 -110.5t-108.5 -36.5q-48 0 -90 24l19 57q26 -16 59 -16q37 0 61.5 22.5t24.5 65.5v40l-444 553v-568h-77v700h67l453 -565v565z" />
    <glyph glyph-name="eng" unicode="&#x14b;" horiz-adv-x="655" 
d="M365 550q98 0 157 -62t59 -169v-350q0 -74 -40 -110.5t-108 -36.5q-47 0 -89 24l19 57q26 -16 58 -16q37 0 61 22.5t24 65.5v334q0 81 -41.5 126.5t-116.5 45.5q-80 0 -135 -57t-55 -144v-280h-74v541h74v-97q32 48 85.5 77t121.5 29z" />
    <glyph glyph-name="Omacron" unicode="&#x14c;" horiz-adv-x="858" 
d="M568 784h-282l1 49h281v-49zM428 -10q-157 0 -259.5 101.5t-102.5 258.5t102.5 258.5t260.5 101.5t260.5 -101.5t102.5 -258.5t-103 -258.5t-261 -101.5zM429 62q124 0 202.5 80t78.5 208t-79 208.5t-202 80.5t-202 -80.5t-79 -208.5t78.5 -208t202.5 -80z" />
    <glyph glyph-name="omacron" unicode="&#x14d;" 
d="M491 641h-282l1 49h281v-49zM337 -10q-124 0 -204 79.5t-80 201.5t80 200.5t204 78.5t204.5 -78.5t80.5 -199.5q0 -122 -80.5 -202t-204.5 -80zM338 59q91 0 150 59.5t59 152.5t-59 152t-151 59q-91 0 -150 -59t-59 -152t59 -152.5t151 -59.5z" />
    <glyph glyph-name="Obreve" unicode="&#x14e;" horiz-adv-x="858" 
d="M428 746q-60 0 -95 35t-35 94l57 1q0 -84 73 -84q72 0 72 84l57 -1q0 -59 -35 -94t-94 -35zM429 710q158 0 260.5 -101.5t102.5 -258.5t-103 -258.5t-261 -101.5q-157 0 -259.5 101.5t-102.5 258.5t102.5 258.5t260.5 101.5zM429 62q124 0 202.5 80t78.5 208t-79 208.5
t-202 80.5t-202 -80.5t-79 -208.5t78.5 -208t202.5 -80z" />
    <glyph glyph-name="obreve" unicode="&#x14f;" 
d="M338 590q-60 0 -95 35.5t-35 94.5h57q0 -84 73 -84q72 0 72 84h57q0 -59 -35 -94.5t-94 -35.5zM337 550q124 0 204.5 -78.5t80.5 -199.5q0 -122 -80.5 -202t-204.5 -80t-204 79.5t-80 201.5t80 200.5t204 78.5zM338 59q91 0 150 59.5t59 152.5t-59 152t-151 59
q-91 0 -150 -59t-59 -152t59 -152.5t151 -59.5z" />
    <glyph glyph-name="Ohungarumlaut" unicode="&#x150;" horiz-adv-x="858" 
d="M423 848l-88 -101l-51 5l73 113zM582 848l-88 -101l-51 5l73 113zM428 -10q-157 0 -259.5 101.5t-102.5 258.5t102.5 258.5t260.5 101.5t260.5 -101.5t102.5 -258.5t-103 -258.5t-261 -101.5zM429 62q124 0 202.5 80t78.5 208t-79 208.5t-202 80.5t-202 -80.5t-79 -208.5
t78.5 -208t202.5 -80z" />
    <glyph glyph-name="ohungarumlaut" unicode="&#x151;" 
d="M322 718l-108 -127l-52 7l89 137zM481 718l-108 -127l-52 7l89 137zM337 -10q-124 0 -204 79.5t-80 201.5t80 200.5t204 78.5t204.5 -78.5t80.5 -199.5q0 -122 -80.5 -202t-204.5 -80zM338 59q91 0 150 59.5t59 152.5t-59 152t-151 59q-91 0 -150 -59t-59 -152t59 -152.5
t151 -59.5z" />
    <glyph glyph-name="OE" unicode="&#x152;" horiz-adv-x="1234" 
d="M719 324v-255h463v-69h-539v57q-90 -67 -215 -67q-154 0 -258 103.5t-104 256.5t103 256.5t257 103.5q126 0 217 -66v56h529v-69h-453v-238h400v-69h-400zM428 61q128 0 215 89v405l-2 -2q-86 86 -213 86q-120 0 -200.5 -82.5t-80.5 -205.5q0 -126 80.5 -208t200.5 -82z
" />
    <glyph glyph-name="oe" unicode="&#x153;" horiz-adv-x="1114" 
d="M1072 242h-447q7 -82 65.5 -132.5t146.5 -50.5q101 0 160 66l49 -44q-83 -90 -213 -90q-82 0 -147 36t-101 100q-36 -64 -101 -100.5t-147 -36.5q-124 0 -204 79.5t-80 201.5t80 200.5t204 78.5q81 0 146 -36t102 -98q34 63 97 98.5t143 35.5q111 0 181 -73t70 -190
q0 -18 -4 -45zM338 59q91 0 150 59.5t59 152.5t-59 152t-151 59q-91 0 -150 -59t-59 -152t59 -152.5t151 -59.5zM825 482q-82 0 -135.5 -48t-63.5 -127h377q-8 84 -55.5 129.5t-122.5 45.5z" />
    <glyph glyph-name="Racute" unicode="&#x154;" horiz-adv-x="704" 
d="M416 865l66 -17l-94 -101l-52 5zM660 0h-98l-229 255h-158v-255h-77v700h271q137 0 211.5 -58t74.5 -165q0 -94 -58.5 -150t-167.5 -69zM367 631h-192v-307h191q212 0 212 152q0 155 -211 155z" />
    <glyph glyph-name="racute" unicode="&#x155;" horiz-adv-x="400" 
d="M260 737l71 -17l-115 -127l-53 7zM329 547q24 0 51 -5l-3 -77q-24 7 -50 7q-78 0 -123.5 -64.5t-45.5 -160.5v-247h-74v541h74v-102q27 52 72 80t99 28z" />
    <glyph glyph-name="uni0156" unicode="&#x156;" horiz-adv-x="704" 
d="M429 258l231 -258h-98l-229 255h-158v-255h-77v700h271q137 0 211.5 -58t74.5 -165q0 -94 -58.5 -150t-167.5 -69zM367 631h-192v-307h191q212 0 212 152q0 155 -211 155zM311 -108v75h95q30 -150 -85 -186l-15 36q57 23 50 75h-45z" />
    <glyph glyph-name="uni0157" unicode="&#x157;" horiz-adv-x="400" 
d="M329 547q24 0 51 -5l-3 -77q-24 7 -50 7q-78 0 -123.5 -64.5t-45.5 -160.5v-247h-74v541h74v-102q27 52 72 80t99 28zM141 -108v75h95q30 -150 -85 -186l-15 36q57 23 50 75h-45z" />
    <glyph glyph-name="Rcaron" unicode="&#x158;" horiz-adv-x="704" 
d="M324 748l-105 115l64 5l78 -90l78 90l64 -5l-105 -115h-74zM660 0h-98l-229 255h-158v-255h-77v700h271q137 0 211.5 -58t74.5 -165q0 -94 -58.5 -150t-167.5 -69zM367 631h-192v-307h191q212 0 212 152q0 155 -211 155z" />
    <glyph glyph-name="rcaron" unicode="&#x159;" horiz-adv-x="400" 
d="M155 591l-97 132l59 6l73 -104l72 104l59 -6l-97 -132h-69zM329 547q24 0 51 -5l-3 -77q-24 7 -50 7q-78 0 -123.5 -64.5t-45.5 -160.5v-247h-74v541h74v-102q27 52 72 80t99 28z" />
    <glyph glyph-name="Sacute" unicode="&#x15a;" horiz-adv-x="635" 
d="M440 848l-94 -101l-52 5l80 113zM325 -10q-80 0 -152 28t-125 76l37 59q109 -91 245 -91q82 0 127.5 33.5t45.5 86.5q0 56 -42.5 83t-145.5 49q-126 28 -186 74t-60 130q0 89 71 140.5t181 51.5q131 0 238 -79l-42 -57q-92 65 -201 65q-77 0 -121.5 -33t-44.5 -89
q0 -53 42.5 -82t144.5 -52q132 -29 189.5 -71t57.5 -126q0 -89 -72 -142.5t-187 -53.5z" />
    <glyph glyph-name="sacute" unicode="&#x15b;" horiz-adv-x="526" 
d="M407 720l-115 -127l-53 7l97 137zM263 -9q-62 0 -122.5 20t-103.5 51l32 62q91 -64 198 -64q67 0 104.5 22.5t37.5 65.5q0 38 -33.5 58t-119.5 36q-113 21 -157 56.5t-44 98.5q0 71 53 111.5t147 40.5q55 0 114 -15.5t95 -41.5l-31 -63q-74 51 -183 51q-56 0 -87.5 -20
t-31.5 -57q0 -34 31 -54t115 -36q116 -24 161.5 -61.5t45.5 -101.5q0 -75 -59.5 -117t-161.5 -42z" />
    <glyph glyph-name="Scircumflex" unicode="&#x15c;" horiz-adv-x="635" 
d="M397 754l-78 96l-78 -96l-64 6l105 121h74l105 -121zM337 383q132 -29 189.5 -71t57.5 -126q0 -89 -72 -142.5t-187 -53.5q-80 0 -152 28t-125 76l37 59q109 -91 245 -91q82 0 127.5 33.5t45.5 86.5q0 56 -42.5 83t-145.5 49q-126 28 -186 74t-60 130q0 89 71 140.5
t181 51.5q131 0 238 -79l-42 -57q-92 65 -201 65q-77 0 -121.5 -33t-44.5 -89q0 -53 42.5 -82t144.5 -52z" />
    <glyph glyph-name="scircumflex" unicode="&#x15d;" horiz-adv-x="526" 
d="M338 591l-72 104l-73 -104l-59 6l97 132h69l97 -132zM277 313q116 -24 161.5 -61.5t45.5 -101.5q0 -75 -59.5 -117t-161.5 -42q-62 0 -122.5 20t-103.5 51l32 62q91 -64 198 -64q67 0 104.5 22.5t37.5 65.5q0 38 -33.5 58t-119.5 36q-113 21 -157 56.5t-44 98.5
q0 71 53 111.5t147 40.5q55 0 114 -15.5t95 -41.5l-31 -63q-74 51 -183 51q-56 0 -87.5 -20t-31.5 -57q0 -34 31 -54t115 -36z" />
    <glyph glyph-name="Scedilla" unicode="&#x15e;" horiz-adv-x="635" 
d="M584 186q0 -85 -66 -138t-174 -58l-9 -29q34 -5 53.5 -23t19.5 -44q0 -31 -27 -50.5t-78 -19.5q-32 0 -62 7l10 43q21 -7 46 -7q23 0 35 9.5t12 23.5q0 39 -67 40l15 51q-145 12 -244 103l37 59q109 -91 245 -91q82 0 127.5 33.5t45.5 86.5q0 56 -42.5 83t-145.5 49
q-126 28 -186 74t-60 130q0 89 71 140.5t181 51.5q131 0 238 -79l-42 -57q-92 65 -201 65q-77 0 -121.5 -33t-44.5 -89q0 -53 42.5 -82t144.5 -52q132 -29 189.5 -71t57.5 -126z" />
    <glyph glyph-name="scedilla" unicode="&#x15f;" horiz-adv-x="526" 
d="M484 150q0 -70 -51.5 -111t-141.5 -47l-9 -31q34 -5 53.5 -23t19.5 -44q0 -31 -27 -50.5t-78 -19.5q-32 0 -62 7l10 43q21 -7 46 -7q23 0 35 9.5t12 23.5q0 39 -67 40l15 52q-115 7 -202 70l32 62q91 -64 198 -64q67 0 104.5 22.5t37.5 65.5q0 38 -33.5 58t-119.5 36
q-113 21 -157 56.5t-44 98.5q0 71 53 111.5t147 40.5q55 0 114 -15.5t95 -41.5l-31 -63q-74 51 -183 51q-56 0 -87.5 -20t-31.5 -57q0 -34 31 -54t115 -36q116 -24 161.5 -61.5t45.5 -101.5z" />
    <glyph glyph-name="Scaron" unicode="&#x160;" horiz-adv-x="635" 
d="M282 748l-105 115l64 5l78 -90l78 90l64 -5l-105 -115h-74zM337 383q132 -29 189.5 -71t57.5 -126q0 -89 -72 -142.5t-187 -53.5q-80 0 -152 28t-125 76l37 59q109 -91 245 -91q82 0 127.5 33.5t45.5 86.5q0 56 -42.5 83t-145.5 49q-126 28 -186 74t-60 130
q0 89 71 140.5t181 51.5q131 0 238 -79l-42 -57q-92 65 -201 65q-77 0 -121.5 -33t-44.5 -89q0 -53 42.5 -82t144.5 -52z" />
    <glyph glyph-name="scaron" unicode="&#x161;" horiz-adv-x="526" 
d="M231 591l-97 132l59 6l73 -104l72 104l59 -6l-97 -132h-69zM277 313q116 -24 161.5 -61.5t45.5 -101.5q0 -75 -59.5 -117t-161.5 -42q-62 0 -122.5 20t-103.5 51l32 62q91 -64 198 -64q67 0 104.5 22.5t37.5 65.5q0 38 -33.5 58t-119.5 36q-113 21 -157 56.5t-44 98.5
q0 71 53 111.5t147 40.5q55 0 114 -15.5t95 -41.5l-31 -63q-74 51 -183 51q-56 0 -87.5 -20t-31.5 -57q0 -34 31 -54t115 -36z" />
    <glyph glyph-name="uni0162" unicode="&#x162;" horiz-adv-x="622" 
d="M349 631v-631h-9l-12 -39q34 -5 53.5 -23t19.5 -44q0 -31 -27 -50.5t-78 -19.5q-32 0 -62 7l10 43q21 -7 46 -7q23 0 35 9.5t12 23.5q0 39 -67 40l18 60h-17v631h-242v69h563v-69h-243z" />
    <glyph glyph-name="uni0163" unicode="&#x163;" horiz-adv-x="480" 
d="M328 -9l-9 -32q34 -5 53.5 -23t19.5 -44q0 -31 -27 -50.5t-78 -19.5q-32 0 -62 7l10 43q21 -7 46 -7q23 0 35 9.5t12 23.5q0 39 -67 40l16 54q-61 8 -95.5 49.5t-34.5 108.5v322h-108v69h109l6 146h68v-146h195v-69h-195v-309q0 -48 27 -76.5t71 -28.5q59 0 104 24
l15 -59q-41 -26 -111 -32z" />
    <glyph glyph-name="Tcaron" unicode="&#x164;" horiz-adv-x="622" 
d="M275 748l-105 115l64 5l78 -90l78 90l64 -5l-105 -115h-74zM29 700h563v-69h-243v-631h-78v631h-242v69z" />
    <glyph glyph-name="tcaron" unicode="&#x165;" horiz-adv-x="480" 
d="M326 808h59l-18 -208h-41v208zM424 82l15 -59q-53 -33 -132 -33q-73 0 -116.5 42.5t-43.5 117.5v322h-108v69h109l6 146h68v-146h195v-69h-195v-309q0 -48 27 -76.5t71 -28.5q59 0 104 24z" />
    <glyph glyph-name="Tbar" unicode="&#x166;" horiz-adv-x="622" 
d="M592 700v-69h-243v-250h149v-57h-149v-324h-78v324h-144v57h144v250h-242v69h563z" />
    <glyph glyph-name="tbar" unicode="&#x167;" horiz-adv-x="480" 
d="M424 82l15 -59q-53 -33 -132 -33q-73 0 -116.5 42.5t-43.5 117.5v145h-89v52h89v125h-108v69h109l6 146h68v-146h195v-69h-195v-125h152v-52h-152v-132q0 -48 27 -76.5t71 -28.5q59 0 104 24z" />
    <glyph glyph-name="Utilde" unicode="&#x168;" horiz-adv-x="740" 
d="M246 753l-40 10q0 41 23.5 66.5t59.5 25.5q29 0 71.5 -24.5t61.5 -24.5q22 0 36 15t14 39l39 -10q0 -41 -23 -66.5t-59 -25.5q-29 0 -71.5 24.5t-61.5 24.5q-22 0 -36 -15t-14 -39zM370 -9q-136 0 -215 79.5t-79 217.5v412h78v-398q0 -109 57.5 -169.5t158.5 -60.5
t159 60.5t58 169.5v398h77v-412q0 -138 -79 -217.5t-215 -79.5z" />
    <glyph glyph-name="utilde" unicode="&#x169;" horiz-adv-x="655" 
d="M257 661q-22 0 -36 -15t-14 -39l-40 10q0 41 23.5 66.5t59.5 25.5q29 0 71.5 -24.5t61.5 -24.5q22 0 36 15t14 39l39 -10q0 -41 -23 -66.5t-59 -25.5q-29 0 -71.5 24.5t-61.5 24.5zM497 261v280h74v-541h-74v97q-32 -48 -85.5 -77t-121.5 -29q-98 0 -157 62t-59 169v319
h75v-309q0 -81 41.5 -126.5t116.5 -45.5q80 0 135 57t55 144z" />
    <glyph glyph-name="Umacron" unicode="&#x16a;" horiz-adv-x="740" 
d="M510 784h-282l1 49h281v-49zM370 -9q-136 0 -215 79.5t-79 217.5v412h78v-398q0 -109 57.5 -169.5t158.5 -60.5t159 60.5t58 169.5v398h77v-412q0 -138 -79 -217.5t-215 -79.5z" />
    <glyph glyph-name="umacron" unicode="&#x16b;" horiz-adv-x="655" 
d="M192 690h281v-49h-282zM497 261v280h74v-541h-74v97q-32 -48 -85.5 -77t-121.5 -29q-98 0 -157 62t-59 169v319h75v-309q0 -81 41.5 -126.5t116.5 -45.5q80 0 135 57t55 144z" />
    <glyph glyph-name="Ubreve" unicode="&#x16c;" horiz-adv-x="740" 
d="M370 746q-60 0 -95 35t-35 94l57 1q0 -84 73 -84q72 0 72 84l57 -1q0 -59 -35 -94t-94 -35zM587 302v398h77v-412q0 -138 -79 -217.5t-215 -79.5t-215 79.5t-79 217.5v412h78v-398q0 -109 57.5 -169.5t158.5 -60.5t159 60.5t58 169.5z" />
    <glyph glyph-name="ubreve" unicode="&#x16d;" horiz-adv-x="655" 
d="M320 590q-60 0 -95 35.5t-35 94.5h57q0 -84 73 -84q72 0 72 84h57q0 -59 -35 -94.5t-94 -35.5zM497 261v280h74v-541h-74v97q-32 -48 -85.5 -77t-121.5 -29q-98 0 -157 62t-59 169v319h75v-309q0 -81 41.5 -126.5t116.5 -45.5q80 0 135 57t55 144z" />
    <glyph glyph-name="Uring" unicode="&#x16e;" horiz-adv-x="740" 
d="M379 743q-52 0 -86 32t-34 81t34 81t86 32q51 0 85 -32t34 -81t-34 -81t-85 -32zM379 788q29 0 49 19.5t20 48.5t-20 48.5t-49 19.5q-30 0 -50 -19.5t-20 -48.5t20 -48.5t50 -19.5zM370 -9q-136 0 -215 79.5t-79 217.5v412h78v-398q0 -109 57.5 -169.5t158.5 -60.5
t159 60.5t58 169.5v398h77v-412q0 -138 -79 -217.5t-215 -79.5z" />
    <glyph glyph-name="uring" unicode="&#x16f;" horiz-adv-x="655" 
d="M345 587q-52 0 -86 32t-34 80q0 49 34 81t86 32q51 0 85 -32t34 -81q0 -48 -34 -80t-85 -32zM345 768q-30 0 -49.5 -19.5t-19.5 -49.5q0 -29 19.5 -48.5t49.5 -19.5q29 0 49 19.5t20 48.5q0 30 -20 49.5t-49 19.5zM497 261v280h74v-541h-74v97q-32 -48 -85.5 -77
t-121.5 -29q-98 0 -157 62t-59 169v319h75v-309q0 -81 41.5 -126.5t116.5 -45.5q80 0 135 57t55 144z" />
    <glyph glyph-name="Uhungarumlaut" unicode="&#x170;" horiz-adv-x="740" 
d="M365 848l-88 -101l-51 5l73 113zM524 848l-88 -101l-51 5l73 113zM370 -9q-136 0 -215 79.5t-79 217.5v412h78v-398q0 -109 57.5 -169.5t158.5 -60.5t159 60.5t58 169.5v398h77v-412q0 -138 -79 -217.5t-215 -79.5z" />
    <glyph glyph-name="uhungarumlaut" unicode="&#x171;" horiz-adv-x="655" 
d="M233 735l71 -17l-108 -127l-52 7zM463 718l-108 -127l-52 7l89 137zM497 261v280h74v-541h-74v97q-32 -48 -85.5 -77t-121.5 -29q-98 0 -157 62t-59 169v319h75v-309q0 -81 41.5 -126.5t116.5 -45.5q80 0 135 57t55 144z" />
    <glyph glyph-name="Uogonek" unicode="&#x172;" horiz-adv-x="740" 
d="M587 302v398h77v-412q0 -93 -37.5 -161t-105.5 -103q-58 -39 -58 -80q0 -31 27.5 -43t74.5 -2l4 -44q-81 -16 -126.5 4.5t-45.5 67.5q0 35 28 68q-23 -4 -55 -4q-136 0 -215 79.5t-79 217.5v412h78v-398q0 -109 57.5 -169.5t158.5 -60.5t159 60.5t58 169.5z" />
    <glyph glyph-name="uogonek" unicode="&#x173;" horiz-adv-x="655" 
d="M590 -136l4 -44q-81 -16 -126.5 4.5t-45.5 67.5q0 30 21 59t57 49h-3v97q-32 -48 -85.5 -77t-121.5 -29q-98 0 -157 62t-59 169v319h75v-309q0 -81 41.5 -126.5t116.5 -45.5q80 0 135 57t55 144v280h74v-541h-6q-37 -19 -57 -44t-20 -47q0 -31 27.5 -43t74.5 -2z" />
    <glyph glyph-name="Wcircumflex" unicode="&#x174;" horiz-adv-x="1055" 
d="M608 754l-78 96l-78 -96l-64 6l105 121h74l105 -121zM762 96l189 604h82l-225 -700h-85l-195 570l-194 -570h-86l-226 700h82l191 -604l198 604h69z" />
    <glyph glyph-name="wcircumflex" unicode="&#x175;" horiz-adv-x="882" 
d="M513 591l-72 104l-73 -104l-59 6l97 132h69l97 -132zM628 87l152 454h79l-188 -541h-85l-145 440l-145 -440h-84l-190 541h79l153 -454l148 454h77z" />
    <glyph glyph-name="Ycircumflex" unicode="&#x176;" horiz-adv-x="678" 
d="M419 754l-78 96l-78 -96l-64 6l105 121h74l105 -121zM576 700h85l-283 -439v-261h-78v264l-283 436h86l237 -371z" />
    <glyph glyph-name="ycircumflex" unicode="&#x177;" horiz-adv-x="592" 
d="M393 591l-72 104l-73 -104l-59 6l97 132h69l97 -132zM299 86l194 455h82l-236 -541l-22 -51q-30 -69 -71.5 -99.5t-106.5 -30.5q-60 0 -106 29l24 55q38 -20 79 -20q39 0 63 19.5t45 64.5l15 34l-236 540h82z" />
    <glyph glyph-name="Ydieresis" unicode="&#x178;" horiz-adv-x="678" 
d="M235 870h70v-105h-70v105zM386 870h71v-105h-71v105zM576 700h85l-283 -439v-261h-78v264l-283 436h86l237 -371z" />
    <glyph glyph-name="Zacute" unicode="&#x179;" horiz-adv-x="695" 
d="M468 848l-94 -101l-52 5l80 113zM635 0h-577v49l464 582h-453v69h562v-49l-464 -582h468v-69z" />
    <glyph glyph-name="zacute" unicode="&#x17a;" horiz-adv-x="532" 
d="M404 720l-115 -127l-53 7l97 137zM495 0h-458v46l348 426h-340v69h446v-46l-351 -427h355v-68z" />
    <glyph glyph-name="Zdotaccent" unicode="&#x17b;" horiz-adv-x="695" 
d="M385 766h-79v106h79v-106zM635 0h-577v49l464 582h-453v69h562v-49l-464 -582h468v-69z" />
    <glyph glyph-name="zdotaccent" unicode="&#x17c;" horiz-adv-x="532" 
d="M303 617h-79v110h79v-110zM495 0h-458v46l348 426h-340v69h446v-46l-351 -427h355v-68z" />
    <glyph glyph-name="Zcaron" unicode="&#x17d;" horiz-adv-x="695" 
d="M310 748l-105 115l64 5l78 -90l78 90l64 -5l-105 -115h-74zM631 651l-464 -582h468v-69h-577v49l464 582h-453v69h562v-49z" />
    <glyph glyph-name="zcaron" unicode="&#x17e;" horiz-adv-x="532" 
d="M228 591l-97 132l59 6l73 -104l72 104l59 -6l-97 -132h-69zM491 495l-351 -427h355v-68h-458v46l348 426h-340v69h446v-46z" />
    <glyph glyph-name="uni018F" unicode="&#x18f;" horiz-adv-x="837" 
d="M391 709q166 0 273 -101.5t107 -258.5q0 -156 -103.5 -257.5t-265.5 -101.5q-148 0 -242 95t-94 248q0 19 4 30h621q-4 122 -88 201t-212 79q-140 0 -232 -95l-50 46q110 115 282 115zM401 56q113 0 192.5 68.5t94.5 176.5l-542 -1q11 -113 80 -178.5t175 -65.5z" />
    <glyph glyph-name="florin" unicode="&#x192;" horiz-adv-x="696" 
d="M546 704q-50 0 -81.5 -36t-49.5 -127h155v-58h-165l-45 -256q-42 -234 -201 -234q-62 0 -106 23l22 52q44 -19 80 -19q49 0 81 41t50 142l44 251h-124v58h134q23 118 71 169t127 51q60 0 106 -23l-23 -53q-38 19 -75 19z" />
    <glyph glyph-name="uni019D" unicode="&#x19d;" horiz-adv-x="809" 
d="M618 135v565h78v-700h-65l-456 568v-568h-1v-20q0 -74 -41 -110.5t-111 -36.5q-48 0 -91 24l19 57q27 -16 60 -16q38 0 63 22.5t25 65.5v714h67z" />
    <glyph glyph-name="Ohorn" unicode="&#x1a0;" horiz-adv-x="858" 
d="M686 612q106 -103 106 -262q0 -157 -103 -258.5t-261 -101.5q-157 0 -259.5 101.5t-102.5 258.5t102.5 258.5t260.5 101.5q113 0 199 -54q47 -2 68.5 22.5t0.5 79.5l65 4q23 -69 0.5 -108.5t-76.5 -41.5zM429 62q124 0 202.5 80t78.5 208t-79 208.5t-202 80.5t-202 -80.5
t-79 -208.5t78.5 -208t202.5 -80z" />
    <glyph glyph-name="ohorn" unicode="&#x1a1;" 
d="M537 476q85 -80 85 -204q0 -122 -80.5 -202t-204.5 -80t-204 79.5t-80 201.5t80 200.5t204 78.5q74 0 134 -29q50 -4 72.5 20t1.5 81l65 4q23 -68 1.5 -108t-74.5 -42zM338 59q91 0 150 59.5t59 152.5t-59 152t-151 59q-91 0 -150 -59t-59 -152t59 -152.5t151 -59.5z" />
    <glyph glyph-name="Uhorn" unicode="&#x1af;" horiz-adv-x="766" 
d="M718 802l63 3q28 -77 -8.5 -117.5t-108.5 -22.5v-377q0 -138 -79 -217.5t-215 -79.5t-215 79.5t-79 217.5v412h78v-398q0 -109 57.5 -169.5t158.5 -60.5t159 60.5t58 169.5v398h56l1 4q49 -5 71.5 18t2.5 80z" />
    <glyph glyph-name="uhorn" unicode="&#x1b0;" horiz-adv-x="680" 
d="M628 642l61 4q28 -78 -9 -117t-109 -20v-509h-74v97q-32 -48 -85.5 -77t-121.5 -29q-98 0 -157 62t-59 169v319h75v-309q0 -81 41.5 -126.5t116.5 -45.5q80 0 135 57t55 144v280h56l2 5q48 -5 70.5 18t2.5 78z" />
    <glyph glyph-name="uni01CD" unicode="&#x1cd;" horiz-adv-x="765" 
d="M347 748l-105 115l64 5l78 -90l78 90l64 -5l-105 -115h-74zM743 0h-83l-73 161h-411l-73 -161h-81l321 700h78zM382 612l-174 -381h347z" />
    <glyph glyph-name="uni01CE" unicode="&#x1ce;" horiz-adv-x="580" 
d="M245 593l-97 132l59 6l73 -104l72 104l59 -6l-97 -132h-69zM275 550q114 0 172.5 -55.5t58.5 -158.5v-336h-75v102q-26 -45 -80.5 -78.5t-127.5 -33.5q-86 0 -136.5 46t-50.5 120q0 78 53 125t159 47q80 0 183 -11v18q0 72 -41.5 109.5t-121.5 37.5q-94 0 -166 -60
l-38 55q87 73 211 73zM246 59q78 0 131.5 55t53.5 123v16q-76 12 -166 12q-157 0 -157 -105q0 -49 36 -75t102 -26z" />
    <glyph glyph-name="uni01CF" unicode="&#x1cf;" horiz-adv-x="273" 
d="M138 778l78 90l64 -5l-105 -115h-74l-105 115l64 5zM175 0h-77v700h77v-700z" />
    <glyph glyph-name="uni01D0" unicode="&#x1d0;" horiz-adv-x="242" 
d="M86 591l-97 132l59 6l73 -104l72 104l59 -6l-97 -132h-69zM158 0h-74v541h74v-541z" />
    <glyph glyph-name="uni01D1" unicode="&#x1d1;" horiz-adv-x="858" 
d="M393 748l-105 115l64 5l78 -90l78 90l64 -5l-105 -115h-74zM429 710q158 0 260.5 -101.5t102.5 -258.5t-103 -258.5t-261 -101.5q-157 0 -259.5 101.5t-102.5 258.5t102.5 258.5t260.5 101.5zM429 62q124 0 202.5 80t78.5 208t-79 208.5t-202 80.5t-202 -80.5t-79 -208.5
t78.5 -208t202.5 -80z" />
    <glyph glyph-name="uni01D2" unicode="&#x1d2;" 
d="M303 591l-97 132l59 6l73 -104l72 104l59 -6l-97 -132h-69zM337 550q124 0 204.5 -78.5t80.5 -199.5q0 -122 -80.5 -202t-204.5 -80t-204 79.5t-80 201.5t80 200.5t204 78.5zM338 59q91 0 150 59.5t59 152.5t-59 152t-151 59q-91 0 -150 -59t-59 -152t59 -152.5
t151 -59.5z" />
    <glyph glyph-name="uni01D3" unicode="&#x1d3;" horiz-adv-x="740" 
d="M335 748l-105 115l64 5l78 -90l78 90l64 -5l-105 -115h-74zM587 302v398h77v-412q0 -138 -79 -217.5t-215 -79.5t-215 79.5t-79 217.5v412h78v-398q0 -109 57.5 -169.5t158.5 -60.5t159 60.5t58 169.5z" />
    <glyph glyph-name="uni01D4" unicode="&#x1d4;" horiz-adv-x="655" 
d="M285 591l-97 132l59 6l73 -104l72 104l59 -6l-97 -132h-69zM497 261v280h74v-541h-74v97q-32 -48 -85.5 -77t-121.5 -29q-98 0 -157 62t-59 169v319h75v-309q0 -81 41.5 -126.5t116.5 -45.5q80 0 135 57t55 144z" />
    <glyph glyph-name="uni01D5" unicode="&#x1d5;" horiz-adv-x="741" 
d="M509 954h-282l1 48h281v-48zM339 765h-70v105h70v-105zM491 765h-70v105h70v-105zM370 -9q-136 0 -215 79.5t-79 217.5v412h78v-398q0 -109 57.5 -169.5t158.5 -60.5t159 60.5t58 169.5v398h77v-412q0 -138 -79 -217.5t-215 -79.5z" />
    <glyph glyph-name="uni01D6" unicode="&#x1d6;" horiz-adv-x="655" 
d="M209 876h281v-49h-281v49zM299 727v-110h-56v110h56zM457 727v-110h-56v110h56zM497 261v280h74v-541h-74v97q-32 -48 -85.5 -77t-121.5 -29q-98 0 -157 62t-59 169v319h75v-309q0 -81 41.5 -126.5t116.5 -45.5q80 0 135 57t55 144z" />
    <glyph glyph-name="uni01D7" unicode="&#x1d7;" horiz-adv-x="741" 
d="M493 1017l-94 -100l-52 5l80 113zM339 765h-70v105h70v-105zM491 765h-70v105h70v-105zM370 -9q-136 0 -215 79.5t-79 217.5v412h78v-398q0 -109 57.5 -169.5t158.5 -60.5t159 60.5t58 169.5v398h77v-412q0 -138 -79 -217.5t-215 -79.5z" />
    <glyph glyph-name="uni01D8" unicode="&#x1d8;" horiz-adv-x="655" 
d="M408 923l71 -17l-116 -127l-52 7zM243 727h56v-110h-56v110zM457 727v-110h-56v110h56zM497 261v280h74v-541h-74v97q-32 -48 -85.5 -77t-121.5 -29q-98 0 -157 62t-59 169v319h75v-309q0 -81 41.5 -126.5t116.5 -45.5q80 0 135 57t55 144z" />
    <glyph glyph-name="uni01D9" unicode="&#x1d9;" horiz-adv-x="741" 
d="M335 918l-105 115l64 5l78 -90l78 90l64 -5l-105 -115h-74zM339 765h-70v105h70v-105zM491 870v-105h-70v105h70zM587 302v398h77v-412q0 -138 -79 -217.5t-215 -79.5t-215 79.5t-79 217.5v412h78v-398q0 -109 57.5 -169.5t158.5 -60.5t159 60.5t58 169.5z" />
    <glyph glyph-name="uni01DA" unicode="&#x1da;" horiz-adv-x="655" 
d="M303 777l-97 132l59 6l73 -104l72 104l59 -6l-97 -132h-69zM299 727v-110h-56v110h56zM457 727v-110h-56v110h56zM497 261v280h74v-541h-74v97q-32 -48 -85.5 -77t-121.5 -29q-98 0 -157 62t-59 169v319h75v-309q0 -81 41.5 -126.5t116.5 -45.5q80 0 135 57t55 144z" />
    <glyph glyph-name="uni01DB" unicode="&#x1db;" horiz-adv-x="740" 
d="M394 922l-52 -5l-94 101l66 17zM336 765h-70v105h70v-105zM488 765h-71v105h71v-105zM370 -9q-136 0 -215 79.5t-79 217.5v412h78v-398q0 -109 57.5 -169.5t158.5 -60.5t159 60.5t58 169.5v398h77v-412q0 -138 -79 -217.5t-215 -79.5z" />
    <glyph glyph-name="uni01DB" unicode="&#x1dc;" horiz-adv-x="740" 
d="M394 922l-52 -5l-94 101l66 17zM336 765h-70v105h70v-105zM488 765h-71v105h71v-105zM370 -9q-136 0 -215 79.5t-79 217.5v412h78v-398q0 -109 57.5 -169.5t158.5 -60.5t159 60.5t58 169.5v398h77v-412q0 -138 -79 -217.5t-215 -79.5z" />
    <glyph glyph-name="Gcaron" unicode="&#x1e6;" horiz-adv-x="769" 
d="M404 748l-105 115l64 5l78 -90l78 90l64 -5l-105 -115h-74zM629 131v223h71v-257q-109 -107 -270 -107q-158 0 -261 101.5t-103 257.5q0 157 102.5 259t259.5 102q154 0 260 -104l-50 -49q-87 82 -208 82q-124 0 -203.5 -80.5t-79.5 -209.5q0 -128 79.5 -208t207.5 -80
q115 0 195 70z" />
    <glyph glyph-name="gcaron" unicode="&#x1e7;" horiz-adv-x="615" 
d="M283 591l-97 132l59 6l73 -104l72 104l59 -6l-97 -132h-69zM219 122h155q103 0 158 -36.5t55 -98.5q0 -76 -75.5 -121.5t-211.5 -45.5q-115 0 -180 37t-65 102q0 64 83 106q-57 27 -55 85q0 62 66 90q-64 48 -64 134q0 81 60 129t163 48q62 0 103 -19l140 35l17 -62
l-91 -15q56 -40 56 -116q0 -83 -60 -131t-163 -48q-63 0 -114 19q-39 -17 -39 -46q0 -22 17 -34t45 -12zM309 485q-71 0 -110.5 -29t-39.5 -81q0 -54 39.5 -84t110.5 -30t110.5 29.5t39.5 83.5q0 53 -39.5 82t-110.5 29zM304 -112q208 0 208 95q0 70 -158 70h-155h-4
q-64 -37 -64 -83q0 -82 173 -82z" />
    <glyph glyph-name="uni01EA" unicode="&#x1ea;" horiz-adv-x="858" 
d="M589 23q-70 -39 -70 -87q0 -31 27.5 -43t74.5 -2l4 -44q-81 -16 -126.5 4.5t-45.5 67.5q0 38 35 75q-25 -4 -60 -4q-157 0 -259.5 101.5t-102.5 258.5t102.5 258.5t260.5 101.5t260.5 -101.5t102.5 -258.5q0 -112 -54.5 -198t-148.5 -129zM148 350q0 -128 78.5 -208
t202.5 -80t202.5 80t78.5 208t-79 208.5t-202 80.5t-202 -80.5t-79 -208.5z" />
    <glyph glyph-name="uni01EB" unicode="&#x1eb;" 
d="M468 18q-60 -37 -60 -81q0 -31 27.5 -43t74.5 -2l4 -44q-81 -16 -126.5 4.5t-45.5 67.5q0 37 32 72q-24 -2 -37 -2q-124 0 -204 79.5t-80 201.5t80 200.5t204 78.5t204.5 -78.5t80.5 -199.5q0 -86 -41.5 -153t-112.5 -101zM128 271q0 -93 59 -152.5t151 -59.5
q91 0 150 59.5t59 152.5t-59 152t-151 59q-91 0 -150 -59t-59 -152z" />
    <glyph glyph-name="Aringacute" unicode="&#x1fa;" horiz-adv-x="765" 
d="M428 1026l66 -17l-94 -101l-52 5zM743 0h-83l-73 161h-411l-73 -161h-81l312 681q-63 30 -63 101q0 49 34 81t85 32q52 0 86 -32t34 -81q0 -38 -21 -66.5t-57 -39.5zM390 850q-29 0 -49 -19.5t-20 -48.5t20 -48.5t49 -19.5q30 0 49.5 19.5t19.5 48.5t-19.5 48.5
t-49.5 19.5zM382 612l-174 -381h347z" />
    <glyph glyph-name="aringacute" unicode="&#x1fb;" horiz-adv-x="587" 
d="M356 1001l71 -17l-115 -127l-53 7zM293 589q-51 0 -85 32t-34 81q0 48 34 80t85 32q52 0 86 -32t34 -80q0 -49 -34 -81t-86 -32zM293 770q-29 0 -49 -19.5t-20 -48.5q0 -30 20 -49.5t49 -19.5q30 0 49.5 19.5t19.5 49.5q0 29 -19.5 48.5t-49.5 19.5zM275 550
q114 0 172.5 -55.5t58.5 -158.5v-336h-75v102q-26 -45 -80.5 -78.5t-127.5 -33.5q-86 0 -136.5 46t-50.5 120q0 78 53 125t159 47q80 0 183 -11v18q0 72 -41.5 109.5t-121.5 37.5q-94 0 -166 -60l-38 55q87 73 211 73zM246 59q78 0 131.5 55t53.5 123v16q-76 12 -166 12
q-157 0 -157 -105q0 -49 36 -75t102 -26z" />
    <glyph glyph-name="AEacute" unicode="&#x1fc;" horiz-adv-x="1079" 
d="M743 865l66 -17l-94 -101l-52 5zM565 324v-255h463v-69h-540v178h-279l-106 -178h-81l411 700h585v-69h-453v-238h400v-69h-400zM481 635l-230 -387h237v387h-7z" />
    <glyph glyph-name="aeacute" unicode="&#x1fd;" horiz-adv-x="990" 
d="M574 737l71 -17l-115 -127l-53 7zM945 242h-447q7 -82 65 -132.5t146 -50.5q101 0 161 66l48 -44q-83 -90 -213 -90q-86 0 -153 40t-101 109q-32 -62 -95.5 -106t-145.5 -44t-133 45.5t-51 120.5t55.5 120.5t156.5 45.5q110 0 182 -11v30q-2 146 -162 146
q-45 0 -90.5 -16t-75.5 -44l-41 52q94 71 214 71q155 0 205 -112q78 112 227 112q112 0 181.5 -73t69.5 -190q0 -15 -3 -45zM697 482q-82 0 -135.5 -48t-62.5 -127h376q-8 84 -55.5 129.5t-122.5 45.5zM228 56q84 0 139 55t54 126l2 -2q-1 3 -1.5 9.5t-0.5 9.5
q-71 11 -167 11q-74 0 -115 -28.5t-41 -76.5t34.5 -76t95.5 -28z" />
    <glyph glyph-name="oslashacute" unicode="&#x1ff;" 
d="M402 737l71 -17l-115 -127l-53 7zM611 498l-49 -49q60 -74 60 -177q0 -122 -80.5 -202t-204.5 -80q-101 0 -178 56l-46 -46l-45 45l46 46q-61 74 -61 180q0 122 80 200.5t204 78.5q103 0 179 -57l50 50zM128 271q0 -73 38 -128l299 299q-52 40 -128 40q-91 0 -150 -59
t-59 -152zM338 59q91 0 150 59.5t59 152.5q0 74 -37 126l-299 -299q53 -39 127 -39z" />
    <glyph glyph-name="uni0218" unicode="&#x218;" horiz-adv-x="635" 
d="M325 -10q-80 0 -152 28t-125 76l37 59q109 -91 245 -91q82 0 127.5 33.5t45.5 86.5q0 56 -42.5 83t-145.5 49q-126 28 -186 74t-60 130q0 89 71 140.5t181 51.5q131 0 238 -79l-42 -57q-92 65 -201 65q-77 0 -121.5 -33t-44.5 -89q0 -53 42.5 -82t144.5 -52
q132 -29 189.5 -71t57.5 -126q0 -89 -72 -142.5t-187 -53.5zM279 -219l-15 36q57 23 50 75h-45v75h95q30 -150 -85 -186z" />
    <glyph glyph-name="uni0219" unicode="&#x219;" horiz-adv-x="526" 
d="M263 -9q-62 0 -122.5 20t-103.5 51l32 62q91 -64 198 -64q67 0 104.5 22.5t37.5 65.5q0 38 -33.5 58t-119.5 36q-113 21 -157 56.5t-44 98.5q0 71 53 111.5t147 40.5q55 0 114 -15.5t95 -41.5l-31 -63q-74 51 -183 51q-56 0 -87.5 -20t-31.5 -57q0 -34 31 -54t115 -36
q116 -24 161.5 -61.5t45.5 -101.5q0 -75 -59.5 -117t-161.5 -42zM227 -219l-15 36q57 23 50 75h-45v75h95q30 -150 -85 -186z" />
    <glyph glyph-name="uni021A" unicode="&#x21a;" horiz-adv-x="622" 
d="M29 631v69h563v-69h-243v-631h-78v631h-242zM262 -108v75h95q30 -150 -85 -186l-15 36q57 23 50 75h-45z" />
    <glyph glyph-name="uni021B" unicode="&#x21b;" horiz-adv-x="480" 
d="M424 82l15 -59q-53 -33 -132 -33q-73 0 -116.5 42.5t-43.5 117.5v322h-108v69h109l6 146h68v-146h195v-69h-195v-309q0 -48 27 -76.5t71 -28.5q59 0 104 24zM254 -110v75h95q30 -150 -85 -186l-15 36q57 23 50 75h-45z" />
    <glyph glyph-name="uni0232" unicode="&#x232;" horiz-adv-x="678" 
d="M197 833h281v-49h-282zM576 700h85l-283 -439v-261h-78v264l-283 436h86l237 -371z" />
    <glyph glyph-name="uni0233" unicode="&#x233;" horiz-adv-x="592" 
d="M192 690h281v-49h-282zM299 86l194 455h82l-236 -541l-22 -51q-30 -69 -71.5 -99.5t-106.5 -30.5q-60 0 -106 29l24 55q38 -20 79 -20q39 0 63 19.5t45 64.5l15 34l-236 540h82z" />
    <glyph glyph-name="uni0237" unicode="&#x237;" horiz-adv-x="255" 
d="M-66 -153l22 61q23 -14 54 -14q39 0 62.5 22t23.5 63v562h75v-568q0 -71 -42.5 -109t-110.5 -38q-42 0 -84 21z" />
    <glyph glyph-name="uni0259" unicode="&#x259;" horiz-adv-x="618" 
d="M281 550q124 0 204 -79t80 -201t-76.5 -200.5t-199.5 -78.5q-111 0 -181 73t-70 190q0 18 4 45h447q-7 82 -65.5 132.5t-146.5 50.5q-101 0 -160 -66l-49 44q83 90 213 90zM289 59q82 0 135.5 48t63.5 127h-377q8 -84 55.5 -129.5t122.5 -45.5z" />
    <glyph glyph-name="uni0272" unicode="&#x272;" horiz-adv-x="655" 
d="M365 550q98 0 157 -62t59 -169v-319h-75v309q0 81 -41.5 126.5t-116.5 45.5q-80 0 -135 -57t-55 -144v-44q1 -24 1 -86v-170q0 -74 -40.5 -110.5t-107.5 -36.5q-47 0 -89 24l19 57q24 -16 58 -16q36 0 60.5 22.5t24.5 65.5v555h74v-97q32 48 85.5 77t121.5 29z" />
    <glyph glyph-name="uni02B0" unicode="&#x2b0;" horiz-adv-x="342" 
d="M204 781q48 0 75 -31t27 -86v-162h-60v150q0 35 -18.5 57t-48.5 22q-31 0 -54 -24t-23 -59v-146h-60v369h60v-163q13 32 41 52.5t61 20.5z" />
    <glyph glyph-name="circumflex" unicode="&#x2c6;" horiz-adv-x="395" 
d="M232 729l97 -132l-59 -6l-72 104l-73 -104l-59 6l97 132h69z" />
    <glyph glyph-name="caron" unicode="&#x2c7;" horiz-adv-x="395" 
d="M198 625l72 104l59 -6l-97 -132h-69l-97 132l59 6z" />
    <glyph glyph-name="breve" unicode="&#x2d8;" horiz-adv-x="391" 
d="M268 720h57q0 -59 -35 -94.5t-94 -35.5q-60 0 -95 35.5t-35 94.5h57q0 -84 73 -84q72 0 72 84z" />
    <glyph glyph-name="dotaccent" unicode="&#x2d9;" horiz-adv-x="211" 
d="M145 617h-79v110h79v-110z" />
    <glyph glyph-name="ring" unicode="&#x2da;" horiz-adv-x="356" 
d="M186 587q-52 0 -86 32t-34 80q0 49 34 81t86 32q51 0 85 -32t34 -81q0 -48 -34 -80t-85 -32zM186 631q29 0 49 19.5t20 48.5q0 30 -20 49.5t-49 19.5q-30 0 -50 -19.5t-20 -49.5q0 -29 20 -48.5t50 -19.5z" />
    <glyph glyph-name="ogonek" unicode="&#x2db;" horiz-adv-x="244" 
d="M138 12l41 -12q-37 -19 -57 -44t-20 -47q0 -31 27.5 -43t74.5 -2l4 -44q-81 -16 -126.5 4.5t-45.5 67.5q0 34 28 67t74 53z" />
    <glyph glyph-name="tilde" unicode="&#x2dc;" horiz-adv-x="438" 
d="M106 607l-40 10q0 41 23.5 66.5t59.5 25.5q29 0 71.5 -24.5t61.5 -24.5q22 0 36 15t14 39l39 -10q0 -41 -23 -66.5t-59 -25.5q-29 0 -71.5 24.5t-61.5 24.5q-22 0 -36 -15t-14 -39z" />
    <glyph glyph-name="hungarumlaut" unicode="&#x2dd;" horiz-adv-x="451" 
d="M226 720l-108 -127l-52 7l89 137zM385 720l-108 -127l-52 7l89 137z" />
    <glyph glyph-name="uni02E1" unicode="&#x2e1;" horiz-adv-x="143" 
d="M102 502h-60v369h60v-369z" />
    <glyph glyph-name="uni02E2" unicode="&#x2e2;" horiz-adv-x="277" 
d="M135 496q-69 0 -118 34l13 40q48 -31 111 -31q58 0 58 37q0 16 -14 24.5t-55 17.5q-56 11 -80 30t-24 52q0 38 29 59t84 21q61 0 105 -28l-15 -39q-43 24 -89 24q-61 0 -61 -33q0 -16 14 -25t53 -16q57 -11 82 -29.5t25 -53.5q0 -39 -32.5 -61.5t-85.5 -22.5z" />
    <glyph glyph-name="gravecomb" unicode="&#x300;" horiz-adv-x="0" 
d="M-67 600l-52 -7l-116 127l72 17z" />
    <glyph glyph-name="acutecomb" unicode="&#x301;" horiz-adv-x="0" 
d="M-66 720l-116 -127l-52 7l96 137z" />
    <glyph glyph-name="uni0302" unicode="&#x302;" horiz-adv-x="0" 
d="M-163 729l97 -132l-59 -6l-72 104l-73 -104l-59 6l97 132h69z" />
    <glyph glyph-name="tildecomb" unicode="&#x303;" horiz-adv-x="0" 
d="M-332 607l-40 10q0 41 23.5 66.5t59.5 25.5q29 0 71.5 -24.5t61.5 -24.5q22 0 36 15t14 39l39 -10q0 -41 -23 -66.5t-59 -25.5q-29 0 -71.5 24.5t-61.5 24.5q-22 0 -36 -15t-14 -39z" />
    <glyph glyph-name="uni0304" unicode="&#x304;" horiz-adv-x="0" 
d="M-66 641h-282l1 49h281v-49z" />
    <glyph glyph-name="uni0306" unicode="&#x306;" horiz-adv-x="0" 
d="M-123 720h57q0 -59 -35 -94.5t-94 -35.5q-60 0 -95 35.5t-35 94.5h57q0 -84 73 -84q72 0 72 84z" />
    <glyph glyph-name="uni0307" unicode="&#x307;" horiz-adv-x="0" 
d="M-66 617h-79v110h79v-110z" />
    <glyph glyph-name="uni0308" unicode="&#x308;" horiz-adv-x="0" 
d="M-223 617h-57v110h57v-110zM-66 617h-56v110h56v-110z" />
    <glyph glyph-name="hookabovecomb" unicode="&#x309;" horiz-adv-x="0" 
d="M-129 583l-37 12q48 48 48 85q0 25 -22.5 35.5t-53.5 -6.5l-4 34q58 24 95 8.5t37 -53.5q0 -59 -63 -115z" />
    <glyph glyph-name="uni030A" unicode="&#x30a;" horiz-adv-x="0" 
d="M-186 587q-52 0 -86 32t-34 80q0 49 34 81t86 32q51 0 85 -32t34 -81q0 -48 -34 -80t-85 -32zM-186 631q29 0 49 19.5t20 48.5q0 30 -20 49.5t-49 19.5q-30 0 -50 -19.5t-20 -49.5q0 -29 20 -48.5t50 -19.5z" />
    <glyph glyph-name="uni030B" unicode="&#x30b;" horiz-adv-x="0" 
d="M-225 720l-108 -127l-52 7l89 137zM-66 720l-108 -127l-52 7l89 137z" />
    <glyph glyph-name="uni030C" unicode="&#x30c;" horiz-adv-x="0" 
d="M-197 625l72 104l59 -6l-97 -132h-69l-97 132l59 6z" />
    <glyph glyph-name="uni0312" unicode="&#x312;" horiz-adv-x="0" 
d="M-70 770l15 -36q-57 -23 -50 -75h45v-75h-95q-30 150 85 186z" />
    <glyph glyph-name="uni031B" unicode="&#x31b;" horiz-adv-x="0" 
d="M-207 536l10 30q51 -5 75 19t2 82l65 4q32 -89 -16.5 -129.5t-135.5 -5.5z" />
    <glyph glyph-name="dotbelowcomb" unicode="&#x323;" horiz-adv-x="0" 
d="M-145 -160v110h79v-110h-79z" />
    <glyph glyph-name="uni0324" unicode="&#x324;" horiz-adv-x="0" 
 />
    <glyph glyph-name="uni0326" unicode="&#x326;" horiz-adv-x="0" 
d="M-141 -219l-15 36q57 23 50 75h-45v75h95q30 -150 -85 -186z" />
    <glyph glyph-name="uni0327" unicode="&#x327;" horiz-adv-x="0" 
d="M-106 5l-13 -44q34 -5 53.5 -23t19.5 -44q0 -31 -27 -50.5t-78 -19.5q-32 0 -62 7l10 43q21 -7 46 -7q23 0 35 9.5t12 23.5q0 39 -67 40l19 65h52z" />
    <glyph glyph-name="uni0328" unicode="&#x328;" horiz-adv-x="0" 
d="M-106 12l41 -12q-37 -19 -57 -44t-20 -47q0 -31 27.5 -43t74.5 -2l4 -44q-81 -16 -126.5 4.5t-45.5 67.5q0 34 28 67t74 53z" />
    <glyph glyph-name="uni032E" unicode="&#x32e;" horiz-adv-x="0" 
d="M-117 -35l53 -1q0 -48 -33 -76.5t-88 -28.5t-88 28.5t-33 76.5l53 1q0 -69 68 -69t68 69z" />
    <glyph glyph-name="uni0331" unicode="&#x331;" horiz-adv-x="0" 
d="M-36 -112h-282l1 49h281v-49z" />
    <glyph glyph-name="uni0335" unicode="&#x335;" horiz-adv-x="0" 
d="M-352 305v52h316v-52h-316z" />
    <glyph glyph-name="uni0336" unicode="&#x336;" horiz-adv-x="0" 
 />
    <glyph glyph-name="uni0337" unicode="&#x337;" horiz-adv-x="0" 
d="M-257 268l-23 46l233 124l23 -45z" />
    <glyph glyph-name="uni0338" unicode="&#x338;" horiz-adv-x="0" 
d="M-564 -1l-45 45l498 498l45 -45z" />
    <glyph glyph-name="tonos" unicode="&#x384;" horiz-adv-x="192" 
d="M144 739l-30 -138h-48l11 138h67z" />
    <glyph glyph-name="dieresistonos" unicode="&#x385;" horiz-adv-x="340" 
d="M224 785l-29 -138h-37l11 138h55zM114 584h-49v102h49v-102zM297 584h-48v102h48v-102z" />
    <glyph glyph-name="Alphatonos" unicode="&#x386;" horiz-adv-x="765" 
d="M743 0h-83l-73 161h-411l-73 -161h-81l321 700h78zM78 700h67l-31 -137h-47zM382 612l-174 -381h347z" />
    <glyph glyph-name="Epsilontonos" unicode="&#x388;" horiz-adv-x="689" 
d="M-11 563h-47l11 137h67zM174 324v-255h463v-69h-539v700h529v-69h-453v-238h400v-69h-400z" />
    <glyph glyph-name="Etatonos" unicode="&#x389;" horiz-adv-x="782" 
d="M-11 563h-47l11 137h67zM606 386v314h78v-700h-78v316h-430v-316h-78v700h78v-314h430z" />
    <glyph glyph-name="Iotatonos" unicode="&#x38a;" horiz-adv-x="273" 
d="M20 700l-31 -137h-47l11 137h67zM175 0h-77v700h77v-700z" />
    <glyph glyph-name="Omicrontonos" unicode="&#x38c;" horiz-adv-x="858" 
d="M428 -10q-157 0 -259.5 101.5t-102.5 258.5t102.5 258.5t260.5 101.5t260.5 -101.5t102.5 -258.5t-103 -258.5t-261 -101.5zM20 700l-31 -137h-47l11 137h67zM429 62q124 0 202.5 80t78.5 208t-79 208.5t-202 80.5t-202 -80.5t-79 -208.5t78.5 -208t202.5 -80z" />
    <glyph glyph-name="Upsilontonos" unicode="&#x38e;" horiz-adv-x="678" 
d="M-84 563h-47l11 137h66zM576 700h85l-283 -439v-261h-78v264l-283 436h86l237 -371z" />
    <glyph glyph-name="Omegatonos" unicode="&#x38f;" horiz-adv-x="775" 
d="M709 404q0 -29 -3 -55t-11.5 -50.5t-15 -43t-22 -41.5t-23.5 -35.5t-28.5 -34.5t-28 -30t-31.5 -31.5t-29 -28.5l162 6v-60h-231v52q20 29 58.5 73.5t62 75t43 83t19.5 113.5q0 108 -68.5 174t-175.5 66t-175 -66t-68 -174q0 -61 19.5 -113.5t43 -83t62 -75t58.5 -73.5
v-52h-231v60l163 -6l-33 33l-35.5 35.5t-31 34.5t-31 40t-24.5 41.5t-21 49.5t-11.5 53.5t-5.5 62.5q0 128 87 214t235 86t234.5 -86t86.5 -214zM3 563h-47l11 137h67z" />
    <glyph glyph-name="iotadieresistonos" unicode="&#x390;" horiz-adv-x="300" 
d="M144 785l-29 -138h-37l11 138h55zM34 584h-49v102h49v-102zM217 584h-48v102h48v-102zM279 51v-60h-45q-77 0 -118.5 38.5t-41.5 134.5v377h75v-364q0 -70 24.5 -98t71.5 -28h34z" />
    <glyph glyph-name="Alpha" unicode="&#x391;" horiz-adv-x="765" 
d="M743 0h-83l-73 161h-411l-73 -161h-81l321 700h78zM382 612l-174 -381h347z" />
    <glyph glyph-name="Beta" unicode="&#x392;" horiz-adv-x="747" 
d="M532 359q72 -14 114 -61t42 -114q0 -85 -66.5 -134.5t-181.5 -49.5h-342v700h329q106 0 167 -47t61 -129q0 -59 -32.5 -103.5t-90.5 -61.5zM410 630h-235v-241h243q79 0 120 31.5t41 89.5q0 120 -169 120zM175 70h252q91 0 137.5 32t46.5 92q0 61 -47.5 93t-135.5 32
h-253v-249z" />
    <glyph glyph-name="Gamma" unicode="&#x393;" horiz-adv-x="610" 
d="M98 0v700h488v-69h-411v-631h-77z" />
    <glyph glyph-name="uni0394" unicode="&#x394;" horiz-adv-x="745" 
d="M334 700h77l312 -700h-701zM372 616l-240 -549h480z" />
    <glyph glyph-name="Epsilon" unicode="&#x395;" horiz-adv-x="689" 
d="M174 324v-255h463v-69h-539v700h529v-69h-453v-238h400v-69h-400z" />
    <glyph glyph-name="Zeta" unicode="&#x396;" horiz-adv-x="695" 
d="M635 0h-577v49l464 582h-453v69h562v-49l-464 -582h468v-69z" />
    <glyph glyph-name="Eta" unicode="&#x397;" horiz-adv-x="782" 
d="M606 386v314h78v-700h-78v316h-430v-316h-78v700h78v-314h430z" />
    <glyph glyph-name="Theta" unicode="&#x398;" horiz-adv-x="858" 
d="M428 -10q-157 0 -259.5 101.5t-102.5 258.5t102.5 258.5t260.5 101.5t260.5 -101.5t102.5 -258.5t-103 -258.5t-261 -101.5zM429 62q124 0 202.5 80t78.5 208t-79 208.5t-202 80.5t-202 -80.5t-79 -208.5t78.5 -208t202.5 -80zM198 327v52h474v-52h-474z" />
    <glyph glyph-name="Iota" unicode="&#x399;" horiz-adv-x="273" 
d="M175 0h-77v700h77v-700z" />
    <glyph glyph-name="Kappa" unicode="&#x39a;" horiz-adv-x="723" 
d="M694 0h-91l-250 350l-178 -193v-157h-77v700h77v-445l404 445h97l-270 -293z" />
    <glyph glyph-name="Lambda" unicode="&#x39b;" horiz-adv-x="746" 
d="M22 0l313 700h76l313 -700h-82l-268 607h-2l-268 -607h-82z" />
    <glyph glyph-name="Mu" unicode="&#x39c;" horiz-adv-x="903" 
d="M452 234l282 466h71v-700h-77v558l-262 -423h-28l-263 423v-558h-77v700h71z" />
    <glyph glyph-name="Nu" unicode="&#x39d;" horiz-adv-x="793" 
d="M175 0h-77v700h67l453 -565v565h78v-700h-65l-456 568v-568z" />
    <glyph glyph-name="Xi" unicode="&#x39e;" horiz-adv-x="541" 
d="M490 635h-452v65h452v-65zM440 323h-360v62h360v-62zM490 0h-452v65h452v-65z" />
    <glyph glyph-name="Omicron" unicode="&#x39f;" horiz-adv-x="858" 
d="M428 -10q-157 0 -259.5 101.5t-102.5 258.5t102.5 258.5t260.5 101.5t260.5 -101.5t102.5 -258.5t-103 -258.5t-261 -101.5zM429 62q124 0 202.5 80t78.5 208t-79 208.5t-202 80.5t-202 -80.5t-79 -208.5t78.5 -208t202.5 -80z" />
    <glyph glyph-name="Pi" unicode="&#x3a0;" horiz-adv-x="769" 
d="M672 700v-700h-78v635h-419v-635h-77v700h574z" />
    <glyph glyph-name="Rho" unicode="&#x3a1;" horiz-adv-x="684" 
d="M359 700q134 0 210 -62t76 -171q0 -111 -77 -173t-211 -62h-182v-232h-77v700h261zM175 302h181q101 0 156.5 42.5t55.5 123.5q0 79 -55 121t-156 42h-182v-329z" />
    <glyph glyph-name="Sigma" unicode="&#x3a3;" horiz-adv-x="622" 
d="M570 0h-518v55l253 301l-253 289v55h516v-65h-421l237 -279l-237 -291h423v-65z" />
    <glyph glyph-name="Tau" unicode="&#x3a4;" horiz-adv-x="622" 
d="M29 700h563v-69h-243v-631h-78v631h-242v69z" />
    <glyph glyph-name="Upsilon" unicode="&#x3a5;" horiz-adv-x="678" 
d="M576 700h85l-283 -439v-261h-78v264l-283 436h86l237 -371z" />
    <glyph glyph-name="Phi" unicode="&#x3a6;" horiz-adv-x="896" 
d="M830 350q0 -124 -93.5 -199.5t-250.5 -77.5v-78h-76v78q-157 2 -250.5 77.5t-93.5 199.5t93.5 199.5t250.5 77.5v78h76v-78q158 -2 251 -77.5t93 -199.5zM147 350q0 -97 70.5 -155t192.5 -62v434q-122 -4 -192.5 -62t-70.5 -155zM486 567v-434q122 3 192.5 61t70.5 156
q0 97 -70.5 155t-192.5 62z" />
    <glyph glyph-name="Chi" unicode="&#x3a7;" horiz-adv-x="700" 
d="M399 358l271 -358h-91l-228 300l-230 -300h-92l274 360l-260 340h92l215 -285l216 285h91z" />
    <glyph glyph-name="Psi" unicode="&#x3a8;" horiz-adv-x="786" 
d="M631 462v238h79v-224q0 -133 -69 -206t-211 -76v-194h-75v194q-141 4 -210 77t-69 206v223h78v-237q0 -208 201 -212v449h75v-449q201 3 201 211z" />
    <glyph glyph-name="uni03A9" unicode="&#x3a9;" horiz-adv-x="775" 
d="M709 404q0 -29 -3 -55t-11.5 -50.5t-15 -43t-22 -41.5t-23.5 -35.5t-28.5 -34.5t-28 -30t-31.5 -31.5t-29 -28.5l162 6v-60h-231v52q20 29 58.5 73.5t62 75t43 83t19.5 113.5q0 108 -68.5 174t-175.5 66t-175 -66t-68 -174q0 -61 19.5 -113.5t43 -83t62 -75t58.5 -73.5
v-52h-231v60l163 -6l-33 33l-35.5 35.5t-31 34.5t-31 40t-24.5 41.5t-21 49.5t-11.5 53.5t-5.5 62.5q0 128 87 214t235 86t234.5 -86t86.5 -214z" />
    <glyph glyph-name="Iotadieresis" unicode="&#x3aa;" horiz-adv-x="273" 
d="M86 776h-57v110h57v-110zM243 776h-56v110h56v-110zM175 0h-77v700h77v-700z" />
    <glyph glyph-name="Upsilondieresis" unicode="&#x3ab;" horiz-adv-x="678" 
d="M227 886h57v-110h-57v110zM385 886h56v-110h-56v110zM576 700h85l-283 -439v-261h-78v264l-283 436h86l237 -371z" />
    <glyph glyph-name="alphatonos" unicode="&#x3ac;" horiz-adv-x="698" 
d="M323 739h67l-30 -138h-48zM539 541h75l-12 -271l12 -270h-75l-3 143q-31 -73 -91 -113t-136 -40q-111 0 -183.5 79.5t-72.5 199.5q0 123 72.5 202t183.5 79q75 0 135.5 -39.5t91.5 -111.5zM327 52q90 0 148.5 61.5t58.5 156.5t-58.5 156.5t-148.5 61.5q-88 0 -144 -61.5
t-56 -156.5t56 -156.5t144 -61.5z" />
    <glyph glyph-name="epsilontonos" unicode="&#x3ad;" horiz-adv-x="531" 
d="M299 739l-30 -138h-48l11 138h67zM267 -10q-91 0 -152.5 44t-61.5 117q0 90 96 124q-88 31 -88 120q0 74 59 114.5t156 40.5q119 0 211 -65l-25 -54q-89 56 -178 56q-69 0 -107.5 -26t-38.5 -72q0 -87 128 -87h108v-53h-108q-63 0 -99.5 -24t-36.5 -66q0 -44 40 -71.5
t107 -27.5q107 0 196 63l26 -59q-92 -74 -232 -74z" />
    <glyph glyph-name="etatonos" unicode="&#x3ae;" horiz-adv-x="655" 
d="M296 739h67l-30 -138h-48zM581 319v-319h-1v-171h-74v480q0 81 -41.5 126.5t-116.5 45.5q-80 0 -135 -57t-55 -144v-280h-74v541h74v-97q32 48 85.5 77t121.5 29q98 0 157 -62t59 -169z" />
    <glyph glyph-name="iotatonos" unicode="&#x3af;" horiz-adv-x="300" 
d="M137 739l-30 -138h-48l11 138h67zM279 51v-60h-45q-77 0 -118.5 38.5t-41.5 134.5v377h75v-364q0 -70 24.5 -98t71.5 -28h34z" />
    <glyph glyph-name="upsilondieresistonos" unicode="&#x3b0;" horiz-adv-x="574" 
d="M330 785l-29 -138h-37l11 138h55zM220 584h-49v102h49v-102zM403 584h-48v102h48v-102zM55 224v317h76v-305q0 -186 153 -186q84 0 118 47t34 139v305h75v-317q0 -113 -57.5 -173.5t-169.5 -60.5q-105 0 -167 61.5t-62 172.5z" />
    <glyph glyph-name="alpha" unicode="&#x3b1;" horiz-adv-x="698" 
d="M539 541h75l-12 -271l12 -270h-75l-3 143q-31 -73 -91 -113t-136 -40q-111 0 -183.5 79.5t-72.5 199.5q0 123 72.5 202t183.5 79q75 0 135.5 -39.5t91.5 -111.5zM327 52q90 0 148.5 61.5t58.5 156.5t-58.5 156.5t-148.5 61.5q-88 0 -144 -61.5t-56 -156.5t56 -156.5
t144 -61.5z" />
    <glyph glyph-name="beta" unicode="&#x3b2;" horiz-adv-x="599" 
d="M165 -171h-75v719q0 77 48.5 121.5t139.5 44.5q77 0 134.5 -48.5t57.5 -132.5q0 -43 -22 -80.5t-61 -59.5q67 -9 113.5 -63t46.5 -125q0 -98 -60.5 -156t-168.5 -58q-84 0 -153 41v-203zM165 548v-453q67 -42 138 -42q80 0 124 41.5t44 114.5q0 63 -44.5 108.5
t-110.5 45.5h-78v52h42q48 1 80.5 31t34.5 75q1 55 -34 91.5t-83 36.5t-80.5 -24.5t-32.5 -76.5z" />
    <glyph glyph-name="gamma" unicode="&#x3b3;" horiz-adv-x="581" 
d="M484 541h80l-237 -534v-178h-76v176l-234 536h79l193 -454z" />
    <glyph glyph-name="delta" unicode="&#x3b4;" horiz-adv-x="603" 
d="M503 682h-291q59 -41 114.5 -89t108 -106.5t84 -124.5t31.5 -126q0 -107 -70 -176t-180 -69q-109 0 -178 69t-69 176q0 94 63.5 163.5t185.5 131.5q-75 71 -183 148v60h384v-57zM300 53q77 0 126 52t49 131q0 115 -138 260q-113 -63 -161.5 -122t-48.5 -138t48.5 -131
t124.5 -52z" />
    <glyph glyph-name="epsilon" unicode="&#x3b5;" horiz-adv-x="531" 
d="M267 -10q-91 0 -152.5 44t-61.5 117q0 90 96 124q-88 31 -88 120q0 74 59 114.5t156 40.5q119 0 211 -65l-25 -54q-89 56 -178 56q-69 0 -107.5 -26t-38.5 -72q0 -87 128 -87h108v-53h-108q-63 0 -99.5 -24t-36.5 -66q0 -44 40 -71.5t107 -27.5q107 0 196 63l26 -59
q-92 -74 -232 -74z" />
    <glyph glyph-name="zeta" unicode="&#x3b6;" horiz-adv-x="460" 
d="M236 105l90 -33q71 -26 103.5 -52.5t32.5 -75.5q0 -47 -46 -115h-67q49 70 49 99q0 31 -25 50.5t-84 40.5l-95 32q-69 25 -110 63.5t-41 107.5q0 63 32 132t84 129.5t103.5 108.5t104.5 86h-281v60h359l-3 -59l3 -2q-75 -54 -145 -122.5t-125.5 -159.5t-55.5 -167
q0 -26 10.5 -47.5t30 -36t36.5 -23t40 -16.5z" />
    <glyph glyph-name="eta" unicode="&#x3b7;" horiz-adv-x="655" 
d="M581 319v-319h-1v-171h-74v480q0 81 -41.5 126.5t-116.5 45.5q-80 0 -135 -57t-55 -144v-280h-74v541h74v-97q32 48 85.5 77t121.5 29q98 0 157 -62t59 -169z" />
    <glyph glyph-name="theta" unicode="&#x3b8;" horiz-adv-x="647" 
d="M324 740q124 0 197.5 -105.5t73.5 -269.5q0 -163 -73 -269t-198 -106q-124 0 -197.5 105.5t-73.5 270.5q0 162 73 268t198 106zM323 675q-89 0 -141.5 -81t-58.5 -204h400q-5 127 -58.5 206t-141.5 79zM324 55q89 0 141.5 81t58.5 204h-400q5 -127 59 -206t141 -79z" />
    <glyph glyph-name="iota" unicode="&#x3b9;" horiz-adv-x="300" 
d="M279 51v-60h-45q-77 0 -118.5 38.5t-41.5 134.5v377h75v-364q0 -70 24.5 -98t71.5 -28h34z" />
    <glyph glyph-name="kappa" unicode="&#x3ba;" horiz-adv-x="582" 
d="M552 0h-83l-192 236h-119v-236h-74v541h74v-238h120l175 238h84l-206 -267z" />
    <glyph glyph-name="lambda" unicode="&#x3bb;" horiz-adv-x="556" 
d="M96 0h-79l229 516l-39 90q-19 47 -39 63.5t-52 16.5v52q64 4 91.5 -17.5t54.5 -84.5l277 -636h-80l-179 413z" />
    <glyph glyph-name="uni03BC" unicode="&#x3bc;" horiz-adv-x="655" 
d="M497 261v280h74v-541h-74v97q-32 -48 -85.5 -77t-121.5 -29q-85 0 -142 48l2 -210h-74v356q-2 24 -2 37v319h75v-309q0 -81 41.5 -126.5t116.5 -45.5q80 0 135 57t55 144z" />
    <glyph glyph-name="nu" unicode="&#x3bd;" horiz-adv-x="586" 
d="M333 0h-80l-236 541h82l194 -455l194 455h82z" />
    <glyph glyph-name="xi" unicode="&#x3be;" horiz-adv-x="485" 
d="M421 -172h-66q48 61 48 96q0 31 -20.5 46.5t-91.5 41.5l-95 35q-143 52 -143 176q0 71 41.5 122t116.5 64q-58 16 -92 59t-34 104q0 70 57 123t145 53q65 0 109 -14t88 -44l-26 -42q-73 47 -162 47q-61 0 -100 -38t-39 -89q0 -63 43 -98.5t110 -35.5h67v-54h-88
q-69 0 -114 -41.5t-45 -106.5q0 -53 30.5 -85t71.5 -45l100 -36q70 -25 102.5 -51.5t32.5 -76.5q0 -49 -46 -110z" />
    <glyph glyph-name="omicron" unicode="&#x3bf;" 
d="M337 -10q-124 0 -204 79.5t-80 201.5t80 200.5t204 78.5t204.5 -78.5t80.5 -199.5q0 -122 -80.5 -202t-204.5 -80zM338 59q91 0 150 59.5t59 152.5t-59 152t-151 59q-91 0 -150 -59t-59 -152t59 -152.5t151 -59.5z" />
    <glyph glyph-name="pi" unicode="&#x3c0;" horiz-adv-x="653" 
d="M569 541v-541h-75v481h-336v-481h-74v541h485z" />
    <glyph glyph-name="rho" unicode="&#x3c1;" horiz-adv-x="706" 
d="M158 -171h-74v442q0 121 80 200t204 79t204.5 -78.5t80.5 -199.5q0 -122 -80.5 -202t-204.5 -80q-76 0 -134.5 40t-81.5 106zM159 271q0 -94 59.5 -156t150.5 -62q90 0 149.5 62t59.5 156t-59.5 155.5t-150.5 61.5t-150 -61.5t-59 -155.5z" />
    <glyph glyph-name="uni03C2" unicode="&#x3c2;" horiz-adv-x="565" 
d="M452 -171h-67q49 70 49 99q0 31 -24.5 49.5t-84.5 41.5l-75 28q-197 73 -197 246q0 111 76 184t193 73q125 0 207 -86l-47 -43q-65 68 -159 68q-85 0 -140 -54t-55 -138q1 -133 163 -197l71 -28q37 -15 56.5 -24.5t40.5 -24.5t30 -34t9 -45q0 -47 -46 -115z" />
    <glyph glyph-name="sigma" unicode="&#x3c3;" horiz-adv-x="679" 
d="M674 551v-74l-145 6q93 -80 93 -211q0 -122 -80.5 -202t-204.5 -80t-204 79.5t-80 201.5q0 121 79.5 199.5t202.5 79.5zM547 271q0 93 -59 152t-151 59q-91 0 -150 -59t-59 -152t59 -152.5t151 -59.5q91 0 150 59.5t59 152.5z" />
    <glyph glyph-name="tau" unicode="&#x3c4;" horiz-adv-x="454" 
d="M413 541v-61h-175v-303q0 -70 24.5 -98t71.5 -28h34v-60h-45q-77 0 -118.5 38.5t-41.5 134.5v316h-124v61h374z" />
    <glyph glyph-name="upsilon" unicode="&#x3c5;" horiz-adv-x="574" 
d="M55 224v317h76v-305q0 -186 153 -186q84 0 118 47t34 139v305h75v-317q0 -113 -57.5 -173.5t-169.5 -60.5q-105 0 -167 61.5t-62 172.5z" />
    <glyph glyph-name="phi" unicode="&#x3c6;" horiz-adv-x="778" 
d="M725 271q0 -117 -84 -193t-215 -78v-170h-75v170q-132 2 -215 77.5t-83 192.5t83 192.5t215 78.5v159h75v-159q132 -3 215.5 -78.5t83.5 -191.5zM128 271q0 -93 61.5 -151t161.5 -60v421q-100 -2 -161.5 -60t-61.5 -150zM426 481v-421q100 2 161.5 59.5t61.5 150.5
t-61 151t-162 60z" />
    <glyph glyph-name="chi" unicode="&#x3c7;" horiz-adv-x="587" 
d="M339 193l220 -364h-84l-181 299l-182 -299h-83l220 364l-210 348h86l169 -284l168 284h87z" />
    <glyph glyph-name="psi" unicode="&#x3c8;" horiz-adv-x="760" 
d="M604 259v282h73v-279q0 -120 -71 -184t-195 -68v-181h-70v181q-118 5 -192.5 69.5t-74.5 182.5v279h72v-282q0 -82 53 -132t142 -54v468h70v-468q93 4 143 53t50 133z" />
    <glyph glyph-name="omega" unicode="&#x3c9;" horiz-adv-x="877" 
d="M53 243q0 146 95 298h77q-98 -151 -98 -287q0 -94 35 -147.5t104 -53.5q140 0 140 183v130h65v-130q0 -95 32.5 -139t107.5 -44q68 0 103 54.5t35 146.5q0 135 -97 287h75q97 -158 97 -298q0 -115 -55.5 -184t-146.5 -69q-82 0 -126.5 38t-57.5 114q-29 -152 -182 -152
q-92 0 -147.5 68t-55.5 185z" />
    <glyph glyph-name="iotadieresis" unicode="&#x3ca;" horiz-adv-x="300" 
d="M51 617h-57v110h57v-110zM208 617h-56v110h56v-110zM279 51v-60h-45q-77 0 -118.5 38.5t-41.5 134.5v377h75v-364q0 -70 24.5 -98t71.5 -28h34z" />
    <glyph glyph-name="upsilondieresis" unicode="&#x3cb;" horiz-adv-x="574" 
d="M237 617h-57v110h57v-110zM394 617h-56v110h56v-110zM55 224v317h76v-305q0 -186 153 -186q84 0 118 47t34 139v305h75v-317q0 -113 -57.5 -173.5t-169.5 -60.5q-105 0 -167 61.5t-62 172.5z" />
    <glyph glyph-name="omicrontonos" unicode="&#x3cc;" 
d="M369 739l-30 -138h-48l11 138h67zM337 -10q-124 0 -204 79.5t-80 201.5t80 200.5t204 78.5t204.5 -78.5t80.5 -199.5q0 -122 -80.5 -202t-204.5 -80zM338 59q91 0 150 59.5t59 152.5t-59 152t-151 59q-91 0 -150 -59t-59 -152t59 -152.5t151 -59.5z" />
    <glyph glyph-name="upsilontonos" unicode="&#x3cd;" horiz-adv-x="574" 
d="M323 739l-30 -138h-48l11 138h67zM55 224v317h76v-305q0 -186 153 -186q84 0 118 47t34 139v305h75v-317q0 -113 -57.5 -173.5t-169.5 -60.5q-105 0 -167 61.5t-62 172.5z" />
    <glyph glyph-name="omegatonos" unicode="&#x3ce;" horiz-adv-x="877" 
d="M474 739l-30 -138h-48l11 138h67zM53 243q0 146 95 298h77q-98 -151 -98 -287q0 -94 35 -147.5t104 -53.5q140 0 140 183v130h65v-130q0 -95 32.5 -139t107.5 -44q68 0 103 54.5t35 146.5q0 135 -97 287h75q97 -158 97 -298q0 -115 -55.5 -184t-146.5 -69
q-82 0 -126.5 38t-57.5 114q-29 -152 -182 -152q-92 0 -147.5 68t-55.5 185z" />
    <glyph glyph-name="uni0400" unicode="&#x400;" horiz-adv-x="689" 
d="M277 896l96 -137l-52 -7l-116 127zM174 324v-255h463v-69h-539v700h529v-69h-453v-238h400v-69h-400z" />
    <glyph glyph-name="uni0401" unicode="&#x401;" horiz-adv-x="689" 
d="M239 886h57v-110h-57v110zM397 886h56v-110h-56v110zM174 324v-255h463v-69h-539v700h529v-69h-453v-238h400v-69h-400z" />
    <glyph glyph-name="uni0402" unicode="&#x402;" horiz-adv-x="779" 
d="M496 445q99 0 158 -64.5t59 -181.5v-33q0 -88 -48.5 -129.5t-122.5 -41.5q-45 0 -86 22l19 46q26 -16 56 -16q41 0 74 27.5t33 87.5v32q0 89 -44 139t-120 50q-91 0 -172 -32v-351h-78v636h-195v64h563v-64h-290v-226q102 35 194 35z" />
    <glyph glyph-name="uni0403" unicode="&#x403;" horiz-adv-x="610" 
d="M442 879l-116 -127l-52 7l96 137zM98 0v700h488v-69h-411v-631h-77z" />
    <glyph glyph-name="uni0404" unicode="&#x404;" horiz-adv-x="724" 
d="M643 150l50 -49q-103 -111 -265 -111q-154 0 -258 103.5t-104 256.5t103 256.5t257 103.5q160 0 265 -107l-50 -50q-86 86 -213 86q-111 0 -189 -71.5t-90 -181.5h372v-58h-373q7 -117 86.5 -192t193.5 -75q128 0 215 89z" />
    <glyph glyph-name="uni0405" unicode="&#x405;" horiz-adv-x="635" 
d="M325 -10q-80 0 -152 28t-125 76l37 59q109 -91 245 -91q82 0 127.5 33.5t45.5 86.5q0 56 -42.5 83t-145.5 49q-126 28 -186 74t-60 130q0 89 71 140.5t181 51.5q131 0 238 -79l-42 -57q-92 65 -201 65q-77 0 -121.5 -33t-44.5 -89q0 -53 42.5 -82t144.5 -52
q132 -29 189.5 -71t57.5 -126q0 -89 -72 -142.5t-187 -53.5z" />
    <glyph glyph-name="uni0406" unicode="&#x406;" horiz-adv-x="273" 
d="M175 0h-77v700h77v-700z" />
    <glyph glyph-name="uni0407" unicode="&#x407;" horiz-adv-x="273" 
d="M86 776h-57v110h57v-110zM243 776h-56v110h56v-110zM175 0h-77v700h77v-700z" />
    <glyph glyph-name="uni0408" unicode="&#x408;" horiz-adv-x="565" 
d="M250 -10q-73 0 -135 34t-96 92l51 46q30 -46 76 -73t101 -27q76 0 121.5 50.5t45.5 134.5v384h-256v69h331v-453q0 -116 -65 -186.5t-174 -70.5z" />
    <glyph glyph-name="uni0409" unicode="&#x409;" horiz-adv-x="1138" 
d="M656 468h147q134 0 211 -62t77 -173q0 -109 -76.5 -171t-210.5 -62h-226v635h-334l-7 -313q-2 -78 -14 -136t-30.5 -93t-45.5 -56.5t-55 -29t-63 -7.5v63q40 1 66.5 21.5t44.5 79t20 157.5l9 379h487v-232zM656 63h147q100 0 155.5 44.5t55.5 124.5q0 82 -56 127.5
t-156 45.5h-146v-342z" />
    <glyph glyph-name="uni040A" unicode="&#x40a;" horiz-adv-x="1107" 
d="M639 433h138q131 0 207 -57.5t76 -158.5q0 -98 -76 -157.5t-205 -59.5h-219l2 2v362h-387v-364h-77v700h77v-271h387v271h77v-267zM639 57h138q98 0 152 42.5t54 113.5q0 73 -54 115t-153 42h-137v-313z" />
    <glyph glyph-name="uni040B" unicode="&#x40b;" horiz-adv-x="787" 
d="M496 445q99 0 158 -63t59 -173v-209h-75v194q0 86 -46 136.5t-122 50.5q-80 0 -168 -32v-349h-78v636h-195v64h563v-64h-290v-226q102 35 194 35z" />
    <glyph glyph-name="uni040C" unicode="&#x40c;" horiz-adv-x="728" 
d="M430 896l72 -16l-116 -127l-53 6zM649 0h-87l-244 315h-143v-315h-77v700h77v-314h143l224 314h89l-254 -344z" />
    <glyph glyph-name="uni040D" unicode="&#x40d;" horiz-adv-x="794" 
d="M423 759l-52 -7l-116 127l72 17zM696 700v-700h-78v568l-456 -568h-64v700h78v-565l453 565h67z" />
    <glyph glyph-name="uni040E" unicode="&#x40e;" horiz-adv-x="583" 
d="M292 748q-60 0 -95 35.5t-35 94.5h57q0 -84 73 -84q72 0 72 84h57q0 -59 -35 -94.5t-94 -35.5zM292 254l192 445h77l-233 -525l-21 -50q-30 -68 -67.5 -97t-98.5 -29q-27 0 -58.5 8t-45.5 18l24 54q29 -17 75 -17q37 0 60.5 19t42.5 63l15 33l-232 523h77l192 -445h1z
" />
    <glyph glyph-name="uni040F" unicode="&#x40f;" horiz-adv-x="769" 
d="M594 65v635h78v-700h-250v-125h-78v125h-246v700h77v-635h419z" />
    <glyph glyph-name="uni0410" unicode="&#x410;" horiz-adv-x="765" 
d="M743 0h-83l-73 161h-411l-73 -161h-81l321 700h78zM382 612l-174 -381h347z" />
    <glyph glyph-name="uni0411" unicode="&#x411;" horiz-adv-x="728" 
d="M175 420h243q123 0 187 -62t64 -150q0 -96 -68 -152t-176 -56h-327v700h474v-67h-397v-213zM175 67h233q83 0 133.5 36.5t50.5 111.5q0 65 -49.5 102t-127.5 37h-240v-287z" />
    <glyph glyph-name="uni0412" unicode="&#x412;" horiz-adv-x="747" 
d="M532 359q72 -14 114 -61t42 -114q0 -85 -66.5 -134.5t-181.5 -49.5h-342v700h329q106 0 167 -47t61 -129q0 -59 -32.5 -103.5t-90.5 -61.5zM410 630h-235v-241h243q79 0 120 31.5t41 89.5q0 120 -169 120zM175 70h252q91 0 137.5 32t46.5 92q0 61 -47.5 93t-135.5 32
h-253v-249z" />
    <glyph glyph-name="uni0413" unicode="&#x413;" horiz-adv-x="610" 
d="M98 0v700h488v-69h-411v-631h-77z" />
    <glyph glyph-name="uni0414" unicode="&#x414;" horiz-adv-x="780" 
d="M750 65v-184h-78v119h-565v-119h-78v184h51q16 0 25 2.5t21.5 16t19.5 39t13 74.5t9 120l12 383h456v-635h114zM202 65h357v570h-304l-10 -326q-5 -175 -43 -244z" />
    <glyph glyph-name="uni0415" unicode="&#x415;" horiz-adv-x="689" 
d="M174 324v-255h463v-69h-539v700h529v-69h-453v-238h400v-69h-400z" />
    <glyph glyph-name="uni0416" unicode="&#x416;" horiz-adv-x="987" 
d="M957 0h-87l-244 315h-95v-315h-78v315h-95l-242 -315h-87l270 356l-252 344h90l220 -314h96v314h78v-314h96l223 314h89l-253 -345z" />
    <glyph glyph-name="uni0417" unicode="&#x417;" horiz-adv-x="1344" 
d="M817 504h443v-162h-1174v162h444v1q0 8 1 12v2v1q0 4 2 12q0 3 2 9q12 47 50 77t88 30q59 0 101.5 -42t42.5 -101v-1zM675 371q54 0 92.5 38.5t38.5 93.5q0 54 -38.5 92.5t-92.5 38.5q-55 0 -93.5 -38.5t-38.5 -92.5q0 -55 38.5 -93.5t93.5 -38.5zM735 602q8 -7 17 -11
h-159q10 9 18 13q12 6 20 8q17 9 42 9q23 0 44 -9zM764 427h-155l152 155q30 -39 30 -78q0 -20 -6 -41q-5 -17 -21 -36zM583 577h155l-153 -154q-14 15 -23 38q-7 20 -7 43q0 12 1 18q2 12 7 22q6 19 20 33zM192 477h-81v-27h26v-75h29v75h26v27zM204 477v-102h30v31h8
l13 -22q3 -9 12 -9h26l-18 32q-10 10 -19 10h3q8 0 16 7t8 17q0 16 -11 26t-26 10h-42zM304 477v-102h29v102h-29zM434 375h23l-44 102h-26l-44 -102h23q7 0 14 10l2 7h36l4 -7q3 -10 12 -10zM497 477h-29v-102h64v27h-35v75zM892 477q-23 0 -37.5 -15t-14.5 -38
q0 -22 15 -37t37 -15q23 0 38 14.5t15 37.5t-15 38t-38 15zM1054 374v101h-29v-35q0 -12 3 -20h-1l-31 46q-4 9 -12 9h-25v-101h30l1 40q0 10 -4 19l35 -53q6 -6 11 -6h22zM1103 475h-29v-101h65v26h-36v75zM1166 404v-30h30v30q0 6 3 10l37 61h-28q-8 0 -12 -7l-11 -19
q-1 -3 -2.5 -9.5t-1.5 -7.5q0 8 -4 17l-11 19q-4 7 -12 7h-27l37 -61q2 -3 2 -10zM245 434h-11v15h10q8 0 8 -8q0 -7 -7 -7zM892 400q-10 0 -17 7t-7 17t7 17.5t17 7.5t16.5 -7t6.5 -18q0 -24 -23 -24zM404 426l6 -13h-19l5 13q4 12 4 19h1q0 -10 3 -19zM632 392
q-16 6 -37 22h157q-3 -3 -9 -7t-8 -6q-13 -7 -18 -9q-3 -1 -11 -2.5t-11 -2.5q-12 -3 -22 -3q-23 0 -41 8zM131 313h-40v-67h7v29h28v7h-28v23h33v8zM168 252q-18 0 -18 20v41h-8v-41q0 -12 7.5 -19.5t18.5 -7.5q12 0 19.5 7.5t7.5 19.5v41h-8v-41q0 -20 -19 -20zM220 313
h-7v-67h36v7h-29v60zM270 313h-7v-67h38v7h-31v60zM369 246l29 67h-5q-4 0 -4 -3l-21 -49q-2 -6 -2 -7q0 1 -2 7l-21 49q-1 3 -5 3h-5l30 -67h6zM408 313v-67h41v7h-34v23h28v8h-28v21h34v8h-41zM464 313v-67h8v28h10l20 -25q4 -3 7 -3h5l-21 27q-2 2 -4 2h2q16 3 16 18
q0 9 -6 14.5t-14 5.5h-23zM520 257l-2 -2q10 -10 21 -10q21 0 21 20q0 15 -19 20q-12 6 -12 11q0 10 11 10q6 0 11 -3q3 -2 5 2l1 2q-5 6 -17 6q-19 0 -19 -17q0 -10 18 -18q15 -6 15 -13q0 -13 -15 -13q-7 2 -13 6q-1 1 -3 0.5t-3 -1.5zM576 313v-67h6v67h-6zM632 313
q-14 0 -24.5 -10t-10.5 -24t10.5 -24t24.5 -10q15 0 24.5 10t9.5 24t-9.5 24t-24.5 10zM735 246v67h-9v-50q0 -3 1 -5l-35 53q-3 2 -6 2h-6v-67h8v52q0 1 -0.5 2.5t-0.5 2.5l39 -55q0 -2 2 -2h7zM632 252q-11 0 -19.5 8t-8.5 19t8.5 19t19.5 8t19 -8t8 -19t-8.5 -19
t-18.5 -8zM487 282h-15v23h15q12 0 12 -12q0 -11 -12 -11zM1242 280l-2 4l-19 17l-2 -3q-2 -3 1 -6l10 -9h-457v-7h456l-9 -9q-2 -4 -1 -6l2 -3l19 18q2 2 2 4zM560 212q-21 0 -35.5 -14t-14.5 -35q0 -22 14.5 -36t35.5 -14q22 0 36.5 14t14.5 36q0 21 -14.5 35t-36.5 14z
M811 140l-5 -11q18 -16 38 -16q16 0 26.5 9t10.5 23q0 26 -30 32q-10 3 -10 6q0 4 5 4q1 0 5 -2q14 -5 19 6l5 10q-10 11 -29 11q-15 0 -24.5 -8t-9.5 -21q0 -20 32 -31q8 -3 8 -7q0 -6 -8 -6q-3 0 -13 5q-11 6 -20 -4zM927 163q0 -22 14 -36t36 -14q27 0 37 19l-6 9
q-8 10 -19 2q-6 -4 -13 -4q-9 0 -15 7t-6 17t6 16.5t15 6.5q5 0 13 -4q11 -8 19 2l6 9q-10 19 -37 19q-22 0 -36 -14t-14 -35zM1072 212q-22 0 -36.5 -14t-14.5 -35q0 -22 14.5 -36t36.5 -14t36 14t14 36q0 21 -14 35t-36 14zM85 127v-13h78v27h-28q-6 0 -13 -5l38 51
q4 4 4 11v13h-75v-26h26q7 0 11 4l-36 -49q-5 -6 -5 -13zM176 211v-97h67v27h-39v10h32v24h-32v10h39v26h-67zM326 211h-77v-26h26v-71h28v71h23v26zM405 114h22l-43 97h-24l-43 -97h22q9 0 12 10l3 6h35l3 -6q3 -10 13 -10zM502 211h-67v-97h29v33h31v25h-31v13h38v26z
M715 114v97h-29v-34q0 -11 3 -18l-29 43q-6 9 -13 9h-22v-97h28v39q0 8 -3 17h1l33 -50q4 -6 10 -6h21zM803 211h-77v-26h24v-71h29v71h24v26zM1249 114v97h-24q-8 0 -11 -9l-18 -35q-2 -6 -2 -11h-1q0 6 -3 11l-17 35q-6 9 -12 9h-25v-97h28v42q0 8 -3 15h1l19 -41
q3 -7 13 -7q7 0 11 7l19 41q-2 -10 -2 -15v-42h27zM560 139q-9 0 -15.5 7t-6.5 17t6.5 16.5t15.5 6.5q22 0 22 -23q0 -24 -22 -24zM1072 139q-10 0 -16 6.5t-6 17.5q0 10 6 16.5t16 6.5q9 0 15.5 -6.5t6.5 -16.5t-6.5 -17t-15.5 -7zM375 162l6 -13h-18l5 13q3 12 3 19h1
q0 -13 3 -19zM889 127q0 -14 15 -14q14 0 14 14q0 16 -14 16q-15 0 -15 -16z" />
    <glyph glyph-name="uni0418" unicode="&#x418;" horiz-adv-x="794" 
d="M696 700v-700h-78v568l-456 -568h-64v700h78v-565l453 565h67z" />
    <glyph glyph-name="uni0419" unicode="&#x419;" horiz-adv-x="794" 
d="M397 749q-60 0 -95 35.5t-35 94.5h57q0 -84 73 -84q72 0 72 84h57q0 -59 -35 -94.5t-94 -35.5zM176 135l453 565h67v-700h-78v568l-456 -568h-64v700h78v-565z" />
    <glyph glyph-name="uni041A" unicode="&#x41a;" horiz-adv-x="678" 
d="M649 0h-87l-244 315h-143v-315h-77v700h77v-314h143l224 314h89l-254 -344z" />
    <glyph glyph-name="uni041B" unicode="&#x41b;" horiz-adv-x="781" 
d="M683 700v-700h-77v635h-362l-7 -313q-2 -78 -14 -136t-30.5 -93t-45.5 -56.5t-55 -29t-63 -7.5v63q40 1 66.5 21.5t44.5 79t20 157.5l9 379h514z" />
    <glyph glyph-name="uni041C" unicode="&#x41c;" horiz-adv-x="903" 
d="M452 234l282 466h71v-700h-77v558l-262 -423h-28l-263 423v-558h-77v700h71z" />
    <glyph glyph-name="uni041D" unicode="&#x41d;" horiz-adv-x="782" 
d="M606 386v314h78v-700h-78v316h-430v-316h-78v700h78v-314h430z" />
    <glyph glyph-name="uni041E" unicode="&#x41e;" horiz-adv-x="858" 
d="M428 -10q-157 0 -259.5 101.5t-102.5 258.5t102.5 258.5t260.5 101.5t260.5 -101.5t102.5 -258.5t-103 -258.5t-261 -101.5zM429 62q124 0 202.5 80t78.5 208t-79 208.5t-202 80.5t-202 -80.5t-79 -208.5t78.5 -208t202.5 -80z" />
    <glyph glyph-name="uni041F" unicode="&#x41f;" horiz-adv-x="769" 
d="M672 700v-700h-78v635h-419v-635h-77v700h574z" />
    <glyph glyph-name="uni0420" unicode="&#x420;" horiz-adv-x="684" 
d="M359 700q134 0 210 -62t76 -171q0 -111 -77 -173t-211 -62h-182v-232h-77v700h261zM175 302h181q101 0 156.5 42.5t55.5 123.5q0 79 -55 121t-156 42h-182v-329z" />
    <glyph glyph-name="uni0421" unicode="&#x421;" horiz-adv-x="724" 
d="M428 -10q-154 0 -258 103.5t-104 256.5t103 256.5t257 103.5q160 0 265 -107l-50 -50q-86 86 -213 86q-120 0 -200.5 -82.5t-80.5 -205.5q0 -126 80.5 -208t200.5 -82q128 0 215 89l50 -49q-103 -111 -265 -111z" />
    <glyph glyph-name="uni0422" unicode="&#x422;" horiz-adv-x="622" 
d="M29 700h563v-69h-243v-631h-78v631h-242v69z" />
    <glyph glyph-name="uni0423" unicode="&#x423;" horiz-adv-x="583" 
d="M292 254l192 445h77l-233 -525l-21 -50q-30 -68 -67.5 -97t-98.5 -29q-27 0 -58.5 8t-45.5 18l24 54q29 -17 75 -17q37 0 60.5 19t42.5 63l15 33l-232 523h77l192 -445h1z" />
    <glyph glyph-name="uni0424" unicode="&#x424;" horiz-adv-x="896" 
d="M830 350q0 -124 -93.5 -199.5t-250.5 -77.5v-78h-76v78q-157 2 -250.5 77.5t-93.5 199.5t93.5 199.5t250.5 77.5v78h76v-78q158 -2 251 -77.5t93 -199.5zM147 350q0 -97 70.5 -155t192.5 -62v434q-122 -4 -192.5 -62t-70.5 -155zM486 567v-434q122 3 192.5 61t70.5 156
q0 97 -70.5 155t-192.5 62z" />
    <glyph glyph-name="uni0425" unicode="&#x425;" horiz-adv-x="700" 
d="M399 358l271 -358h-91l-228 300l-230 -300h-92l274 360l-260 340h92l215 -285l216 285h91z" />
    <glyph glyph-name="uni0426" unicode="&#x426;" horiz-adv-x="791" 
d="M761 67v-184h-78v119h-11v-2h-574v700h77v-635h419v635h78v-633h89z" />
    <glyph glyph-name="uni0427" unicode="&#x427;" horiz-adv-x="696" 
d="M520 330v370h78v-700h-78v268q-117 -39 -227 -39q-98 0 -157.5 63.5t-59.5 172.5v235h75v-219q0 -86 46 -136.5t122 -50.5q103 0 201 36z" />
    <glyph glyph-name="uni0428" unicode="&#x428;" horiz-adv-x="1018" 
d="M842 65v635h79v-700h-823v700h77v-635h295v635h78v-635h294z" />
    <glyph glyph-name="uni0429" unicode="&#x429;" horiz-adv-x="1031" 
d="M1002 65v-184h-78v119h-826v700h77v-635h295v635h78v-635h294v635h79v-635h81z" />
    <glyph glyph-name="uni042A" unicode="&#x42a;" horiz-adv-x="753" 
d="M231 474h181q134 0 211.5 -65t77.5 -176q0 -109 -76.5 -171t-210.5 -62h-261v633h-124v67h202v-226zM231 68h181q100 0 155.5 44t55.5 120q0 82 -55.5 127.5t-155.5 45.5h-181v-337z" />
    <glyph glyph-name="uni042B" unicode="&#x42b;" horiz-adv-x="972" 
d="M182 474h181q134 0 211.5 -65t77.5 -176q0 -109 -76.5 -171t-210.5 -62h-261v700h78v-226zM797 0v700h77v-700h-77zM182 68h182q99 0 154.5 44t55.5 120q0 82 -55.5 127.5t-155.5 45.5h-181v-337z" />
    <glyph glyph-name="uni042C" unicode="&#x42c;" horiz-adv-x="699" 
d="M182 474h181q134 0 211.5 -65t77.5 -176q0 -109 -76.5 -171t-210.5 -62h-261v700h78v-226zM182 68h182q99 0 154.5 44t55.5 120q0 82 -55.5 127.5t-155.5 45.5h-181v-337z" />
    <glyph glyph-name="uni042D" unicode="&#x42d;" horiz-adv-x="724" 
d="M298 710q154 0 257 -103.5t103 -256.5t-104 -256.5t-258 -103.5q-162 0 -265 111l50 49q87 -89 215 -89q114 0 193.5 75t86.5 192h-373v58h372q-12 110 -90 181.5t-189 71.5q-127 0 -213 -86l-50 50q105 107 265 107z" />
    <glyph glyph-name="uni042E" unicode="&#x42e;" horiz-adv-x="1133" 
d="M704 710q158 0 260.5 -101.5t102.5 -258.5t-102.5 -258.5t-260.5 -101.5q-150 0 -251 92.5t-111 238.5h-167v-321h-77v700h77v-314h168q12 143 112 233.5t249 90.5zM704 57q123 0 203 82.5t80 210.5t-80 211t-203 83q-124 0 -204 -83t-80 -211t80 -210.5t204 -82.5z" />
    <glyph glyph-name="uni042F" unicode="&#x42f;" horiz-adv-x="704" 
d="M606 700v-700h-77v255h-157l-230 -255h-98l231 258q-109 13 -167.5 69t-58.5 150q0 107 74.5 165t211.5 58h271zM338 324h191v307h-192q-211 0 -211 -155q0 -152 212 -152z" />
    <glyph glyph-name="uni0430" unicode="&#x430;" horiz-adv-x="580" 
d="M275 550q114 0 172.5 -55.5t58.5 -158.5v-336h-75v102q-26 -45 -80.5 -78.5t-127.5 -33.5q-86 0 -136.5 46t-50.5 120q0 78 53 125t159 47q80 0 183 -11v18q0 72 -41.5 109.5t-121.5 37.5q-94 0 -166 -60l-38 55q87 73 211 73zM246 59q78 0 131.5 55t53.5 123v16
q-76 12 -166 12q-157 0 -157 -105q0 -49 36 -75t102 -26z" />
    <glyph glyph-name="uni0431" unicode="&#x431;" horiz-adv-x="651" 
d="M340 -10q-139 0 -213 91t-74 258q0 332 296 370q123 15 156 26v-62q-19 -6 -40 -9.5t-57.5 -7.5t-55.5 -7q-230 -33 -219 -303q19 61 79 106t144 45q107 0 175 -74.5t68 -181.5q0 -116 -71.5 -183.5t-187.5 -67.5zM341 53q82 0 132.5 50t50.5 137q0 80 -53.5 135
t-135.5 55q-73 0 -133.5 -51.5t-60.5 -128.5q0 -21 5.5 -45t20 -51.5t36 -49.5t57.5 -36.5t81 -14.5z" />
    <glyph glyph-name="uni0432" unicode="&#x432;" horiz-adv-x="605" 
d="M419 278q63 -10 98 -46t35 -89q0 -67 -53.5 -105t-146.5 -38h-268v541h256q86 0 135.5 -36.5t49.5 -99.5q0 -47 -28 -80t-78 -47zM332 473h-174v-167h181q53 0 82.5 22t29.5 63q0 38 -30 60t-89 22zM158 68h191q61 0 93.5 22t32.5 63q0 39 -32.5 61t-88.5 22h-196v-168z
" />
    <glyph glyph-name="uni0433" unicode="&#x433;" horiz-adv-x="483" 
d="M84 0v541h378v-60h-304v-481h-74z" />
    <glyph glyph-name="uni0434" unicode="&#x434;" horiz-adv-x="648" 
d="M521 541v-481h49v-139h-77v79h-393v-79h-77v139h29q24 0 44.5 40t23.5 113l10 328h391zM447 60v421h-245l-8 -261q-3 -106 -47 -160h300z" />
    <glyph glyph-name="uni0435" unicode="&#x435;" horiz-adv-x="618" 
d="M576 242h-447q7 -82 65.5 -132.5t146.5 -50.5q101 0 160 66l49 -44q-83 -90 -213 -90q-124 0 -204 79t-80 201t76.5 200.5t199.5 78.5q111 0 181 -73t70 -190q0 -18 -4 -45zM329 482q-82 0 -135.5 -48t-63.5 -127h377q-8 84 -55.5 129.5t-122.5 45.5z" />
    <glyph glyph-name="uni0436" unicode="&#x436;" horiz-adv-x="822" 
d="M802 0h-84l-189 236h-81v-236h-73v236h-82l-190 -236h-83l219 278l-203 263h83l171 -233h85v233h73v-233h84l170 233h84l-203 -263z" />
    <glyph glyph-name="uni0437" unicode="&#x437;" horiz-adv-x="531" 
d="M264 -10q-141 0 -231 74l25 59q89 -63 196 -63q67 0 107 27.5t40 71.5q0 42 -36.5 66t-99.5 24h-108v53h108q128 0 128 87q0 46 -38.5 72t-107.5 26q-89 0 -178 -56l-25 54q92 65 211 65q97 0 156 -40.5t59 -114.5q0 -89 -88 -120q96 -34 96 -124q0 -73 -61.5 -117
t-152.5 -44z" />
    <glyph glyph-name="uni0438" unicode="&#x438;" horiz-adv-x="651" 
d="M567 541v-541h-75v423l-358 -423h-60v541h75v-421l356 421h62z" />
    <glyph glyph-name="uni0439" unicode="&#x439;" horiz-adv-x="651" 
d="M339 590q-60 0 -95 35.5t-35 94.5h57q0 -84 73 -84q72 0 72 84h57q0 -59 -35 -94.5t-94 -35.5zM149 120l356 421h62v-541h-75v423l-358 -423h-60v541h75v-421z" />
    <glyph glyph-name="uni043A" unicode="&#x43a;" horiz-adv-x="582" 
d="M552 0h-83l-192 236h-119v-236h-74v541h74v-238h120l175 238h84l-206 -267z" />
    <glyph glyph-name="uni043B" unicode="&#x43b;" horiz-adv-x="598" 
d="M514 541v-541h-75v481h-258l-6 -276q-2 -118 -38.5 -161.5t-115.5 -43.5v56q41 1 59.5 36t19.5 119l8 330h406z" />
    <glyph glyph-name="uni043C" unicode="&#x43c;" horiz-adv-x="759" 
d="M674 541l1 -541h-75v416l-210 -303h-21l-210 303v-416h-75v541h73l222 -323l222 323h73z" />
    <glyph glyph-name="uni043D" unicode="&#x43d;" horiz-adv-x="653" 
d="M494 309v232h75v-541h-75v242h-336v-242h-74v541h74v-232h336z" />
    <glyph glyph-name="uni043E" unicode="&#x43e;" 
d="M337 -10q-124 0 -204 79.5t-80 201.5t80 200.5t204 78.5t204.5 -78.5t80.5 -199.5q0 -122 -80.5 -202t-204.5 -80zM338 59q91 0 150 59.5t59 152.5t-59 152t-151 59q-91 0 -150 -59t-59 -152t59 -152.5t151 -59.5z" />
    <glyph glyph-name="uni043F" unicode="&#x43f;" horiz-adv-x="653" 
d="M569 541v-541h-75v481h-336v-481h-74v541h485z" />
    <glyph glyph-name="uni0440" unicode="&#x440;" horiz-adv-x="693" 
d="M377 550q112 0 187.5 -79.5t75.5 -201.5q0 -123 -75 -201t-188 -78q-70 0 -127.5 29t-91.5 83v-273h-74v712h74v-102q34 53 92 82t127 29zM366 60q87 0 143.5 58.5t56.5 150.5q0 93 -56.5 152.5t-143.5 59.5q-91 0 -149.5 -58.5t-58.5 -152.5t58.5 -152t149.5 -58z" />
    <glyph glyph-name="uni0441" unicode="&#x441;" horiz-adv-x="577" 
d="M337 -10q-122 0 -203 79t-81 201t81 201t203 79q125 0 207 -86l-54 -46q-61 64 -154 64q-90 0 -149 -58t-59 -153q0 -96 59 -154t151 -58q91 0 153 65l53 -45q-81 -89 -207 -89z" />
    <glyph glyph-name="uni0442" unicode="&#x442;" horiz-adv-x="541" 
d="M39 541h463v-69h-194v-472h-75v472h-194v69z" />
    <glyph glyph-name="uni0443" unicode="&#x443;" horiz-adv-x="592" 
d="M299 86l194 455h82l-236 -541l-22 -51q-30 -69 -71.5 -99.5t-106.5 -30.5q-60 0 -106 29l24 55q38 -20 79 -20q39 0 63 19.5t45 64.5l15 34l-236 540h82z" />
    <glyph glyph-name="uni0444" unicode="&#x444;" horiz-adv-x="778" 
d="M725 271q0 -117 -84 -193t-215 -78v-170h-75v170q-132 2 -215 77.5t-83 192.5t83 192.5t215 78.5v159h75v-159q132 -3 215.5 -78.5t83.5 -191.5zM128 271q0 -93 61.5 -151t161.5 -60v421q-100 -2 -161.5 -60t-61.5 -150zM426 481v-421q100 2 161.5 59.5t61.5 150.5
t-61 151t-162 60z" />
    <glyph glyph-name="uni0445" unicode="&#x445;" horiz-adv-x="590" 
d="M340 277l221 -277h-87l-180 224l-180 -224h-85l221 276l-212 265h89l168 -214l168 214h87z" />
    <glyph glyph-name="uni0446" unicode="&#x446;" horiz-adv-x="632" 
d="M544 541v-481h61v-139h-70v79h-451v541h74v-481h311v481h75z" />
    <glyph glyph-name="uni0447" unicode="&#x447;" horiz-adv-x="641" 
d="M482 274v267h75v-541h-75v213q-107 -52 -199 -52q-97 0 -153 62t-56 171v147h75v-134q0 -83 43.5 -132t119.5 -49q88 0 170 48z" />
    <glyph glyph-name="uni0448" unicode="&#x448;" horiz-adv-x="824" 
d="M665 60v481h75v-541h-656v541h74v-481h217v481h74v-481h216z" />
    <glyph glyph-name="uni0449" unicode="&#x449;" horiz-adv-x="813" 
d="M725 541v-481h61v-139h-70v79h-632v541h74v-481h209v481h75v-481h208v481h75z" />
    <glyph glyph-name="uni044A" unicode="&#x44a;" horiz-adv-x="651" 
d="M221 368h140q111 0 174 -49t63 -136q0 -85 -63 -134t-173 -49h-215v483h-108v58h182v-173zM221 61h140q76 0 119 32t43 90q0 59 -43 91.5t-120 32.5h-139v-246z" />
    <glyph glyph-name="uni044B" unicode="&#x44b;" horiz-adv-x="830" 
d="M158 368h140q111 0 174.5 -49t63.5 -136q0 -85 -63 -134t-173 -49h-216v541h74v-173zM672 0v541h74v-541h-74zM158 61h140q76 0 119 32t43 90q0 59 -43 91.5t-120 32.5h-139v-246z" />
    <glyph glyph-name="uni044C" unicode="&#x44c;" horiz-adv-x="588" 
d="M158 368h140q111 0 174.5 -49t63.5 -136q0 -85 -63 -134t-173 -49h-216v541h74v-173zM158 61h140q76 0 119 32t43 90q0 59 -43 91.5t-120 32.5h-139v-246z" />
    <glyph glyph-name="uni044D" unicode="&#x44d;" horiz-adv-x="577" 
d="M240 550q122 0 203 -79t81 -201t-81 -201t-203 -79q-126 0 -207 89l53 45q62 -65 153 -65q83 0 140.5 48t67.5 130h-249v60h250q-9 85 -66 135t-141 50q-93 0 -154 -64l-54 46q82 86 207 86z" />
    <glyph glyph-name="uni044E" unicode="&#x44e;" horiz-adv-x="927" 
d="M589 550q124 0 205 -78.5t81 -199.5q0 -122 -81 -202t-205 -80q-115 0 -193 69t-89 179h-149v-238h-74v541h74v-234h149q12 108 90 175.5t192 67.5zM590 59q91 0 150 59.5t59 152.5t-59 152t-151 59q-91 0 -150 -59t-59 -152t59.5 -152.5t150.5 -59.5z" />
    <glyph glyph-name="uni044F" unicode="&#x44f;" horiz-adv-x="591" 
d="M273 541h234v-541h-74v192h-134l-181 -192h-88l184 197q-77 12 -121 57t-44 114q0 80 61 126.5t163 46.5zM273 261h160v211h-161q-67 0 -107.5 -27t-40.5 -80q0 -54 41 -79t108 -25z" />
    <glyph glyph-name="uni0450" unicode="&#x450;" horiz-adv-x="618" 
d="M246 737l96 -137l-52 -7l-116 127zM576 242h-447q7 -82 65.5 -132.5t146.5 -50.5q101 0 160 66l49 -44q-83 -90 -213 -90q-124 0 -204 79t-80 201t76.5 200.5t199.5 78.5q111 0 181 -73t70 -190q0 -18 -4 -45zM329 482q-82 0 -135.5 -48t-63.5 -127h377
q-8 84 -55.5 129.5t-122.5 45.5z" />
    <glyph glyph-name="uni0451" unicode="&#x451;" horiz-adv-x="618" 
d="M208 727h57v-110h-57v110zM366 727h56v-110h-56v110zM576 242h-447q7 -82 65.5 -132.5t146.5 -50.5q101 0 160 66l49 -44q-83 -90 -213 -90q-124 0 -204 79t-80 201t76.5 200.5t199.5 78.5q111 0 181 -73t70 -190q0 -18 -4 -45zM329 482q-82 0 -135.5 -48t-63.5 -127h377
q-8 84 -55.5 129.5t-122.5 45.5z" />
    <glyph glyph-name="uni0452" unicode="&#x452;" horiz-adv-x="722" 
d="M431 521q97 0 152.5 -62t55.5 -171v-329q0 -67 -40.5 -101t-107.5 -34q-44 0 -86 22l19 46q26 -16 56 -16q37 0 61 22.5t24 66.5v310q0 84 -44 133t-119 49q-89 0 -171 -50v-407h-75v612h-74v44h74v82h75v-82h120v-44h-120v-143q107 52 200 52z" />
    <glyph glyph-name="uni0453" unicode="&#x453;" horiz-adv-x="483" 
d="M415 720l-116 -127l-52 7l96 137zM84 0v541h378v-60h-304v-481h-74z" />
    <glyph glyph-name="uni0454" unicode="&#x454;" horiz-adv-x="577" 
d="M338 59q91 0 153 65l53 -45q-81 -89 -207 -89q-122 0 -203 79t-81 201t81 201t203 79q125 0 207 -86l-54 -46q-61 64 -154 64q-84 0 -141 -50t-66 -135h250v-60h-249q10 -82 67.5 -130t140.5 -48z" />
    <glyph glyph-name="uni0455" unicode="&#x455;" horiz-adv-x="526" 
d="M263 -9q-62 0 -122.5 20t-103.5 51l32 62q91 -64 198 -64q67 0 104.5 22.5t37.5 65.5q0 38 -33.5 58t-119.5 36q-113 21 -157 56.5t-44 98.5q0 71 53 111.5t147 40.5q55 0 114 -15.5t95 -41.5l-31 -63q-74 51 -183 51q-56 0 -87.5 -20t-31.5 -57q0 -34 31 -54t115 -36
q116 -24 161.5 -61.5t45.5 -101.5q0 -75 -59.5 -117t-161.5 -42z" />
    <glyph glyph-name="uni0456" unicode="&#x456;" horiz-adv-x="242" 
d="M161 617h-79v110h79v-110zM158 0h-74v541h74v-541z" />
    <glyph glyph-name="uni0457" unicode="&#x457;" horiz-adv-x="242" 
d="M70 617h-57v110h57v-110zM227 617h-56v110h56v-110zM158 0h-74v541h74v-541z" />
    <glyph glyph-name="uni0458" unicode="&#x458;" horiz-adv-x="255" 
d="M173 617h-79v110h79v-110zM-66 -153l22 61q23 -14 54 -14q39 0 62.5 22t23.5 63v562h75v-568q0 -71 -42.5 -109t-110.5 -38q-42 0 -84 21z" />
    <glyph glyph-name="uni0459" unicode="&#x459;" horiz-adv-x="901" 
d="M505 368h107q111 0 174 -49t63 -136q0 -86 -61.5 -134.5t-171.5 -48.5h-184v481h-251l-6 -276q-2 -118 -38.5 -161.5t-115.5 -43.5v56q41 1 59.5 36t19.5 119l8 330h397v-173zM505 58h109q76 0 119 32.5t43 92.5t-43 93.5t-120 33.5h-108v-252z" />
    <glyph glyph-name="uni045A" unicode="&#x45a;" horiz-adv-x="963" 
d="M569 346h104q109 0 173 -47.5t64 -125.5q0 -81 -61.5 -127t-171.5 -46h-183v254h-336v-254h-74v541h74v-225h336v225h75v-195zM569 56h106q76 0 119.5 31t43.5 84t-43.5 84.5t-120.5 31.5h-105v-231z" />
    <glyph glyph-name="uni045B" unicode="&#x45b;" horiz-adv-x="671" 
d="M388 521q98 0 153.5 -62t55.5 -171v-288h-75v275q0 84 -44 133t-119 49q-97 0 -170 -50v-407h-75v612h-75v44h75v82h75v-82h119v-44h-119v-143q101 52 199 52z" />
    <glyph glyph-name="uni045C" unicode="&#x45c;" horiz-adv-x="599" 
d="M366 737l71 -17l-116 -127l-52 7zM552 0h-83l-192 236h-119v-236h-74v541h74v-238h120l175 238h84l-206 -267z" />
    <glyph glyph-name="uni045D" unicode="&#x45d;" horiz-adv-x="651" 
d="M364 600l-52 -7l-116 127l72 17zM567 541v-541h-75v423l-358 -423h-60v541h75v-421l356 421h62z" />
    <glyph glyph-name="uni045E" unicode="&#x45e;" horiz-adv-x="592" 
d="M321 590q-60 0 -95 35.5t-35 94.5h57q0 -84 73 -84q72 0 72 84h57q0 -59 -35 -94.5t-94 -35.5zM299 86l194 455h82l-236 -541l-22 -51q-30 -69 -71.5 -99.5t-106.5 -30.5q-60 0 -106 29l24 55q38 -20 79 -20q39 0 63 19.5t45 64.5l15 34l-236 540h82z" />
    <glyph glyph-name="uni045F" unicode="&#x45f;" horiz-adv-x="653" 
d="M494 60v481h75v-541h-213v-120h-75v120h-197v541h74v-481h336z" />
    <glyph glyph-name="uni0474" unicode="&#x474;" horiz-adv-x="743" 
d="M411 0h-76l-313 700h82l268 -607h2l171 412q83 210 193 210v-78q-33 -1 -63 -41t-64 -120z" />
    <glyph glyph-name="uni0474" unicode="&#x475;" horiz-adv-x="743" 
d="M411 0h-76l-313 700h82l268 -607h2l171 412q83 210 193 210v-78q-33 -1 -63 -41t-64 -120z" />
    <glyph glyph-name="uni0490" unicode="&#x490;" horiz-adv-x="610" 
d="M576 830v-130h10v-69h-411v-631h-77v700h400v130h78z" />
    <glyph glyph-name="uni0491" unicode="&#x491;" horiz-adv-x="483" 
d="M389 541v106h73v-166h-304v-481h-74v541h305z" />
    <glyph glyph-name="uni04D9" unicode="&#x4d9;" horiz-adv-x="618" 
d="M281 550q124 0 204 -79t80 -201t-76.5 -200.5t-199.5 -78.5q-111 0 -181 73t-70 190q0 18 4 45h447q-7 82 -65.5 132.5t-146.5 50.5q-101 0 -160 -66l-49 44q83 90 213 90zM289 59q82 0 135.5 48t63.5 127h-377q8 -84 55.5 -129.5t122.5 -45.5z" />
    <glyph glyph-name="uni1E0C" unicode="&#x1e0c;" horiz-adv-x="818" 
d="M375 0h-277v700h277q172 0 274.5 -95t102.5 -254q0 -161 -102.5 -256t-274.5 -95zM175 631v-562h196q138 0 219 75.5t81 205.5q0 131 -81 206t-220 75h-195zM336 -160v110h79v-110h-79z" />
    <glyph glyph-name="uni1E0D" unicode="&#x1e0d;" horiz-adv-x="700" 
d="M535 440v298h75v-738h-75v100q-35 -53 -92 -81.5t-126 -28.5q-112 0 -187.5 80t-75.5 201q0 124 75 201.5t188 77.5q69 0 126.5 -28.5t91.5 -81.5zM328 59q91 0 149 58.5t58 153.5q0 94 -58 152t-149 58q-87 0 -143.5 -59t-56.5 -151q0 -94 56 -153t144 -59zM388 -160
h-79v110h79v-110z" />
    <glyph glyph-name="uni1E0E" unicode="&#x1e0e;" horiz-adv-x="818" 
d="M375 0h-277v700h277q172 0 274.5 -95t102.5 -254q0 -161 -102.5 -256t-274.5 -95zM175 631v-562h196q138 0 219 75.5t81 205.5q0 131 -81 206t-220 75h-195zM519 -112h-282l1 49h281v-49z" />
    <glyph glyph-name="uni1E0F" unicode="&#x1e0f;" horiz-adv-x="700" 
d="M535 440v298h75v-738h-75v100q-35 -53 -92 -81.5t-126 -28.5q-112 0 -187.5 80t-75.5 201q0 124 75 201.5t188 77.5q69 0 126.5 -28.5t91.5 -81.5zM328 59q91 0 149 58.5t58 153.5q0 94 -58 152t-149 58q-87 0 -143.5 -59t-56.5 -151q0 -94 56 -153t144 -59zM492 -112
h-282l1 49h281v-49z" />
    <glyph glyph-name="uni1E20" unicode="&#x1e20;" horiz-adv-x="769" 
d="M579 784h-282l1 49h281v-49zM430 -10q-158 0 -261 101.5t-103 257.5q0 157 102.5 259t259.5 102q154 0 260 -104l-50 -49q-87 82 -208 82q-124 0 -203.5 -80.5t-79.5 -209.5q0 -128 79.5 -208t207.5 -80q115 0 195 70v223h71v-257q-109 -107 -270 -107z" />
    <glyph glyph-name="uni1E21" unicode="&#x1e21;" horiz-adv-x="615" 
d="M190 690h281v-49h-282zM219 122h155q103 0 158 -36.5t55 -98.5q0 -76 -75.5 -121.5t-211.5 -45.5q-115 0 -180 37t-65 102q0 64 83 106q-57 27 -55 85q0 62 66 90q-64 48 -64 134q0 81 60 129t163 48q62 0 103 -19l140 35l17 -62l-91 -15q56 -40 56 -116q0 -83 -60 -131
t-163 -48q-63 0 -114 19q-39 -17 -39 -46q0 -22 17 -34t45 -12zM309 485q-71 0 -110.5 -29t-39.5 -81q0 -54 39.5 -84t110.5 -30t110.5 29.5t39.5 83.5q0 53 -39.5 82t-110.5 29zM304 -112q208 0 208 95q0 70 -158 70h-155h-4q-64 -37 -64 -83q0 -82 173 -82z" />
    <glyph glyph-name="uni1E24" unicode="&#x1e24;" horiz-adv-x="782" 
d="M606 386v314h78v-700h-78v316h-430v-316h-78v700h78v-314h430zM427 -160h-79v110h79v-110z" />
    <glyph glyph-name="uni1E25" unicode="&#x1e25;" horiz-adv-x="661" 
d="M371 550q98 0 157 -62t59 -169v-319h-75v309q0 81 -41.5 126.5t-116.5 45.5q-80 0 -135 -57t-55 -144v-280h-74v738h74v-294q32 48 85.5 77t121.5 29zM369 -160h-79v110h79v-110z" />
    <glyph glyph-name="uni1E2A" unicode="&#x1e2a;" horiz-adv-x="782" 
d="M606 386v314h78v-700h-78v316h-430v-316h-78v700h78v-314h430zM393 -104q68 0 68 69l53 -1q0 -48 -33 -76.5t-88 -28.5t-88 28.5t-33 76.5l53 1q0 -69 68 -69z" />
    <glyph glyph-name="uni1E2B" unicode="&#x1e2b;" horiz-adv-x="661" 
d="M371 550q98 0 157 -62t59 -169v-319h-75v309q0 81 -41.5 126.5t-116.5 45.5q-80 0 -135 -57t-55 -144v-280h-74v738h74v-294q32 48 85.5 77t121.5 29zM336 -104q68 0 68 69l53 -1q0 -48 -33 -76.5t-88 -28.5t-88 28.5t-33 76.5l53 1q0 -69 68 -69z" />
    <glyph glyph-name="uni1E36" unicode="&#x1e36;" horiz-adv-x="610" 
d="M586 0h-488v700h77v-631h411v-69zM259 -160v110h79v-110h-79z" />
    <glyph glyph-name="uni1E37" unicode="&#x1e37;" horiz-adv-x="254" 
d="M164 0h-74v738h74v-738zM84 -160v110h79v-110h-79z" />
    <glyph glyph-name="uni1E38" unicode="&#x1e38;" horiz-adv-x="610" 
d="M440 784h-282l1 49h281v-49zM586 0h-488v700h77v-631h411v-69zM259 -160v110h79v-110h-79z" />
    <glyph glyph-name="uni1E39" unicode="&#x1e39;" horiz-adv-x="254" 
d="M266 822h-282l1 49h281v-49zM164 0h-74v738h74v-738zM84 -160v110h79v-110h-79z" />
    <glyph glyph-name="uni1E3A" unicode="&#x1e3a;" horiz-adv-x="610" 
d="M586 0h-488v700h77v-631h411v-69zM442 -112h-282l1 49h281v-49z" />
    <glyph glyph-name="uni1E3B" unicode="&#x1e3b;" horiz-adv-x="254" 
d="M164 0h-74v738h74v-738zM267 -112h-282l1 49h281v-49z" />
    <glyph glyph-name="uni1E42" unicode="&#x1e42;" horiz-adv-x="903" 
d="M452 234l282 466h71v-700h-77v558l-262 -423h-28l-263 423v-558h-77v700h71zM488 -160h-79v110h79v-110z" />
    <glyph glyph-name="uni1E43" unicode="&#x1e43;" horiz-adv-x="1023" 
d="M752 550q91 0 144.5 -60t53.5 -165v-325h-76v315q0 79 -36.5 122.5t-105.5 43.5q-73 0 -125.5 -57.5t-52.5 -141.5v-282h-75v315q0 79 -36.5 122.5t-105.5 43.5q-74 0 -126.5 -57.5t-52.5 -141.5v-282h-74v541h74v-96q32 47 83.5 76t114.5 29q68 0 115.5 -33.5
t68.5 -94.5q28 55 84.5 91.5t127.5 36.5zM549 -160h-79v110h79v-110z" />
    <glyph glyph-name="uni1E44" unicode="&#x1e44;" horiz-adv-x="793" 
d="M437 766h-79v106h79v-106zM175 0h-77v700h67l453 -565v565h78v-700h-65l-456 568v-568z" />
    <glyph glyph-name="uni1E45" unicode="&#x1e45;" horiz-adv-x="655" 
d="M289 727h79v-110h-79v110zM365 550q98 0 157 -62t59 -169v-319h-75v309q0 81 -41.5 126.5t-116.5 45.5q-80 0 -135 -57t-55 -144v-280h-74v541h74v-97q32 48 85.5 77t121.5 29z" />
    <glyph glyph-name="uni1E46" unicode="&#x1e46;" horiz-adv-x="793" 
d="M175 0h-77v700h67l453 -565v565h78v-700h-65l-456 568v-568zM354 -160v110h79v-110h-79z" />
    <glyph glyph-name="uni1E47" unicode="&#x1e47;" horiz-adv-x="655" 
d="M365 550q98 0 157 -62t59 -169v-319h-75v309q0 81 -41.5 126.5t-116.5 45.5q-80 0 -135 -57t-55 -144v-280h-74v541h74v-97q32 48 85.5 77t121.5 29zM364 -160h-79v110h79v-110z" />
    <glyph glyph-name="uni1E48" unicode="&#x1e48;" horiz-adv-x="793" 
d="M175 0h-77v700h67l453 -565v565h78v-700h-65l-456 568v-568zM537 -112h-282l1 49h281v-49z" />
    <glyph glyph-name="uni1E49" unicode="&#x1e49;" horiz-adv-x="655" 
d="M365 550q98 0 157 -62t59 -169v-319h-75v309q0 81 -41.5 126.5t-116.5 45.5q-80 0 -135 -57t-55 -144v-280h-74v541h74v-97q32 48 85.5 77t121.5 29zM468 -112h-282l1 49h281v-49z" />
    <glyph glyph-name="uni1E5A" unicode="&#x1e5a;" horiz-adv-x="704" 
d="M429 258l231 -258h-98l-229 255h-158v-255h-77v700h271q137 0 211.5 -58t74.5 -165q0 -94 -58.5 -150t-167.5 -69zM367 631h-192v-307h191q212 0 212 152q0 155 -211 155zM396 -160h-79v110h79v-110z" />
    <glyph glyph-name="uni1E5B" unicode="&#x1e5b;" horiz-adv-x="400" 
d="M329 547q24 0 51 -5l-3 -77q-24 7 -50 7q-78 0 -123.5 -64.5t-45.5 -160.5v-247h-74v541h74v-102q27 52 72 80t99 28zM226 -160h-79v110h79v-110z" />
    <glyph glyph-name="uni1E5C" unicode="&#x1e5c;" horiz-adv-x="704" 
d="M217 833h281v-49h-282zM429 258l231 -258h-98l-229 255h-158v-255h-77v700h271q137 0 211.5 -58t74.5 -165q0 -94 -58.5 -150t-167.5 -69zM367 631h-192v-307h191q212 0 212 152q0 155 -211 155zM396 -160h-79v110h79v-110z" />
    <glyph glyph-name="uni1E5D" unicode="&#x1e5d;" horiz-adv-x="400" 
d="M62 690h281v-49h-282zM329 547q24 0 51 -5l-3 -77q-24 7 -50 7q-78 0 -123.5 -64.5t-45.5 -160.5v-247h-74v541h74v-102q27 52 72 80t99 28zM226 -160h-79v110h79v-110z" />
    <glyph glyph-name="uni1E5E" unicode="&#x1e5e;" horiz-adv-x="704" 
d="M429 258l231 -258h-98l-229 255h-158v-255h-77v700h271q137 0 211.5 -58t74.5 -165q0 -94 -58.5 -150t-167.5 -69zM367 631h-192v-307h191q212 0 212 152q0 155 -211 155zM500 -112h-282l1 49h281v-49z" />
    <glyph glyph-name="uni1E5F" unicode="&#x1e5f;" horiz-adv-x="400" 
d="M329 547q24 0 51 -5l-3 -77q-24 7 -50 7q-78 0 -123.5 -64.5t-45.5 -160.5v-247h-74v541h74v-102q27 52 72 80t99 28zM330 -112h-282l1 49h281v-49z" />
    <glyph glyph-name="uni1E60" unicode="&#x1e60;" horiz-adv-x="635" 
d="M358 766h-79v106h79v-106zM325 -10q-80 0 -152 28t-125 76l37 59q109 -91 245 -91q82 0 127.5 33.5t45.5 86.5q0 56 -42.5 83t-145.5 49q-126 28 -186 74t-60 130q0 89 71 140.5t181 51.5q131 0 238 -79l-42 -57q-92 65 -201 65q-77 0 -121.5 -33t-44.5 -89
q0 -53 42.5 -82t144.5 -52q132 -29 189.5 -71t57.5 -126q0 -89 -72 -142.5t-187 -53.5z" />
    <glyph glyph-name="uni1E61" unicode="&#x1e61;" horiz-adv-x="526" 
d="M305 617h-79v110h79v-110zM263 -9q-62 0 -122.5 20t-103.5 51l32 62q91 -64 198 -64q67 0 104.5 22.5t37.5 65.5q0 38 -33.5 58t-119.5 36q-113 21 -157 56.5t-44 98.5q0 71 53 111.5t147 40.5q55 0 114 -15.5t95 -41.5l-31 -63q-74 51 -183 51q-56 0 -87.5 -20
t-31.5 -57q0 -34 31 -54t115 -36q116 -24 161.5 -61.5t45.5 -101.5q0 -75 -59.5 -117t-161.5 -42z" />
    <glyph glyph-name="uni1E62" unicode="&#x1e62;" horiz-adv-x="635" 
d="M325 -10q-80 0 -152 28t-125 76l37 59q109 -91 245 -91q82 0 127.5 33.5t45.5 86.5q0 56 -42.5 83t-145.5 49q-126 28 -186 74t-60 130q0 89 71 140.5t181 51.5q131 0 238 -79l-42 -57q-92 65 -201 65q-77 0 -121.5 -33t-44.5 -89q0 -53 42.5 -82t144.5 -52
q132 -29 189.5 -71t57.5 -126q0 -89 -72 -142.5t-187 -53.5zM275 -160v110h79v-110h-79z" />
    <glyph glyph-name="uni1E63" unicode="&#x1e63;" horiz-adv-x="526" 
d="M263 -9q-62 0 -122.5 20t-103.5 51l32 62q91 -64 198 -64q67 0 104.5 22.5t37.5 65.5q0 38 -33.5 58t-119.5 36q-113 21 -157 56.5t-44 98.5q0 71 53 111.5t147 40.5q55 0 114 -15.5t95 -41.5l-31 -63q-74 51 -183 51q-56 0 -87.5 -20t-31.5 -57q0 -34 31 -54t115 -36
q116 -24 161.5 -61.5t45.5 -101.5q0 -75 -59.5 -117t-161.5 -42zM223 -160v110h79v-110h-79z" />
    <glyph glyph-name="uni1E6C" unicode="&#x1e6c;" horiz-adv-x="622" 
d="M29 700h563v-69h-243v-631h-78v631h-242v69zM347 -160h-79v110h79v-110z" />
    <glyph glyph-name="uni1E6D" unicode="&#x1e6d;" horiz-adv-x="480" 
d="M424 82l15 -59q-53 -33 -132 -33q-73 0 -116.5 42.5t-43.5 117.5v322h-108v69h109l6 146h68v-146h195v-69h-195v-309q0 -48 27 -76.5t71 -28.5q59 0 104 24zM339 -162h-79v110h79v-110z" />
    <glyph glyph-name="uni1E6E" unicode="&#x1e6e;" horiz-adv-x="622" 
d="M29 631v69h563v-69h-243v-631h-78v631h-242zM451 -112h-282l1 49h281v-49z" />
    <glyph glyph-name="uni1E6F" unicode="&#x1e6f;" horiz-adv-x="480" 
d="M307 -10q-73 0 -116.5 42.5t-43.5 117.5v322h-108v69h109l6 146h68v-146h195v-69h-195v-309q0 -48 27 -76.5t71 -28.5q59 0 104 24l15 -59q-53 -33 -132 -33zM161 -114l1 49h281v-49h-282z" />
    <glyph glyph-name="Wgrave" unicode="&#x1e80;" horiz-adv-x="1055" 
d="M472 865l80 -113l-52 -5l-94 101zM762 96l189 604h82l-225 -700h-85l-195 570l-194 -570h-86l-226 700h82l191 -604l198 604h69z" />
    <glyph glyph-name="wgrave" unicode="&#x1e81;" horiz-adv-x="882" 
d="M371 737l96 -137l-52 -7l-116 127zM628 87l152 454h79l-188 -541h-85l-145 440l-145 -440h-84l-190 541h79l153 -454l148 454h77z" />
    <glyph glyph-name="Wacute" unicode="&#x1e82;" horiz-adv-x="1055" 
d="M585 865l66 -17l-94 -101l-52 5zM762 96l189 604h82l-225 -700h-85l-195 570l-194 -570h-86l-226 700h82l191 -604l198 604h69z" />
    <glyph glyph-name="wacute" unicode="&#x1e83;" horiz-adv-x="882" 
d="M511 737l71 -17l-115 -127l-53 7zM628 87l152 454h79l-188 -541h-85l-145 440l-145 -440h-84l-190 541h79l153 -454l148 454h77z" />
    <glyph glyph-name="Wdieresis" unicode="&#x1e84;" horiz-adv-x="1055" 
d="M424 870h70v-105h-70v105zM575 870h71v-105h-71v105zM762 96l189 604h82l-225 -700h-85l-195 570l-194 -570h-86l-226 700h82l191 -604l198 604h69z" />
    <glyph glyph-name="wdieresis" unicode="&#x1e85;" horiz-adv-x="882" 
d="M333 727h57v-110h-57v110zM491 727h56v-110h-56v110zM628 87l152 454h79l-188 -541h-85l-145 440l-145 -440h-84l-190 541h79l153 -454l148 454h77z" />
    <glyph glyph-name="uni1E8E" unicode="&#x1e8e;" horiz-adv-x="678" 
d="M300 872h79v-106h-79v106zM576 700h85l-283 -439v-261h-78v264l-283 436h86l237 -371z" />
    <glyph glyph-name="uni1E8F" unicode="&#x1e8f;" horiz-adv-x="592" 
d="M281 727h79v-110h-79v110zM299 86l194 455h82l-236 -541l-22 -51q-30 -69 -71.5 -99.5t-106.5 -30.5q-60 0 -106 29l24 55q38 -20 79 -20q39 0 63 19.5t45 64.5l15 34l-236 540h82z" />
    <glyph glyph-name="uni1E92" unicode="&#x1e92;" horiz-adv-x="695" 
d="M635 0h-577v49l464 582h-453v69h562v-49l-464 -582h468v-69zM302 -160v110h79v-110h-79z" />
    <glyph glyph-name="uni1E93" unicode="&#x1e93;" horiz-adv-x="532" 
d="M495 0h-458v46l348 426h-340v69h446v-46l-351 -427h355v-68zM220 -160v110h79v-110h-79z" />
    <glyph glyph-name="uni1E97" unicode="&#x1e97;" horiz-adv-x="480" 
d="M81 873h57v-110h-57v110zM239 873h56v-110h-56v110zM424 82l15 -59q-53 -33 -132 -33q-73 0 -116.5 42.5t-43.5 117.5v322h-108v69h109l6 146h68v-146h195v-69h-195v-309q0 -48 27 -76.5t71 -28.5q59 0 104 24z" />
    <glyph glyph-name="uni1E9E" unicode="&#x1e9e;" horiz-adv-x="775" 
d="M635 640l-99 -249q188 -56 188 -204q0 -91 -65.5 -144t-175.5 -53q-73 0 -139 24t-108 65l23 59q42 -36 99.5 -57t117.5 -21q81 0 126 36t45 94q0 53 -42 91t-122 56q-1 0 -15.5 3t-22.5 4l95 254q-112 41 -198 41t-137 -45.5t-51 -113.5v-480h-78v489q0 94 72.5 157
t190.5 63q138 0 296 -69z" />
    <glyph glyph-name="uni1EA0" unicode="&#x1ea0;" horiz-adv-x="765" 
d="M421 700l322 -700h-83l-73 161h-411l-73 -161h-81l321 700h78zM382 612l-174 -381h347zM419 -160h-79v110h79v-110z" />
    <glyph glyph-name="uni1EA1" unicode="&#x1ea1;" horiz-adv-x="580" 
d="M275 550q114 0 172.5 -55.5t58.5 -158.5v-336h-75v102q-26 -45 -80.5 -78.5t-127.5 -33.5q-86 0 -136.5 46t-50.5 120q0 78 53 125t159 47q80 0 183 -11v18q0 72 -41.5 109.5t-121.5 37.5q-94 0 -166 -60l-38 55q87 73 211 73zM246 59q78 0 131.5 55t53.5 123v16
q-76 12 -166 12q-157 0 -157 -105q0 -49 36 -75t102 -26zM319 -160h-79v110h79v-110z" />
    <glyph glyph-name="uni1EA2" unicode="&#x1ea2;" horiz-adv-x="765" 
d="M396 839q0 25 -22.5 35.5t-53.5 -6.5l-4 34q58 24 95 8.5t37 -53.5q0 -59 -63 -115l-37 12q48 48 48 85zM743 0h-83l-73 161h-411l-73 -161h-81l321 700h78zM382 612l-174 -381h347z" />
    <glyph glyph-name="uni1EA3" unicode="&#x1ea3;" horiz-adv-x="580" 
d="M294 682q0 25 -22.5 35.5t-53.5 -6.5l-4 34q58 24 95 8.5t37 -53.5q0 -59 -63 -115l-37 12q48 48 48 85zM275 550q114 0 172.5 -55.5t58.5 -158.5v-336h-75v102q-26 -45 -80.5 -78.5t-127.5 -33.5q-86 0 -136.5 46t-50.5 120q0 78 53 125t159 47q80 0 183 -11v18
q0 72 -41.5 109.5t-121.5 37.5q-94 0 -166 -60l-38 55q87 73 211 73zM246 59q78 0 131.5 55t53.5 123v16q-76 12 -166 12q-157 0 -157 -105q0 -49 36 -75t102 -26z" />
    <glyph glyph-name="uni1EA4" unicode="&#x1ea4;" horiz-adv-x="765" 
d="M568 919l63 -16l-90 -96l-49 5zM462 754l-78 96l-78 -96l-64 6l105 121h74l105 -121zM743 0h-83l-73 161h-411l-73 -161h-81l321 700h78zM382 612l-174 -381h347z" />
    <glyph glyph-name="uni1EA5" unicode="&#x1ea5;" horiz-adv-x="580" 
d="M350 928l71 -17l-115 -127l-53 7zM352 593l-72 104l-73 -104l-59 6l97 132h69l97 -132zM275 550q114 0 172.5 -55.5t58.5 -158.5v-336h-75v102q-26 -45 -80.5 -78.5t-127.5 -33.5q-86 0 -136.5 46t-50.5 120q0 78 53 125t159 47q80 0 183 -11v18q0 72 -41.5 109.5
t-121.5 37.5q-94 0 -166 -60l-38 55q87 73 211 73zM246 59q78 0 131.5 55t53.5 123v16q-76 12 -166 12q-157 0 -157 -105q0 -49 36 -75t102 -26z" />
    <glyph glyph-name="uni1EA6" unicode="&#x1ea6;" horiz-adv-x="765" 
d="M202 917l75 -107l-49 -5l-89 96zM384 850l-78 -96l-64 6l105 121h74l105 -121l-64 -6zM743 0h-83l-73 161h-411l-73 -161h-81l321 700h78zM382 612l-174 -381h347z" />
    <glyph glyph-name="uni1EA7" unicode="&#x1ea7;" horiz-adv-x="580" 
d="M210 928l96 -137l-52 -7l-116 127zM245 731h69l97 -132l-59 -6l-72 104l-73 -104l-59 6zM275 550q114 0 172.5 -55.5t58.5 -158.5v-336h-75v102q-26 -45 -80.5 -78.5t-127.5 -33.5q-86 0 -136.5 46t-50.5 120q0 78 53 125t159 47q80 0 183 -11v18q0 72 -41.5 109.5
t-121.5 37.5q-94 0 -166 -60l-38 55q87 73 211 73zM246 59q78 0 131.5 55t53.5 123v16q-76 12 -166 12q-157 0 -157 -105q0 -49 36 -75t102 -26z" />
    <glyph glyph-name="uni1EA8" unicode="&#x1ea8;" horiz-adv-x="765" 
d="M559 873q0 24 -21.5 33.5t-50.5 -6.5l-4 33q55 23 90 8t35 -51q0 -55 -59 -109l-35 12q45 45 45 80zM462 754l-78 96l-78 -96l-64 6l105 121h74l105 -121zM743 0h-83l-73 161h-411l-73 -161h-81l321 700h78zM382 612l-174 -381h347z" />
    <glyph glyph-name="uni1EA9" unicode="&#x1ea9;" horiz-adv-x="580" 
d="M294 871q0 25 -22.5 35.5t-53.5 -6.5l-4 34q58 24 95 8.5t37 -53.5q0 -59 -63 -115l-37 12q48 48 48 85zM352 593l-72 104l-73 -104l-59 6l97 132h69l97 -132zM275 550q114 0 172.5 -55.5t58.5 -158.5v-336h-75v102q-26 -45 -80.5 -78.5t-127.5 -33.5q-86 0 -136.5 46
t-50.5 120q0 78 53 125t159 47q80 0 183 -11v18q0 72 -41.5 109.5t-121.5 37.5q-94 0 -166 -60l-38 55q87 73 211 73zM246 59q78 0 131.5 55t53.5 123v16q-76 12 -166 12q-157 0 -157 -105q0 -49 36 -75t102 -26z" />
    <glyph glyph-name="uni1EAA" unicode="&#x1eaa;" horiz-adv-x="765" 
d="M307 978q-22 0 -36 -15t-14 -39l-40 10q0 41 23.5 66.5t59.5 25.5q29 0 71.5 -24.5t61.5 -24.5q22 0 36 15t14 39l39 -10q0 -41 -23 -66.5t-59 -25.5q-29 0 -71.5 24.5t-61.5 24.5zM421 881l105 -121l-64 -6l-78 96l-78 -96l-64 6l105 121h74zM743 0h-83l-73 161h-411
l-73 -161h-81l321 700h78zM382 612l-174 -381h347z" />
    <glyph glyph-name="uni1EAB" unicode="&#x1eab;" horiz-adv-x="580" 
d="M217 852q-22 0 -36 -15t-14 -39l-40 10q0 41 23.5 66.5t59.5 25.5q29 0 71.5 -24.5t61.5 -24.5q22 0 36 15t14 39l39 -10q0 -41 -23 -66.5t-59 -25.5q-29 0 -71.5 24.5t-61.5 24.5zM314 731l97 -132l-59 -6l-72 104l-73 -104l-59 6l97 132h69zM275 550q114 0 172.5 -55.5
t58.5 -158.5v-336h-75v102q-26 -45 -80.5 -78.5t-127.5 -33.5q-86 0 -136.5 46t-50.5 120q0 78 53 125t159 47q80 0 183 -11v18q0 72 -41.5 109.5t-121.5 37.5q-94 0 -166 -60l-38 55q87 73 211 73zM246 59q78 0 131.5 55t53.5 123v16q-76 12 -166 12q-157 0 -157 -105
q0 -49 36 -75t102 -26z" />
    <glyph glyph-name="uni1EAC" unicode="&#x1eac;" horiz-adv-x="765" 
d="M462 754l-78 96l-78 -96l-64 6l105 121h74l105 -121zM421 700l322 -700h-83l-73 161h-411l-73 -161h-81l321 700h78zM382 612l-174 -381h347zM419 -160h-79v110h79v-110z" />
    <glyph glyph-name="uni1EAD" unicode="&#x1ead;" horiz-adv-x="580" 
d="M352 593l-72 104l-73 -104l-59 6l97 132h69l97 -132zM275 550q114 0 172.5 -55.5t58.5 -158.5v-336h-75v102q-26 -45 -80.5 -78.5t-127.5 -33.5q-86 0 -136.5 46t-50.5 120q0 78 53 125t159 47q80 0 183 -11v18q0 72 -41.5 109.5t-121.5 37.5q-94 0 -166 -60l-38 55
q87 73 211 73zM246 59q78 0 131.5 55t53.5 123v16q-76 12 -166 12q-157 0 -157 -105q0 -49 36 -75t102 -26zM319 -160h-79v110h79v-110z" />
    <glyph glyph-name="uni1EAE" unicode="&#x1eae;" horiz-adv-x="765" 
d="M439 1007l66 -17l-94 -101l-52 5zM381 746q-60 0 -95 35t-35 94l57 1q0 -84 73 -84q72 0 72 84l57 -1q0 -59 -35 -94t-94 -35zM743 0h-83l-73 161h-411l-73 -161h-81l321 700h78zM382 612l-174 -381h347z" />
    <glyph glyph-name="uni1EAF" unicode="&#x1eaf;" horiz-adv-x="587" 
d="M356 921l71 -16l-115 -128l-53 7zM286 592q-59 0 -94.5 35.5t-35.5 94.5l57 1q0 -85 73 -85t73 85l56 -1q0 -59 -35 -94.5t-94 -35.5zM275 550q114 0 172.5 -55.5t58.5 -158.5v-336h-75v102q-26 -45 -80.5 -78.5t-127.5 -33.5q-86 0 -136.5 46t-50.5 120q0 78 53 125
t159 47q80 0 183 -11v18q0 72 -41.5 109.5t-121.5 37.5q-94 0 -166 -60l-38 55q87 73 211 73zM246 59q78 0 131.5 55t53.5 123v16q-76 12 -166 12q-157 0 -157 -105q0 -49 36 -75t102 -26z" />
    <glyph glyph-name="uni1EB0" unicode="&#x1eb0;" horiz-adv-x="765" 
d="M326 1007l80 -113l-52 -5l-94 101zM381 746q-60 0 -95 35t-35 94l57 1q0 -84 73 -84q72 0 72 84l57 -1q0 -59 -35 -94t-94 -35zM743 0h-83l-73 161h-411l-73 -161h-81l321 700h78zM382 612l-174 -381h347z" />
    <glyph glyph-name="uni1EB1" unicode="&#x1eb1;" horiz-adv-x="587" 
d="M215 921l97 -137l-52 -7l-116 128zM156 722l57 1q0 -85 73 -85t73 85l56 -1q0 -59 -35 -94.5t-94 -35.5t-94.5 35.5t-35.5 94.5zM275 550q114 0 172.5 -55.5t58.5 -158.5v-336h-75v102q-26 -45 -80.5 -78.5t-127.5 -33.5q-86 0 -136.5 46t-50.5 120q0 78 53 125t159 47
q80 0 183 -11v18q0 72 -41.5 109.5t-121.5 37.5q-94 0 -166 -60l-38 55q87 73 211 73zM246 59q78 0 131.5 55t53.5 123v16q-76 12 -166 12q-157 0 -157 -105q0 -49 36 -75t102 -26z" />
    <glyph glyph-name="uni1EB2" unicode="&#x1eb2;" horiz-adv-x="765" 
d="M394 977q0 23 -21 32.5t-50 -6.5l-4 33q54 22 89 7t35 -50q0 -53 -59 -107l-35 12q45 45 45 79zM381 746q-60 0 -95 35t-35 94l57 1q0 -84 73 -84q72 0 72 84l57 -1q0 -59 -35 -94t-94 -35zM743 0h-83l-73 161h-411l-73 -161h-81l321 700h78zM382 612l-174 -381h347z" />
    <glyph glyph-name="uni1EB3" unicode="&#x1eb3;" horiz-adv-x="587" 
d="M300 864q0 25 -23 35.5t-53 -6.5l-4 34q58 24 95 8.5t37 -53.5q0 -57 -63 -115l-37 12q48 50 48 85zM286 592q-59 0 -94.5 35.5t-35.5 94.5l57 1q0 -85 73 -85t73 85l56 -1q0 -59 -35 -94.5t-94 -35.5zM275 550q114 0 172.5 -55.5t58.5 -158.5v-336h-75v102
q-26 -45 -80.5 -78.5t-127.5 -33.5q-86 0 -136.5 46t-50.5 120q0 78 53 125t159 47q80 0 183 -11v18q0 72 -41.5 109.5t-121.5 37.5q-94 0 -166 -60l-38 55q87 73 211 73zM246 59q78 0 131.5 55t53.5 123v16q-76 12 -166 12q-157 0 -157 -105q0 -49 36 -75t102 -26z" />
    <glyph glyph-name="uni1EB4" unicode="&#x1eb4;" horiz-adv-x="765" 
d="M307 949q-22 0 -36 -15t-14 -39l-40 10q0 41 23.5 66.5t59.5 25.5q29 0 71.5 -24.5t61.5 -24.5q22 0 36 15t14 39l39 -10q0 -41 -23 -66.5t-59 -25.5q-29 0 -71.5 24.5t-61.5 24.5zM381 792q72 0 72 84l57 -1q0 -59 -35 -94t-94 -35q-60 0 -95 35t-35 94l57 1
q0 -84 73 -84zM743 0h-83l-73 161h-411l-73 -161h-81l321 700h78zM382 612l-174 -381h347z" />
    <glyph glyph-name="uni1EB5" unicode="&#x1eb5;" horiz-adv-x="587" 
d="M225 845q-22 0 -36 -15t-14 -39l-39 10q0 41 23.5 66.5t59.5 25.5q29 0 71 -24.5t61 -24.5q22 0 36 15t14 39l40 -10q0 -42 -23.5 -67t-59.5 -25q-29 0 -71.5 24.5t-61.5 24.5zM286 638q73 0 73 85l56 -1q0 -59 -35 -94.5t-94 -35.5t-94.5 35.5t-35.5 94.5l57 1
q0 -85 73 -85zM275 550q114 0 172.5 -55.5t58.5 -158.5v-336h-75v102q-26 -45 -80.5 -78.5t-127.5 -33.5q-86 0 -136.5 46t-50.5 120q0 78 53 125t159 47q80 0 183 -11v18q0 72 -41.5 109.5t-121.5 37.5q-94 0 -166 -60l-38 55q87 73 211 73zM246 59q78 0 131.5 55t53.5 123
v16q-76 12 -166 12q-157 0 -157 -105q0 -49 36 -75t102 -26z" />
    <glyph glyph-name="uni1EB6" unicode="&#x1eb6;" horiz-adv-x="765" 
d="M381 746q-60 0 -95 35t-35 94l57 1q0 -84 73 -84q72 0 72 84l57 -1q0 -59 -35 -94t-94 -35zM421 700l322 -700h-83l-73 161h-411l-73 -161h-81l321 700h78zM382 612l-174 -381h347zM419 -160h-79v110h79v-110z" />
    <glyph glyph-name="uni1EB7" unicode="&#x1eb7;" horiz-adv-x="580" 
d="M280 592q-60 0 -95 35.5t-35 94.5h57q0 -84 73 -84q72 0 72 84h57q0 -59 -35 -94.5t-94 -35.5zM275 550q114 0 172.5 -55.5t58.5 -158.5v-336h-75v102q-26 -45 -80.5 -78.5t-127.5 -33.5q-86 0 -136.5 46t-50.5 120q0 78 53 125t159 47q80 0 183 -11v18q0 72 -41.5 109.5
t-121.5 37.5q-94 0 -166 -60l-38 55q87 73 211 73zM246 59q78 0 131.5 55t53.5 123v16q-76 12 -166 12q-157 0 -157 -105q0 -49 36 -75t102 -26zM319 -160h-79v110h79v-110z" />
    <glyph glyph-name="uni1EB8" unicode="&#x1eb8;" horiz-adv-x="689" 
d="M174 324v-255h463v-69h-539v700h529v-69h-453v-238h400v-69h-400zM383 -160h-79v110h79v-110z" />
    <glyph glyph-name="uni1EB9" unicode="&#x1eb9;" horiz-adv-x="618" 
d="M576 242h-447q7 -82 65.5 -132.5t146.5 -50.5q101 0 160 66l49 -44q-83 -90 -213 -90q-124 0 -204 79t-80 201t76.5 200.5t199.5 78.5q111 0 181 -73t70 -190q0 -18 -4 -45zM329 482q-82 0 -135.5 -48t-63.5 -127h377q-8 84 -55.5 129.5t-122.5 45.5zM356 -162h-79v110
h79v-110z" />
    <glyph glyph-name="uni1EBA" unicode="&#x1eba;" horiz-adv-x="689" 
d="M360 839q0 25 -22.5 35.5t-53.5 -6.5l-4 34q58 24 95 8.5t37 -53.5q0 -59 -63 -115l-37 12q48 48 48 85zM174 324v-255h463v-69h-539v700h529v-69h-453v-238h400v-69h-400z" />
    <glyph glyph-name="uni1EBB" unicode="&#x1ebb;" horiz-adv-x="618" 
d="M330 680q0 25 -22.5 35.5t-53.5 -6.5l-4 34q58 24 95 8.5t37 -53.5q0 -59 -63 -115l-37 12q48 48 48 85zM576 242h-447q7 -82 65.5 -132.5t146.5 -50.5q101 0 160 66l49 -44q-83 -90 -213 -90q-124 0 -204 79t-80 201t76.5 200.5t199.5 78.5q111 0 181 -73t70 -190
q0 -18 -4 -45zM329 482q-82 0 -135.5 -48t-63.5 -127h377q-8 84 -55.5 129.5t-122.5 45.5z" />
    <glyph glyph-name="uni1EBC" unicode="&#x1ebc;" horiz-adv-x="689" 
d="M271 807q-22 0 -36 -15t-14 -39l-40 10q0 41 23.5 66.5t59.5 25.5q29 0 71.5 -24.5t61.5 -24.5q22 0 36 15t14 39l39 -10q0 -41 -23 -66.5t-59 -25.5q-29 0 -71.5 24.5t-61.5 24.5zM174 324v-255h463v-69h-539v700h529v-69h-453v-238h400v-69h-400z" />
    <glyph glyph-name="uni1EBD" unicode="&#x1ebd;" horiz-adv-x="618" 
d="M253 661q-22 0 -36 -15t-14 -39l-40 10q0 41 23.5 66.5t59.5 25.5q29 0 71.5 -24.5t61.5 -24.5q22 0 36 15t14 39l39 -10q0 -41 -23 -66.5t-59 -25.5q-29 0 -71.5 24.5t-61.5 24.5zM576 242h-447q7 -82 65.5 -132.5t146.5 -50.5q101 0 160 66l49 -44q-83 -90 -213 -90
q-124 0 -204 79t-80 201t76.5 200.5t199.5 78.5q111 0 181 -73t70 -190q0 -18 -4 -45zM329 482q-82 0 -135.5 -48t-63.5 -127h377q-8 84 -55.5 129.5t-122.5 45.5z" />
    <glyph glyph-name="uni1EBE" unicode="&#x1ebe;" horiz-adv-x="689" 
d="M545 906l63 -17l-89 -95l-49 5zM426 754l-78 96l-78 -96l-64 6l105 121h74l105 -121zM174 324v-255h463v-69h-539v700h529v-69h-453v-238h400v-69h-400z" />
    </font>
</defs>
</svg>
