<?xml version="1.0" standalone="no"?>
<!DOCTYPE svg PUBLIC "-//W3C//DTD SVG 1.1//EN" "http://www.w3.org/Graphics/SVG/1.1/DTD/svg11.dtd" >
<svg xmlns="http://www.w3.org/2000/svg" xmlns:xlink="http://www.w3.org/1999/xlink" version="1.1">
<metadata>
Created by FontForge 20190801 at Wed Jul  8 16:58:05 2020
 By www-data
Copyright (c) 2020 by Francesco Canovaro. All rights reserved.
</metadata>
<defs>
<font id="eastmantrial_medium" horiz-adv-x="689" >
  <font-face 
    font-family="eastmantrial_medium"
    font-weight="500"
    font-stretch="normal"
    units-per-em="1000"
    panose-1="0 0 6 0 0 0 0 0 0 0"
    ascent="800"
    descent="-200"
    x-height="547"
    cap-height="700"
    bbox="-823 -233 1480 1123"
    underline-thickness="100"
    underline-position="-200"
    unicode-range="U+0020-F8FF"
  />
<missing-glyph horiz-adv-x="620" 
 />
    <glyph glyph-name=".notdef" horiz-adv-x="620" 
 />
    <glyph glyph-name=".null" horiz-adv-x="0" 
 />
    <glyph glyph-name="nonmarkingreturn" horiz-adv-x="333" 
 />
    <glyph glyph-name="space" unicode=" " horiz-adv-x="320" 
 />
    <glyph glyph-name="exclam" unicode="!" horiz-adv-x="258" 
d="M66 420v281h125v-280l-18 -207h-88zM57 0v126h144v-126h-144z" />
    <glyph glyph-name="quotedbl" unicode="&#x22;" horiz-adv-x="354" 
d="M156 700l-29 -190h-67l6 190h90zM294 700l-30 -190h-66l6 190h90z" />
    <glyph glyph-name="numbersign" unicode="#" horiz-adv-x="755" 
d="M695 502v-93h-124l-40 -143h121v-94h-147l-41 -150h-111l41 150h-130l-41 -150h-111l41 150h-93v94h119l40 143h-114v93h139l43 155h111l-43 -155h130l43 155h111l-43 -155h99zM290 266h130l40 143h-130z" />
    <glyph glyph-name="dollar" unicode="$" horiz-adv-x="648" 
d="M609 198q0 -86 -62.5 -140.5t-166.5 -65.5v-61h-98v60q-141 15 -244 98l59 99q90 -62 185 -78v188q-111 28 -167.5 77.5t-56.5 132.5q0 86 61.5 138t162.5 63v64h98v-65q108 -11 204 -80l-69 -94q-58 42 -135 55v-192q121 -29 175 -72.5t54 -126.5zM194 507
q0 -29 20.5 -49t67.5 -36v169q-88 -13 -88 -84zM380 274v-165q45 7 69 28.5t24 50.5q0 34 -21.5 53t-71.5 33z" />
    <glyph glyph-name="percent" unicode="%" horiz-adv-x="957" 
 />
    <glyph glyph-name="ampersand" unicode="&#x26;" horiz-adv-x="824" 
d="M806 451v-110h-92q-15 -112 -90 -207q62 -33 113 -32l-9 -102q-94 -1 -188 55q-93 -63 -212 -63q-141 0 -204.5 61t-63.5 152q0 161 180 259q-2 20 -2 29q0 98 59.5 158t170.5 60q49 0 85 -14.5t54 -37.5t26 -46.5t8 -47.5q0 -50 -55 -114h220zM535 196q56 62 63 145
h-135v110q57 41 57 88q0 22 -16 32t-55 10q-28 0 -46 -7.5t-25.5 -22.5t-9.5 -27.5t-2 -30.5q0 -69 48 -151t121 -146zM323 115q62 0 114 18q-106 100 -163 226q-86 -57 -86 -135q0 -50 34.5 -79.5t100.5 -29.5z" />
    <glyph glyph-name="quotesingle" unicode="'" horiz-adv-x="216" 
d="M156 700l-29 -190h-67l6 190h90z" />
    <glyph glyph-name="parenleft" unicode="(" horiz-adv-x="392" 
d="M362 -117l-84 -65q-218 176 -218 462q0 140 56 258t162 204l84 -65q-177 -159 -177 -397t177 -397z" />
    <glyph glyph-name="parenright" unicode=")" horiz-adv-x="392" 
d="M31 677l84 65q217 -177 217 -462t-217 -462l-84 65q176 159 176 397t-176 397z" />
    <glyph glyph-name="asterisk" unicode="*" horiz-adv-x="470" 
d="M330 525l-50 -7l36 -35l61 -76l-68 -49l-52 82l-22 45l-22 -45l-53 -82l-69 49l62 76l37 35l-50 7l-94 25l26 80l90 -36l45 -24l-10 51l-4 97h84l-5 -97l-8 -50l43 23l91 36l25 -80z" />
    <glyph glyph-name="plus" unicode="+" horiz-adv-x="517" 
d="M306 376h180v-97h-180v-164h-97v164h-178v97h178v159h97v-159z" />
    <glyph glyph-name="comma" unicode="," horiz-adv-x="258" 
d="M90 -137l-30 48q29 20 43 40t13 49h-59v126h139q9 -62 8.5 -104t-18 -73.5t-40 -50.5t-56.5 -35z" />
    <glyph glyph-name="hyphen" unicode="-" horiz-adv-x="446" 
d="M415 274v-97h-384v97h384z" />
    <glyph glyph-name="period" unicode="." horiz-adv-x="258" 
d="M57 0v126h144v-126h-144z" />
    <glyph glyph-name="slash" unicode="/" horiz-adv-x="604" 
d="M177 -111h-117l367 811h117z" />
    <glyph glyph-name="zero" unicode="0" horiz-adv-x="1301" 
d="M795 504h443v-162h-1174v162h444v1q0 8 1 12v2v1q0 4 2 12q0 3 2 9q12 47 50 77t88 30q59 0 101.5 -42t42.5 -101v-1zM653 371q55 0 93 38.5t38 93.5q0 54 -38 92.5t-93 38.5t-93.5 -38.5t-38.5 -92.5q0 -55 38.5 -93.5t93.5 -38.5zM713 602q8 -7 17 -11h-159q6 5 18 13
q11 5 20 8q18 9 42 9q23 0 44 -9q12 -6 18 -10zM742 427h-155l152 155q31 -40 31 -78q0 -21 -7 -41q-5 -17 -21 -36zM562 577h154l-153 -154q-15 16 -22 38q-8 22 -8 43q0 6 2 18t7 22q4 19 20 33zM145 450h25v27h-81v-27h26v-75h30v75zM245 375h26l-18 32q-8 10 -19 10h3
q9 0 16.5 7t7.5 17q0 16 -10.5 26t-25.5 10h-42v-102h29v31h8l13 -22q3 -9 12 -9zM282 375h30v102h-30v-102zM413 375h23l-44 102h-27l-44 -102h23q7 0 14 10l2 7h36l4 -7q3 -10 13 -10zM446 375h64v27h-35v75h-29v-102zM870 372q23 0 38 14.5t15 37.5t-15 38t-38 15
t-37.5 -15t-14.5 -38q0 -22 15 -37t37 -15zM1010 374h22v101h-29v-35q0 -12 3 -20h-1l-30 46q-6 9 -13 9h-24v-101h29l1 40q0 10 -4 19l36 -53q5 -6 10 -6zM1052 374h65v26h-35v75h-30v-101zM1177 414l37 61h-27q-9 0 -13 -7l-10 -19q-4 -8 -4 -17h-1q0 8 -4 17l-10 19
q-4 7 -13 7h-27l37 -61q3 -3 3 -10v-30h29v30q0 6 3 10zM212 449h11q7 0 7 -8q0 -7 -7 -7h-11v15zM870 449q10 0 17 -7t7 -18q0 -10 -7 -17t-17 -7t-16.5 7t-6.5 17q0 11 6.5 18t16.5 7zM378 445h1q0 -10 3 -19l6 -13h-19l6 13q0 1 1.5 7.5t1.5 11.5zM610 392q-17 7 -37 22
h157q-3 -3 -9 -7t-8 -6q-9 -6 -18 -9q-17 -4 -22 -5q-11 -3 -22 -3q-22 0 -41 8zM109 313v-8h-33v-23h28v-7h-28v-29h-7v67h40zM173 313v-41q0 -27 -27 -27q-11 0 -18.5 7.5t-7.5 19.5v41h8v-41q0 -20 18 -20q20 0 20 20v41h7zM191 246v67h7v-60h30v-7h-37zM241 246v67h8
v-60h30v-7h-38zM376 313l-29 -67h-6l-29 67h4q4 0 5 -3l21 -49q2 -6 2 -7q0 1 2 7l21 49q1 3 5 3h4zM427 313v-8h-33v-21h27v-8h-27v-23h33v-7h-41v67h41zM471 273l21 -27h-5q-3 0 -7 3l-20 25h-10v-28h-8v67h23q8 0 14 -5.5t6 -14.5q0 -7 -5 -12t-11 -6h-2q2 0 4 -2z
M517 252q15 0 15 13q0 7 -14 13q-18 7 -18 18q0 17 19 17q11 0 17 -6l-1 -2q-3 -3 -6 -2q-5 3 -10 3q-12 0 -12 -10q0 -5 13 -11q19 -6 19 -20q0 -20 -22 -20q-12 0 -20 10l2 2q1 1 2.5 1.5t2.5 -0.5q6 -4 13 -6zM554 246v67h7v-67h-7zM645 279q0 -14 -10 -24t-25 -10
q-14 0 -24 10t-10 24t10 24t24 10q15 0 25 -10t10 -24zM659 313h6q2 0 5 -2l36 -53q-1 2 -1 5v50h8v-67h-6q-1 0 -3 2l-38 55q0 -1 0.5 -2.5t0.5 -2.5v-52h-8v67zM583 279q0 -11 8 -19t19 -8t19 8t8 19t-8 19t-19 8t-19 -8t-8 -19zM450 305v-23h15q13 0 13 11q0 12 -13 12
h-15zM1208 276h-457v7h457l-10 9q-3 3 -1 6l2 3l19 -17l2 -4q0 -2 -2 -4l-19 -18l-2 3q-1 2 1 6zM539 212q22 0 36 -14t14 -35q0 -22 -14 -36t-36 -14t-36.5 14t-14.5 36q0 21 14.5 35t36.5 14zM830 177q29 -6 29 -32q0 -14 -10.5 -23t-26.5 -9q-20 0 -38 16l6 11q7 10 20 4
q8 -5 12 -5q9 0 9 6q0 4 -9 7q-31 10 -31 31q0 29 33 29q19 0 30 -11l-6 -10q-6 -11 -18 -6q-4 2 -6 2q-5 0 -5 -4q0 -3 11 -6zM955 186q-21 0 -21 -23q0 -24 21 -24q6 0 12 4q11 8 19 -2l7 -9q-12 -19 -37 -19q-22 0 -36.5 14t-14.5 36q0 21 14.5 35t36.5 14q25 0 37 -19
l-7 -9q-8 -10 -19 -2q-8 4 -12 4zM1050 212q22 0 36 -14t14 -35q0 -22 -14 -36t-36 -14t-36 14t-14 36q0 21 14 35t36 14zM93 185h-26v26h75v-13q0 -8 -3 -11l-38 -51q5 5 12 5h28v-27h-78v13q0 7 5 13l36 48q-3 -3 -11 -3zM221 114h-67v97h67v-26h-38v-10h31v-24h-31v-10
h38v-27zM228 211h77v-26h-24v-71h-28v71h-25v26zM295 114l43 97h24l43 -97h-22q-8 0 -13 10l-3 6h-34l-3 -6q-5 -10 -13 -10h-22zM442 114h-28v97h66v-26h-38v-13h32v-25h-32v-33zM665 177v34h28v-97h-21q-5 0 -9 6l-34 50h-1q3 -9 3 -17v-39h-27v97h21q7 0 13 -9l29 -43
q-2 7 -2 18zM729 185h-25v26h77v-26h-24v-71h-28v71zM1174 167l18 35q3 9 11 9h25v-97h-28v42q0 8 3 15l-20 -41q-3 -7 -11 -7q-9 0 -12 7l-20 41q3 -7 3 -15v-42h-29v97h25q6 0 12 -9l17 -35q3 -5 3 -11h1q0 5 2 11zM539 139q10 0 16 6.5t6 17.5q0 10 -6 16.5t-16 6.5
t-16 -6.5t-6 -16.5q0 -11 6 -17.5t16 -6.5zM1050 139q10 0 16 6.5t6 17.5q0 10 -6 16.5t-16 6.5t-16 -6.5t-6 -16.5q0 -11 6 -17.5t16 -6.5zM346 162l-5 -13h18l-5 13q-4 8 -4 19q0 -11 -4 -19zM882 143q14 0 14 -16q0 -14 -14 -14q-15 0 -15 14q0 7 4.5 11.5t10.5 4.5z" />
    <glyph glyph-name="one" unicode="1" horiz-adv-x="1301" 
d="M795 504h443v-162h-1174v162h444v1q0 8 1 12v2v1q0 4 2 12q0 3 2 9q12 47 50 77t88 30q59 0 101.5 -42t42.5 -101v-1zM653 371q55 0 93 38.5t38 93.5q0 54 -38 92.5t-93 38.5t-93.5 -38.5t-38.5 -92.5q0 -55 38.5 -93.5t93.5 -38.5zM713 602q8 -7 17 -11h-159q6 5 18 13
q11 5 20 8q18 9 42 9q23 0 44 -9q12 -6 18 -10zM742 427h-155l152 155q31 -40 31 -78q0 -21 -7 -41q-5 -17 -21 -36zM562 577h154l-153 -154q-15 16 -22 38q-8 22 -8 43q0 6 2 18t7 22q4 19 20 33zM145 450h25v27h-81v-27h26v-75h30v75zM245 375h26l-18 32q-8 10 -19 10h3
q9 0 16.5 7t7.5 17q0 16 -10.5 26t-25.5 10h-42v-102h29v31h8l13 -22q3 -9 12 -9zM282 375h30v102h-30v-102zM413 375h23l-44 102h-27l-44 -102h23q7 0 14 10l2 7h36l4 -7q3 -10 13 -10zM446 375h64v27h-35v75h-29v-102zM870 372q23 0 38 14.5t15 37.5t-15 38t-38 15
t-37.5 -15t-14.5 -38q0 -22 15 -37t37 -15zM1010 374h22v101h-29v-35q0 -12 3 -20h-1l-30 46q-6 9 -13 9h-24v-101h29l1 40q0 10 -4 19l36 -53q5 -6 10 -6zM1052 374h65v26h-35v75h-30v-101zM1177 414l37 61h-27q-9 0 -13 -7l-10 -19q-4 -8 -4 -17h-1q0 8 -4 17l-10 19
q-4 7 -13 7h-27l37 -61q3 -3 3 -10v-30h29v30q0 6 3 10zM212 449h11q7 0 7 -8q0 -7 -7 -7h-11v15zM870 449q10 0 17 -7t7 -18q0 -10 -7 -17t-17 -7t-16.5 7t-6.5 17q0 11 6.5 18t16.5 7zM378 445h1q0 -10 3 -19l6 -13h-19l6 13q0 1 1.5 7.5t1.5 11.5zM610 392q-17 7 -37 22
h157q-3 -3 -9 -7t-8 -6q-9 -6 -18 -9q-17 -4 -22 -5q-11 -3 -22 -3q-22 0 -41 8zM109 313v-8h-33v-23h28v-7h-28v-29h-7v67h40zM173 313v-41q0 -27 -27 -27q-11 0 -18.5 7.5t-7.5 19.5v41h8v-41q0 -20 18 -20q20 0 20 20v41h7zM191 246v67h7v-60h30v-7h-37zM241 246v67h8
v-60h30v-7h-38zM376 313l-29 -67h-6l-29 67h4q4 0 5 -3l21 -49q2 -6 2 -7q0 1 2 7l21 49q1 3 5 3h4zM427 313v-8h-33v-21h27v-8h-27v-23h33v-7h-41v67h41zM471 273l21 -27h-5q-3 0 -7 3l-20 25h-10v-28h-8v67h23q8 0 14 -5.5t6 -14.5q0 -7 -5 -12t-11 -6h-2q2 0 4 -2z
M517 252q15 0 15 13q0 7 -14 13q-18 7 -18 18q0 17 19 17q11 0 17 -6l-1 -2q-3 -3 -6 -2q-5 3 -10 3q-12 0 -12 -10q0 -5 13 -11q19 -6 19 -20q0 -20 -22 -20q-12 0 -20 10l2 2q1 1 2.5 1.5t2.5 -0.5q6 -4 13 -6zM554 246v67h7v-67h-7zM645 279q0 -14 -10 -24t-25 -10
q-14 0 -24 10t-10 24t10 24t24 10q15 0 25 -10t10 -24zM659 313h6q2 0 5 -2l36 -53q-1 2 -1 5v50h8v-67h-6q-1 0 -3 2l-38 55q0 -1 0.5 -2.5t0.5 -2.5v-52h-8v67zM583 279q0 -11 8 -19t19 -8t19 8t8 19t-8 19t-19 8t-19 -8t-8 -19zM450 305v-23h15q13 0 13 11q0 12 -13 12
h-15zM1208 276h-457v7h457l-10 9q-3 3 -1 6l2 3l19 -17l2 -4q0 -2 -2 -4l-19 -18l-2 3q-1 2 1 6zM539 212q22 0 36 -14t14 -35q0 -22 -14 -36t-36 -14t-36.5 14t-14.5 36q0 21 14.5 35t36.5 14zM830 177q29 -6 29 -32q0 -14 -10.5 -23t-26.5 -9q-20 0 -38 16l6 11q7 10 20 4
q8 -5 12 -5q9 0 9 6q0 4 -9 7q-31 10 -31 31q0 29 33 29q19 0 30 -11l-6 -10q-6 -11 -18 -6q-4 2 -6 2q-5 0 -5 -4q0 -3 11 -6zM955 186q-21 0 -21 -23q0 -24 21 -24q6 0 12 4q11 8 19 -2l7 -9q-12 -19 -37 -19q-22 0 -36.5 14t-14.5 36q0 21 14.5 35t36.5 14q25 0 37 -19
l-7 -9q-8 -10 -19 -2q-8 4 -12 4zM1050 212q22 0 36 -14t14 -35q0 -22 -14 -36t-36 -14t-36 14t-14 36q0 21 14 35t36 14zM93 185h-26v26h75v-13q0 -8 -3 -11l-38 -51q5 5 12 5h28v-27h-78v13q0 7 5 13l36 48q-3 -3 -11 -3zM221 114h-67v97h67v-26h-38v-10h31v-24h-31v-10
h38v-27zM228 211h77v-26h-24v-71h-28v71h-25v26zM295 114l43 97h24l43 -97h-22q-8 0 -13 10l-3 6h-34l-3 -6q-5 -10 -13 -10h-22zM442 114h-28v97h66v-26h-38v-13h32v-25h-32v-33zM665 177v34h28v-97h-21q-5 0 -9 6l-34 50h-1q3 -9 3 -17v-39h-27v97h21q7 0 13 -9l29 -43
q-2 7 -2 18zM729 185h-25v26h77v-26h-24v-71h-28v71zM1174 167l18 35q3 9 11 9h25v-97h-28v42q0 8 3 15l-20 -41q-3 -7 -11 -7q-9 0 -12 7l-20 41q3 -7 3 -15v-42h-29v97h25q6 0 12 -9l17 -35q3 -5 3 -11h1q0 5 2 11zM539 139q10 0 16 6.5t6 17.5q0 10 -6 16.5t-16 6.5
t-16 -6.5t-6 -16.5q0 -11 6 -17.5t16 -6.5zM1050 139q10 0 16 6.5t6 17.5q0 10 -6 16.5t-16 6.5t-16 -6.5t-6 -16.5q0 -11 6 -17.5t16 -6.5zM346 162l-5 -13h18l-5 13q-4 8 -4 19q0 -11 -4 -19zM882 143q14 0 14 -16q0 -14 -14 -14q-15 0 -15 14q0 7 4.5 11.5t10.5 4.5z" />
    <glyph glyph-name="two" unicode="2" horiz-adv-x="1301" 
d="M795 504h443v-162h-1174v162h444v1q0 8 1 12v2v1q0 4 2 12q0 3 2 9q12 47 50 77t88 30q59 0 101.5 -42t42.5 -101v-1zM653 371q55 0 93 38.5t38 93.5q0 54 -38 92.5t-93 38.5t-93.5 -38.5t-38.5 -92.5q0 -55 38.5 -93.5t93.5 -38.5zM713 602q8 -7 17 -11h-159q6 5 18 13
q11 5 20 8q18 9 42 9q23 0 44 -9q12 -6 18 -10zM742 427h-155l152 155q31 -40 31 -78q0 -21 -7 -41q-5 -17 -21 -36zM562 577h154l-153 -154q-15 16 -22 38q-8 22 -8 43q0 6 2 18t7 22q4 19 20 33zM145 450h25v27h-81v-27h26v-75h30v75zM245 375h26l-18 32q-8 10 -19 10h3
q9 0 16.5 7t7.5 17q0 16 -10.5 26t-25.5 10h-42v-102h29v31h8l13 -22q3 -9 12 -9zM282 375h30v102h-30v-102zM413 375h23l-44 102h-27l-44 -102h23q7 0 14 10l2 7h36l4 -7q3 -10 13 -10zM446 375h64v27h-35v75h-29v-102zM870 372q23 0 38 14.5t15 37.5t-15 38t-38 15
t-37.5 -15t-14.5 -38q0 -22 15 -37t37 -15zM1010 374h22v101h-29v-35q0 -12 3 -20h-1l-30 46q-6 9 -13 9h-24v-101h29l1 40q0 10 -4 19l36 -53q5 -6 10 -6zM1052 374h65v26h-35v75h-30v-101zM1177 414l37 61h-27q-9 0 -13 -7l-10 -19q-4 -8 -4 -17h-1q0 8 -4 17l-10 19
q-4 7 -13 7h-27l37 -61q3 -3 3 -10v-30h29v30q0 6 3 10zM212 449h11q7 0 7 -8q0 -7 -7 -7h-11v15zM870 449q10 0 17 -7t7 -18q0 -10 -7 -17t-17 -7t-16.5 7t-6.5 17q0 11 6.5 18t16.5 7zM378 445h1q0 -10 3 -19l6 -13h-19l6 13q0 1 1.5 7.5t1.5 11.5zM610 392q-17 7 -37 22
h157q-3 -3 -9 -7t-8 -6q-9 -6 -18 -9q-17 -4 -22 -5q-11 -3 -22 -3q-22 0 -41 8zM109 313v-8h-33v-23h28v-7h-28v-29h-7v67h40zM173 313v-41q0 -27 -27 -27q-11 0 -18.5 7.5t-7.5 19.5v41h8v-41q0 -20 18 -20q20 0 20 20v41h7zM191 246v67h7v-60h30v-7h-37zM241 246v67h8
v-60h30v-7h-38zM376 313l-29 -67h-6l-29 67h4q4 0 5 -3l21 -49q2 -6 2 -7q0 1 2 7l21 49q1 3 5 3h4zM427 313v-8h-33v-21h27v-8h-27v-23h33v-7h-41v67h41zM471 273l21 -27h-5q-3 0 -7 3l-20 25h-10v-28h-8v67h23q8 0 14 -5.5t6 -14.5q0 -7 -5 -12t-11 -6h-2q2 0 4 -2z
M517 252q15 0 15 13q0 7 -14 13q-18 7 -18 18q0 17 19 17q11 0 17 -6l-1 -2q-3 -3 -6 -2q-5 3 -10 3q-12 0 -12 -10q0 -5 13 -11q19 -6 19 -20q0 -20 -22 -20q-12 0 -20 10l2 2q1 1 2.5 1.5t2.5 -0.5q6 -4 13 -6zM554 246v67h7v-67h-7zM645 279q0 -14 -10 -24t-25 -10
q-14 0 -24 10t-10 24t10 24t24 10q15 0 25 -10t10 -24zM659 313h6q2 0 5 -2l36 -53q-1 2 -1 5v50h8v-67h-6q-1 0 -3 2l-38 55q0 -1 0.5 -2.5t0.5 -2.5v-52h-8v67zM583 279q0 -11 8 -19t19 -8t19 8t8 19t-8 19t-19 8t-19 -8t-8 -19zM450 305v-23h15q13 0 13 11q0 12 -13 12
h-15zM1208 276h-457v7h457l-10 9q-3 3 -1 6l2 3l19 -17l2 -4q0 -2 -2 -4l-19 -18l-2 3q-1 2 1 6zM539 212q22 0 36 -14t14 -35q0 -22 -14 -36t-36 -14t-36.5 14t-14.5 36q0 21 14.5 35t36.5 14zM830 177q29 -6 29 -32q0 -14 -10.5 -23t-26.5 -9q-20 0 -38 16l6 11q7 10 20 4
q8 -5 12 -5q9 0 9 6q0 4 -9 7q-31 10 -31 31q0 29 33 29q19 0 30 -11l-6 -10q-6 -11 -18 -6q-4 2 -6 2q-5 0 -5 -4q0 -3 11 -6zM955 186q-21 0 -21 -23q0 -24 21 -24q6 0 12 4q11 8 19 -2l7 -9q-12 -19 -37 -19q-22 0 -36.5 14t-14.5 36q0 21 14.5 35t36.5 14q25 0 37 -19
l-7 -9q-8 -10 -19 -2q-8 4 -12 4zM1050 212q22 0 36 -14t14 -35q0 -22 -14 -36t-36 -14t-36 14t-14 36q0 21 14 35t36 14zM93 185h-26v26h75v-13q0 -8 -3 -11l-38 -51q5 5 12 5h28v-27h-78v13q0 7 5 13l36 48q-3 -3 -11 -3zM221 114h-67v97h67v-26h-38v-10h31v-24h-31v-10
h38v-27zM228 211h77v-26h-24v-71h-28v71h-25v26zM295 114l43 97h24l43 -97h-22q-8 0 -13 10l-3 6h-34l-3 -6q-5 -10 -13 -10h-22zM442 114h-28v97h66v-26h-38v-13h32v-25h-32v-33zM665 177v34h28v-97h-21q-5 0 -9 6l-34 50h-1q3 -9 3 -17v-39h-27v97h21q7 0 13 -9l29 -43
q-2 7 -2 18zM729 185h-25v26h77v-26h-24v-71h-28v71zM1174 167l18 35q3 9 11 9h25v-97h-28v42q0 8 3 15l-20 -41q-3 -7 -11 -7q-9 0 -12 7l-20 41q3 -7 3 -15v-42h-29v97h25q6 0 12 -9l17 -35q3 -5 3 -11h1q0 5 2 11zM539 139q10 0 16 6.5t6 17.5q0 10 -6 16.5t-16 6.5
t-16 -6.5t-6 -16.5q0 -11 6 -17.5t16 -6.5zM1050 139q10 0 16 6.5t6 17.5q0 10 -6 16.5t-16 6.5t-16 -6.5t-6 -16.5q0 -11 6 -17.5t16 -6.5zM346 162l-5 -13h18l-5 13q-4 8 -4 19q0 -11 -4 -19zM882 143q14 0 14 -16q0 -14 -14 -14q-15 0 -15 14q0 7 4.5 11.5t10.5 4.5z" />
    <glyph glyph-name="three" unicode="3" horiz-adv-x="1301" 
d="M795 504h443v-162h-1174v162h444v1q0 8 1 12v2v1q0 4 2 12q0 3 2 9q12 47 50 77t88 30q59 0 101.5 -42t42.5 -101v-1zM653 371q55 0 93 38.5t38 93.5q0 54 -38 92.5t-93 38.5t-93.5 -38.5t-38.5 -92.5q0 -55 38.5 -93.5t93.5 -38.5zM713 602q8 -7 17 -11h-159q6 5 18 13
q11 5 20 8q18 9 42 9q23 0 44 -9q12 -6 18 -10zM742 427h-155l152 155q31 -40 31 -78q0 -21 -7 -41q-5 -17 -21 -36zM562 577h154l-153 -154q-15 16 -22 38q-8 22 -8 43q0 6 2 18t7 22q4 19 20 33zM145 450h25v27h-81v-27h26v-75h30v75zM245 375h26l-18 32q-8 10 -19 10h3
q9 0 16.5 7t7.5 17q0 16 -10.5 26t-25.5 10h-42v-102h29v31h8l13 -22q3 -9 12 -9zM282 375h30v102h-30v-102zM413 375h23l-44 102h-27l-44 -102h23q7 0 14 10l2 7h36l4 -7q3 -10 13 -10zM446 375h64v27h-35v75h-29v-102zM870 372q23 0 38 14.5t15 37.5t-15 38t-38 15
t-37.5 -15t-14.5 -38q0 -22 15 -37t37 -15zM1010 374h22v101h-29v-35q0 -12 3 -20h-1l-30 46q-6 9 -13 9h-24v-101h29l1 40q0 10 -4 19l36 -53q5 -6 10 -6zM1052 374h65v26h-35v75h-30v-101zM1177 414l37 61h-27q-9 0 -13 -7l-10 -19q-4 -8 -4 -17h-1q0 8 -4 17l-10 19
q-4 7 -13 7h-27l37 -61q3 -3 3 -10v-30h29v30q0 6 3 10zM212 449h11q7 0 7 -8q0 -7 -7 -7h-11v15zM870 449q10 0 17 -7t7 -18q0 -10 -7 -17t-17 -7t-16.5 7t-6.5 17q0 11 6.5 18t16.5 7zM378 445h1q0 -10 3 -19l6 -13h-19l6 13q0 1 1.5 7.5t1.5 11.5zM610 392q-17 7 -37 22
h157q-3 -3 -9 -7t-8 -6q-9 -6 -18 -9q-17 -4 -22 -5q-11 -3 -22 -3q-22 0 -41 8zM109 313v-8h-33v-23h28v-7h-28v-29h-7v67h40zM173 313v-41q0 -27 -27 -27q-11 0 -18.5 7.5t-7.5 19.5v41h8v-41q0 -20 18 -20q20 0 20 20v41h7zM191 246v67h7v-60h30v-7h-37zM241 246v67h8
v-60h30v-7h-38zM376 313l-29 -67h-6l-29 67h4q4 0 5 -3l21 -49q2 -6 2 -7q0 1 2 7l21 49q1 3 5 3h4zM427 313v-8h-33v-21h27v-8h-27v-23h33v-7h-41v67h41zM471 273l21 -27h-5q-3 0 -7 3l-20 25h-10v-28h-8v67h23q8 0 14 -5.5t6 -14.5q0 -7 -5 -12t-11 -6h-2q2 0 4 -2z
M517 252q15 0 15 13q0 7 -14 13q-18 7 -18 18q0 17 19 17q11 0 17 -6l-1 -2q-3 -3 -6 -2q-5 3 -10 3q-12 0 -12 -10q0 -5 13 -11q19 -6 19 -20q0 -20 -22 -20q-12 0 -20 10l2 2q1 1 2.5 1.5t2.5 -0.5q6 -4 13 -6zM554 246v67h7v-67h-7zM645 279q0 -14 -10 -24t-25 -10
q-14 0 -24 10t-10 24t10 24t24 10q15 0 25 -10t10 -24zM659 313h6q2 0 5 -2l36 -53q-1 2 -1 5v50h8v-67h-6q-1 0 -3 2l-38 55q0 -1 0.5 -2.5t0.5 -2.5v-52h-8v67zM583 279q0 -11 8 -19t19 -8t19 8t8 19t-8 19t-19 8t-19 -8t-8 -19zM450 305v-23h15q13 0 13 11q0 12 -13 12
h-15zM1208 276h-457v7h457l-10 9q-3 3 -1 6l2 3l19 -17l2 -4q0 -2 -2 -4l-19 -18l-2 3q-1 2 1 6zM539 212q22 0 36 -14t14 -35q0 -22 -14 -36t-36 -14t-36.5 14t-14.5 36q0 21 14.5 35t36.5 14zM830 177q29 -6 29 -32q0 -14 -10.5 -23t-26.5 -9q-20 0 -38 16l6 11q7 10 20 4
q8 -5 12 -5q9 0 9 6q0 4 -9 7q-31 10 -31 31q0 29 33 29q19 0 30 -11l-6 -10q-6 -11 -18 -6q-4 2 -6 2q-5 0 -5 -4q0 -3 11 -6zM955 186q-21 0 -21 -23q0 -24 21 -24q6 0 12 4q11 8 19 -2l7 -9q-12 -19 -37 -19q-22 0 -36.5 14t-14.5 36q0 21 14.5 35t36.5 14q25 0 37 -19
l-7 -9q-8 -10 -19 -2q-8 4 -12 4zM1050 212q22 0 36 -14t14 -35q0 -22 -14 -36t-36 -14t-36 14t-14 36q0 21 14 35t36 14zM93 185h-26v26h75v-13q0 -8 -3 -11l-38 -51q5 5 12 5h28v-27h-78v13q0 7 5 13l36 48q-3 -3 -11 -3zM221 114h-67v97h67v-26h-38v-10h31v-24h-31v-10
h38v-27zM228 211h77v-26h-24v-71h-28v71h-25v26zM295 114l43 97h24l43 -97h-22q-8 0 -13 10l-3 6h-34l-3 -6q-5 -10 -13 -10h-22zM442 114h-28v97h66v-26h-38v-13h32v-25h-32v-33zM665 177v34h28v-97h-21q-5 0 -9 6l-34 50h-1q3 -9 3 -17v-39h-27v97h21q7 0 13 -9l29 -43
q-2 7 -2 18zM729 185h-25v26h77v-26h-24v-71h-28v71zM1174 167l18 35q3 9 11 9h25v-97h-28v42q0 8 3 15l-20 -41q-3 -7 -11 -7q-9 0 -12 7l-20 41q3 -7 3 -15v-42h-29v97h25q6 0 12 -9l17 -35q3 -5 3 -11h1q0 5 2 11zM539 139q10 0 16 6.5t6 17.5q0 10 -6 16.5t-16 6.5
t-16 -6.5t-6 -16.5q0 -11 6 -17.5t16 -6.5zM1050 139q10 0 16 6.5t6 17.5q0 10 -6 16.5t-16 6.5t-16 -6.5t-6 -16.5q0 -11 6 -17.5t16 -6.5zM346 162l-5 -13h18l-5 13q-4 8 -4 19q0 -11 -4 -19zM882 143q14 0 14 -16q0 -14 -14 -14q-15 0 -15 14q0 7 4.5 11.5t10.5 4.5z" />
    <glyph glyph-name="four" unicode="4" horiz-adv-x="1301" 
d="M795 504h443v-162h-1174v162h444v1q0 8 1 12v2v1q0 4 2 12q0 3 2 9q12 47 50 77t88 30q59 0 101.5 -42t42.5 -101v-1zM653 371q55 0 93 38.5t38 93.5q0 54 -38 92.5t-93 38.5t-93.5 -38.5t-38.5 -92.5q0 -55 38.5 -93.5t93.5 -38.5zM713 602q8 -7 17 -11h-159q6 5 18 13
q11 5 20 8q18 9 42 9q23 0 44 -9q12 -6 18 -10zM742 427h-155l152 155q31 -40 31 -78q0 -21 -7 -41q-5 -17 -21 -36zM562 577h154l-153 -154q-15 16 -22 38q-8 22 -8 43q0 6 2 18t7 22q4 19 20 33zM145 450h25v27h-81v-27h26v-75h30v75zM245 375h26l-18 32q-8 10 -19 10h3
q9 0 16.5 7t7.5 17q0 16 -10.5 26t-25.5 10h-42v-102h29v31h8l13 -22q3 -9 12 -9zM282 375h30v102h-30v-102zM413 375h23l-44 102h-27l-44 -102h23q7 0 14 10l2 7h36l4 -7q3 -10 13 -10zM446 375h64v27h-35v75h-29v-102zM870 372q23 0 38 14.5t15 37.5t-15 38t-38 15
t-37.5 -15t-14.5 -38q0 -22 15 -37t37 -15zM1010 374h22v101h-29v-35q0 -12 3 -20h-1l-30 46q-6 9 -13 9h-24v-101h29l1 40q0 10 -4 19l36 -53q5 -6 10 -6zM1052 374h65v26h-35v75h-30v-101zM1177 414l37 61h-27q-9 0 -13 -7l-10 -19q-4 -8 -4 -17h-1q0 8 -4 17l-10 19
q-4 7 -13 7h-27l37 -61q3 -3 3 -10v-30h29v30q0 6 3 10zM212 449h11q7 0 7 -8q0 -7 -7 -7h-11v15zM870 449q10 0 17 -7t7 -18q0 -10 -7 -17t-17 -7t-16.5 7t-6.5 17q0 11 6.5 18t16.5 7zM378 445h1q0 -10 3 -19l6 -13h-19l6 13q0 1 1.5 7.5t1.5 11.5zM610 392q-17 7 -37 22
h157q-3 -3 -9 -7t-8 -6q-9 -6 -18 -9q-17 -4 -22 -5q-11 -3 -22 -3q-22 0 -41 8zM109 313v-8h-33v-23h28v-7h-28v-29h-7v67h40zM173 313v-41q0 -27 -27 -27q-11 0 -18.5 7.5t-7.5 19.5v41h8v-41q0 -20 18 -20q20 0 20 20v41h7zM191 246v67h7v-60h30v-7h-37zM241 246v67h8
v-60h30v-7h-38zM376 313l-29 -67h-6l-29 67h4q4 0 5 -3l21 -49q2 -6 2 -7q0 1 2 7l21 49q1 3 5 3h4zM427 313v-8h-33v-21h27v-8h-27v-23h33v-7h-41v67h41zM471 273l21 -27h-5q-3 0 -7 3l-20 25h-10v-28h-8v67h23q8 0 14 -5.5t6 -14.5q0 -7 -5 -12t-11 -6h-2q2 0 4 -2z
M517 252q15 0 15 13q0 7 -14 13q-18 7 -18 18q0 17 19 17q11 0 17 -6l-1 -2q-3 -3 -6 -2q-5 3 -10 3q-12 0 -12 -10q0 -5 13 -11q19 -6 19 -20q0 -20 -22 -20q-12 0 -20 10l2 2q1 1 2.5 1.5t2.5 -0.5q6 -4 13 -6zM554 246v67h7v-67h-7zM645 279q0 -14 -10 -24t-25 -10
q-14 0 -24 10t-10 24t10 24t24 10q15 0 25 -10t10 -24zM659 313h6q2 0 5 -2l36 -53q-1 2 -1 5v50h8v-67h-6q-1 0 -3 2l-38 55q0 -1 0.5 -2.5t0.5 -2.5v-52h-8v67zM583 279q0 -11 8 -19t19 -8t19 8t8 19t-8 19t-19 8t-19 -8t-8 -19zM450 305v-23h15q13 0 13 11q0 12 -13 12
h-15zM1208 276h-457v7h457l-10 9q-3 3 -1 6l2 3l19 -17l2 -4q0 -2 -2 -4l-19 -18l-2 3q-1 2 1 6zM539 212q22 0 36 -14t14 -35q0 -22 -14 -36t-36 -14t-36.5 14t-14.5 36q0 21 14.5 35t36.5 14zM830 177q29 -6 29 -32q0 -14 -10.5 -23t-26.5 -9q-20 0 -38 16l6 11q7 10 20 4
q8 -5 12 -5q9 0 9 6q0 4 -9 7q-31 10 -31 31q0 29 33 29q19 0 30 -11l-6 -10q-6 -11 -18 -6q-4 2 -6 2q-5 0 -5 -4q0 -3 11 -6zM955 186q-21 0 -21 -23q0 -24 21 -24q6 0 12 4q11 8 19 -2l7 -9q-12 -19 -37 -19q-22 0 -36.5 14t-14.5 36q0 21 14.5 35t36.5 14q25 0 37 -19
l-7 -9q-8 -10 -19 -2q-8 4 -12 4zM1050 212q22 0 36 -14t14 -35q0 -22 -14 -36t-36 -14t-36 14t-14 36q0 21 14 35t36 14zM93 185h-26v26h75v-13q0 -8 -3 -11l-38 -51q5 5 12 5h28v-27h-78v13q0 7 5 13l36 48q-3 -3 -11 -3zM221 114h-67v97h67v-26h-38v-10h31v-24h-31v-10
h38v-27zM228 211h77v-26h-24v-71h-28v71h-25v26zM295 114l43 97h24l43 -97h-22q-8 0 -13 10l-3 6h-34l-3 -6q-5 -10 -13 -10h-22zM442 114h-28v97h66v-26h-38v-13h32v-25h-32v-33zM665 177v34h28v-97h-21q-5 0 -9 6l-34 50h-1q3 -9 3 -17v-39h-27v97h21q7 0 13 -9l29 -43
q-2 7 -2 18zM729 185h-25v26h77v-26h-24v-71h-28v71zM1174 167l18 35q3 9 11 9h25v-97h-28v42q0 8 3 15l-20 -41q-3 -7 -11 -7q-9 0 -12 7l-20 41q3 -7 3 -15v-42h-29v97h25q6 0 12 -9l17 -35q3 -5 3 -11h1q0 5 2 11zM539 139q10 0 16 6.5t6 17.5q0 10 -6 16.5t-16 6.5
t-16 -6.5t-6 -16.5q0 -11 6 -17.5t16 -6.5zM1050 139q10 0 16 6.5t6 17.5q0 10 -6 16.5t-16 6.5t-16 -6.5t-6 -16.5q0 -11 6 -17.5t16 -6.5zM346 162l-5 -13h18l-5 13q-4 8 -4 19q0 -11 -4 -19zM882 143q14 0 14 -16q0 -14 -14 -14q-15 0 -15 14q0 7 4.5 11.5t10.5 4.5z" />
    <glyph glyph-name="five" unicode="5" horiz-adv-x="1301" 
d="M795 504h443v-162h-1174v162h444v1q0 8 1 12v2v1q0 4 2 12q0 3 2 9q12 47 50 77t88 30q59 0 101.5 -42t42.5 -101v-1zM653 371q55 0 93 38.5t38 93.5q0 54 -38 92.5t-93 38.5t-93.5 -38.5t-38.5 -92.5q0 -55 38.5 -93.5t93.5 -38.5zM713 602q8 -7 17 -11h-159q6 5 18 13
q11 5 20 8q18 9 42 9q23 0 44 -9q12 -6 18 -10zM742 427h-155l152 155q31 -40 31 -78q0 -21 -7 -41q-5 -17 -21 -36zM562 577h154l-153 -154q-15 16 -22 38q-8 22 -8 43q0 6 2 18t7 22q4 19 20 33zM145 450h25v27h-81v-27h26v-75h30v75zM245 375h26l-18 32q-8 10 -19 10h3
q9 0 16.5 7t7.5 17q0 16 -10.5 26t-25.5 10h-42v-102h29v31h8l13 -22q3 -9 12 -9zM282 375h30v102h-30v-102zM413 375h23l-44 102h-27l-44 -102h23q7 0 14 10l2 7h36l4 -7q3 -10 13 -10zM446 375h64v27h-35v75h-29v-102zM870 372q23 0 38 14.5t15 37.5t-15 38t-38 15
t-37.5 -15t-14.5 -38q0 -22 15 -37t37 -15zM1010 374h22v101h-29v-35q0 -12 3 -20h-1l-30 46q-6 9 -13 9h-24v-101h29l1 40q0 10 -4 19l36 -53q5 -6 10 -6zM1052 374h65v26h-35v75h-30v-101zM1177 414l37 61h-27q-9 0 -13 -7l-10 -19q-4 -8 -4 -17h-1q0 8 -4 17l-10 19
q-4 7 -13 7h-27l37 -61q3 -3 3 -10v-30h29v30q0 6 3 10zM212 449h11q7 0 7 -8q0 -7 -7 -7h-11v15zM870 449q10 0 17 -7t7 -18q0 -10 -7 -17t-17 -7t-16.5 7t-6.5 17q0 11 6.5 18t16.5 7zM378 445h1q0 -10 3 -19l6 -13h-19l6 13q0 1 1.5 7.5t1.5 11.5zM610 392q-17 7 -37 22
h157q-3 -3 -9 -7t-8 -6q-9 -6 -18 -9q-17 -4 -22 -5q-11 -3 -22 -3q-22 0 -41 8zM109 313v-8h-33v-23h28v-7h-28v-29h-7v67h40zM173 313v-41q0 -27 -27 -27q-11 0 -18.5 7.5t-7.5 19.5v41h8v-41q0 -20 18 -20q20 0 20 20v41h7zM191 246v67h7v-60h30v-7h-37zM241 246v67h8
v-60h30v-7h-38zM376 313l-29 -67h-6l-29 67h4q4 0 5 -3l21 -49q2 -6 2 -7q0 1 2 7l21 49q1 3 5 3h4zM427 313v-8h-33v-21h27v-8h-27v-23h33v-7h-41v67h41zM471 273l21 -27h-5q-3 0 -7 3l-20 25h-10v-28h-8v67h23q8 0 14 -5.5t6 -14.5q0 -7 -5 -12t-11 -6h-2q2 0 4 -2z
M517 252q15 0 15 13q0 7 -14 13q-18 7 -18 18q0 17 19 17q11 0 17 -6l-1 -2q-3 -3 -6 -2q-5 3 -10 3q-12 0 -12 -10q0 -5 13 -11q19 -6 19 -20q0 -20 -22 -20q-12 0 -20 10l2 2q1 1 2.5 1.5t2.5 -0.5q6 -4 13 -6zM554 246v67h7v-67h-7zM645 279q0 -14 -10 -24t-25 -10
q-14 0 -24 10t-10 24t10 24t24 10q15 0 25 -10t10 -24zM659 313h6q2 0 5 -2l36 -53q-1 2 -1 5v50h8v-67h-6q-1 0 -3 2l-38 55q0 -1 0.5 -2.5t0.5 -2.5v-52h-8v67zM583 279q0 -11 8 -19t19 -8t19 8t8 19t-8 19t-19 8t-19 -8t-8 -19zM450 305v-23h15q13 0 13 11q0 12 -13 12
h-15zM1208 276h-457v7h457l-10 9q-3 3 -1 6l2 3l19 -17l2 -4q0 -2 -2 -4l-19 -18l-2 3q-1 2 1 6zM539 212q22 0 36 -14t14 -35q0 -22 -14 -36t-36 -14t-36.5 14t-14.5 36q0 21 14.5 35t36.5 14zM830 177q29 -6 29 -32q0 -14 -10.5 -23t-26.5 -9q-20 0 -38 16l6 11q7 10 20 4
q8 -5 12 -5q9 0 9 6q0 4 -9 7q-31 10 -31 31q0 29 33 29q19 0 30 -11l-6 -10q-6 -11 -18 -6q-4 2 -6 2q-5 0 -5 -4q0 -3 11 -6zM955 186q-21 0 -21 -23q0 -24 21 -24q6 0 12 4q11 8 19 -2l7 -9q-12 -19 -37 -19q-22 0 -36.5 14t-14.5 36q0 21 14.5 35t36.5 14q25 0 37 -19
l-7 -9q-8 -10 -19 -2q-8 4 -12 4zM1050 212q22 0 36 -14t14 -35q0 -22 -14 -36t-36 -14t-36 14t-14 36q0 21 14 35t36 14zM93 185h-26v26h75v-13q0 -8 -3 -11l-38 -51q5 5 12 5h28v-27h-78v13q0 7 5 13l36 48q-3 -3 -11 -3zM221 114h-67v97h67v-26h-38v-10h31v-24h-31v-10
h38v-27zM228 211h77v-26h-24v-71h-28v71h-25v26zM295 114l43 97h24l43 -97h-22q-8 0 -13 10l-3 6h-34l-3 -6q-5 -10 -13 -10h-22zM442 114h-28v97h66v-26h-38v-13h32v-25h-32v-33zM665 177v34h28v-97h-21q-5 0 -9 6l-34 50h-1q3 -9 3 -17v-39h-27v97h21q7 0 13 -9l29 -43
q-2 7 -2 18zM729 185h-25v26h77v-26h-24v-71h-28v71zM1174 167l18 35q3 9 11 9h25v-97h-28v42q0 8 3 15l-20 -41q-3 -7 -11 -7q-9 0 -12 7l-20 41q3 -7 3 -15v-42h-29v97h25q6 0 12 -9l17 -35q3 -5 3 -11h1q0 5 2 11zM539 139q10 0 16 6.5t6 17.5q0 10 -6 16.5t-16 6.5
t-16 -6.5t-6 -16.5q0 -11 6 -17.5t16 -6.5zM1050 139q10 0 16 6.5t6 17.5q0 10 -6 16.5t-16 6.5t-16 -6.5t-6 -16.5q0 -11 6 -17.5t16 -6.5zM346 162l-5 -13h18l-5 13q-4 8 -4 19q0 -11 -4 -19zM882 143q14 0 14 -16q0 -14 -14 -14q-15 0 -15 14q0 7 4.5 11.5t10.5 4.5z" />
    <glyph glyph-name="six" unicode="6" horiz-adv-x="1301" 
d="M795 504h443v-162h-1174v162h444v1q0 8 1 12v2v1q0 4 2 12q0 3 2 9q12 47 50 77t88 30q59 0 101.5 -42t42.5 -101v-1zM653 371q55 0 93 38.5t38 93.5q0 54 -38 92.5t-93 38.5t-93.5 -38.5t-38.5 -92.5q0 -55 38.5 -93.5t93.5 -38.5zM713 602q8 -7 17 -11h-159q6 5 18 13
q11 5 20 8q18 9 42 9q23 0 44 -9q12 -6 18 -10zM742 427h-155l152 155q31 -40 31 -78q0 -21 -7 -41q-5 -17 -21 -36zM562 577h154l-153 -154q-15 16 -22 38q-8 22 -8 43q0 6 2 18t7 22q4 19 20 33zM145 450h25v27h-81v-27h26v-75h30v75zM245 375h26l-18 32q-8 10 -19 10h3
q9 0 16.5 7t7.5 17q0 16 -10.5 26t-25.5 10h-42v-102h29v31h8l13 -22q3 -9 12 -9zM282 375h30v102h-30v-102zM413 375h23l-44 102h-27l-44 -102h23q7 0 14 10l2 7h36l4 -7q3 -10 13 -10zM446 375h64v27h-35v75h-29v-102zM870 372q23 0 38 14.5t15 37.5t-15 38t-38 15
t-37.5 -15t-14.5 -38q0 -22 15 -37t37 -15zM1010 374h22v101h-29v-35q0 -12 3 -20h-1l-30 46q-6 9 -13 9h-24v-101h29l1 40q0 10 -4 19l36 -53q5 -6 10 -6zM1052 374h65v26h-35v75h-30v-101zM1177 414l37 61h-27q-9 0 -13 -7l-10 -19q-4 -8 -4 -17h-1q0 8 -4 17l-10 19
q-4 7 -13 7h-27l37 -61q3 -3 3 -10v-30h29v30q0 6 3 10zM212 449h11q7 0 7 -8q0 -7 -7 -7h-11v15zM870 449q10 0 17 -7t7 -18q0 -10 -7 -17t-17 -7t-16.5 7t-6.5 17q0 11 6.5 18t16.5 7zM378 445h1q0 -10 3 -19l6 -13h-19l6 13q0 1 1.5 7.5t1.5 11.5zM610 392q-17 7 -37 22
h157q-3 -3 -9 -7t-8 -6q-9 -6 -18 -9q-17 -4 -22 -5q-11 -3 -22 -3q-22 0 -41 8zM109 313v-8h-33v-23h28v-7h-28v-29h-7v67h40zM173 313v-41q0 -27 -27 -27q-11 0 -18.5 7.5t-7.5 19.5v41h8v-41q0 -20 18 -20q20 0 20 20v41h7zM191 246v67h7v-60h30v-7h-37zM241 246v67h8
v-60h30v-7h-38zM376 313l-29 -67h-6l-29 67h4q4 0 5 -3l21 -49q2 -6 2 -7q0 1 2 7l21 49q1 3 5 3h4zM427 313v-8h-33v-21h27v-8h-27v-23h33v-7h-41v67h41zM471 273l21 -27h-5q-3 0 -7 3l-20 25h-10v-28h-8v67h23q8 0 14 -5.5t6 -14.5q0 -7 -5 -12t-11 -6h-2q2 0 4 -2z
M517 252q15 0 15 13q0 7 -14 13q-18 7 -18 18q0 17 19 17q11 0 17 -6l-1 -2q-3 -3 -6 -2q-5 3 -10 3q-12 0 -12 -10q0 -5 13 -11q19 -6 19 -20q0 -20 -22 -20q-12 0 -20 10l2 2q1 1 2.5 1.5t2.5 -0.5q6 -4 13 -6zM554 246v67h7v-67h-7zM645 279q0 -14 -10 -24t-25 -10
q-14 0 -24 10t-10 24t10 24t24 10q15 0 25 -10t10 -24zM659 313h6q2 0 5 -2l36 -53q-1 2 -1 5v50h8v-67h-6q-1 0 -3 2l-38 55q0 -1 0.5 -2.5t0.5 -2.5v-52h-8v67zM583 279q0 -11 8 -19t19 -8t19 8t8 19t-8 19t-19 8t-19 -8t-8 -19zM450 305v-23h15q13 0 13 11q0 12 -13 12
h-15zM1208 276h-457v7h457l-10 9q-3 3 -1 6l2 3l19 -17l2 -4q0 -2 -2 -4l-19 -18l-2 3q-1 2 1 6zM539 212q22 0 36 -14t14 -35q0 -22 -14 -36t-36 -14t-36.5 14t-14.5 36q0 21 14.5 35t36.5 14zM830 177q29 -6 29 -32q0 -14 -10.5 -23t-26.5 -9q-20 0 -38 16l6 11q7 10 20 4
q8 -5 12 -5q9 0 9 6q0 4 -9 7q-31 10 -31 31q0 29 33 29q19 0 30 -11l-6 -10q-6 -11 -18 -6q-4 2 -6 2q-5 0 -5 -4q0 -3 11 -6zM955 186q-21 0 -21 -23q0 -24 21 -24q6 0 12 4q11 8 19 -2l7 -9q-12 -19 -37 -19q-22 0 -36.5 14t-14.5 36q0 21 14.5 35t36.5 14q25 0 37 -19
l-7 -9q-8 -10 -19 -2q-8 4 -12 4zM1050 212q22 0 36 -14t14 -35q0 -22 -14 -36t-36 -14t-36 14t-14 36q0 21 14 35t36 14zM93 185h-26v26h75v-13q0 -8 -3 -11l-38 -51q5 5 12 5h28v-27h-78v13q0 7 5 13l36 48q-3 -3 -11 -3zM221 114h-67v97h67v-26h-38v-10h31v-24h-31v-10
h38v-27zM228 211h77v-26h-24v-71h-28v71h-25v26zM295 114l43 97h24l43 -97h-22q-8 0 -13 10l-3 6h-34l-3 -6q-5 -10 -13 -10h-22zM442 114h-28v97h66v-26h-38v-13h32v-25h-32v-33zM665 177v34h28v-97h-21q-5 0 -9 6l-34 50h-1q3 -9 3 -17v-39h-27v97h21q7 0 13 -9l29 -43
q-2 7 -2 18zM729 185h-25v26h77v-26h-24v-71h-28v71zM1174 167l18 35q3 9 11 9h25v-97h-28v42q0 8 3 15l-20 -41q-3 -7 -11 -7q-9 0 -12 7l-20 41q3 -7 3 -15v-42h-29v97h25q6 0 12 -9l17 -35q3 -5 3 -11h1q0 5 2 11zM539 139q10 0 16 6.5t6 17.5q0 10 -6 16.5t-16 6.5
t-16 -6.5t-6 -16.5q0 -11 6 -17.5t16 -6.5zM1050 139q10 0 16 6.5t6 17.5q0 10 -6 16.5t-16 6.5t-16 -6.5t-6 -16.5q0 -11 6 -17.5t16 -6.5zM346 162l-5 -13h18l-5 13q-4 8 -4 19q0 -11 -4 -19zM882 143q14 0 14 -16q0 -14 -14 -14q-15 0 -15 14q0 7 4.5 11.5t10.5 4.5z" />
    <glyph glyph-name="seven" unicode="7" horiz-adv-x="1301" 
d="M795 504h443v-162h-1174v162h444v1q0 8 1 12v2v1q0 4 2 12q0 3 2 9q12 47 50 77t88 30q59 0 101.5 -42t42.5 -101v-1zM653 371q55 0 93 38.5t38 93.5q0 54 -38 92.5t-93 38.5t-93.5 -38.5t-38.5 -92.5q0 -55 38.5 -93.5t93.5 -38.5zM713 602q8 -7 17 -11h-159q6 5 18 13
q11 5 20 8q18 9 42 9q23 0 44 -9q12 -6 18 -10zM742 427h-155l152 155q31 -40 31 -78q0 -21 -7 -41q-5 -17 -21 -36zM562 577h154l-153 -154q-15 16 -22 38q-8 22 -8 43q0 6 2 18t7 22q4 19 20 33zM145 450h25v27h-81v-27h26v-75h30v75zM245 375h26l-18 32q-8 10 -19 10h3
q9 0 16.5 7t7.5 17q0 16 -10.5 26t-25.5 10h-42v-102h29v31h8l13 -22q3 -9 12 -9zM282 375h30v102h-30v-102zM413 375h23l-44 102h-27l-44 -102h23q7 0 14 10l2 7h36l4 -7q3 -10 13 -10zM446 375h64v27h-35v75h-29v-102zM870 372q23 0 38 14.5t15 37.5t-15 38t-38 15
t-37.5 -15t-14.5 -38q0 -22 15 -37t37 -15zM1010 374h22v101h-29v-35q0 -12 3 -20h-1l-30 46q-6 9 -13 9h-24v-101h29l1 40q0 10 -4 19l36 -53q5 -6 10 -6zM1052 374h65v26h-35v75h-30v-101zM1177 414l37 61h-27q-9 0 -13 -7l-10 -19q-4 -8 -4 -17h-1q0 8 -4 17l-10 19
q-4 7 -13 7h-27l37 -61q3 -3 3 -10v-30h29v30q0 6 3 10zM212 449h11q7 0 7 -8q0 -7 -7 -7h-11v15zM870 449q10 0 17 -7t7 -18q0 -10 -7 -17t-17 -7t-16.5 7t-6.5 17q0 11 6.5 18t16.5 7zM378 445h1q0 -10 3 -19l6 -13h-19l6 13q0 1 1.5 7.5t1.5 11.5zM610 392q-17 7 -37 22
h157q-3 -3 -9 -7t-8 -6q-9 -6 -18 -9q-17 -4 -22 -5q-11 -3 -22 -3q-22 0 -41 8zM109 313v-8h-33v-23h28v-7h-28v-29h-7v67h40zM173 313v-41q0 -27 -27 -27q-11 0 -18.5 7.5t-7.5 19.5v41h8v-41q0 -20 18 -20q20 0 20 20v41h7zM191 246v67h7v-60h30v-7h-37zM241 246v67h8
v-60h30v-7h-38zM376 313l-29 -67h-6l-29 67h4q4 0 5 -3l21 -49q2 -6 2 -7q0 1 2 7l21 49q1 3 5 3h4zM427 313v-8h-33v-21h27v-8h-27v-23h33v-7h-41v67h41zM471 273l21 -27h-5q-3 0 -7 3l-20 25h-10v-28h-8v67h23q8 0 14 -5.5t6 -14.5q0 -7 -5 -12t-11 -6h-2q2 0 4 -2z
M517 252q15 0 15 13q0 7 -14 13q-18 7 -18 18q0 17 19 17q11 0 17 -6l-1 -2q-3 -3 -6 -2q-5 3 -10 3q-12 0 -12 -10q0 -5 13 -11q19 -6 19 -20q0 -20 -22 -20q-12 0 -20 10l2 2q1 1 2.5 1.5t2.5 -0.5q6 -4 13 -6zM554 246v67h7v-67h-7zM645 279q0 -14 -10 -24t-25 -10
q-14 0 -24 10t-10 24t10 24t24 10q15 0 25 -10t10 -24zM659 313h6q2 0 5 -2l36 -53q-1 2 -1 5v50h8v-67h-6q-1 0 -3 2l-38 55q0 -1 0.5 -2.5t0.5 -2.5v-52h-8v67zM583 279q0 -11 8 -19t19 -8t19 8t8 19t-8 19t-19 8t-19 -8t-8 -19zM450 305v-23h15q13 0 13 11q0 12 -13 12
h-15zM1208 276h-457v7h457l-10 9q-3 3 -1 6l2 3l19 -17l2 -4q0 -2 -2 -4l-19 -18l-2 3q-1 2 1 6zM539 212q22 0 36 -14t14 -35q0 -22 -14 -36t-36 -14t-36.5 14t-14.5 36q0 21 14.5 35t36.5 14zM830 177q29 -6 29 -32q0 -14 -10.5 -23t-26.5 -9q-20 0 -38 16l6 11q7 10 20 4
q8 -5 12 -5q9 0 9 6q0 4 -9 7q-31 10 -31 31q0 29 33 29q19 0 30 -11l-6 -10q-6 -11 -18 -6q-4 2 -6 2q-5 0 -5 -4q0 -3 11 -6zM955 186q-21 0 -21 -23q0 -24 21 -24q6 0 12 4q11 8 19 -2l7 -9q-12 -19 -37 -19q-22 0 -36.5 14t-14.5 36q0 21 14.5 35t36.5 14q25 0 37 -19
l-7 -9q-8 -10 -19 -2q-8 4 -12 4zM1050 212q22 0 36 -14t14 -35q0 -22 -14 -36t-36 -14t-36 14t-14 36q0 21 14 35t36 14zM93 185h-26v26h75v-13q0 -8 -3 -11l-38 -51q5 5 12 5h28v-27h-78v13q0 7 5 13l36 48q-3 -3 -11 -3zM221 114h-67v97h67v-26h-38v-10h31v-24h-31v-10
h38v-27zM228 211h77v-26h-24v-71h-28v71h-25v26zM295 114l43 97h24l43 -97h-22q-8 0 -13 10l-3 6h-34l-3 -6q-5 -10 -13 -10h-22zM442 114h-28v97h66v-26h-38v-13h32v-25h-32v-33zM665 177v34h28v-97h-21q-5 0 -9 6l-34 50h-1q3 -9 3 -17v-39h-27v97h21q7 0 13 -9l29 -43
q-2 7 -2 18zM729 185h-25v26h77v-26h-24v-71h-28v71zM1174 167l18 35q3 9 11 9h25v-97h-28v42q0 8 3 15l-20 -41q-3 -7 -11 -7q-9 0 -12 7l-20 41q3 -7 3 -15v-42h-29v97h25q6 0 12 -9l17 -35q3 -5 3 -11h1q0 5 2 11zM539 139q10 0 16 6.5t6 17.5q0 10 -6 16.5t-16 6.5
t-16 -6.5t-6 -16.5q0 -11 6 -17.5t16 -6.5zM1050 139q10 0 16 6.5t6 17.5q0 10 -6 16.5t-16 6.5t-16 -6.5t-6 -16.5q0 -11 6 -17.5t16 -6.5zM346 162l-5 -13h18l-5 13q-4 8 -4 19q0 -11 -4 -19zM882 143q14 0 14 -16q0 -14 -14 -14q-15 0 -15 14q0 7 4.5 11.5t10.5 4.5z" />
    <glyph glyph-name="eight" unicode="8" horiz-adv-x="1301" 
d="M795 504h443v-162h-1174v162h444v1q0 8 1 12v2v1q0 4 2 12q0 3 2 9q12 47 50 77t88 30q59 0 101.5 -42t42.5 -101v-1zM653 371q55 0 93 38.5t38 93.5q0 54 -38 92.5t-93 38.5t-93.5 -38.5t-38.5 -92.5q0 -55 38.5 -93.5t93.5 -38.5zM713 602q8 -7 17 -11h-159q6 5 18 13
q11 5 20 8q18 9 42 9q23 0 44 -9q12 -6 18 -10zM742 427h-155l152 155q31 -40 31 -78q0 -21 -7 -41q-5 -17 -21 -36zM562 577h154l-153 -154q-15 16 -22 38q-8 22 -8 43q0 6 2 18t7 22q4 19 20 33zM145 450h25v27h-81v-27h26v-75h30v75zM245 375h26l-18 32q-8 10 -19 10h3
q9 0 16.5 7t7.5 17q0 16 -10.5 26t-25.5 10h-42v-102h29v31h8l13 -22q3 -9 12 -9zM282 375h30v102h-30v-102zM413 375h23l-44 102h-27l-44 -102h23q7 0 14 10l2 7h36l4 -7q3 -10 13 -10zM446 375h64v27h-35v75h-29v-102zM870 372q23 0 38 14.5t15 37.5t-15 38t-38 15
t-37.5 -15t-14.5 -38q0 -22 15 -37t37 -15zM1010 374h22v101h-29v-35q0 -12 3 -20h-1l-30 46q-6 9 -13 9h-24v-101h29l1 40q0 10 -4 19l36 -53q5 -6 10 -6zM1052 374h65v26h-35v75h-30v-101zM1177 414l37 61h-27q-9 0 -13 -7l-10 -19q-4 -8 -4 -17h-1q0 8 -4 17l-10 19
q-4 7 -13 7h-27l37 -61q3 -3 3 -10v-30h29v30q0 6 3 10zM212 449h11q7 0 7 -8q0 -7 -7 -7h-11v15zM870 449q10 0 17 -7t7 -18q0 -10 -7 -17t-17 -7t-16.5 7t-6.5 17q0 11 6.5 18t16.5 7zM378 445h1q0 -10 3 -19l6 -13h-19l6 13q0 1 1.5 7.5t1.5 11.5zM610 392q-17 7 -37 22
h157q-3 -3 -9 -7t-8 -6q-9 -6 -18 -9q-17 -4 -22 -5q-11 -3 -22 -3q-22 0 -41 8zM109 313v-8h-33v-23h28v-7h-28v-29h-7v67h40zM173 313v-41q0 -27 -27 -27q-11 0 -18.5 7.5t-7.5 19.5v41h8v-41q0 -20 18 -20q20 0 20 20v41h7zM191 246v67h7v-60h30v-7h-37zM241 246v67h8
v-60h30v-7h-38zM376 313l-29 -67h-6l-29 67h4q4 0 5 -3l21 -49q2 -6 2 -7q0 1 2 7l21 49q1 3 5 3h4zM427 313v-8h-33v-21h27v-8h-27v-23h33v-7h-41v67h41zM471 273l21 -27h-5q-3 0 -7 3l-20 25h-10v-28h-8v67h23q8 0 14 -5.5t6 -14.5q0 -7 -5 -12t-11 -6h-2q2 0 4 -2z
M517 252q15 0 15 13q0 7 -14 13q-18 7 -18 18q0 17 19 17q11 0 17 -6l-1 -2q-3 -3 -6 -2q-5 3 -10 3q-12 0 -12 -10q0 -5 13 -11q19 -6 19 -20q0 -20 -22 -20q-12 0 -20 10l2 2q1 1 2.5 1.5t2.5 -0.5q6 -4 13 -6zM554 246v67h7v-67h-7zM645 279q0 -14 -10 -24t-25 -10
q-14 0 -24 10t-10 24t10 24t24 10q15 0 25 -10t10 -24zM659 313h6q2 0 5 -2l36 -53q-1 2 -1 5v50h8v-67h-6q-1 0 -3 2l-38 55q0 -1 0.5 -2.5t0.5 -2.5v-52h-8v67zM583 279q0 -11 8 -19t19 -8t19 8t8 19t-8 19t-19 8t-19 -8t-8 -19zM450 305v-23h15q13 0 13 11q0 12 -13 12
h-15zM1208 276h-457v7h457l-10 9q-3 3 -1 6l2 3l19 -17l2 -4q0 -2 -2 -4l-19 -18l-2 3q-1 2 1 6zM539 212q22 0 36 -14t14 -35q0 -22 -14 -36t-36 -14t-36.5 14t-14.5 36q0 21 14.5 35t36.5 14zM830 177q29 -6 29 -32q0 -14 -10.5 -23t-26.5 -9q-20 0 -38 16l6 11q7 10 20 4
q8 -5 12 -5q9 0 9 6q0 4 -9 7q-31 10 -31 31q0 29 33 29q19 0 30 -11l-6 -10q-6 -11 -18 -6q-4 2 -6 2q-5 0 -5 -4q0 -3 11 -6zM955 186q-21 0 -21 -23q0 -24 21 -24q6 0 12 4q11 8 19 -2l7 -9q-12 -19 -37 -19q-22 0 -36.5 14t-14.5 36q0 21 14.5 35t36.5 14q25 0 37 -19
l-7 -9q-8 -10 -19 -2q-8 4 -12 4zM1050 212q22 0 36 -14t14 -35q0 -22 -14 -36t-36 -14t-36 14t-14 36q0 21 14 35t36 14zM93 185h-26v26h75v-13q0 -8 -3 -11l-38 -51q5 5 12 5h28v-27h-78v13q0 7 5 13l36 48q-3 -3 -11 -3zM221 114h-67v97h67v-26h-38v-10h31v-24h-31v-10
h38v-27zM228 211h77v-26h-24v-71h-28v71h-25v26zM295 114l43 97h24l43 -97h-22q-8 0 -13 10l-3 6h-34l-3 -6q-5 -10 -13 -10h-22zM442 114h-28v97h66v-26h-38v-13h32v-25h-32v-33zM665 177v34h28v-97h-21q-5 0 -9 6l-34 50h-1q3 -9 3 -17v-39h-27v97h21q7 0 13 -9l29 -43
q-2 7 -2 18zM729 185h-25v26h77v-26h-24v-71h-28v71zM1174 167l18 35q3 9 11 9h25v-97h-28v42q0 8 3 15l-20 -41q-3 -7 -11 -7q-9 0 -12 7l-20 41q3 -7 3 -15v-42h-29v97h25q6 0 12 -9l17 -35q3 -5 3 -11h1q0 5 2 11zM539 139q10 0 16 6.5t6 17.5q0 10 -6 16.5t-16 6.5
t-16 -6.5t-6 -16.5q0 -11 6 -17.5t16 -6.5zM1050 139q10 0 16 6.5t6 17.5q0 10 -6 16.5t-16 6.5t-16 -6.5t-6 -16.5q0 -11 6 -17.5t16 -6.5zM346 162l-5 -13h18l-5 13q-4 8 -4 19q0 -11 -4 -19zM882 143q14 0 14 -16q0 -14 -14 -14q-15 0 -15 14q0 7 4.5 11.5t10.5 4.5z" />
    <glyph glyph-name="nine" unicode="9" horiz-adv-x="1301" 
d="M795 504h443v-162h-1174v162h444v1q0 8 1 12v2v1q0 4 2 12q0 3 2 9q12 47 50 77t88 30q59 0 101.5 -42t42.5 -101v-1zM653 371q55 0 93 38.5t38 93.5q0 54 -38 92.5t-93 38.5t-93.5 -38.5t-38.5 -92.5q0 -55 38.5 -93.5t93.5 -38.5zM713 602q8 -7 17 -11h-159q6 5 18 13
q11 5 20 8q18 9 42 9q23 0 44 -9q12 -6 18 -10zM742 427h-155l152 155q31 -40 31 -78q0 -21 -7 -41q-5 -17 -21 -36zM562 577h154l-153 -154q-15 16 -22 38q-8 22 -8 43q0 6 2 18t7 22q4 19 20 33zM145 450h25v27h-81v-27h26v-75h30v75zM245 375h26l-18 32q-8 10 -19 10h3
q9 0 16.5 7t7.5 17q0 16 -10.5 26t-25.5 10h-42v-102h29v31h8l13 -22q3 -9 12 -9zM282 375h30v102h-30v-102zM413 375h23l-44 102h-27l-44 -102h23q7 0 14 10l2 7h36l4 -7q3 -10 13 -10zM446 375h64v27h-35v75h-29v-102zM870 372q23 0 38 14.5t15 37.5t-15 38t-38 15
t-37.5 -15t-14.5 -38q0 -22 15 -37t37 -15zM1010 374h22v101h-29v-35q0 -12 3 -20h-1l-30 46q-6 9 -13 9h-24v-101h29l1 40q0 10 -4 19l36 -53q5 -6 10 -6zM1052 374h65v26h-35v75h-30v-101zM1177 414l37 61h-27q-9 0 -13 -7l-10 -19q-4 -8 -4 -17h-1q0 8 -4 17l-10 19
q-4 7 -13 7h-27l37 -61q3 -3 3 -10v-30h29v30q0 6 3 10zM212 449h11q7 0 7 -8q0 -7 -7 -7h-11v15zM870 449q10 0 17 -7t7 -18q0 -10 -7 -17t-17 -7t-16.5 7t-6.5 17q0 11 6.5 18t16.5 7zM378 445h1q0 -10 3 -19l6 -13h-19l6 13q0 1 1.5 7.5t1.5 11.5zM610 392q-17 7 -37 22
h157q-3 -3 -9 -7t-8 -6q-9 -6 -18 -9q-17 -4 -22 -5q-11 -3 -22 -3q-22 0 -41 8zM109 313v-8h-33v-23h28v-7h-28v-29h-7v67h40zM173 313v-41q0 -27 -27 -27q-11 0 -18.5 7.5t-7.5 19.5v41h8v-41q0 -20 18 -20q20 0 20 20v41h7zM191 246v67h7v-60h30v-7h-37zM241 246v67h8
v-60h30v-7h-38zM376 313l-29 -67h-6l-29 67h4q4 0 5 -3l21 -49q2 -6 2 -7q0 1 2 7l21 49q1 3 5 3h4zM427 313v-8h-33v-21h27v-8h-27v-23h33v-7h-41v67h41zM471 273l21 -27h-5q-3 0 -7 3l-20 25h-10v-28h-8v67h23q8 0 14 -5.5t6 -14.5q0 -7 -5 -12t-11 -6h-2q2 0 4 -2z
M517 252q15 0 15 13q0 7 -14 13q-18 7 -18 18q0 17 19 17q11 0 17 -6l-1 -2q-3 -3 -6 -2q-5 3 -10 3q-12 0 -12 -10q0 -5 13 -11q19 -6 19 -20q0 -20 -22 -20q-12 0 -20 10l2 2q1 1 2.5 1.5t2.5 -0.5q6 -4 13 -6zM554 246v67h7v-67h-7zM645 279q0 -14 -10 -24t-25 -10
q-14 0 -24 10t-10 24t10 24t24 10q15 0 25 -10t10 -24zM659 313h6q2 0 5 -2l36 -53q-1 2 -1 5v50h8v-67h-6q-1 0 -3 2l-38 55q0 -1 0.5 -2.5t0.5 -2.5v-52h-8v67zM583 279q0 -11 8 -19t19 -8t19 8t8 19t-8 19t-19 8t-19 -8t-8 -19zM450 305v-23h15q13 0 13 11q0 12 -13 12
h-15zM1208 276h-457v7h457l-10 9q-3 3 -1 6l2 3l19 -17l2 -4q0 -2 -2 -4l-19 -18l-2 3q-1 2 1 6zM539 212q22 0 36 -14t14 -35q0 -22 -14 -36t-36 -14t-36.5 14t-14.5 36q0 21 14.5 35t36.5 14zM830 177q29 -6 29 -32q0 -14 -10.5 -23t-26.5 -9q-20 0 -38 16l6 11q7 10 20 4
q8 -5 12 -5q9 0 9 6q0 4 -9 7q-31 10 -31 31q0 29 33 29q19 0 30 -11l-6 -10q-6 -11 -18 -6q-4 2 -6 2q-5 0 -5 -4q0 -3 11 -6zM955 186q-21 0 -21 -23q0 -24 21 -24q6 0 12 4q11 8 19 -2l7 -9q-12 -19 -37 -19q-22 0 -36.5 14t-14.5 36q0 21 14.5 35t36.5 14q25 0 37 -19
l-7 -9q-8 -10 -19 -2q-8 4 -12 4zM1050 212q22 0 36 -14t14 -35q0 -22 -14 -36t-36 -14t-36 14t-14 36q0 21 14 35t36 14zM93 185h-26v26h75v-13q0 -8 -3 -11l-38 -51q5 5 12 5h28v-27h-78v13q0 7 5 13l36 48q-3 -3 -11 -3zM221 114h-67v97h67v-26h-38v-10h31v-24h-31v-10
h38v-27zM228 211h77v-26h-24v-71h-28v71h-25v26zM295 114l43 97h24l43 -97h-22q-8 0 -13 10l-3 6h-34l-3 -6q-5 -10 -13 -10h-22zM442 114h-28v97h66v-26h-38v-13h32v-25h-32v-33zM665 177v34h28v-97h-21q-5 0 -9 6l-34 50h-1q3 -9 3 -17v-39h-27v97h21q7 0 13 -9l29 -43
q-2 7 -2 18zM729 185h-25v26h77v-26h-24v-71h-28v71zM1174 167l18 35q3 9 11 9h25v-97h-28v42q0 8 3 15l-20 -41q-3 -7 -11 -7q-9 0 -12 7l-20 41q3 -7 3 -15v-42h-29v97h25q6 0 12 -9l17 -35q3 -5 3 -11h1q0 5 2 11zM539 139q10 0 16 6.5t6 17.5q0 10 -6 16.5t-16 6.5
t-16 -6.5t-6 -16.5q0 -11 6 -17.5t16 -6.5zM1050 139q10 0 16 6.5t6 17.5q0 10 -6 16.5t-16 6.5t-16 -6.5t-6 -16.5q0 -11 6 -17.5t16 -6.5zM346 162l-5 -13h18l-5 13q-4 8 -4 19q0 -11 -4 -19zM882 143q14 0 14 -16q0 -14 -14 -14q-15 0 -15 14q0 7 4.5 11.5t10.5 4.5z" />
    <glyph glyph-name="colon" unicode=":" horiz-adv-x="258" 
d="M201 422h-144v126h144v-126zM57 0v126h144v-126h-144z" />
    <glyph glyph-name="semicolon" unicode=";" horiz-adv-x="260" 
d="M207 422h-144v126h144v-126zM90 -137l-30 48q29 20 43 40t13 49h-59v126h139q9 -62 8.5 -104t-18 -73.5t-40 -50.5t-56.5 -35z" />
    <glyph glyph-name="less" unicode="&#x3c;" horiz-adv-x="562" 
d="M502 158l-44 -62l-398 244v43l401 245l41 -64l-344 -203z" />
    <glyph glyph-name="equal" unicode="=" horiz-adv-x="446" 
d="M415 509v-88h-384v88h384zM415 302v-89h-384v89h384z" />
    <glyph glyph-name="greater" unicode="&#x3e;" horiz-adv-x="562" 
d="M502 340l-398 -244l-44 62l344 203l-344 203l41 64l401 -245v-43z" />
    <glyph glyph-name="question" unicode="?" horiz-adv-x="546" 
d="M306 214h-112q-11 127 101 203q37 29 55 51.5t18 52.5q0 36 -31 55t-87 19q-84 0 -186 -66l-43 106q128 75 244 75q104 0 166 -48.5t62 -128.5q0 -36 -17 -68t-36 -50.5t-52 -45.5q-48 -42 -64 -72.5t-18 -82.5zM179 0v126h144v-126h-144z" />
    <glyph glyph-name="at" unicode="@" horiz-adv-x="978" 
d="M500 711q187 0 302.5 -114.5t115.5 -285.5q0 -105 -52 -173.5t-138 -68.5q-111 0 -138 84q-57 -70 -150 -70t-147 60.5t-48 155.5q6 92 67.5 152.5t152.5 60.5q90 0 147 -79l14 87l105 -16l-39 -238q-12 -58 -3 -87.5t50 -29.5q42 0 61.5 47t19.5 114q0 141 -88.5 222.5
t-232.5 81.5q-150 0 -245.5 -92.5t-95.5 -238.5q0 -149 95.5 -232t271.5 -83v-97q-129 0 -232 44t-168 139t-65 229q0 182 123 305t317 123zM465 185q53 0 84.5 29t35.5 83q4 53 -25.5 82t-81.5 29t-83.5 -30.5t-36.5 -81.5q-4 -52 26.5 -81.5t80.5 -29.5z" />
    <glyph glyph-name="A" unicode="A" horiz-adv-x="792" 
d="M775 0h-138l-56 129h-372l-56 -129h-136l314 700h129zM395 559l-137 -317h274z" />
    <glyph glyph-name="B" unicode="B" horiz-adv-x="761" 
d="M572 361q62 -17 99.5 -64t37.5 -110q0 -87 -69 -137t-189 -50h-359v700h349q111 0 175 -47t64 -129q0 -56 -29.5 -100t-78.5 -63zM415 585h-194v-175h194q72 0 104.5 22t32.5 66q0 46 -33 66.5t-104 20.5zM221 115h212q77 0 112 22t35 68q0 49 -37 70.5t-115 21.5h-207
v-182z" />
    <glyph glyph-name="C" unicode="C" horiz-adv-x="731" 
d="M432 -11q-159 0 -265.5 103.5t-106.5 257.5q0 155 105 258t263 103q169 0 277 -113l-85 -81q-73 78 -187 78q-103 0 -170.5 -68.5t-67.5 -175.5q0 -109 67.5 -177.5t169.5 -68.5q115 0 190 80l85 -79q-103 -117 -275 -117z" />
    <glyph glyph-name="D" unicode="D" horiz-adv-x="832" 
d="M387 0h-295v700h295q175 0 279.5 -95t104.5 -254q0 -160 -104 -255.5t-280 -95.5zM221 586v-472h161q117 0 185 62.5t68 173.5t-68 173.5t-186 62.5h-160z" />
    <glyph glyph-name="E" unicode="E" horiz-adv-x="701" 
d="M219 304v-190h431v-114h-558v700h548v-114h-421v-168h377v-114h-377z" />
    <glyph glyph-name="F" unicode="F" horiz-adv-x="658" 
d="M630 700v-114h-416v-204h367v-113h-367v-269h-129v700h545z" />
    <glyph glyph-name="G" unicode="G" horiz-adv-x="786" 
d="M434 -11q-163 0 -268.5 102t-105.5 258q0 158 104.5 260t266.5 102q161 0 271 -111l-83 -81q-76 76 -185 76q-106 0 -172.5 -67t-66.5 -179t67 -178t178 -66q92 0 159 52v203h116v-259q-114 -112 -281 -112z" />
    <glyph glyph-name="H" unicode="H" horiz-adv-x="805" 
d="M583 405v295h130v-700h-130v291h-361v-291h-130v700h130v-295h361z" />
    <glyph glyph-name="I" unicode="I" horiz-adv-x="313" 
d="M221 0h-129v700h129v-700z" />
    <glyph glyph-name="J" unicode="J" horiz-adv-x="582" 
d="M256 -11q-78 0 -142.5 34t-102.5 91l84 78q60 -86 154 -86q62 0 99.5 42t37.5 109v329h-240v114h365v-444q0 -120 -70 -193.5t-185 -73.5z" />
    <glyph glyph-name="K" unicode="K" horiz-adv-x="759" 
d="M734 0h-150l-218 312l-145 -159v-153h-129v700h129v-385l336 385h161l-265 -291z" />
    <glyph glyph-name="L" unicode="L" horiz-adv-x="624" 
d="M603 0h-511v700h128v-586h383v-114z" />
    <glyph glyph-name="M" unicode="M" horiz-adv-x="926" 
d="M463 294l252 406h119v-700h-129v468l-221 -339h-42l-221 340v-469h-129v700h120z" />
    <glyph glyph-name="N" unicode="N" horiz-adv-x="816" 
d="M221 0h-129v700h111l391 -477v477h130v-700h-108l-395 483v-483z" />
    <glyph glyph-name="O" unicode="O" horiz-adv-x="863" 
d="M431 -11q-161 0 -266 102t-105 259t105 259t267 102q161 0 266 -102t105 -259t-105 -259t-267 -102zM432 106q104 0 169.5 67t65.5 177t-65.5 177t-169.5 67q-105 0 -170.5 -67t-65.5 -177t65.5 -177t170.5 -67z" />
    <glyph glyph-name="P" unicode="P" horiz-adv-x="707" 
d="M371 700q140 0 220 -65t80 -179q0 -115 -81 -180.5t-221 -65.5h-148v-210h-129v700h279zM221 324h146q175 0 175 132q0 65 -45.5 97.5t-128.5 32.5h-147v-262z" />
    <glyph glyph-name="Q" unicode="Q" horiz-adv-x="863" 
d="M713 106q70 12 171 7v-112q-105 0 -245.5 -6t-205.5 -6h-2q-161 0 -266 102t-105 259t105 259t267 102q161 0 266 -102t105 -259q0 -145 -90 -244zM196 350q0 -110 65.5 -177t170.5 -67q104 0 169.5 67t65.5 177t-65.5 177t-169.5 67q-105 0 -170.5 -67t-65.5 -177z" />
    <glyph glyph-name="R" unicode="R" horiz-adv-x="721" 
d="M691 0h-163l-197 234h-110v-234h-129v700h289q142 0 221 -61.5t79 -172.5q0 -88 -50.5 -145t-144.5 -77zM378 586h-157v-239h156q87 0 131 27t44 90q0 122 -174 122z" />
    <glyph glyph-name="S" unicode="S" horiz-adv-x="648" 
d="M331 -11q-170 0 -293 100l59 99q119 -82 242 -82q64 0 99 23t35 59q0 43 -34 63t-123 39q-128 27 -193 78t-65 140q0 96 76 149.5t195 53.5q140 0 255 -83l-69 -94q-84 60 -193 60q-128 0 -128 -87q0 -38 35.5 -61t121.5 -42q137 -30 197.5 -74t60.5 -132
q0 -96 -77.5 -152.5t-200.5 -56.5z" />
    <glyph glyph-name="T" unicode="T" horiz-adv-x="651" 
d="M31 700h589v-114h-230v-586h-130v586h-229v114z" />
    <glyph glyph-name="U" unicode="U" horiz-adv-x="760" 
d="M380 -11q-142 0 -226 81.5t-84 222.5v407h130v-383q0 -93 47.5 -143t132.5 -50q86 0 134 50t48 143v383h128v-407q0 -141 -83 -222.5t-227 -81.5z" />
    <glyph glyph-name="V" unicode="V" horiz-adv-x="772" 
d="M450 0h-128l-305 700h138l229 -548h4l230 548h136z" />
    <glyph glyph-name="W" unicode="W" horiz-adv-x="1094" 
d="M777 160l163 540h136l-222 -700h-141l-165 484l-166 -484h-141l-224 700h138l164 -540l172 540h113z" />
    <glyph glyph-name="X" unicode="X" horiz-adv-x="743" 
d="M452 359l265 -359h-150l-195 262l-195 -262h-152l268 361l-253 339h152l180 -246l180 246h151z" />
    <glyph glyph-name="Y" unicode="Y" horiz-adv-x="708" 
d="M554 700h142l-277 -444v-256h-130v259l-277 441h142l201 -333z" />
    <glyph glyph-name="Z" unicode="Z" horiz-adv-x="700" 
d="M652 0h-601v81l414 505h-403v114h585v-81l-416 -505h421v-114z" />
    <glyph glyph-name="bracketleft" unicode="[" horiz-adv-x="356" 
d="M325 -178h-265v916h265v-96h-136v-724h136v-96z" />
    <glyph glyph-name="backslash" unicode="\" horiz-adv-x="637" 
d="M231 700l366 -811h-116l-367 811h117z" />
    <glyph glyph-name="bracketright" unicode="]" horiz-adv-x="356" 
d="M31 738h265v-916h-265v96h136v724h-136v96z" />
    <glyph glyph-name="asciicircum" unicode="^" horiz-adv-x="429" 
d="M269 741l100 -140l-100 -7l-54 90l-55 -90l-100 7l100 140h109z" />
    <glyph glyph-name="underscore" unicode="_" horiz-adv-x="516" 
d="M508 -33v-71h-497v71h497z" />
    <glyph glyph-name="grave" unicode="`" horiz-adv-x="330" 
d="M270 603l-88 -7l-122 130l117 24z" />
    <glyph glyph-name="a" unicode="a" horiz-adv-x="607" 
d="M285 559q128 0 192 -60t64 -170v-329h-124v65q-70 -76 -194 -76q-86 0 -138.5 49t-52.5 126q0 79 54 131t166 52q78 0 164 -9q-3 52 -39.5 80.5t-104.5 28.5q-38 0 -80 -16t-72 -43l-61 91q96 80 226 80zM264 100q61 0 104 37t48 92v9q-62 9 -134 9q-131 0 -131 -76
q0 -71 113 -71z" />
    <glyph glyph-name="b" unicode="b" horiz-adv-x="714" 
d="M399 559q114 0 191.5 -79t77.5 -205q0 -124 -78 -205t-190 -81q-121 0 -194 76v-65h-124v738h124v-254q72 75 193 75zM378 102q74 0 120 47.5t46 125.5q0 75 -46.5 122t-119.5 47q-77 0 -124.5 -45.5t-47.5 -124.5t48 -125.5t124 -46.5z" />
    <glyph glyph-name="c" unicode="c" horiz-adv-x="585" 
d="M344 -11q-127 0 -212.5 80t-85.5 204q0 125 85.5 205.5t212.5 80.5q135 0 218 -95l-88 -74q-51 56 -132 56q-73 0 -121.5 -45.5t-48.5 -126.5t49 -127t125 -46q80 0 128 57l88 -75q-82 -94 -218 -94z" />
    <glyph glyph-name="d" unicode="d" horiz-adv-x="716" 
d="M510 484v254h124v-738h-124v65q-73 -76 -194 -76q-112 0 -190 81t-78 205q0 126 77.5 205t191.5 79q121 0 193 -75zM338 102q76 0 124 46.5t48 125.5t-47.5 124.5t-124.5 45.5q-73 0 -119.5 -47t-46.5 -122q0 -78 46 -125.5t120 -47.5z" />
    <glyph glyph-name="e" unicode="e" horiz-adv-x="623" 
d="M594 225h-419q12 -58 59 -91t116 -33q90 0 139 55l80 -71q-90 -95 -225 -95q-130 0 -214 80t-84 204t80.5 203.5t209.5 79.5q116 0 190 -73t74 -185q0 -25 -6 -74zM335 447q-62 0 -104 -32t-54 -87h300q-21 119 -142 119z" />
    <glyph glyph-name="f" unicode="f" horiz-adv-x="464" 
d="M271 555v-8h177v-111h-177v-436h-125v436h-104v111h104v20q0 86 49 134.5t133 48.5q85 0 139 -24l-22 -108q-42 18 -92 18q-41 0 -61.5 -18t-20.5 -63z" />
    <glyph glyph-name="g" unicode="g" horiz-adv-x="643" 
d="M243 145h146q110 0 165 -40t55 -109q0 -81 -78 -129.5t-225 -48.5q-121 0 -188 37.5t-67 105.5q0 57 71 96q-48 29 -48 84q0 65 63 99q-62 50 -62 135t64.5 134.5t176.5 49.5q69 0 113 -20l143 48l28 -100l-80 -15q39 -37 39 -97q0 -86 -64.5 -136t-176.5 -50
q-54 0 -103 13q-19 -11 -19 -30q0 -27 47 -27zM317 453q-119 0 -119 -77q0 -81 119 -81t119 80q0 78 -119 78zM313 -71q88 0 129.5 13t41.5 47q0 28 -30 37t-101 9h-142q-34 -27 -34 -55q0 -30 32.5 -40.5t103.5 -10.5z" />
    <glyph glyph-name="h" unicode="h" horiz-adv-x="683" 
d="M395 559q101 0 161.5 -62t60.5 -169v-328h-124v311q0 133 -128 133q-69 0 -114 -49t-45 -125v-270h-124v738h124v-257q71 78 189 78z" />
    <glyph glyph-name="i" unicode="i" horiz-adv-x="276" 
d="M202 614h-129v120h129v-120zM200 0h-124v547h124v-547z" />
    <glyph glyph-name="j" unicode="j" horiz-adv-x="291" 
d="M216 614h-129v120h129v-120zM-63 -155l32 99q20 -10 46 -10q36 0 55.5 18.5t19.5 53.5v541h125v-551q0 -82 -51.5 -127t-132.5 -45q-51 0 -94 21z" />
    <glyph glyph-name="k" unicode="k" horiz-adv-x="665" 
d="M655 0h-147l-191 233l-111 -113v-120h-124v738h124v-469l255 278h162l-228 -233z" />
    <glyph glyph-name="l" unicode="l" horiz-adv-x="288" 
d="M206 0h-124v738h124v-738z" />
    <glyph glyph-name="m" unicode="m" horiz-adv-x="1045" 
d="M777 559q94 0 148 -60t54 -167v-332h-125v315q0 129 -111 129q-62 0 -107.5 -49.5t-45.5 -121.5v-273h-125v315q0 129 -112 129q-62 0 -107.5 -49.5t-45.5 -121.5v-273h-124v547h124v-68q75 80 187 80q130 0 180 -108q32 47 87 77.5t123 30.5z" />
    <glyph glyph-name="n" unicode="n" horiz-adv-x="677" 
d="M389 559q101 0 161.5 -62t60.5 -169v-328h-124v311q0 133 -128 133q-69 0 -114 -49t-45 -125v-270h-124v547h124v-66q71 78 189 78z" />
    <glyph glyph-name="o" unicode="o" 
d="M344 -11q-130 0 -214 80.5t-84 204.5t84.5 204.5t213.5 80.5q130 0 214.5 -80.5t84.5 -203.5q0 -124 -84.5 -205t-214.5 -81zM345 101q76 0 124 48t48 125q0 78 -48 125t-125 47q-76 0 -124.5 -47t-48.5 -124q0 -78 49 -126t125 -48z" />
    <glyph glyph-name="p" unicode="p" horiz-adv-x="708" 
d="M394 558q112 0 190 -81t78 -205q0 -126 -77.5 -204.5t-191.5 -78.5q-123 0 -193 75v-236h-124v719h124v-64q73 75 194 75zM372 103q73 0 119.5 47t46.5 122q0 78 -46 125.5t-120 47.5q-76 0 -124 -46.5t-48 -125.5t47.5 -124.5t124.5 -45.5z" />
    <glyph glyph-name="q" unicode="q" horiz-adv-x="707" 
d="M507 484v63h124v-719h-124v235q-72 -74 -192 -74q-114 0 -191.5 78.5t-77.5 204.5q0 124 78 205t190 81q121 0 193 -74zM336 103q71 0 117.5 39.5t53.5 109.5v42q-7 70 -53.5 110.5t-117.5 40.5q-74 0 -120 -47.5t-46 -125.5q0 -75 46.5 -122t119.5 -47z" />
    <glyph glyph-name="r" unicode="r" horiz-adv-x="434" 
d="M356 554q23 0 53 -4l-4 -127q-25 7 -54 7q-71 0 -111 -55.5t-40 -148.5v-226h-124v547h124v-70q58 77 156 77z" />
    <glyph glyph-name="s" unicode="s" horiz-adv-x="543" 
d="M270 -10q-127 0 -240 66l51 102q96 -55 194 -55q110 0 110 54q0 27 -26.5 41t-101.5 27q-117 20 -163 58.5t-46 107.5q0 80 55 123.5t155 43.5q57 0 125 -16t107 -41l-50 -104q-83 48 -190 48q-76 0 -76 -44q0 -22 24 -35t94 -27q123 -26 170 -67.5t47 -109.5
q0 -81 -64.5 -126.5t-174.5 -45.5z" />
    <glyph glyph-name="t" unicode="t" horiz-adv-x="512" 
d="M448 122l24 -97q-63 -36 -153 -36q-85 0 -132 46t-47 132v269h-103v111h105l9 143h113v-143h187v-111h-187v-249q0 -40 21 -63.5t57 -23.5q59 0 106 22z" />
    <glyph glyph-name="u" unicode="u" horiz-adv-x="678" 
d="M477 277v270h124v-547h-124v66q-71 -78 -189 -78q-101 0 -161.5 62t-60.5 169v328h124v-311q0 -133 128 -133q69 0 114 49t45 125z" />
    <glyph glyph-name="v" unicode="v" horiz-adv-x="637" 
d="M386 0h-135l-229 547h136l160 -406h1l160 406h136z" />
    <glyph glyph-name="w" unicode="w" horiz-adv-x="932" 
d="M646 143l128 404h131l-187 -547h-139l-113 378l-113 -378h-138l-188 547h131l127 -404l117 404h126z" />
    <glyph glyph-name="x" unicode="x" horiz-adv-x="639" 
d="M393 281l221 -281h-143l-153 196l-153 -196h-140l219 279l-211 268h148l139 -184l138 184h144z" />
    <glyph glyph-name="y" unicode="y" horiz-adv-x="646" 
d="M329 141l160 406h136l-229 -547l-18 -41q-33 -76 -78 -108.5t-123 -32.5q-73 0 -126 34l37 91q44 -21 83 -21q35 0 52.5 15t33.5 53l5 11h-1l-230 546h136l161 -406h1z" />
    <glyph glyph-name="z" unicode="z" horiz-adv-x="559" 
d="M523 0h-486v75l308 360h-300v112h473v-74l-311 -361h316v-112z" />
    <glyph glyph-name="braceleft" unicode="{" horiz-adv-x="390" 
d="M359 737l1 -95q-68 -5 -89.5 -29.5t-18.5 -78.5q9 -132 9 -136q1 -58 -30.5 -86.5t-88.5 -31.5q120 -7 119 -119q0 -3 -9 -135q-3 -54 18.5 -78.5t89.5 -30.5l-1 -95q-79 0 -129 12t-74 37t-30 56t-1 77q12 120 12 150q1 44 -26.5 63.5t-79.5 19.5v86q52 0 79.5 19.5
t26.5 62.5q-1 36 -12 151q-5 46 1 76.5t30 55.5t74 37t129 12z" />
    <glyph glyph-name="bar" unicode="|" horiz-adv-x="294" 
d="M203 700v-799h-111v799h111z" />
    <glyph glyph-name="braceright" unicode="}" horiz-adv-x="390" 
d="M32 -177l-1 95q67 5 88.5 29.5t18.5 78.5q-9 132 -9 136q-1 58 30.5 86.5t88.5 31.5q-120 7 -119 119q0 3 9 135q3 55 -18.5 79t-88.5 30l1 95q79 0 129 -12t73.5 -37t29.5 -56t1 -77q-12 -120 -12 -150q-1 -44 26.5 -63.5t80.5 -19.5v-86q-53 0 -80.5 -19.5t-26.5 -62.5
q1 -36 12 -151q5 -46 -1 -76.5t-29.5 -55.5t-73.5 -37t-129 -12z" />
    <glyph glyph-name="asciitilde" unicode="~" horiz-adv-x="519" 
d="M98 571l-67 15q8 44 40.5 69t85.5 25q42 0 104 -19.5t87 -19.5q56 0 73 44l67 -15q-8 -44 -40.5 -69.5t-85.5 -25.5q-39 0 -102 20t-89 20q-56 0 -73 -44z" />
    <glyph glyph-name="uni00A0" unicode="&#xa0;" horiz-adv-x="291" 
 />
    <glyph glyph-name="exclamdown" unicode="&#xa1;" horiz-adv-x="258" 
d="M201 421h-144v126h144v-126zM191 -154h-125v282l19 206h88l18 -207v-281z" />
    <glyph glyph-name="cent" unicode="&#xa2;" horiz-adv-x="581" 
d="M407 436l-60 -335q79 0 127 57l88 -75q-82 -94 -218 -94h-16l-25 -139h-98l28 158q-85 30 -136 100.5t-51 164.5q0 121 81.5 201t202.5 85l24 133h98l-25 -144q80 -22 135 -84l-88 -74q-31 34 -67 46zM172 274q0 -106 81 -151l57 321q-62 -10 -100 -54.5t-38 -115.5z" />
    <glyph glyph-name="sterling" unicode="&#xa3;" horiz-adv-x="608" 
d="M448 277h-214v-179h333v-99h-533v76l83 18v184h-86v74h86v88q0 126 65.5 198t180.5 72q126 0 214 -97l-70 -74q-57 69 -134 69q-66 0 -102.5 -45.5t-36.5 -117.5v-93h214v-74z" />
    <glyph glyph-name="yen" unicode="&#xa5;" horiz-adv-x="708" 
d="M554 700h142l-240 -385h104v-73h-141v-54h141v-73h-141v-115h-130v115h-147v73h147v54h-147v73h112l-242 385h142l201 -333z" />
    <glyph glyph-name="brokenbar" unicode="&#xa6;" horiz-adv-x="281" 
d="M196 700v-308h-111v308h111zM196 223v-309h-111v309h111z" />
    <glyph glyph-name="section" unicode="&#xa7;" horiz-adv-x="657" 
d="M405 610q12 -49 51.5 -122.5t70 -147.5t30.5 -146q0 -96 -71 -150t-178 -54q-109 0 -217 56l33 85q62 -31 119 -40q-12 50 -52 123.5t-70.5 147.5t-30.5 146q0 96 71 149.5t179 53.5t216 -56l-33 -85q-60 31 -118 40zM345 90q105 17 105 109q0 46 -20 100t-45 96.5
t-50 102t-33 113.5q-105 -17 -105 -109q0 -59 32 -126.5t69.5 -142.5t46.5 -143z" />
    <glyph glyph-name="dieresis" unicode="&#xa8;" horiz-adv-x="379" 
d="M150 614h-90v120h90v-120zM319 614h-89v120h89v-120z" />
    <glyph glyph-name="copyright" unicode="&#xa9;" horiz-adv-x="834" 
d="M417 -6q-148 0 -252.5 104.5t-104.5 252.5t104.5 252.5t252.5 104.5t252.5 -104.5t104.5 -252.5t-104.5 -252.5t-252.5 -104.5zM417 83q111 0 190 78.5t79 189.5t-79 189.5t-190 78.5q-110 0 -188.5 -78.5t-78.5 -189.5t78.5 -189.5t188.5 -78.5zM422 155q-87 0 -145 56
t-58 142q0 85 58 141.5t145 56.5q101 0 158 -65l-51 -50q-43 42 -101 42q-50 0 -84 -34.5t-34 -89.5q0 -56 34 -91.5t84 -35.5q55 0 101 46l51 -50q-56 -68 -158 -68z" />
    <glyph glyph-name="ordfeminine" unicode="&#xaa;" horiz-adv-x="335" 
d="M157 767q74 0 109.5 -33.5t35.5 -93.5v-160h-96v47q-12 -23 -37 -38t-52 -15q-44 0 -70.5 22.5t-26.5 61.5q0 45 30.5 72.5t84.5 27.5q41 0 71 -3q-3 42 -61 42q-41 0 -84 -17l-20 62q54 25 116 25zM151 543q24 0 39.5 14.5t15.5 39.5v7q-13 2 -45 2q-21 0 -34.5 -9
t-13.5 -21q0 -33 38 -33zM302 358h-276v76h276v-76z" />
    <glyph glyph-name="guillemotleft" unicode="&#xab;" horiz-adv-x="537" 
d="M282 71l-69 -35l-182 204v43l173 203l78 -36l-146 -189zM506 71l-78 -35l-189 220v9l189 221l78 -36l-146 -189z" />
    <glyph glyph-name="logicalnot" unicode="&#xac;" horiz-adv-x="459" 
d="M31 299v97h398v-223h-98v126h-300z" />
    <glyph glyph-name="uni00AD" unicode="&#xad;" horiz-adv-x="446" 
d="M415 274v-97h-384v97h384z" />
    <glyph glyph-name="registered" unicode="&#xae;" horiz-adv-x="430" 
d="M214 711q65 0 110.5 -45t45.5 -109q0 -65 -45.5 -110t-110.5 -45q-64 0 -109 45.5t-45 109.5t45 109t109 45zM214 423q56 0 95 39.5t39 94.5t-39.5 94t-94.5 39t-94 -39t-39 -94t39 -94.5t94 -39.5zM297 590q0 -43 -46 -56l49 -58h-44l-43 55h-28v-55h-37v172h72
q36 0 56.5 -15.5t20.5 -42.5zM220 618h-35v-59h35q40 0 40 30q0 29 -40 29z" />
    <glyph glyph-name="macron" unicode="&#xaf;" horiz-adv-x="438" 
d="M377 631h-317v78h317v-78z" />
    <glyph glyph-name="degree" unicode="&#xb0;" horiz-adv-x="430" 
d="M214 402q-64 0 -109 45.5t-45 109.5t45 109t109 45q65 0 110.5 -45t45.5 -109q0 -65 -45.5 -110t-110.5 -45zM214 444q47 0 80 33t33 80q0 46 -33 78.5t-80 32.5q-46 0 -79 -32.5t-33 -78.5q0 -47 33 -80t79 -33z" />
    <glyph glyph-name="plusminus" unicode="&#xb1;" horiz-adv-x="517" 
d="M486 376v-97h-180v-124h173v-79h-433v79h163v124h-178v97h178v159h97v-159h180z" />
    <glyph glyph-name="acute" unicode="&#xb4;" horiz-adv-x="330" 
d="M289 726l-121 -130l-88 7l93 147z" />
    <glyph glyph-name="uni00B5" unicode="&#xb5;" horiz-adv-x="677" 
d="M477 277v270h124v-547h-124v66q-71 -78 -189 -78q-56 0 -98 19l3 -178h-124v346q-3 21 -3 44v328h124v-311q0 -133 128 -133q69 0 114 49t45 125z" />
    <glyph glyph-name="paragraph" unicode="&#xb6;" horiz-adv-x="760" 
d="M299 700h141v-820h-84v391h-56q-123 0 -193.5 57t-70.5 158q0 100 70 157t193 57zM585 -120v820h84v-820h-84z" />
    <glyph glyph-name="periodcentered" unicode="&#xb7;" horiz-adv-x="218" 
d="M46 323v110h126v-110h-126z" />
    <glyph glyph-name="cedilla" unicode="&#xb8;" horiz-adv-x="275" 
d="M173 7l-12 -46q31 -7 47.5 -24.5t16.5 -40.5q0 -33 -31 -52.5t-89 -19.5q-30 0 -65 7l14 66q21 -6 41 -6q27 0 27 15q0 26 -52 26l21 75h82z" />
    <glyph glyph-name="ordmasculine" unicode="&#xba;" horiz-adv-x="367" 
d="M184 473q-69 0 -114 42.5t-45 105.5t45 104.5t114 41.5t113.5 -41.5t44.5 -104.5t-44.5 -105.5t-113.5 -42.5zM184 550q26 0 43.5 20.5t17.5 50.5q0 29 -17.5 49.5t-43.5 20.5q-27 0 -44 -20.5t-17 -49.5q0 -30 17.5 -50.5t43.5 -20.5zM35 358v76h296v-76h-296z" />
    <glyph glyph-name="guillemotright" unicode="&#xbb;" horiz-adv-x="537" 
d="M298 256l-189 -220l-78 35l146 190l-146 189l78 36l189 -221v-9zM506 240l-182 -204l-69 35l146 190l-146 189l78 36l173 -203v-43z" />
    <glyph glyph-name="questiondown" unicode="&#xbf;" horiz-adv-x="546" 
d="M367 547v-126h-143v126h143zM240 334h113q9 -128 -102 -204q-25 -20 -37 -32t-24 -31.5t-12 -40.5q0 -36 31 -54.5t87 -18.5q84 0 187 65l43 -106q-129 -75 -245 -75q-104 0 -166 48.5t-62 129.5q0 36 17 68t36 50.5t52 45.5q48 40 64 71.5t18 83.5z" />
    <glyph glyph-name="Agrave" unicode="&#xc0;" horiz-adv-x="792" 
d="M353 874l84 -123l-87 -6l-105 104zM775 0h-138l-56 129h-372l-56 -129h-136l314 700h129zM395 559l-137 -317h274z" />
    <glyph glyph-name="Aacute" unicode="&#xc1;" horiz-adv-x="792" 
d="M438 874l108 -25l-105 -104l-87 6zM775 0h-138l-56 129h-372l-56 -129h-136l314 700h129zM395 559l-137 -317h274z" />
    <glyph glyph-name="Acircumflex" unicode="&#xc2;" horiz-adv-x="792" 
d="M455 750l-57 81l-58 -81l-106 6l106 127h115l106 -127zM775 0h-138l-56 129h-372l-56 -129h-136l314 700h129zM395 559l-137 -317h274z" />
    <glyph glyph-name="Atilde" unicode="&#xc3;" horiz-adv-x="792" 
d="M329 792q-20 0 -33 -13t-13 -35l-61 16q0 49 27 78t68 29q30 0 73.5 -20t59.5 -20q20 0 32.5 13t12.5 35l61 -16q0 -49 -26.5 -78t-67.5 -29q-30 0 -73 20t-60 20zM775 0h-138l-56 129h-372l-56 -129h-136l314 700h129zM395 559l-137 -317h274z" />
    <glyph glyph-name="Adieresis" unicode="&#xc4;" horiz-adv-x="792" 
d="M270 875h105v-116h-105v116zM430 875h105v-116h-105v116zM775 0h-138l-56 129h-372l-56 -129h-136l314 700h129zM395 559l-137 -317h274z" />
    <glyph glyph-name="Aring" unicode="&#xc5;" horiz-adv-x="792" 
d="M775 0h-138l-56 129h-372l-56 -129h-136l299 666q-52 36 -52 99q0 53 37 87.5t95 34.5t95.5 -34.5t37.5 -87.5q0 -65 -53 -100zM396 826q-26 0 -44 -17.5t-18 -43.5q0 -27 17.5 -44t44.5 -17t44.5 17t17.5 44q0 26 -18 43.5t-44 17.5zM395 559l-137 -317h274z" />
    <glyph glyph-name="AE" unicode="&#xc6;" horiz-adv-x="1108" 
d="M626 304v-190h431v-114h-558v158h-257l-90 -158h-135l391 700h639v-114h-421v-168h377v-114h-377zM488 592l-182 -321h193v321h-11z" />
    <glyph glyph-name="Ccedilla" unicode="&#xc7;" horiz-adv-x="731" 
d="M622 185l85 -79q-87 -100 -230 -115l-9 -34q31 -7 47.5 -24.5t16.5 -40.5q0 -33 -31 -52.5t-89 -19.5q-30 0 -65 7l14 66q21 -6 41 -6q27 0 27 15q0 26 -52 26l18 63q-146 13 -240.5 113.5t-94.5 245.5q0 155 105 258t263 103q169 0 277 -113l-85 -81q-73 78 -187 78
q-103 0 -170.5 -68.5t-67.5 -175.5q0 -109 67.5 -177.5t169.5 -68.5q115 0 190 80z" />
    <glyph glyph-name="Egrave" unicode="&#xc8;" horiz-adv-x="701" 
d="M303 874l84 -123l-87 -6l-105 104zM219 304v-190h431v-114h-558v700h548v-114h-421v-168h377v-114h-377z" />
    <glyph glyph-name="Eacute" unicode="&#xc9;" horiz-adv-x="701" 
d="M389 874l108 -25l-105 -104l-87 6zM219 304v-190h431v-114h-558v700h548v-114h-421v-168h377v-114h-377z" />
    <glyph glyph-name="Ecircumflex" unicode="&#xca;" horiz-adv-x="701" 
d="M406 750l-57 81l-58 -81l-106 6l106 127h115l106 -127zM219 304v-190h431v-114h-558v700h548v-114h-421v-168h377v-114h-377z" />
    <glyph glyph-name="Edieresis" unicode="&#xcb;" horiz-adv-x="701" 
d="M221 875h105v-116h-105v116zM381 875h105v-116h-105v116zM219 304v-190h431v-114h-558v700h548v-114h-421v-168h377v-114h-377z" />
    <glyph glyph-name="Igrave" unicode="&#xcc;" horiz-adv-x="313" 
d="M198 751l-87 -6l-105 104l108 25zM221 0h-129v700h129v-700z" />
    <glyph glyph-name="Iacute" unicode="&#xcd;" horiz-adv-x="313" 
d="M307 849l-105 -104l-87 6l84 123zM221 0h-129v700h129v-700z" />
    <glyph glyph-name="Icircumflex" unicode="&#xce;" horiz-adv-x="313" 
d="M216 750l-57 81l-58 -81l-106 6l106 127h115l106 -127zM221 0h-129v700h129v-700z" />
    <glyph glyph-name="Idieresis" unicode="&#xcf;" horiz-adv-x="313" 
d="M136 759h-105v116h105v-116zM296 759h-105v116h105v-116zM221 0h-129v700h129v-700z" />
    <glyph glyph-name="Eth" unicode="&#xd0;" horiz-adv-x="832" 
d="M92 700h295q175 0 279.5 -95t104.5 -254q0 -160 -104 -255.5t-280 -95.5h-295v309h-55v91h55v300zM221 114h161q117 0 185 62.5t68 173.5t-68 173.5t-186 62.5h-160v-186h208v-91h-208v-195z" />
    <glyph glyph-name="Ntilde" unicode="&#xd1;" horiz-adv-x="816" 
d="M295 744l-61 16q0 49 27 78t68 29q30 0 73.5 -20t59.5 -20q20 0 32.5 13t12.5 35l61 -16q0 -49 -26.5 -78t-67.5 -29q-30 0 -73 20t-60 20q-20 0 -33 -13t-13 -35zM221 0h-129v700h111l391 -477v477h130v-700h-108l-395 483v-483z" />
    <glyph glyph-name="Ograve" unicode="&#xd2;" horiz-adv-x="863" 
d="M473 751l-87 -6l-105 104l108 25zM431 -11q-161 0 -266 102t-105 259t105 259t267 102q161 0 266 -102t105 -259t-105 -259t-267 -102zM432 106q104 0 169.5 67t65.5 177t-65.5 177t-169.5 67q-105 0 -170.5 -67t-65.5 -177t65.5 -177t170.5 -67z" />
    <glyph glyph-name="Oacute" unicode="&#xd3;" horiz-adv-x="863" 
d="M582 849l-105 -104l-87 6l84 123zM431 -11q-161 0 -266 102t-105 259t105 259t267 102q161 0 266 -102t105 -259t-105 -259t-267 -102zM432 106q104 0 169.5 67t65.5 177t-65.5 177t-169.5 67q-105 0 -170.5 -67t-65.5 -177t65.5 -177t170.5 -67z" />
    <glyph glyph-name="Ocircumflex" unicode="&#xd4;" horiz-adv-x="863" 
d="M491 750l-57 81l-58 -81l-106 6l106 127h115l106 -127zM432 711q161 0 266 -102t105 -259t-105 -259t-267 -102q-161 0 -266 102t-105 259t105 259t267 102zM432 106q104 0 169.5 67t65.5 177t-65.5 177t-169.5 67q-105 0 -170.5 -67t-65.5 -177t65.5 -177t170.5 -67z
" />
    <glyph glyph-name="Otilde" unicode="&#xd5;" horiz-adv-x="863" 
d="M319 744l-61 16q0 49 27 78t68 29q30 0 73.5 -20t59.5 -20q20 0 32.5 13t12.5 35l61 -16q0 -49 -26.5 -78t-67.5 -29q-30 0 -73 20t-60 20q-20 0 -33 -13t-13 -35zM431 -11q-161 0 -266 102t-105 259t105 259t267 102q161 0 266 -102t105 -259t-105 -259t-267 -102z
M432 106q104 0 169.5 67t65.5 177t-65.5 177t-169.5 67q-105 0 -170.5 -67t-65.5 -177t65.5 -177t170.5 -67z" />
    <glyph glyph-name="Odieresis" unicode="&#xd6;" horiz-adv-x="863" 
d="M411 759h-105v116h105v-116zM571 759h-105v116h105v-116zM431 -11q-161 0 -266 102t-105 259t105 259t267 102q161 0 266 -102t105 -259t-105 -259t-267 -102zM432 106q104 0 169.5 67t65.5 177t-65.5 177t-169.5 67q-105 0 -170.5 -67t-65.5 -177t65.5 -177t170.5 -67z
" />
    <glyph glyph-name="multiply" unicode="&#xd7;" horiz-adv-x="439" 
d="M339 535l69 -69l-119 -119l119 -120l-69 -68l-119 119l-120 -120l-69 69l120 120l-120 119l69 70l120 -120z" />
    <glyph glyph-name="Oslash" unicode="&#xd8;" horiz-adv-x="863" 
d="M756 739l65 -64l-95 -96q77 -96 77 -229q0 -157 -105 -259t-267 -102q-130 0 -226 68l-76 -76l-65 65l74 74q-78 97 -78 230q0 157 105 259t267 102q131 0 227 -69zM196 350q0 -79 35 -137l339 340q-58 41 -138 41q-105 0 -170.5 -67t-65.5 -177zM667 350q0 77 -34 136
l-339 -340q58 -40 138 -40q104 0 169.5 67t65.5 177z" />
    <glyph glyph-name="Ugrave" unicode="&#xd9;" horiz-adv-x="760" 
d="M422 751l-87 -6l-105 104l108 25zM380 -11q-142 0 -226 81.5t-84 222.5v407h130v-383q0 -93 47.5 -143t132.5 -50q86 0 134 50t48 143v383h128v-407q0 -141 -83 -222.5t-227 -81.5z" />
    <glyph glyph-name="Uacute" unicode="&#xda;" horiz-adv-x="760" 
d="M532 849l-105 -104l-87 6l84 123zM380 -11q-142 0 -226 81.5t-84 222.5v407h130v-383q0 -93 47.5 -143t132.5 -50q86 0 134 50t48 143v383h128v-407q0 -141 -83 -222.5t-227 -81.5z" />
    <glyph glyph-name="Ucircumflex" unicode="&#xdb;" horiz-adv-x="760" 
d="M441 750l-57 81l-58 -81l-106 6l106 127h115l106 -127zM562 317v383h128v-407q0 -141 -83 -222.5t-227 -81.5q-142 0 -226 81.5t-84 222.5v407h130v-383q0 -93 47.5 -143t132.5 -50q86 0 134 50t48 143z" />
    <glyph glyph-name="Udieresis" unicode="&#xdc;" horiz-adv-x="760" 
d="M361 759h-105v116h105v-116zM521 759h-105v116h105v-116zM380 -11q-142 0 -226 81.5t-84 222.5v407h130v-383q0 -93 47.5 -143t132.5 -50q86 0 134 50t48 143v383h128v-407q0 -141 -83 -222.5t-227 -81.5z" />
    <glyph glyph-name="Yacute" unicode="&#xdd;" horiz-adv-x="708" 
d="M397 874l108 -25l-105 -104l-87 6zM554 700h142l-277 -444v-256h-130v259l-277 441h142l201 -333z" />
    <glyph glyph-name="Thorn" unicode="&#xde;" horiz-adv-x="707" 
d="M221 598h150q139 0 219.5 -65.5t80.5 -178.5q0 -115 -81 -181t-221 -66h-148v-107h-129v700h129v-102zM221 210h146q82 0 128.5 38t46.5 106q0 66 -46.5 103.5t-127.5 37.5h-147v-285z" />
    <glyph glyph-name="germandbls" unicode="&#xdf;" horiz-adv-x="690" 
d="M473 383q76 -12 122.5 -60t46.5 -118q0 -94 -68 -153.5t-171 -59.5q-77 0 -125 25l4 95q47 -22 94 -22q67 0 107 34.5t40 93.5q0 53 -42.5 82.5t-111.5 29.5q-35 0 -62 -5v81q41 5 44 6q54 11 88 47t34 82q0 47 -35.5 78.5t-89.5 31.5q-62 0 -99.5 -40t-37.5 -106v-505
h-124v506q0 107 72.5 175t188.5 68q106 0 175 -56t69 -142q0 -56 -33 -101.5t-86 -66.5z" />
    <glyph glyph-name="agrave" unicode="&#xe0;" horiz-adv-x="607" 
d="M244 752l93 -147l-88 -7l-122 130zM285 559q128 0 192 -60t64 -170v-329h-124v65q-70 -76 -194 -76q-86 0 -138.5 49t-52.5 126q0 79 54 131t166 52q78 0 164 -9q-3 52 -39.5 80.5t-104.5 28.5q-38 0 -80 -16t-72 -43l-61 91q96 80 226 80zM264 100q61 0 104 37t48 92v9
q-62 9 -134 9q-131 0 -131 -76q0 -71 113 -71z" />
    <glyph glyph-name="aacute" unicode="&#xe1;" horiz-adv-x="607" 
d="M339 752l117 -24l-122 -130l-88 7zM285 559q128 0 192 -60t64 -170v-329h-124v65q-70 -76 -194 -76q-86 0 -138.5 49t-52.5 126q0 79 54 131t166 52q78 0 164 -9q-3 52 -39.5 80.5t-104.5 28.5q-38 0 -80 -16t-72 -43l-61 91q96 80 226 80zM264 100q61 0 104 37t48 92v9
q-62 9 -134 9q-131 0 -131 -76q0 -71 113 -71z" />
    <glyph glyph-name="acircumflex" unicode="&#xe2;" horiz-adv-x="607" 
d="M346 596l-54 90l-55 -90l-100 7l100 140h109l100 -140zM285 559q128 0 192 -60t64 -170v-329h-124v65q-70 -76 -194 -76q-86 0 -138.5 49t-52.5 126q0 79 54 131t166 52q78 0 164 -9q-3 52 -39.5 80.5t-104.5 28.5q-38 0 -80 -16t-72 -43l-61 91q96 80 226 80zM264 100
q61 0 104 37t48 92v9q-62 9 -134 9q-131 0 -131 -76q0 -71 113 -71z" />
    <glyph glyph-name="atilde" unicode="&#xe3;" horiz-adv-x="607" 
d="M231 647q-20 0 -33 -13t-13 -34l-61 16q0 49 27 78t68 29q30 0 73.5 -20t59.5 -20q20 0 32.5 13t12.5 35l61 -16q0 -49 -26.5 -78t-67.5 -29q-30 0 -73 19.5t-60 19.5zM285 559q128 0 192 -60t64 -170v-329h-124v65q-70 -76 -194 -76q-86 0 -138.5 49t-52.5 126
q0 79 54 131t166 52q78 0 164 -9q-3 52 -39.5 80.5t-104.5 28.5q-38 0 -80 -16t-72 -43l-61 91q96 80 226 80zM264 100q61 0 104 37t48 92v9q-62 9 -134 9q-131 0 -131 -76q0 -71 113 -71z" />
    <glyph glyph-name="adieresis" unicode="&#xe4;" horiz-adv-x="607" 
d="M162 736h90v-120h-90v120zM332 736h89v-120h-89v120zM285 559q128 0 192 -60t64 -170v-329h-124v65q-70 -76 -194 -76q-86 0 -138.5 49t-52.5 126q0 79 54 131t166 52q78 0 164 -9q-3 52 -39.5 80.5t-104.5 28.5q-38 0 -80 -16t-72 -43l-61 91q96 80 226 80zM264 100
q61 0 104 37t48 92v9q-62 9 -134 9q-131 0 -131 -76q0 -71 113 -71z" />
    <glyph glyph-name="aring" unicode="&#xe5;" horiz-adv-x="619" 
d="M301 590q-58 0 -95 34.5t-37 87.5t37 87.5t95 34.5q57 0 94.5 -34.5t37.5 -87.5t-37.5 -87.5t-94.5 -34.5zM301 774q-26 0 -44 -17.5t-18 -44.5q0 -26 18 -43t44 -17t44 17t18 43q0 27 -18 44.5t-44 17.5zM285 559q128 0 192 -60t64 -170v-329h-124v65q-70 -76 -194 -76
q-86 0 -138.5 49t-52.5 126q0 79 54 131t166 52q78 0 164 -9q-3 52 -39.5 80.5t-104.5 28.5q-38 0 -80 -16t-72 -43l-61 91q96 80 226 80zM264 100q61 0 104 37t48 92v9q-62 9 -134 9q-131 0 -131 -76q0 -71 113 -71z" />
    <glyph glyph-name="ae" unicode="&#xe6;" horiz-adv-x="986" 
d="M957 225h-418q12 -58 59 -91t116 -33q88 0 139 55l80 -71q-92 -95 -225 -95q-83 0 -149.5 34.5t-105.5 94.5q-37 -57 -99 -93.5t-139 -36.5q-84 0 -138 48t-54 126q0 77 57 125.5t161 48.5q95 0 164 -9v11q-1 56 -37.5 86.5t-106.5 30.5q-39 0 -84 -16.5t-67 -42.5
l-65 85q49 36 111.5 56.5t118.5 20.5q142 0 206 -91q81 89 219 89q116 0 190 -73t74 -185q0 -28 -7 -74zM699 447q-62 0 -104 -32t-54 -87h300q-21 119 -142 119zM247 96q69 0 114 40.5t45 102.5q-58 8 -135 8q-61 0 -95 -21t-34 -55q0 -35 28 -55t77 -20z" />
    <glyph glyph-name="ccedilla" unicode="&#xe7;" horiz-adv-x="585" 
d="M346 101q80 0 128 57l88 -75q-69 -78 -176 -91l-8 -31q31 -7 47.5 -24.5t16.5 -40.5q0 -33 -31 -52.5t-89 -19.5q-30 0 -65 7l14 66q21 -6 41 -6q27 0 27 15q0 26 -52 26l17 59q-113 14 -185.5 91.5t-72.5 190.5q0 125 85.5 205.5t212.5 80.5q135 0 218 -95l-88 -74
q-51 56 -132 56q-73 0 -121.5 -45.5t-48.5 -126.5t49 -127t125 -46z" />
    <glyph glyph-name="egrave" unicode="&#xe8;" horiz-adv-x="623" 
d="M276 750l93 -147l-88 -7l-122 130zM594 225h-419q12 -58 59 -91t116 -33q90 0 139 55l80 -71q-90 -95 -225 -95q-130 0 -214 80t-84 204t80.5 203.5t209.5 79.5q116 0 190 -73t74 -185q0 -25 -6 -74zM335 447q-62 0 -104 -32t-54 -87h300q-21 119 -142 119z" />
    <glyph glyph-name="eacute" unicode="&#xe9;" horiz-adv-x="623" 
d="M371 750l117 -24l-122 -130l-88 7zM594 225h-419q12 -58 59 -91t116 -33q90 0 139 55l80 -71q-90 -95 -225 -95q-130 0 -214 80t-84 204t80.5 203.5t209.5 79.5q116 0 190 -73t74 -185q0 -25 -6 -74zM335 447q-62 0 -104 -32t-54 -87h300q-21 119 -142 119z" />
    <glyph glyph-name="ecircumflex" unicode="&#xea;" horiz-adv-x="623" 
d="M378 594l-54 90l-55 -90l-100 7l100 140h109l100 -140zM594 225h-419q12 -58 59 -91t116 -33q90 0 139 55l80 -71q-90 -95 -225 -95q-130 0 -214 80t-84 204t80.5 203.5t209.5 79.5q116 0 190 -73t74 -185q0 -25 -6 -74zM335 447q-62 0 -104 -32t-54 -87h300
q-21 119 -142 119z" />
    <glyph glyph-name="edieresis" unicode="&#xeb;" horiz-adv-x="623" 
d="M194 734h90v-120h-90v120zM364 734h89v-120h-89v120zM594 225h-419q12 -58 59 -91t116 -33q90 0 139 55l80 -71q-90 -95 -225 -95q-130 0 -214 80t-84 204t80.5 203.5t209.5 79.5q116 0 190 -73t74 -185q0 -25 -6 -74zM335 447q-62 0 -104 -32t-54 -87h300
q-21 119 -142 119z" />
    <glyph glyph-name="igrave" unicode="&#xec;" horiz-adv-x="276" 
d="M183 603l-88 -7l-122 130l117 24zM200 0h-124v547h124v-547z" />
    <glyph glyph-name="iacute" unicode="&#xed;" horiz-adv-x="276" 
d="M302 726l-122 -130l-88 7l93 147zM200 0h-124v547h124v-547z" />
    <glyph glyph-name="icircumflex" unicode="&#xee;" horiz-adv-x="276" 
d="M192 594l-54 90l-55 -90l-100 7l100 140h109l100 -140zM200 0h-124v547h124v-547z" />
    <glyph glyph-name="idieresis" unicode="&#xef;" horiz-adv-x="276" 
d="M98 614h-90v120h90v-120zM267 614h-89v120h89v-120zM200 0h-124v547h124v-547z" />
    <glyph glyph-name="eth" unicode="&#xf0;" horiz-adv-x="687" 
d="M524 768l-57 -74q82 -55 128 -149t46 -214q0 -153 -88 -247.5t-230 -94.5q-122 0 -199.5 67t-77.5 178q0 106 73.5 174.5t191.5 68.5q128 0 203 -115q-11 162 -113 246l-84 -109l-60 41l81 106q-64 27 -141 27l39 83q88 3 165 -28l62 82zM323 80q61 0 107.5 35.5
t67.5 100.5q-13 74 -62 119t-111 45q-68 0 -112.5 -42t-44.5 -109q0 -66 44 -107.5t111 -41.5z" />
    <glyph glyph-name="ntilde" unicode="&#xf1;" horiz-adv-x="677" 
d="M278 645q-20 0 -33 -13t-13 -34l-61 16q0 49 27 78t68 29q30 0 73.5 -20t59.5 -20q20 0 32.5 13t12.5 35l61 -16q0 -49 -26.5 -78t-67.5 -29q-30 0 -73 19.5t-60 19.5zM389 559q101 0 161.5 -62t60.5 -169v-328h-124v311q0 133 -128 133q-69 0 -114 -49t-45 -125v-270
h-124v547h124v-66q71 78 189 78z" />
    <glyph glyph-name="ograve" unicode="&#xf2;" 
d="M391 603l-88 -7l-122 130l117 24zM344 -11q-130 0 -214 80.5t-84 204.5t84.5 204.5t213.5 80.5q130 0 214.5 -80.5t84.5 -203.5q0 -124 -84.5 -205t-214.5 -81zM345 101q76 0 124 48t48 125q0 78 -48 125t-125 47q-76 0 -124.5 -47t-48.5 -124q0 -78 49 -126t125 -48z
" />
    <glyph glyph-name="oacute" unicode="&#xf3;" 
d="M510 726l-122 -130l-88 7l93 147zM344 -11q-130 0 -214 80.5t-84 204.5t84.5 204.5t213.5 80.5q130 0 214.5 -80.5t84.5 -203.5q0 -124 -84.5 -205t-214.5 -81zM345 101q76 0 124 48t48 125q0 78 -48 125t-125 47q-76 0 -124.5 -47t-48.5 -124q0 -78 49 -126t125 -48z
" />
    <glyph glyph-name="ocircumflex" unicode="&#xf4;" 
d="M400 594l-54 90l-55 -90l-100 7l100 140h109l100 -140zM344 559q130 0 214.5 -80.5t84.5 -203.5q0 -124 -84.5 -205t-214.5 -81t-214 80.5t-84 204.5t84.5 204.5t213.5 80.5zM345 101q76 0 124 48t48 125q0 78 -48 125t-125 47q-76 0 -124.5 -47t-48.5 -124
q0 -78 49 -126t125 -48z" />
    <glyph glyph-name="otilde" unicode="&#xf5;" 
d="M238 598l-61 16q0 49 27 78t68 29q30 0 73.5 -20t59.5 -20q20 0 32.5 13t12.5 35l61 -16q0 -49 -26.5 -78t-67.5 -29q-30 0 -73 19.5t-60 19.5q-20 0 -33 -13t-13 -34zM344 -11q-130 0 -214 80.5t-84 204.5t84.5 204.5t213.5 80.5q130 0 214.5 -80.5t84.5 -203.5
q0 -124 -84.5 -205t-214.5 -81zM345 101q76 0 124 48t48 125q0 78 -48 125t-125 47q-76 0 -124.5 -47t-48.5 -124q0 -78 49 -126t125 -48z" />
    <glyph glyph-name="odieresis" unicode="&#xf6;" 
d="M306 614h-90v120h90v-120zM475 614h-89v120h89v-120zM344 -11q-130 0 -214 80.5t-84 204.5t84.5 204.5t213.5 80.5q130 0 214.5 -80.5t84.5 -203.5q0 -124 -84.5 -205t-214.5 -81zM345 101q76 0 124 48t48 125q0 78 -48 125t-125 47q-76 0 -124.5 -47t-48.5 -124
q0 -78 49 -126t125 -48z" />
    <glyph glyph-name="divide" unicode="&#xf7;" horiz-adv-x="481" 
d="M307 460h-130v115h130v-115zM450 388v-90h-420v90h420zM177 113v115h130v-115h-130z" />
    <glyph glyph-name="oslash" unicode="&#xf8;" 
d="M632 488l-43 -43q54 -75 54 -170q0 -124 -84.5 -205t-214.5 -81q-94 0 -167 45l-41 -41l-72 71l38 38q-56 73 -56 172q0 124 84.5 204.5t213.5 80.5q96 0 169 -45l47 47zM171 275q0 -45 19 -85l237 238q-36 18 -83 18q-76 0 -124.5 -47t-48.5 -124zM345 101q76 0 124 48
t48 125q0 45 -17 82l-238 -237q36 -18 83 -18z" />
    <glyph glyph-name="ugrave" unicode="&#xf9;" horiz-adv-x="678" 
d="M273 750l93 -147l-88 -7l-122 130zM477 277v270h124v-547h-124v66q-71 -78 -189 -78q-101 0 -161.5 62t-60.5 169v328h124v-311q0 -133 128 -133q69 0 114 49t45 125z" />
    <glyph glyph-name="uacute" unicode="&#xfa;" horiz-adv-x="678" 
d="M368 750l117 -24l-122 -130l-88 7zM477 277v270h124v-547h-124v66q-71 -78 -189 -78q-101 0 -161.5 62t-60.5 169v328h124v-311q0 -133 128 -133q69 0 114 49t45 125z" />
    <glyph glyph-name="ucircumflex" unicode="&#xfb;" horiz-adv-x="678" 
d="M375 594l-54 90l-55 -90l-100 7l100 140h109l100 -140zM477 277v270h124v-547h-124v66q-71 -78 -189 -78q-101 0 -161.5 62t-60.5 169v328h124v-311q0 -133 128 -133q69 0 114 49t45 125z" />
    <glyph glyph-name="udieresis" unicode="&#xfc;" horiz-adv-x="678" 
d="M191 734h90v-120h-90v120zM361 734h89v-120h-89v120zM477 277v270h124v-547h-124v66q-71 -78 -189 -78q-101 0 -161.5 62t-60.5 169v328h124v-311q0 -133 128 -133q69 0 114 49t45 125z" />
    <glyph glyph-name="yacute" unicode="&#xfd;" horiz-adv-x="646" 
d="M387 750l117 -24l-122 -130l-88 7zM329 141l160 406h136l-229 -547l-18 -41q-33 -76 -78 -108.5t-123 -32.5q-73 0 -126 34l37 91q44 -21 83 -21q35 0 52.5 15t33.5 53l5 11h-1l-230 546h136l161 -406h1z" />
    <glyph glyph-name="thorn" unicode="&#xfe;" horiz-adv-x="714" 
d="M412 558q111 0 183.5 -80.5t72.5 -205.5q0 -122 -72.5 -202.5t-184.5 -80.5q-134 0 -204 121v-281h-125v909h125v-300q70 120 205 120zM378 90q73 0 119.5 51.5t46.5 131.5q0 81 -46.5 132.5t-119.5 51.5q-75 0 -123 -51.5t-48 -132.5q0 -80 48 -131.5t123 -51.5z" />
    <glyph glyph-name="ydieresis" unicode="&#xff;" horiz-adv-x="646" 
d="M210 734h90v-120h-90v120zM380 734h89v-120h-89v120zM329 141l160 406h136l-229 -547l-18 -41q-33 -76 -78 -108.5t-123 -32.5q-73 0 -126 34l37 91q44 -21 83 -21q35 0 52.5 15t33.5 53l5 11h-1l-230 546h136l161 -406h1z" />
    <glyph glyph-name="Amacron" unicode="&#x100;" horiz-adv-x="792" 
d="M233 852h317v-77h-317v77zM775 0h-138l-56 129h-372l-56 -129h-136l314 700h129zM395 559l-137 -317h274z" />
    <glyph glyph-name="amacron" unicode="&#x101;" horiz-adv-x="607" 
d="M143 711h317v-78h-317v78zM285 559q128 0 192 -60t64 -170v-329h-124v65q-70 -76 -194 -76q-86 0 -138.5 49t-52.5 126q0 79 54 131t166 52q78 0 164 -9q-3 52 -39.5 80.5t-104.5 28.5q-38 0 -80 -16t-72 -43l-61 91q96 80 226 80zM264 100q61 0 104 37t48 92v9
q-62 9 -134 9q-131 0 -131 -76q0 -71 113 -71z" />
    <glyph glyph-name="Abreve" unicode="&#x102;" horiz-adv-x="792" 
d="M392 743q-68 0 -109 37.5t-41 101.5l93 1q0 -36 13 -52t44 -16t44.5 16t13.5 52l93 -1q0 -64 -41 -101.5t-110 -37.5zM775 0h-138l-56 129h-372l-56 -129h-136l314 700h129zM395 559l-137 -317h274z" />
    <glyph glyph-name="abreve" unicode="&#x103;" horiz-adv-x="607" 
d="M291 592q-68 0 -109 37.5t-41 101.5l93 1q0 -36 13 -52t44 -16t44.5 16t13.5 52l93 -1q0 -64 -41 -101.5t-110 -37.5zM285 559q128 0 192 -60t64 -170v-329h-124v65q-70 -76 -194 -76q-86 0 -138.5 49t-52.5 126q0 79 54 131t166 52q78 0 164 -9q-3 52 -39.5 80.5
t-104.5 28.5q-38 0 -80 -16t-72 -43l-61 91q96 80 226 80zM264 100q61 0 104 37t48 92v9q-62 9 -134 9q-131 0 -131 -76q0 -71 113 -71z" />
    <glyph glyph-name="Aogonek" unicode="&#x104;" horiz-adv-x="792" 
d="M800 -119l6 -71q-100 -21 -154.5 3t-54.5 77q0 65 78 110h-38l-56 129h-372l-56 -129h-136l314 700h129l315 -700q-69 -38 -69 -81q0 -27 24.5 -37t69.5 -1zM395 559l-137 -317h274z" />
    <glyph glyph-name="aogonek" unicode="&#x105;" horiz-adv-x="607" 
d="M566 -119l6 -71q-100 -21 -154.5 3t-54.5 77q0 65 78 110h-24v65q-70 -76 -194 -76q-86 0 -138.5 49t-52.5 126q0 79 54 131t166 52q78 0 164 -9q-3 52 -39.5 80.5t-104.5 28.5q-38 0 -80 -16t-72 -43l-61 91q96 80 226 80q128 0 192 -60t64 -170v-329q-69 -38 -69 -81
q0 -27 24.5 -37t69.5 -1zM264 100q61 0 104 37t48 92v9q-62 9 -134 9q-131 0 -131 -76q0 -71 113 -71z" />
    <glyph glyph-name="Cacute" unicode="&#x106;" horiz-adv-x="731" 
d="M583 847l-105 -104l-87 6l84 123zM432 -11q-159 0 -265.5 103.5t-106.5 257.5q0 155 105 258t263 103q169 0 277 -113l-85 -81q-73 78 -187 78q-103 0 -170.5 -68.5t-67.5 -175.5q0 -109 67.5 -177.5t169.5 -68.5q115 0 190 80l85 -79q-103 -117 -275 -117z" />
    <glyph glyph-name="cacute" unicode="&#x107;" horiz-adv-x="585" 
d="M509 726l-122 -130l-88 7l93 147zM344 -11q-127 0 -212.5 80t-85.5 204q0 125 85.5 205.5t212.5 80.5q135 0 218 -95l-88 -74q-51 56 -132 56q-73 0 -121.5 -45.5t-48.5 -126.5t49 -127t125 -46q80 0 128 57l88 -75q-82 -94 -218 -94z" />
    <glyph glyph-name="Ccircumflex" unicode="&#x108;" horiz-adv-x="731" 
d="M491 748l-57 81l-58 -81l-106 6l106 127h115l106 -127zM622 185l85 -79q-103 -117 -275 -117q-159 0 -265.5 103.5t-106.5 257.5q0 155 105 258t263 103q169 0 277 -113l-85 -81q-73 78 -187 78q-103 0 -170.5 -68.5t-67.5 -175.5q0 -109 67.5 -177.5t169.5 -68.5
q115 0 190 80z" />
    <glyph glyph-name="ccircumflex" unicode="&#x109;" horiz-adv-x="585" 
d="M399 594l-54 90l-55 -90l-100 7l100 140h109l100 -140zM346 101q80 0 128 57l88 -75q-82 -94 -218 -94q-127 0 -212.5 80t-85.5 204q0 125 85.5 205.5t212.5 80.5q135 0 218 -95l-88 -74q-51 56 -132 56q-73 0 -121.5 -45.5t-48.5 -126.5t49 -127t125 -46z" />
    <glyph glyph-name="Cdotaccent" unicode="&#x10a;" horiz-adv-x="731" 
d="M496 757h-129v117h129v-117zM432 -11q-159 0 -265.5 103.5t-106.5 257.5q0 155 105 258t263 103q169 0 277 -113l-85 -81q-73 78 -187 78q-103 0 -170.5 -68.5t-67.5 -175.5q0 -109 67.5 -177.5t169.5 -68.5q115 0 190 80l85 -79q-103 -117 -275 -117z" />
    <glyph glyph-name="cdotaccent" unicode="&#x10b;" horiz-adv-x="585" 
d="M408 614h-129v120h129v-120zM344 -11q-127 0 -212.5 80t-85.5 204q0 125 85.5 205.5t212.5 80.5q135 0 218 -95l-88 -74q-51 56 -132 56q-73 0 -121.5 -45.5t-48.5 -126.5t49 -127t125 -46q80 0 128 57l88 -75q-82 -94 -218 -94z" />
    <glyph glyph-name="Ccaron" unicode="&#x10c;" horiz-adv-x="731" 
d="M376 744l-106 123l106 6l58 -79l57 79l106 -6l-106 -123h-115zM622 185l85 -79q-103 -117 -275 -117q-159 0 -265.5 103.5t-106.5 257.5q0 155 105 258t263 103q169 0 277 -113l-85 -81q-73 78 -187 78q-103 0 -170.5 -68.5t-67.5 -175.5q0 -109 67.5 -177.5t169.5 -68.5
q115 0 190 80z" />
    <glyph glyph-name="ccaron" unicode="&#x10d;" horiz-adv-x="585" 
d="M290 594l-100 140l100 7l55 -90l54 90l100 -7l-100 -140h-109zM346 101q80 0 128 57l88 -75q-82 -94 -218 -94q-127 0 -212.5 80t-85.5 204q0 125 85.5 205.5t212.5 80.5q135 0 218 -95l-88 -74q-51 56 -132 56q-73 0 -121.5 -45.5t-48.5 -126.5t49 -127t125 -46z" />
    <glyph glyph-name="Dcaron" unicode="&#x10e;" horiz-adv-x="832" 
d="M269 746l-106 123l106 6l58 -79l57 79l106 -6l-106 -123h-115zM92 700h295q175 0 279.5 -95t104.5 -254q0 -160 -104 -255.5t-280 -95.5h-295v700zM221 114h161q117 0 185 62.5t68 173.5t-68 173.5t-186 62.5h-160v-472z" />
    <glyph glyph-name="dcaron" unicode="&#x10f;" horiz-adv-x="793" 
d="M510 484v254h124v-738h-124v65q-73 -76 -194 -76q-112 0 -190 81t-78 205q0 126 77.5 205t191.5 79q121 0 193 -75zM699 520v218h95l-30 -218h-65zM338 102q76 0 124 46.5t48 125.5t-47.5 124.5t-124.5 45.5q-73 0 -119.5 -47t-46.5 -122q0 -78 46 -125.5t120 -47.5z" />
    <glyph glyph-name="Dcroat" unicode="&#x110;" horiz-adv-x="832" 
d="M92 700h295q175 0 279.5 -95t104.5 -254q0 -160 -104 -255.5t-280 -95.5h-295v309h-55v91h55v300zM221 114h161q117 0 185 62.5t68 173.5t-68 173.5t-186 62.5h-160v-186h208v-91h-208v-195z" />
    <glyph glyph-name="dcroat" unicode="&#x111;" horiz-adv-x="716" 
d="M634 669h58v-82h-58v-587h-124v65q-73 -76 -194 -76q-112 0 -190 81t-78 205q0 126 77.5 205t191.5 79q121 0 193 -75v103h-160v82h160v69h124v-69zM338 102q76 0 124 46.5t48 125.5t-47.5 124.5t-124.5 45.5q-73 0 -119.5 -47t-46.5 -122q0 -78 46 -125.5t120 -47.5z
" />
    <glyph glyph-name="Emacron" unicode="&#x112;" horiz-adv-x="701" 
d="M184 852h317v-77h-317v77zM219 304v-190h431v-114h-558v700h548v-114h-421v-168h377v-114h-377z" />
    <glyph glyph-name="emacron" unicode="&#x113;" horiz-adv-x="623" 
d="M175 709h317v-78h-317v78zM594 225h-419q12 -58 59 -91t116 -33q90 0 139 55l80 -71q-90 -95 -225 -95q-130 0 -214 80t-84 204t80.5 203.5t209.5 79.5q116 0 190 -73t74 -185q0 -25 -6 -74zM335 447q-62 0 -104 -32t-54 -87h300q-21 119 -142 119z" />
    <glyph glyph-name="Ebreve" unicode="&#x114;" horiz-adv-x="701" 
d="M343 743q-68 0 -109 37.5t-41 101.5l93 1q0 -36 13 -52t44 -16t44.5 16t13.5 52l93 -1q0 -64 -41 -101.5t-110 -37.5zM219 304v-190h431v-114h-558v700h548v-114h-421v-168h377v-114h-377z" />
    <glyph glyph-name="ebreve" unicode="&#x115;" horiz-adv-x="623" 
d="M323 590q-68 0 -109 37.5t-41 101.5l93 1q0 -36 13 -52t44 -16t44.5 16t13.5 52l93 -1q0 -64 -41 -101.5t-110 -37.5zM594 225h-419q12 -58 59 -91t116 -33q90 0 139 55l80 -71q-90 -95 -225 -95q-130 0 -214 80t-84 204t80.5 203.5t209.5 79.5q116 0 190 -73t74 -185
q0 -25 -6 -74zM335 447q-62 0 -104 -32t-54 -87h300q-21 119 -142 119z" />
    <glyph glyph-name="Edotaccent" unicode="&#x116;" horiz-adv-x="701" 
d="M281 876h129v-117h-129v117zM219 304v-190h431v-114h-558v700h548v-114h-421v-168h377v-114h-377z" />
    <glyph glyph-name="edotaccent" unicode="&#x117;" horiz-adv-x="623" 
d="M258 734h129v-120h-129v120zM594 225h-419q12 -58 59 -91t116 -33q90 0 139 55l80 -71q-90 -95 -225 -95q-130 0 -214 80t-84 204t80.5 203.5t209.5 79.5q116 0 190 -73t74 -185q0 -25 -6 -74zM335 447q-62 0 -104 -32t-54 -87h300q-21 119 -142 119z" />
    <glyph glyph-name="Eogonek" unicode="&#x118;" horiz-adv-x="701" 
d="M676 -119l6 -71q-100 -21 -154.5 3t-54.5 77q0 65 78 110h-459v700h548v-114h-421v-168h377v-114h-377v-190h431v-114h1q-69 -38 -69 -81q0 -27 24.5 -37t69.5 -1z" />
    <glyph glyph-name="eogonek" unicode="&#x119;" horiz-adv-x="623" 
d="M594 225h-419q12 -58 59 -91t116 -33q90 0 139 55l80 -71q-33 -35 -70 -56q-33 -29 -33 -56t24.5 -37t69.5 -1l6 -71q-100 -21 -154.5 3t-54.5 77q0 23 13 47q-9 -1 -26 -1q-130 0 -214 80t-84 204t80.5 203.5t209.5 79.5q116 0 190 -73t74 -185q0 -25 -6 -74zM335 447
q-62 0 -104 -32t-54 -87h300q-21 119 -142 119z" />
    <glyph glyph-name="Ecaron" unicode="&#x11a;" horiz-adv-x="701" 
d="M291 746l-106 123l106 6l58 -79l57 79l106 -6l-106 -123h-115zM219 304v-190h431v-114h-558v700h548v-114h-421v-168h377v-114h-377z" />
    <glyph glyph-name="ecaron" unicode="&#x11b;" horiz-adv-x="623" 
d="M269 594l-100 140l100 7l55 -90l54 90l100 -7l-100 -140h-109zM594 225h-419q12 -58 59 -91t116 -33q90 0 139 55l80 -71q-90 -95 -225 -95q-130 0 -214 80t-84 204t80.5 203.5t209.5 79.5q116 0 190 -73t74 -185q0 -25 -6 -74zM335 447q-62 0 -104 -32t-54 -87h300
q-21 119 -142 119z" />
    <glyph glyph-name="Gcircumflex" unicode="&#x11c;" horiz-adv-x="786" 
d="M503 750l-57 81l-58 -81l-106 6l106 127h115l106 -127zM599 157v203h116v-259q-114 -112 -281 -112q-163 0 -268.5 102t-105.5 258q0 158 104.5 260t266.5 102q161 0 271 -111l-83 -81q-76 76 -185 76q-106 0 -172.5 -67t-66.5 -179t67 -178t178 -66q92 0 159 52z" />
    <glyph glyph-name="gcircumflex" unicode="&#x11d;" horiz-adv-x="643" 
d="M381 594l-54 90l-55 -90l-100 7l100 140h109l100 -140zM243 145h146q110 0 165 -40t55 -109q0 -81 -78 -129.5t-225 -48.5q-121 0 -188 37.5t-67 105.5q0 57 71 96q-48 29 -48 84q0 65 63 99q-62 50 -62 135t64.5 134.5t176.5 49.5q69 0 113 -20l143 48l28 -100l-80 -15
q39 -37 39 -97q0 -86 -64.5 -136t-176.5 -50q-54 0 -103 13q-19 -11 -19 -30q0 -27 47 -27zM317 453q-119 0 -119 -77q0 -81 119 -81t119 80q0 78 -119 78zM313 -71q88 0 129.5 13t41.5 47q0 28 -30 37t-101 9h-142q-34 -27 -34 -55q0 -30 32.5 -40.5t103.5 -10.5z" />
    <glyph glyph-name="Gbreve" unicode="&#x11e;" horiz-adv-x="786" 
d="M440 743q-68 0 -109 37.5t-41 101.5l93 1q0 -36 13 -52t44 -16t44.5 16t13.5 52l93 -1q0 -64 -41 -101.5t-110 -37.5zM599 157v203h116v-259q-114 -112 -281 -112q-163 0 -268.5 102t-105.5 258q0 158 104.5 260t266.5 102q161 0 271 -111l-83 -81q-76 76 -185 76
q-106 0 -172.5 -67t-66.5 -179t67 -178t178 -66q92 0 159 52z" />
    <glyph glyph-name="gbreve" unicode="&#x11f;" horiz-adv-x="643" 
d="M326 590q-68 0 -109 37.5t-41 101.5l93 1q0 -36 13 -52t44 -16t44.5 16t13.5 52l93 -1q0 -64 -41 -101.5t-110 -37.5zM243 145h146q110 0 165 -40t55 -109q0 -81 -78 -129.5t-225 -48.5q-121 0 -188 37.5t-67 105.5q0 57 71 96q-48 29 -48 84q0 65 63 99q-62 50 -62 135
t64.5 134.5t176.5 49.5q69 0 113 -20l143 48l28 -100l-80 -15q39 -37 39 -97q0 -86 -64.5 -136t-176.5 -50q-54 0 -103 13q-19 -11 -19 -30q0 -27 47 -27zM317 453q-119 0 -119 -77q0 -81 119 -81t119 80q0 78 -119 78zM313 -71q88 0 129.5 13t41.5 47q0 28 -30 37t-101 9
h-142q-34 -27 -34 -55q0 -30 32.5 -40.5t103.5 -10.5z" />
    <glyph glyph-name="Gdotaccent" unicode="&#x120;" horiz-adv-x="786" 
d="M508 759h-129v117h129v-117zM434 -11q-163 0 -268.5 102t-105.5 258q0 158 104.5 260t266.5 102q161 0 271 -111l-83 -81q-76 76 -185 76q-106 0 -172.5 -67t-66.5 -179t67 -178t178 -66q92 0 159 52v203h116v-259q-114 -112 -281 -112z" />
    <glyph glyph-name="gdotaccent" unicode="&#x121;" horiz-adv-x="643" 
d="M262 734h129v-120h-129v120zM243 145h146q110 0 165 -40t55 -109q0 -81 -78 -129.5t-225 -48.5q-121 0 -188 37.5t-67 105.5q0 57 71 96q-48 29 -48 84q0 65 63 99q-62 50 -62 135t64.5 134.5t176.5 49.5q69 0 113 -20l143 48l28 -100l-80 -15q39 -37 39 -97
q0 -86 -64.5 -136t-176.5 -50q-54 0 -103 13q-19 -11 -19 -30q0 -27 47 -27zM317 453q-119 0 -119 -77q0 -81 119 -81t119 80q0 78 -119 78zM313 -71q88 0 129.5 13t41.5 47q0 28 -30 37t-101 9h-142q-34 -27 -34 -55q0 -30 32.5 -40.5t103.5 -10.5z" />
    <glyph glyph-name="uni0122" unicode="&#x122;" horiz-adv-x="786" 
d="M434 -11q-163 0 -268.5 102t-105.5 258q0 158 104.5 260t266.5 102q161 0 271 -111l-83 -81q-76 76 -185 76q-106 0 -172.5 -67t-66.5 -179t67 -178t178 -66q92 0 159 52v203h116v-259q-114 -112 -281 -112zM359 -231l-20 44q54 21 51 69h-51v83h115q35 -154 -95 -196z
" />
    <glyph glyph-name="uni0123" unicode="&#x123;" horiz-adv-x="643" 
d="M414 672v-83h-115q-35 154 95 196l20 -44q-54 -20 -51 -69h51zM243 145h146q110 0 165 -40t55 -109q0 -81 -78 -129.5t-225 -48.5q-121 0 -188 37.5t-67 105.5q0 57 71 96q-48 29 -48 84q0 65 63 99q-62 50 -62 135t64.5 134.5t176.5 49.5q69 0 113 -20l143 48l28 -100
l-80 -15q39 -37 39 -97q0 -86 -64.5 -136t-176.5 -50q-54 0 -103 13q-19 -11 -19 -30q0 -27 47 -27zM317 453q-119 0 -119 -77q0 -81 119 -81t119 80q0 78 -119 78zM313 -71q88 0 129.5 13t41.5 47q0 28 -30 37t-101 9h-142q-34 -27 -34 -55q0 -30 32.5 -40.5t103.5 -10.5z
" />
    <glyph glyph-name="Hcircumflex" unicode="&#x124;" horiz-adv-x="805" 
d="M461 750l-57 81l-58 -81l-106 6l106 127h115l106 -127zM583 405v295h130v-700h-130v291h-361v-291h-130v700h130v-295h361z" />
    <glyph glyph-name="hcircumflex" unicode="&#x125;" horiz-adv-x="683" 
d="M404 788l-57 81l-58 -81l-106 6l106 127h115l106 -127zM395 559q101 0 161.5 -62t60.5 -169v-328h-124v311q0 133 -128 133q-69 0 -114 -49t-45 -125v-270h-124v738h124v-257q71 78 189 78z" />
    <glyph glyph-name="Hbar" unicode="&#x126;" horiz-adv-x="805" 
d="M713 603h47v-91h-47v-512h-130v291h-361v-291h-130v512h-37v91h37v97h130v-97h361v97h130v-97zM222 405h361v107h-361v-107z" />
    <glyph glyph-name="hbar" unicode="&#x127;" horiz-adv-x="683" 
d="M395 559q101 0 161.5 -62t60.5 -169v-328h-124v311q0 133 -128 133q-69 0 -114 -49t-45 -125v-270h-124v584h-69v82h69v72h124v-72h149v-82h-149v-103q71 78 189 78z" />
    <glyph glyph-name="Itilde" unicode="&#x128;" horiz-adv-x="313" 
d="M44 744l-61 16q0 49 27 78t68 29q30 0 73.5 -20t59.5 -20q20 0 32.5 13t12.5 35l61 -16q0 -49 -26.5 -78t-67.5 -29q-30 0 -73 20t-60 20q-20 0 -33 -13t-13 -35zM221 0h-129v700h129v-700z" />
    <glyph glyph-name="itilde" unicode="&#x129;" horiz-adv-x="276" 
d="M31 598l-61 16q0 49 27 78t68 29q30 0 73.5 -20t59.5 -20q20 0 32.5 13t12.5 35l61 -16q0 -49 -26.5 -78t-67.5 -29q-30 0 -73 19.5t-60 19.5q-20 0 -33 -13t-13 -34zM200 0h-124v547h124v-547z" />
    <glyph glyph-name="Imacron" unicode="&#x12a;" horiz-adv-x="313" 
d="M311 775h-317v77h317v-77zM221 0h-129v700h129v-700z" />
    <glyph glyph-name="imacron" unicode="&#x12b;" horiz-adv-x="276" 
d="M306 631h-317v78h317v-78zM200 0h-124v547h124v-547z" />
    <glyph glyph-name="Ibreve" unicode="&#x12c;" horiz-adv-x="313" 
d="M211 883l93 -1q0 -64 -41 -101.5t-110 -37.5q-68 0 -109 37.5t-41 101.5l93 1q0 -36 13 -52t44 -16t44.5 16t13.5 52zM221 0h-129v700h129v-700z" />
    <glyph glyph-name="ibreve" unicode="&#x12d;" horiz-adv-x="276" 
d="M195 730l93 -1q0 -64 -41 -101.5t-110 -37.5q-68 0 -109 37.5t-41 101.5l93 1q0 -36 13 -52t44 -16t44.5 16t13.5 52zM200 0h-124v547h124v-547z" />
    <glyph glyph-name="Iogonek" unicode="&#x12e;" horiz-adv-x="313" 
d="M231 -119l6 -71q-100 -21 -154.5 3t-54.5 77q0 65 78 110h-14v700h129v-700h-15q-69 -38 -69 -81q0 -27 24.5 -37t69.5 -1z" />
    <glyph glyph-name="iogonek" unicode="&#x12f;" horiz-adv-x="276" 
d="M73 734h129v-120h-129v120zM225 -119l6 -71q-100 -21 -154.5 3t-54.5 77q0 65 78 110h-24v547h124v-547q-69 -38 -69 -81q0 -27 24.5 -37t69.5 -1z" />
    <glyph glyph-name="Idotaccent" unicode="&#x130;" horiz-adv-x="313" 
d="M221 759h-129v117h129v-117zM221 0h-129v700h129v-700z" />
    <glyph glyph-name="dotlessi" unicode="&#x131;" horiz-adv-x="276" 
d="M200 0h-124v547h124v-547z" />
    <glyph glyph-name="IJ" unicode="&#x132;" horiz-adv-x="894" 
d="M221 0h-129v700h129v-700zM569 -11q-78 0 -142.5 34t-102.5 91l84 78q60 -86 154 -86q62 0 99.5 42t37.5 109v329h-240v114h365v-444q0 -120 -70 -193.5t-185 -73.5z" />
    <glyph glyph-name="ij" unicode="&#x133;" horiz-adv-x="567" 
d="M202 614h-129v120h129v-120zM492 614h-129v120h129v-120zM200 0h-124v547h124v-547zM213 -155l32 99q20 -10 46 -10q36 0 55.5 18.5t19.5 53.5v541h125v-551q0 -82 -51.5 -127t-132.5 -45q-51 0 -94 21z" />
    <glyph glyph-name="Jcircumflex" unicode="&#x134;" horiz-adv-x="582" 
d="M389 750l-57 81l-58 -81l-106 6l106 127h115l106 -127zM146 586v114h365v-444q0 -120 -70 -193.5t-185 -73.5q-78 0 -142.5 34t-102.5 91l84 78q60 -86 154 -86q62 0 99.5 42t37.5 109v329h-240z" />
    <glyph glyph-name="jcircumflex" unicode="&#x135;" horiz-adv-x="291" 
d="M206 594l-54 90l-55 -90l-100 7l100 140h109l100 -140zM90 6v541h125v-551q0 -82 -51.5 -127t-132.5 -45q-51 0 -94 21l32 99q20 -10 46 -10q36 0 55.5 18.5t19.5 53.5z" />
    <glyph glyph-name="uni0136" unicode="&#x136;" horiz-adv-x="759" 
d="M718 700l-265 -291l281 -409h-150l-218 312l-145 -159v-153h-129v700h129v-385l336 385h161zM314 -118v83h115q35 -154 -95 -196l-20 44q54 21 51 69h-51z" />
    <glyph glyph-name="uni0137" unicode="&#x137;" horiz-adv-x="665" 
d="M623 547l-228 -233l260 -314h-147l-191 233l-111 -113v-120h-124v738h124v-469l255 278h162zM273 -118v83h115q35 -154 -95 -196l-20 44q54 21 51 69h-51z" />
    <glyph glyph-name="kgreenlandic" unicode="&#x138;" horiz-adv-x="680" 
d="M655 0h-147l-191 233l-111 -113v-120h-124v547h124v-278l255 278h162l-228 -233z" />
    <glyph glyph-name="Lacute" unicode="&#x139;" horiz-adv-x="624" 
d="M465 849l-105 -104l-87 6l84 123zM603 0h-511v700h128v-586h383v-114z" />
    <glyph glyph-name="lacute" unicode="&#x13a;" horiz-adv-x="288" 
d="M308 917l-122 -130l-88 7l93 147zM206 0h-124v738h124v-738z" />
    <glyph glyph-name="uni013B" unicode="&#x13b;" horiz-adv-x="624" 
d="M603 0h-511v700h128v-586h383v-114zM274 -231l-20 44q54 21 51 69h-51v83h115q35 -154 -95 -196z" />
    <glyph glyph-name="uni013C" unicode="&#x13c;" horiz-adv-x="288" 
d="M206 0h-124v738h124v-738zM103 -231l-20 44q54 21 51 69h-51v83h115q35 -154 -95 -196z" />
    <glyph glyph-name="Lcaron" unicode="&#x13d;" horiz-adv-x="624" 
d="M603 0h-511v700h128v-586h383v-114zM459 482v218h94l-29 -218h-65z" />
    <glyph glyph-name="lcaron" unicode="&#x13e;" horiz-adv-x="353" 
d="M206 0h-124v738h124v-738zM259 520v218h94l-29 -218h-65z" />
    <glyph glyph-name="Ldot" unicode="&#x13f;" horiz-adv-x="624" 
d="M603 0h-511v700h128v-586h383v-114zM362 312v110h126v-110h-126z" />
    <glyph glyph-name="ldot" unicode="&#x140;" horiz-adv-x="368" 
d="M206 0h-124v738h124v-738zM268 330v96h110v-96h-110z" />
    <glyph glyph-name="Lslash" unicode="&#x141;" horiz-adv-x="624" 
d="M220 341v-227h383v-114h-511v275l-56 -29l-36 71l92 48v335h128v-269l64 33l36 -72z" />
    <glyph glyph-name="lslash" unicode="&#x142;" horiz-adv-x="288" 
d="M265 483l36 -72l-95 -49v-362h-124v298l-65 -33l-36 71l101 52v350h124v-286z" />
    <glyph glyph-name="Nacute" unicode="&#x143;" horiz-adv-x="816" 
d="M559 849l-105 -104l-87 6l84 123zM221 0h-129v700h111l391 -477v477h130v-700h-108l-395 483v-483z" />
    <glyph glyph-name="nacute" unicode="&#x144;" horiz-adv-x="677" 
d="M387 750l117 -24l-122 -130l-88 7zM389 559q101 0 161.5 -62t60.5 -169v-328h-124v311q0 133 -128 133q-69 0 -114 -49t-45 -125v-270h-124v547h124v-66q71 78 189 78z" />
    <glyph glyph-name="uni0145" unicode="&#x145;" horiz-adv-x="816" 
d="M221 0h-129v700h111l391 -477v477h130v-700h-108l-395 483v-483zM367 -231l-20 44q54 21 51 69h-51v83h115q35 -154 -95 -196z" />
    <glyph glyph-name="uni0146" unicode="&#x146;" horiz-adv-x="677" 
d="M389 559q101 0 161.5 -62t60.5 -169v-328h-124v311q0 133 -128 133q-69 0 -114 -49t-45 -125v-270h-124v547h124v-66q71 78 189 78zM279 -118v83h115q35 -154 -95 -196l-20 44q54 21 51 69h-51z" />
    <glyph glyph-name="Ncaron" unicode="&#x147;" horiz-adv-x="816" 
d="M352 746l-106 123l106 6l58 -79l57 79l106 -6l-106 -123h-115zM594 223v477h130v-700h-108l-395 483v-483h-129v700h111z" />
    <glyph glyph-name="ncaron" unicode="&#x148;" horiz-adv-x="677" 
d="M285 594l-100 140l100 7l55 -90l54 90l100 -7l-100 -140h-109zM389 559q101 0 161.5 -62t60.5 -169v-328h-124v311q0 133 -128 133q-69 0 -114 -49t-45 -125v-270h-124v547h124v-66q71 78 189 78z" />
    <glyph glyph-name="Eng" unicode="&#x14a;" horiz-adv-x="802" 
d="M594 700h130v-700h-4v-8q0 -170 -177 -170q-57 0 -107 25l29 93q26 -14 55 -14q33 0 53.5 19.5t20.5 57.5v24l-373 456v-483h-129v700h111l391 -477v477z" />
    <glyph glyph-name="eng" unicode="&#x14b;" horiz-adv-x="677" 
d="M389 559q101 0 161.5 -62t60.5 -169v-336q0 -170 -174 -170q-56 0 -104 25l28 93q25 -14 54 -14q32 0 52 19.5t20 57.5v308q0 133 -128 133q-69 0 -114 -49t-45 -125v-270h-124v547h124v-66q71 78 189 78z" />
    <glyph glyph-name="Omacron" unicode="&#x14c;" horiz-adv-x="863" 
d="M586 775h-317v77h317v-77zM431 -11q-161 0 -266 102t-105 259t105 259t267 102q161 0 266 -102t105 -259t-105 -259t-267 -102zM432 106q104 0 169.5 67t65.5 177t-65.5 177t-169.5 67q-105 0 -170.5 -67t-65.5 -177t65.5 -177t170.5 -67z" />
    <glyph glyph-name="omacron" unicode="&#x14d;" 
d="M514 631h-317v78h317v-78zM344 -11q-130 0 -214 80.5t-84 204.5t84.5 204.5t213.5 80.5q130 0 214.5 -80.5t84.5 -203.5q0 -124 -84.5 -205t-214.5 -81zM345 101q76 0 124 48t48 125q0 78 -48 125t-125 47q-76 0 -124.5 -47t-48.5 -124q0 -78 49 -126t125 -48z" />
    <glyph glyph-name="Obreve" unicode="&#x14e;" horiz-adv-x="863" 
d="M428 743q-68 0 -109 37.5t-41 101.5l93 1q0 -36 13 -52t44 -16t44.5 16t13.5 52l93 -1q0 -64 -41 -101.5t-110 -37.5zM432 711q161 0 266 -102t105 -259t-105 -259t-267 -102q-161 0 -266 102t-105 259t105 259t267 102zM432 106q104 0 169.5 67t65.5 177t-65.5 177
t-169.5 67q-105 0 -170.5 -67t-65.5 -177t65.5 -177t170.5 -67z" />
    <glyph glyph-name="obreve" unicode="&#x14f;" 
d="M345 590q-68 0 -109 37.5t-41 101.5l93 1q0 -36 13 -52t44 -16t44.5 16t13.5 52l93 -1q0 -64 -41 -101.5t-110 -37.5zM344 559q130 0 214.5 -80.5t84.5 -203.5q0 -124 -84.5 -205t-214.5 -81t-214 80.5t-84 204.5t84.5 204.5t213.5 80.5zM345 101q76 0 124 48t48 125
q0 78 -48 125t-125 47q-76 0 -124.5 -47t-48.5 -124q0 -78 49 -126t125 -48z" />
    <glyph glyph-name="Ohungarumlaut" unicode="&#x150;" horiz-adv-x="863" 
d="M444 849l-93 -104l-85 6l71 123zM628 849l-93 -104l-85 6l72 123zM431 -11q-161 0 -266 102t-105 259t105 259t267 102q161 0 266 -102t105 -259t-105 -259t-267 -102zM432 106q104 0 169.5 67t65.5 177t-65.5 177t-169.5 67q-105 0 -170.5 -67t-65.5 -177t65.5 -177
t170.5 -67z" />
    <glyph glyph-name="ohungarumlaut" unicode="&#x151;" 
d="M340 723l-107 -130l-86 7l78 147zM525 723l-107 -130l-86 7l78 147zM344 -11q-130 0 -214 80.5t-84 204.5t84.5 204.5t213.5 80.5q130 0 214.5 -80.5t84.5 -203.5q0 -124 -84.5 -205t-214.5 -81zM345 101q76 0 124 48t48 125q0 78 -48 125t-125 47q-76 0 -124.5 -47
t-48.5 -124q0 -78 49 -126t125 -48z" />
    <glyph glyph-name="OE" unicode="&#x152;" horiz-adv-x="1233" 
d="M751 304v-190h432v-114h-559v38q-84 -49 -192 -49q-159 0 -265.5 103.5t-106.5 257.5q0 155 105 258t263 103q110 0 196 -49v38h549v-114h-422v-168h377v-114h-377zM622 185l2 -2v338l-4 -4q-73 78 -187 78q-103 0 -170.5 -68.5t-67.5 -175.5q0 -109 67.5 -177.5
t169.5 -68.5q115 0 190 80z" />
    <glyph glyph-name="oe" unicode="&#x153;" horiz-adv-x="1097" 
d="M1068 225h-419q12 -58 59 -91t116 -33q90 0 139 55l80 -71q-90 -95 -225 -95q-151 0 -237 105q-85 -106 -237 -106q-130 0 -214 80.5t-84 204.5t84.5 204.5t213.5 80.5q151 0 236 -104q81 102 230 102q116 0 190 -73t74 -185q0 -25 -6 -74zM809 447q-62 0 -104 -32
t-54 -87h300q-21 119 -142 119zM345 101q76 0 124 48t48 125q0 78 -48 125t-125 47q-76 0 -124.5 -47t-48.5 -124q0 -78 49 -126t125 -48z" />
    <glyph glyph-name="Racute" unicode="&#x154;" horiz-adv-x="721" 
d="M415 874l108 -25l-105 -104l-87 6zM691 0h-163l-197 234h-110v-234h-129v700h289q142 0 221 -61.5t79 -172.5q0 -88 -50.5 -145t-144.5 -77zM378 586h-157v-239h156q87 0 131 27t44 90q0 122 -174 122z" />
    <glyph glyph-name="racute" unicode="&#x155;" horiz-adv-x="434" 
d="M255 750l117 -24l-122 -130l-88 7zM356 554q23 0 53 -4l-4 -127q-25 7 -54 7q-71 0 -111 -55.5t-40 -148.5v-226h-124v547h124v-70q58 77 156 77z" />
    <glyph glyph-name="uni0156" unicode="&#x156;" horiz-adv-x="721" 
d="M486 244l205 -244h-163l-197 234h-110v-234h-129v700h289q142 0 221 -61.5t79 -172.5q0 -88 -50.5 -145t-144.5 -77zM378 586h-157v-239h156q87 0 131 27t44 90q0 122 -174 122zM311 -118v83h115q35 -154 -95 -196l-20 44q54 21 51 69h-51z" />
    <glyph glyph-name="uni0157" unicode="&#x157;" horiz-adv-x="434" 
d="M356 554q23 0 53 -4l-4 -127q-25 7 -54 7q-71 0 -111 -55.5t-40 -148.5v-226h-124v547h124v-70q58 77 156 77zM147 -118v83h115q35 -154 -95 -196l-20 44q54 21 51 69h-51z" />
    <glyph glyph-name="Rcaron" unicode="&#x158;" horiz-adv-x="721" 
d="M317 746l-106 123l106 6l58 -79l57 79l106 -6l-106 -123h-115zM691 0h-163l-197 234h-110v-234h-129v700h289q142 0 221 -61.5t79 -172.5q0 -88 -50.5 -145t-144.5 -77zM378 586h-157v-239h156q87 0 131 27t44 90q0 122 -174 122z" />
    <glyph glyph-name="rcaron" unicode="&#x159;" horiz-adv-x="434" 
d="M153 594l-100 140l100 7l55 -90l54 90l100 -7l-100 -140h-109zM356 554q23 0 53 -4l-4 -127q-25 7 -54 7q-71 0 -111 -55.5t-40 -148.5v-226h-124v547h124v-70q58 77 156 77z" />
    <glyph glyph-name="Sacute" unicode="&#x15a;" horiz-adv-x="648" 
d="M477 849l-105 -104l-87 6l84 123zM331 -11q-170 0 -293 100l59 99q119 -82 242 -82q64 0 99 23t35 59q0 43 -34 63t-123 39q-128 27 -193 78t-65 140q0 96 76 149.5t195 53.5q140 0 255 -83l-69 -94q-84 60 -193 60q-128 0 -128 -87q0 -38 35.5 -61t121.5 -42
q137 -30 197.5 -74t60.5 -132q0 -96 -77.5 -152.5t-200.5 -56.5z" />
    <glyph glyph-name="sacute" unicode="&#x15b;" horiz-adv-x="543" 
d="M440 726l-122 -130l-88 7l93 147zM270 -10q-127 0 -240 66l51 102q96 -55 194 -55q110 0 110 54q0 27 -26.5 41t-101.5 27q-117 20 -163 58.5t-46 107.5q0 80 55 123.5t155 43.5q57 0 125 -16t107 -41l-50 -104q-83 48 -190 48q-76 0 -76 -44q0 -22 24 -35t94 -27
q123 -26 170 -67.5t47 -109.5q0 -81 -64.5 -126.5t-174.5 -45.5z" />
    <glyph glyph-name="Scircumflex" unicode="&#x15c;" horiz-adv-x="648" 
d="M386 750l-57 81l-58 -81l-106 6l106 127h115l106 -127zM351 404q137 -30 197.5 -74t60.5 -132q0 -96 -77.5 -152.5t-200.5 -56.5q-170 0 -293 100l59 99q119 -82 242 -82q64 0 99 23t35 59q0 43 -34 63t-123 39q-128 27 -193 78t-65 140q0 96 76 149.5t195 53.5
q140 0 255 -83l-69 -94q-84 60 -193 60q-128 0 -128 -87q0 -38 35.5 -61t121.5 -42z" />
    <glyph glyph-name="scircumflex" unicode="&#x15d;" horiz-adv-x="543" 
d="M329 594l-54 90l-55 -90l-100 7l100 140h109l100 -140zM292 339q123 -26 170 -67.5t47 -109.5q0 -81 -64.5 -126.5t-174.5 -45.5q-127 0 -240 66l51 102q96 -55 194 -55q110 0 110 54q0 27 -26.5 41t-101.5 27q-117 20 -163 58.5t-46 107.5q0 80 55 123.5t155 43.5
q57 0 125 -16t107 -41l-50 -104q-83 48 -190 48q-76 0 -76 -44q0 -22 24 -35t94 -27z" />
    <glyph glyph-name="Scedilla" unicode="&#x15e;" horiz-adv-x="648" 
d="M609 198q0 -89 -66.5 -144.5t-174.5 -63.5l-8 -29q31 -7 47.5 -24.5t16.5 -40.5q0 -33 -31 -52.5t-89 -19.5q-30 0 -65 7l14 66q21 -6 41 -6q27 0 27 15q0 26 -52 26l17 59q-144 13 -248 98l59 99q119 -82 242 -82q64 0 99 23t35 59q0 43 -34 63t-123 39q-128 27 -193 78
t-65 140q0 96 76 149.5t195 53.5q140 0 255 -83l-69 -94q-84 60 -193 60q-128 0 -128 -87q0 -38 35.5 -61t121.5 -42q137 -30 197.5 -74t60.5 -132z" />
    <glyph glyph-name="scedilla" unicode="&#x15f;" horiz-adv-x="543" 
d="M509 162q0 -72 -51.5 -116.5t-141.5 -53.5l-8 -31q31 -7 47.5 -24.5t16.5 -40.5q0 -33 -31 -52.5t-89 -19.5q-30 0 -65 7l14 66q21 -6 41 -6q27 0 27 15q0 26 -52 26l17 60q-107 8 -204 64l51 102q96 -55 194 -55q110 0 110 54q0 27 -26.5 41t-101.5 27
q-117 20 -163 58.5t-46 107.5q0 80 55 123.5t155 43.5q57 0 125 -16t107 -41l-50 -104q-83 48 -190 48q-76 0 -76 -44q0 -22 24 -35t94 -27q123 -26 170 -67.5t47 -109.5z" />
    <glyph glyph-name="Scaron" unicode="&#x160;" horiz-adv-x="648" 
d="M271 746l-106 123l106 6l58 -79l57 79l106 -6l-106 -123h-115zM351 404q137 -30 197.5 -74t60.5 -132q0 -96 -77.5 -152.5t-200.5 -56.5q-170 0 -293 100l59 99q119 -82 242 -82q64 0 99 23t35 59q0 43 -34 63t-123 39q-128 27 -193 78t-65 140q0 96 76 149.5t195 53.5
q140 0 255 -83l-69 -94q-84 60 -193 60q-128 0 -128 -87q0 -38 35.5 -61t121.5 -42z" />
    <glyph glyph-name="scaron" unicode="&#x161;" horiz-adv-x="543" 
d="M220 594l-100 140l100 7l55 -90l54 90l100 -7l-100 -140h-109zM292 339q123 -26 170 -67.5t47 -109.5q0 -81 -64.5 -126.5t-174.5 -45.5q-127 0 -240 66l51 102q96 -55 194 -55q110 0 110 54q0 27 -26.5 41t-101.5 27q-117 20 -163 58.5t-46 107.5q0 80 55 123.5
t155 43.5q57 0 125 -16t107 -41l-50 -104q-83 48 -190 48q-76 0 -76 -44q0 -22 24 -35t94 -27z" />
    <glyph glyph-name="uni0162" unicode="&#x162;" horiz-adv-x="651" 
d="M390 586v-586h-21l-10 -39q31 -7 47.5 -24.5t16.5 -40.5q0 -33 -31 -52.5t-89 -19.5q-30 0 -65 7l14 66q21 -6 41 -6q27 0 27 15q0 26 -52 26l19 68h-27v586h-229v114h589v-114h-230z" />
    <glyph glyph-name="uni0163" unicode="&#x163;" horiz-adv-x="512" 
d="M360 -8l-8 -32q31 -7 47.5 -24.5t16.5 -40.5q0 -33 -31 -52.5t-89 -19.5q-30 0 -65 7l14 66q21 -6 41 -6q27 0 27 15q0 26 -52 26l17 61q-66 11 -102 56t-36 119v269h-103v111h105l9 143h113v-143h187v-111h-187v-249q0 -40 21 -63.5t57 -23.5q59 0 106 22l24 -97
q-43 -24 -112 -33z" />
    <glyph glyph-name="Tcaron" unicode="&#x164;" horiz-adv-x="651" 
d="M270 746l-106 123l106 6l58 -79l57 79l106 -6l-106 -123h-115zM31 700h589v-114h-230v-586h-130v586h-229v114z" />
    <glyph glyph-name="tcaron" unicode="&#x165;" horiz-adv-x="512" 
d="M340 789h94l-29 -218h-65v218zM448 122l24 -97q-63 -36 -153 -36q-85 0 -132 46t-47 132v269h-103v111h105l9 143h113v-143h187v-111h-187v-249q0 -40 21 -63.5t57 -23.5q59 0 106 22z" />
    <glyph glyph-name="Tbar" unicode="&#x166;" horiz-adv-x="651" 
d="M620 700v-114h-230v-186h134v-91h-134v-309h-130v309h-128v91h128v186h-229v114h589z" />
    <glyph glyph-name="tbar" unicode="&#x167;" horiz-adv-x="512" 
d="M448 122l24 -97q-63 -36 -153 -36q-85 0 -132 46t-47 132v111h-79v82h79v76h-103v111h105l9 143h113v-143h187v-111h-187v-76h139v-82h-139v-91q0 -40 21 -63.5t57 -23.5q59 0 106 22z" />
    <glyph glyph-name="Utilde" unicode="&#x168;" horiz-adv-x="760" 
d="M268 744l-61 16q0 49 27 78t68 29q30 0 73.5 -20t59.5 -20q20 0 32.5 13t12.5 35l61 -16q0 -49 -26.5 -78t-67.5 -29q-30 0 -73 20t-60 20q-20 0 -33 -13t-13 -35zM380 -11q-142 0 -226 81.5t-84 222.5v407h130v-383q0 -93 47.5 -143t132.5 -50q86 0 134 50t48 143v383
h128v-407q0 -141 -83 -222.5t-227 -81.5z" />
    <glyph glyph-name="utilde" unicode="&#x169;" horiz-adv-x="678" 
d="M260 645q-20 0 -33 -13t-13 -34l-61 16q0 49 27 78t68 29q30 0 73.5 -20t59.5 -20q20 0 32.5 13t12.5 35l61 -16q0 -49 -26.5 -78t-67.5 -29q-30 0 -73 19.5t-60 19.5zM477 277v270h124v-547h-124v66q-71 -78 -189 -78q-101 0 -161.5 62t-60.5 169v328h124v-311
q0 -133 128 -133q69 0 114 49t45 125z" />
    <glyph glyph-name="Umacron" unicode="&#x16a;" horiz-adv-x="760" 
d="M536 775h-317v77h317v-77zM380 -11q-142 0 -226 81.5t-84 222.5v407h130v-383q0 -93 47.5 -143t132.5 -50q86 0 134 50t48 143v383h128v-407q0 -141 -83 -222.5t-227 -81.5z" />
    <glyph glyph-name="umacron" unicode="&#x16b;" horiz-adv-x="678" 
d="M172 709h317v-78h-317v78zM477 277v270h124v-547h-124v66q-71 -78 -189 -78q-101 0 -161.5 62t-60.5 169v328h124v-311q0 -133 128 -133q69 0 114 49t45 125z" />
    <glyph glyph-name="Ubreve" unicode="&#x16c;" horiz-adv-x="760" 
d="M378 743q-68 0 -109 37.5t-41 101.5l93 1q0 -36 13 -52t44 -16t44.5 16t13.5 52l93 -1q0 -64 -41 -101.5t-110 -37.5zM562 317v383h128v-407q0 -141 -83 -222.5t-227 -81.5q-142 0 -226 81.5t-84 222.5v407h130v-383q0 -93 47.5 -143t132.5 -50q86 0 134 50t48 143z" />
    <glyph glyph-name="ubreve" unicode="&#x16d;" horiz-adv-x="678" 
d="M320 590q-68 0 -109 37.5t-41 101.5l93 1q0 -36 13 -52t44 -16t44.5 16t13.5 52l93 -1q0 -64 -41 -101.5t-110 -37.5zM477 277v270h124v-547h-124v66q-71 -78 -189 -78q-101 0 -161.5 62t-60.5 169v328h124v-311q0 -133 128 -133q69 0 114 49t45 125z" />
    <glyph glyph-name="Uring" unicode="&#x16e;" horiz-adv-x="760" 
d="M382 740q-58 0 -95 34.5t-37 87.5t37 87.5t95 34.5t95.5 -34.5t37.5 -87.5t-37.5 -87.5t-95.5 -34.5zM382 802q26 0 44 17t18 43q0 27 -18 44.5t-44 17.5t-44 -17.5t-18 -44.5q0 -26 18 -43t44 -17zM380 -11q-142 0 -226 81.5t-84 222.5v407h130v-383q0 -93 47.5 -143
t132.5 -50q86 0 134 50t48 143v383h128v-407q0 -141 -83 -222.5t-227 -81.5z" />
    <glyph glyph-name="uring" unicode="&#x16f;" horiz-adv-x="677" 
d="M350 588q-58 0 -95 34.5t-37 87.5t37 87.5t95 34.5q57 0 94.5 -34.5t37.5 -87.5t-37.5 -87.5t-94.5 -34.5zM350 772q-27 0 -45 -17.5t-18 -44.5q0 -26 18 -43t45 -17q26 0 43.5 17t17.5 43q0 27 -17.5 44.5t-43.5 17.5zM477 277v270h124v-547h-124v66q-71 -78 -189 -78
q-101 0 -161.5 62t-60.5 169v328h124v-311q0 -133 128 -133q69 0 114 49t45 125z" />
    <glyph glyph-name="Uhungarumlaut" unicode="&#x170;" horiz-adv-x="760" 
d="M394 849l-93 -104l-85 6l71 123zM578 849l-93 -104l-85 6l72 123zM380 -11q-142 0 -226 81.5t-84 222.5v407h130v-383q0 -93 47.5 -143t132.5 -50q86 0 134 50t48 143v383h128v-407q0 -141 -83 -222.5t-227 -81.5z" />
    <glyph glyph-name="uhungarumlaut" unicode="&#x171;" horiz-adv-x="678" 
d="M200 747l115 -24l-107 -130l-86 7zM500 723l-107 -130l-86 7l78 147zM477 277v270h124v-547h-124v66q-71 -78 -189 -78q-101 0 -161.5 62t-60.5 169v328h124v-311q0 -133 128 -133q69 0 114 49t45 125z" />
    <glyph glyph-name="Uogonek" unicode="&#x172;" horiz-adv-x="760" 
d="M562 317v383h128v-407q0 -94 -38 -163t-108 -105q-48 -33 -48 -68q0 -27 24.5 -37t69.5 -1l6 -71q-100 -21 -154.5 3t-54.5 77q0 33 23 62q-10 -1 -30 -1q-142 0 -226 81.5t-84 222.5v407h130v-383q0 -93 47.5 -143t132.5 -50q86 0 134 50t48 143z" />
    <glyph glyph-name="uogonek" unicode="&#x173;" horiz-adv-x="678" 
d="M617 -119l6 -71q-100 -21 -154.5 3t-54.5 77q0 65 78 110h-15v66q-71 -78 -189 -78q-101 0 -161.5 62t-60.5 169v328h124v-311q0 -133 128 -133q69 0 114 49t45 125v270h124v-547h-9q-69 -38 -69 -81q0 -27 24.5 -37t69.5 -1z" />
    <glyph glyph-name="Wcircumflex" unicode="&#x174;" horiz-adv-x="1094" 
d="M607 750l-57 81l-58 -81l-106 6l106 127h115l106 -127zM777 160l163 540h136l-222 -700h-141l-165 484l-166 -484h-141l-224 700h138l164 -540l172 540h113z" />
    <glyph glyph-name="wcircumflex" unicode="&#x175;" horiz-adv-x="932" 
d="M520 594l-54 90l-55 -90l-100 7l100 140h109l100 -140zM646 143l128 404h131l-187 -547h-139l-113 378l-113 -378h-138l-188 547h131l127 -404l117 404h126z" />
    <glyph glyph-name="Ycircumflex" unicode="&#x176;" horiz-adv-x="708" 
d="M414 750l-57 81l-58 -81l-106 6l106 127h115l106 -127zM554 700h142l-277 -444v-256h-130v259l-277 441h142l201 -333z" />
    <glyph glyph-name="ycircumflex" unicode="&#x177;" horiz-adv-x="646" 
d="M394 594l-54 90l-55 -90l-100 7l100 140h109l100 -140zM329 141l160 406h136l-229 -547l-18 -41q-33 -76 -78 -108.5t-123 -32.5q-73 0 -126 34l37 91q44 -21 83 -21q35 0 52.5 15t33.5 53l5 11h-1l-230 546h136l161 -406h1z" />
    <glyph glyph-name="Ydieresis" unicode="&#x178;" horiz-adv-x="708" 
d="M229 875h105v-116h-105v116zM389 875h105v-116h-105v116zM554 700h142l-277 -444v-256h-130v259l-277 441h142l201 -333z" />
    <glyph glyph-name="Zacute" unicode="&#x179;" horiz-adv-x="700" 
d="M500 849l-105 -104l-87 6l84 123zM652 0h-601v81l414 505h-403v114h585v-81l-416 -505h421v-114z" />
    <glyph glyph-name="zacute" unicode="&#x17a;" horiz-adv-x="559" 
d="M441 726l-122 -130l-88 7l93 147zM523 0h-486v75l308 360h-300v112h473v-74l-311 -361h316v-112z" />
    <glyph glyph-name="Zdotaccent" unicode="&#x17b;" horiz-adv-x="700" 
d="M413 759h-129v117h129v-117zM652 0h-601v81l414 505h-403v114h585v-81l-416 -505h421v-114z" />
    <glyph glyph-name="zdotaccent" unicode="&#x17c;" horiz-adv-x="559" 
d="M341 614h-129v120h129v-120zM523 0h-486v75l308 360h-300v112h473v-74l-311 -361h316v-112z" />
    <glyph glyph-name="Zcaron" unicode="&#x17d;" horiz-adv-x="700" 
d="M294 746l-106 123l106 6l58 -79l57 79l106 -6l-106 -123h-115zM647 619l-416 -505h421v-114h-601v81l414 505h-403v114h585v-81z" />
    <glyph glyph-name="zcaron" unicode="&#x17e;" horiz-adv-x="559" 
d="M222 594l-100 140l100 7l55 -90l54 90l100 -7l-100 -140h-109zM518 473l-311 -361h316v-112h-486v75l308 360h-300v112h473v-74z" />
    <glyph glyph-name="uni018F" unicode="&#x18f;" horiz-adv-x="843" 
d="M394 710q169 0 279 -102t110 -259t-106 -258.5t-272 -101.5q-152 0 -248.5 95t-96.5 245q0 25 6 47h583q-6 98 -77 161.5t-176 63.5q-126 0 -209 -86l-84 76q114 119 291 119zM405 96q86 0 150.5 49t85.5 130h-446q17 -83 73 -131t137 -48z" />
    <glyph glyph-name="florin" unicode="&#x192;" horiz-adv-x="719" 
d="M566 680q-44 0 -70.5 -28.5t-43.5 -104.5h144v-93h-161l-38 -214q-44 -249 -227 -249q-76 0 -124 24l34 85q44 -18 82 -18q42 0 69 36t44 131l36 205h-117v93h133q25 121 77.5 173t143.5 52q76 0 124 -24l-33 -86q-42 18 -73 18z" />
    <glyph glyph-name="uni019D" unicode="&#x19d;" horiz-adv-x="819" 
d="M594 223v477h130v-700h-108l-395 483v-483q0 -170 -182 -170q-59 0 -109 25l30 93q24 -14 56 -14q33 0 54 19.5t21 56.5v128q0 76 1 104v458h111z" />
    <glyph glyph-name="Ohorn" unicode="&#x1a0;" horiz-adv-x="863" 
d="M710 597q93 -99 93 -247q0 -157 -105 -259t-267 -102q-161 0 -266 102t-105 259t105 259t267 102q101 0 186 -44q90 3 59 95l107 6q24 -74 2.5 -118.5t-76.5 -52.5zM432 106q104 0 169.5 67t65.5 177t-65.5 177t-169.5 67q-105 0 -170.5 -67t-65.5 -177t65.5 -177
t170.5 -67z" />
    <glyph glyph-name="ohorn" unicode="&#x1a1;" 
d="M544 625l107 6q24 -74 2.5 -119t-76.5 -52q66 -77 66 -185q0 -124 -84.5 -205t-214.5 -81t-214 80.5t-84 204.5t84.5 204.5t213.5 80.5q77 0 138 -29q94 2 62 95zM345 101q76 0 124 48t48 125q0 78 -48 125t-125 47q-76 0 -124.5 -47t-48.5 -124q0 -78 49 -126t125 -48z
" />
    <glyph glyph-name="Uhorn" unicode="&#x1af;" horiz-adv-x="807" 
d="M720 793l100 6q30 -85 -11.5 -130t-118.5 -25v-351q0 -141 -83 -222.5t-227 -81.5q-142 0 -226 81.5t-84 222.5v407h130v-383q0 -93 47.5 -143t132.5 -50q86 0 134 50t48 143v383h91l2 5q45 -2 63.5 18.5t1.5 69.5z" />
    <glyph glyph-name="uhorn" unicode="&#x1b0;" horiz-adv-x="723" 
d="M634 639l97 6q29 -83 -12.5 -127t-117.5 -22v-496h-124v66q-71 -78 -189 -78q-101 0 -161.5 62t-60.5 169v328h124v-311q0 -133 128 -133q69 0 114 49t45 125v270h91l3 7q93 -2 63 85z" />
    <glyph glyph-name="uni01CD" unicode="&#x1cd;" horiz-adv-x="792" 
d="M340 746l-106 123l106 6l58 -79l57 79l106 -6l-106 -123h-115zM775 0h-138l-56 129h-372l-56 -129h-136l314 700h129zM395 559l-137 -317h274z" />
    <glyph glyph-name="uni01CE" unicode="&#x1ce;" horiz-adv-x="607" 
d="M237 596l-100 140l100 7l55 -90l54 90l100 -7l-100 -140h-109zM285 559q128 0 192 -60t64 -170v-329h-124v65q-70 -76 -194 -76q-86 0 -138.5 49t-52.5 126q0 79 54 131t166 52q78 0 164 -9q-3 52 -39.5 80.5t-104.5 28.5q-38 0 -80 -16t-72 -43l-61 91q96 80 226 80z
M264 100q61 0 104 37t48 92v9q-62 9 -134 9q-131 0 -131 -76q0 -71 113 -71z" />
    <glyph glyph-name="uni01CF" unicode="&#x1cf;" horiz-adv-x="313" 
d="M101 746l-106 123l106 6l58 -79l57 79l106 -6l-106 -123h-115zM221 0h-129v700h129v-700z" />
    <glyph glyph-name="uni01D0" unicode="&#x1d0;" horiz-adv-x="276" 
d="M83 594l-100 140l100 7l55 -90l54 90l100 -7l-100 -140h-109zM200 0h-124v547h124v-547z" />
    <glyph glyph-name="uni01D1" unicode="&#x1d1;" horiz-adv-x="863" 
d="M376 746l-106 123l106 6l58 -79l57 79l106 -6l-106 -123h-115zM432 711q161 0 266 -102t105 -259t-105 -259t-267 -102q-161 0 -266 102t-105 259t105 259t267 102zM432 106q104 0 169.5 67t65.5 177t-65.5 177t-169.5 67q-105 0 -170.5 -67t-65.5 -177t65.5 -177
t170.5 -67z" />
    <glyph glyph-name="uni01D2" unicode="&#x1d2;" 
d="M291 594l-100 140l100 7l55 -90l54 90l100 -7l-100 -140h-109zM344 559q130 0 214.5 -80.5t84.5 -203.5q0 -124 -84.5 -205t-214.5 -81t-214 80.5t-84 204.5t84.5 204.5t213.5 80.5zM345 101q76 0 124 48t48 125q0 78 -48 125t-125 47q-76 0 -124.5 -47t-48.5 -124
q0 -78 49 -126t125 -48z" />
    <glyph glyph-name="uni01D3" unicode="&#x1d3;" horiz-adv-x="760" 
d="M326 746l-106 123l106 6l58 -79l57 79l106 -6l-106 -123h-115zM562 317v383h128v-407q0 -141 -83 -222.5t-227 -81.5q-142 0 -226 81.5t-84 222.5v407h130v-383q0 -93 47.5 -143t132.5 -50q86 0 134 50t48 143z" />
    <glyph glyph-name="uni01D4" unicode="&#x1d4;" horiz-adv-x="678" 
d="M266 594l-100 140l100 7l55 -90l54 90l100 -7l-100 -140h-109zM477 277v270h124v-547h-124v66q-71 -78 -189 -78q-101 0 -161.5 62t-60.5 169v328h124v-311q0 -133 128 -133q69 0 114 49t45 125z" />
    <glyph glyph-name="uni01D5" unicode="&#x1d5;" horiz-adv-x="761" 
d="M535 949h-317v77h317v-77zM366 759h-105v116h105v-116zM526 759h-105v116h105v-116zM380 -11q-142 0 -226 81.5t-84 222.5v407h130v-383q0 -93 47.5 -143t132.5 -50q86 0 134 50t48 143v383h128v-407q0 -141 -83 -222.5t-227 -81.5z" />
    <glyph glyph-name="uni01D6" unicode="&#x1d6;" horiz-adv-x="677" 
d="M202 895h317v-78h-317v78zM333 734v-120h-90v120h90zM502 734v-120h-88v120h88zM477 277v270h124v-547h-124v66q-71 -78 -189 -78q-101 0 -161.5 62t-60.5 169v328h124v-311q0 -133 128 -133q69 0 114 49t45 125z" />
    <glyph glyph-name="uni01D7" unicode="&#x1d7;" horiz-adv-x="761" 
d="M531 1023l-105 -104l-87 6l84 123zM366 759h-105v116h105v-116zM526 759h-105v116h105v-116zM380 -11q-142 0 -226 81.5t-84 222.5v407h130v-383q0 -93 47.5 -143t132.5 -50q86 0 134 50t48 143v383h128v-407q0 -141 -83 -222.5t-227 -81.5z" />
    <glyph glyph-name="uni01D8" unicode="&#x1d8;" horiz-adv-x="677" 
d="M397 936l117 -24l-121 -130l-88 7zM243 734h90v-120h-90v120zM502 734v-120h-88v120h88zM477 277v270h124v-547h-124v66q-71 -78 -189 -78q-101 0 -161.5 62t-60.5 169v328h124v-311q0 -133 128 -133q69 0 114 49t45 125z" />
    <glyph glyph-name="uni01D9" unicode="&#x1d9;" horiz-adv-x="761" 
d="M326 920l-106 123l105 6l58 -80l58 80l106 -6l-107 -123h-114zM366 759h-105v116h105v-116zM526 759h-105v116h105v-116zM562 317v383h128v-407q0 -141 -83 -222.5t-227 -81.5q-142 0 -226 81.5t-84 222.5v407h130v-383q0 -93 47.5 -143t132.5 -50q86 0 134 50t48 143z
" />
    <glyph glyph-name="uni01DA" unicode="&#x1da;" horiz-adv-x="677" 
d="M296 780l-101 140l100 7l55 -91l54 91l100 -7l-100 -140h-108zM333 614h-90v120h90v-120zM502 734v-120h-88v120h88zM477 277v270h124v-547h-124v66q-71 -78 -189 -78q-101 0 -161.5 62t-60.5 169v328h124v-311q0 -133 128 -133q69 0 114 49t45 125z" />
    <glyph glyph-name="uni01DB" unicode="&#x1db;" horiz-adv-x="760" 
d="M422 925l-87 -6l-105 104l108 25zM361 759h-105v116h105v-116zM521 759h-105v116h105v-116zM380 -11q-142 0 -226 81.5t-84 222.5v407h130v-383q0 -93 47.5 -143t132.5 -50q86 0 134 50t48 143v383h128v-407q0 -141 -83 -222.5t-227 -81.5z" />
    <glyph glyph-name="uni01DB" unicode="&#x1dc;" horiz-adv-x="760" 
d="M422 925l-87 -6l-105 104l108 25zM361 759h-105v116h105v-116zM521 759h-105v116h105v-116zM380 -11q-142 0 -226 81.5t-84 222.5v407h130v-383q0 -93 47.5 -143t132.5 -50q86 0 134 50t48 143v383h128v-407q0 -141 -83 -222.5t-227 -81.5z" />
    <glyph glyph-name="Gcaron" unicode="&#x1e6;" horiz-adv-x="786" 
d="M388 746l-106 123l106 6l58 -79l57 79l106 -6l-106 -123h-115zM599 157v203h116v-259q-114 -112 -281 -112q-163 0 -268.5 102t-105.5 258q0 158 104.5 260t266.5 102q161 0 271 -111l-83 -81q-76 76 -185 76q-106 0 -172.5 -67t-66.5 -179t67 -178t178 -66q92 0 159 52z
" />
    <glyph glyph-name="gcaron" unicode="&#x1e7;" horiz-adv-x="643" 
d="M272 594l-100 140l100 7l55 -90l54 90l100 -7l-100 -140h-109zM243 145h146q110 0 165 -40t55 -109q0 -81 -78 -129.5t-225 -48.5q-121 0 -188 37.5t-67 105.5q0 57 71 96q-48 29 -48 84q0 65 63 99q-62 50 -62 135t64.5 134.5t176.5 49.5q69 0 113 -20l143 48l28 -100
l-80 -15q39 -37 39 -97q0 -86 -64.5 -136t-176.5 -50q-54 0 -103 13q-19 -11 -19 -30q0 -27 47 -27zM317 453q-119 0 -119 -77q0 -81 119 -81t119 80q0 78 -119 78zM313 -71q88 0 129.5 13t41.5 47q0 28 -30 37t-101 9h-142q-34 -27 -34 -55q0 -30 32.5 -40.5t103.5 -10.5z
" />
    <glyph glyph-name="uni01EA" unicode="&#x1ea;" horiz-adv-x="863" 
d="M609 29q-63 -37 -63 -78q0 -27 24.5 -37t69.5 -1l6 -71q-100 -21 -154.5 3t-54.5 77q0 36 27 68q-10 -1 -33 -1q-161 0 -266 102t-105 259t105 259t267 102q161 0 266 -102t105 -259q0 -108 -52 -192.5t-142 -128.5zM196 350q0 -110 65.5 -177t170.5 -67q104 0 169.5 67
t65.5 177t-65.5 177t-169.5 67q-105 0 -170.5 -67t-65.5 -177z" />
    <glyph glyph-name="uni01EB" unicode="&#x1eb;" 
d="M643 275q0 -77 -34 -139.5t-95 -100.5q-69 -38 -69 -81q0 -27 24.5 -37t69.5 -1l6 -71q-100 -21 -154.5 3t-54.5 77q0 34 24 64h-16q-130 0 -214 80.5t-84 204.5t84.5 204.5t213.5 80.5q130 0 214.5 -80.5t84.5 -203.5zM345 101q76 0 124 48t48 125q0 78 -48 125t-125 47
q-76 0 -124.5 -47t-48.5 -124q0 -78 49 -126t125 -48z" />
    <glyph glyph-name="Aringacute" unicode="&#x1fa;" horiz-adv-x="792" 
d="M420 1038l108 -25l-105 -104l-87 6zM775 0h-138l-56 129h-372l-56 -129h-136l303 675q-56 35 -56 102q0 53 37 87.5t95 34.5t95.5 -34.5t37.5 -87.5q0 -68 -58 -102zM396 839q-26 0 -44 -17.5t-18 -44.5q0 -26 18 -43t44 -17t44 17t18 43q0 27 -18 44.5t-44 17.5z
M395 559l-137 -317h274z" />
    <glyph glyph-name="aringacute" unicode="&#x1fb;" horiz-adv-x="619" 
d="M349 1041l117 -23l-122 -131l-88 7zM301 590q-58 0 -95 34.5t-37 87.5t37 87.5t95 34.5q57 0 94.5 -34.5t37.5 -87.5t-37.5 -87.5t-94.5 -34.5zM301 774q-26 0 -44 -17.5t-18 -44.5q0 -26 18 -43t44 -17t44 17t18 43q0 27 -18 44.5t-44 17.5zM285 559q128 0 192 -60
t64 -170v-329h-124v65q-70 -76 -194 -76q-86 0 -138.5 49t-52.5 126q0 79 54 131t166 52q78 0 164 -9q-3 52 -39.5 80.5t-104.5 28.5q-38 0 -80 -16t-72 -43l-61 91q96 80 226 80zM264 100q61 0 104 37t48 92v9q-62 9 -134 9q-131 0 -131 -76q0 -71 113 -71z" />
    <glyph glyph-name="AEacute" unicode="&#x1fc;" horiz-adv-x="1108" 
d="M739 874l108 -25l-105 -104l-87 6zM626 304v-190h431v-114h-558v158h-257l-90 -158h-135l391 700h639v-114h-421v-168h377v-114h-377zM488 592l-182 -321h193v321h-11z" />
    <glyph glyph-name="aeacute" unicode="&#x1fd;" horiz-adv-x="986" 
d="M555 750l117 -24l-122 -130l-88 7zM957 225h-418q12 -58 59 -91t116 -33q88 0 139 55l80 -71q-92 -95 -225 -95q-83 0 -149.5 34.5t-105.5 94.5q-37 -57 -99 -93.5t-139 -36.5q-84 0 -138 48t-54 126q0 77 57 125.5t161 48.5q95 0 164 -9v11q-1 56 -37.5 86.5
t-106.5 30.5q-39 0 -84 -16.5t-67 -42.5l-65 85q49 36 111.5 56.5t118.5 20.5q142 0 206 -91q81 89 219 89q116 0 190 -73t74 -185q0 -28 -7 -74zM699 447q-62 0 -104 -32t-54 -87h300q-21 119 -142 119zM247 96q69 0 114 40.5t45 102.5q-58 8 -135 8q-61 0 -95 -21t-34 -55
q0 -35 28 -55t77 -20z" />
    <glyph glyph-name="oslashacute" unicode="&#x1ff;" 
d="M383 750l117 -24l-122 -130l-88 7zM632 488l-43 -43q54 -75 54 -170q0 -124 -84.5 -205t-214.5 -81q-94 0 -167 45l-41 -41l-72 71l38 38q-56 73 -56 172q0 124 84.5 204.5t213.5 80.5q96 0 169 -45l47 47zM171 275q0 -45 19 -85l237 238q-36 18 -83 18q-76 0 -124.5 -47
t-48.5 -124zM345 101q76 0 124 48t48 125q0 45 -17 82l-238 -237q36 -18 83 -18z" />
    <glyph glyph-name="uni0218" unicode="&#x218;" horiz-adv-x="648" 
d="M331 -11q-170 0 -293 100l59 99q119 -82 242 -82q64 0 99 23t35 59q0 43 -34 63t-123 39q-128 27 -193 78t-65 140q0 96 76 149.5t195 53.5q140 0 255 -83l-69 -94q-84 60 -193 60q-128 0 -128 -87q0 -38 35.5 -61t121.5 -42q137 -30 197.5 -74t60.5 -132
q0 -96 -77.5 -152.5t-200.5 -56.5zM286 -231l-20 44q54 21 51 69h-51v83h115q35 -154 -95 -196z" />
    <glyph glyph-name="uni0219" unicode="&#x219;" horiz-adv-x="543" 
d="M270 -10q-127 0 -240 66l51 102q96 -55 194 -55q110 0 110 54q0 27 -26.5 41t-101.5 27q-117 20 -163 58.5t-46 107.5q0 80 55 123.5t155 43.5q57 0 125 -16t107 -41l-50 -104q-83 48 -190 48q-76 0 -76 -44q0 -22 24 -35t94 -27q123 -26 170 -67.5t47 -109.5
q0 -81 -64.5 -126.5t-174.5 -45.5zM235 -231l-20 44q54 21 51 69h-51v83h115q35 -154 -95 -196z" />
    <glyph glyph-name="uni021A" unicode="&#x21a;" horiz-adv-x="651" 
d="M31 700h589v-114h-230v-586h-130v586h-229v114zM265 -118v83h115q35 -154 -95 -196l-20 44q54 21 51 69h-51z" />
    <glyph glyph-name="uni021B" unicode="&#x21b;" horiz-adv-x="512" 
d="M448 122l24 -97q-63 -36 -153 -36q-85 0 -132 46t-47 132v269h-103v111h105l9 143h113v-143h187v-111h-187v-249q0 -40 21 -63.5t57 -23.5q59 0 106 22zM258 -119v83h115q35 -154 -95 -196l-20 44q54 21 51 69h-51z" />
    <glyph glyph-name="uni0232" unicode="&#x232;" horiz-adv-x="708" 
d="M192 852h317v-77h-317v77zM554 700h142l-277 -444v-256h-130v259l-277 441h142l201 -333z" />
    <glyph glyph-name="uni0233" unicode="&#x233;" horiz-adv-x="646" 
d="M191 709h317v-78h-317v78zM329 141l160 406h136l-229 -547l-18 -41q-33 -76 -78 -108.5t-123 -32.5q-73 0 -126 34l37 91q44 -21 83 -21q35 0 52.5 15t33.5 53l5 11h-1l-230 546h136l161 -406h1z" />
    <glyph glyph-name="uni0237" unicode="&#x237;" horiz-adv-x="291" 
d="M-63 -155l32 99q20 -10 46 -10q36 0 55.5 18.5t19.5 53.5v541h125v-551q0 -82 -51.5 -127t-132.5 -45q-51 0 -94 21z" />
    <glyph glyph-name="uni0259" unicode="&#x259;" horiz-adv-x="623" 
d="M279 557q130 0 214 -80t84 -204t-80.5 -203.5t-209.5 -79.5q-116 0 -190 73t-74 185q0 24 6 74h419q-12 58 -59 91t-116 33q-89 0 -139 -55l-80 71q90 95 225 95zM288 100q62 0 104 32t54 87h-300q21 -119 142 -119z" />
    <glyph glyph-name="uni0272" unicode="&#x272;" horiz-adv-x="677" 
d="M389 559q101 0 161.5 -62t60.5 -169v-328h-124v311q0 133 -128 133q-69 0 -114 -49t-45 -125v-270q0 -170 -174 -170q-56 0 -104 25l28 93q25 -14 54 -14q32 0 52 19.5t20 56.5v537h124v-66q71 78 189 78z" />
    <glyph glyph-name="uni02B0" unicode="&#x2b0;" horiz-adv-x="362" 
d="M228 767q49 0 75 -30.5t26 -87.5v-169h-96v149q0 26 -13.5 42.5t-33.5 16.5t-36 -17t-16 -42v-149h-97v371h97v-156q13 32 40 52t54 20z" />
    <glyph glyph-name="circumflex" unicode="&#x2c6;" horiz-adv-x="429" 
d="M269 741l100 -140l-100 -7l-54 90l-55 -90l-100 7l100 140h109z" />
    <glyph glyph-name="caron" unicode="&#x2c7;" horiz-adv-x="429" 
d="M215 651l54 90l100 -7l-100 -140h-109l-100 140l100 7z" />
    <glyph glyph-name="breve" unicode="&#x2d8;" horiz-adv-x="421" 
d="M268 730l93 -1q0 -64 -41 -101.5t-110 -37.5q-68 0 -109 37.5t-41 101.5l93 1q0 -36 13 -52t44 -16t44.5 16t13.5 52z" />
    <glyph glyph-name="dotaccent" unicode="&#x2d9;" horiz-adv-x="249" 
d="M189 614h-129v120h129v-120z" />
    <glyph glyph-name="ring" unicode="&#x2da;" horiz-adv-x="385" 
d="M192 588q-58 0 -95 34.5t-37 87.5t37 87.5t95 34.5t95.5 -34.5t37.5 -87.5t-37.5 -87.5t-95.5 -34.5zM192 650q26 0 44 17t18 43q0 27 -18 44.5t-44 17.5t-44 -17.5t-18 -44.5q0 -26 18 -43t44 -17z" />
    <glyph glyph-name="ogonek" unicode="&#x2db;" horiz-adv-x="289" 
d="M152 16l66 -16q-69 -38 -69 -81q0 -27 24.5 -37t69.5 -1l6 -71q-100 -21 -154.5 3t-54.5 77q0 39 32 73.5t80 52.5z" />
    <glyph glyph-name="tilde" unicode="&#x2dc;" horiz-adv-x="455" 
d="M121 598l-61 16q0 49 27 78t68 29q30 0 73.5 -20t59.5 -20q20 0 32.5 13t12.5 35l61 -16q0 -49 -26.5 -78t-67.5 -29q-30 0 -73 19.5t-60 19.5q-20 0 -33 -13t-13 -34z" />
    <glyph glyph-name="hungarumlaut" unicode="&#x2dd;" horiz-adv-x="498" 
d="M253 726l-107 -130l-86 7l78 147zM438 726l-107 -130l-86 7l78 147z" />
    <glyph glyph-name="uni02E1" unicode="&#x2e1;" horiz-adv-x="170" 
d="M134 480h-97v371h97v-371z" />
    <glyph glyph-name="uni02E2" unicode="&#x2e2;" horiz-adv-x="295" 
d="M141 473q-76 0 -127 32l18 63q54 -27 118 -27q37 0 37 18q0 10 -10.5 15.5t-45.5 12.5q-57 12 -83 32.5t-26 56.5q0 91 128 91q62 0 114 -28l-21 -61q-57 22 -92 22q-45 0 -45 -17q0 -10 10.5 -15.5t41.5 -11.5q59 -11 87 -31.5t28 -58.5q0 -43 -37 -68t-95 -25z" />
    <glyph glyph-name="gravecomb" unicode="&#x300;" horiz-adv-x="0" 
d="M-60 603l-88 -7l-122 130l117 24z" />
    <glyph glyph-name="acutecomb" unicode="&#x301;" horiz-adv-x="0" 
d="M-60 726l-122 -130l-88 7l93 147z" />
    <glyph glyph-name="uni0302" unicode="&#x302;" horiz-adv-x="0" 
d="M-160 741l100 -140l-100 -7l-54 90l-55 -90l-100 7l100 140h109z" />
    <glyph glyph-name="tildecomb" unicode="&#x303;" horiz-adv-x="0" 
d="M-334 598l-61 16q0 49 27 78t68 29q30 0 73.5 -20t59.5 -20q20 0 32.5 13t12.5 35l61 -16q0 -49 -26.5 -78t-67.5 -29q-30 0 -73 19.5t-60 19.5q-20 0 -33 -13t-13 -34z" />
    <glyph glyph-name="uni0304" unicode="&#x304;" horiz-adv-x="0" 
d="M-61 631h-317v78h317v-78z" />
    <glyph glyph-name="uni0306" unicode="&#x306;" horiz-adv-x="0" 
d="M-153 730l93 -1q0 -64 -41 -101.5t-110 -37.5q-68 0 -109 37.5t-41 101.5l93 1q0 -36 13 -52t44 -16t44.5 16t13.5 52z" />
    <glyph glyph-name="uni0307" unicode="&#x307;" horiz-adv-x="0" 
d="M-60 614h-129v120h129v-120z" />
    <glyph glyph-name="uni0308" unicode="&#x308;" horiz-adv-x="0" 
d="M-229 614h-90v120h90v-120zM-60 614h-89v120h89v-120z" />
    <glyph glyph-name="hookabovecomb" unicode="&#x309;" horiz-adv-x="0" 
d="M-123 587l-57 16q2 3 8 11t8.5 12.5t7.5 12.5t7 14t4 14t2 15q0 22 -20 31t-47 -7l-6 53q70 31 113 13.5t43 -60.5q0 -59 -63 -125z" />
    <glyph glyph-name="uni030A" unicode="&#x30a;" horiz-adv-x="0" 
d="M-193 588q-58 0 -95 34.5t-37 87.5t37 87.5t95 34.5t95.5 -34.5t37.5 -87.5t-37.5 -87.5t-95.5 -34.5zM-193 650q26 0 44 17t18 43q0 27 -18 44.5t-44 17.5t-44 -17.5t-18 -44.5q0 -26 18 -43t44 -17z" />
    <glyph glyph-name="uni030B" unicode="&#x30b;" horiz-adv-x="0" 
d="M-245 726l-107 -130l-86 7l78 147zM-60 726l-107 -130l-86 7l78 147z" />
    <glyph glyph-name="uni030C" unicode="&#x30c;" horiz-adv-x="0" 
d="M-214 651l54 90l100 -7l-100 -140h-109l-100 140l100 7z" />
    <glyph glyph-name="uni0312" unicode="&#x312;" horiz-adv-x="0" 
d="M-81 785l20 -44q-54 -20 -51 -69h51v-83h-115q-35 154 95 196z" />
    <glyph glyph-name="uni031B" unicode="&#x31b;" horiz-adv-x="0" 
d="M-248 546l16 44q103 -2 70 95l107 6q21 -55 11 -93.5t-37.5 -59.5t-72.5 -19.5t-94 27.5z" />
    <glyph glyph-name="dotbelowcomb" unicode="&#x323;" horiz-adv-x="0" 
d="M-189 -167v120h129v-120h-129z" />
    <glyph glyph-name="uni0324" unicode="&#x324;" horiz-adv-x="0" 
 />
    <glyph glyph-name="uni0326" unicode="&#x326;" horiz-adv-x="0" 
d="M-157 -231l-20 44q54 21 51 69h-51v83h115q35 -154 -95 -196z" />
    <glyph glyph-name="uni0327" unicode="&#x327;" horiz-adv-x="0" 
d="M-102 7l-12 -46q31 -7 47.5 -24.5t16.5 -40.5q0 -33 -31 -52.5t-89 -19.5q-30 0 -65 7l14 66q21 -6 41 -6q27 0 27 15q0 26 -52 26l21 75h82z" />
    <glyph glyph-name="uni0328" unicode="&#x328;" horiz-adv-x="0" 
d="M-137 16l66 -16q-69 -38 -69 -81q0 -27 24.5 -37t69.5 -1l6 -71q-100 -21 -154.5 3t-54.5 77q0 39 32 73.5t80 52.5z" />
    <glyph glyph-name="uni032E" unicode="&#x32e;" horiz-adv-x="0" 
d="M-141 -34l82 -1q0 -50 -36 -79.5t-97 -29.5t-97 29.5t-36 79.5l82 1q0 -29 11.5 -41t39.5 -12t39.5 12t11.5 41z" />
    <glyph glyph-name="uni0331" unicode="&#x331;" horiz-adv-x="0" 
d="M-41 -125h-317v77h317v-77z" />
    <glyph glyph-name="uni0335" unicode="&#x335;" horiz-adv-x="0" 
d="M-382 292v82h342v-82h-342z" />
    <glyph glyph-name="uni0336" unicode="&#x336;" horiz-adv-x="0" 
 />
    <glyph glyph-name="uni0337" unicode="&#x337;" horiz-adv-x="0" 
d="M-305 254l-36 71l284 147l36 -72z" />
    <glyph glyph-name="uni0338" unicode="&#x338;" horiz-adv-x="0" 
d="M-548 -9l-72 71l496 497l72 -73z" />
    <glyph glyph-name="tonos" unicode="&#x384;" horiz-adv-x="240" 
d="M188 751l-43 -147h-76l11 147h108z" />
    <glyph glyph-name="dieresistonos" unicode="&#x385;" horiz-adv-x="421" 
d="M274 790l-38 -146h-58l10 146h86zM141 593h-75v108h75v-108zM358 593h-74v108h74v-108z" />
    <glyph glyph-name="Alphatonos" unicode="&#x386;" horiz-adv-x="792" 
d="M775 0h-138l-56 129h-372l-56 -129h-136l314 700h129zM64 700h108l-43 -147h-76zM395 559l-137 -317h274z" />
    <glyph glyph-name="Epsilontonos" unicode="&#x388;" horiz-adv-x="701" 
d="M-23 553h-76l11 147h108zM219 304v-190h431v-114h-558v700h548v-114h-421v-168h377v-114h-377z" />
    <glyph glyph-name="Etatonos" unicode="&#x389;" horiz-adv-x="805" 
d="M-23 553h-76l11 147h108zM583 405v295h130v-700h-130v291h-361v-291h-130v700h130v-295h361z" />
    <glyph glyph-name="Iotatonos" unicode="&#x38a;" horiz-adv-x="313" 
d="M20 700l-43 -147h-76l11 147h108zM221 0h-129v700h129v-700z" />
    <glyph glyph-name="Omicrontonos" unicode="&#x38c;" horiz-adv-x="863" 
d="M431 -11q-161 0 -266 102t-105 259t105 259t267 102q161 0 266 -102t105 -259t-105 -259t-267 -102zM20 700l-43 -147h-76l11 147h108zM432 106q104 0 169.5 67t65.5 177t-65.5 177t-169.5 67q-105 0 -170.5 -67t-65.5 -177t65.5 -177t170.5 -67z" />
    <glyph glyph-name="Upsilontonos" unicode="&#x38e;" horiz-adv-x="708" 
d="M-96 553h-76l11 147h108zM554 700h142l-277 -444v-256h-130v259l-277 441h142l201 -333z" />
    <glyph glyph-name="Omegatonos" unicode="&#x38f;" horiz-adv-x="785" 
d="M725 410q0 -53 -13.5 -100t-41.5 -88t-51 -67t-62 -65l143 8v-98h-257v84q16 33 45.5 74t50.5 69t38 73.5t17 96.5q0 90 -56.5 145.5t-145.5 55.5t-145.5 -55.5t-56.5 -145.5q0 -51 17 -96.5t38.5 -74t51 -69t45.5 -73.5v-84h-256v98l144 -8q-43 43 -63 65.5t-50.5 65.5
t-43.5 89t-13 100q0 122 87 209.5t246 87.5q81 0 146 -25t104.5 -67t60.5 -94.5t21 -110.5zM-4 553h-76l11 147h108z" />
    <glyph glyph-name="iotadieresistonos" unicode="&#x390;" horiz-adv-x="332" 
d="M173 790l-38 -146h-58l10 146h86zM40 593h-75v108h75v-108zM257 593h-74v108h74v-108zM307 87v-98h-55q-89 0 -137.5 42t-48.5 148v368h125v-346q0 -62 20.5 -88t59.5 -26h36z" />
    <glyph glyph-name="Alpha" unicode="&#x391;" horiz-adv-x="792" 
d="M775 0h-138l-56 129h-372l-56 -129h-136l314 700h129zM395 559l-137 -317h274z" />
    <glyph glyph-name="Beta" unicode="&#x392;" horiz-adv-x="761" 
d="M572 361q62 -17 99.5 -64t37.5 -110q0 -87 -69 -137t-189 -50h-359v700h349q111 0 175 -47t64 -129q0 -56 -29.5 -100t-78.5 -63zM415 585h-194v-175h194q72 0 104.5 22t32.5 66q0 46 -33 66.5t-104 20.5zM221 115h212q77 0 112 22t35 68q0 49 -37 70.5t-115 21.5h-207
v-182z" />
    <glyph glyph-name="Gamma" unicode="&#x393;" horiz-adv-x="624" 
d="M92 0v700h511v-114h-383v-586h-128z" />
    <glyph glyph-name="uni0394" unicode="&#x394;" horiz-adv-x="772" 
d="M322 700h129l304 -700h-738zM385 563l-188 -454h376l-186 454h-2z" />
    <glyph glyph-name="Epsilon" unicode="&#x395;" horiz-adv-x="701" 
d="M219 304v-190h431v-114h-558v700h548v-114h-421v-168h377v-114h-377z" />
    <glyph glyph-name="Zeta" unicode="&#x396;" horiz-adv-x="700" 
d="M652 0h-601v81l414 505h-403v114h585v-81l-416 -505h421v-114z" />
    <glyph glyph-name="Eta" unicode="&#x397;" horiz-adv-x="805" 
d="M583 405v295h130v-700h-130v291h-361v-291h-130v700h130v-295h361z" />
    <glyph glyph-name="Theta" unicode="&#x398;" horiz-adv-x="863" 
d="M431 -11q-161 0 -266 102t-105 259t105 259t267 102q161 0 266 -102t105 -259t-105 -259t-267 -102zM432 106q104 0 169.5 67t65.5 177t-65.5 177t-169.5 67q-105 0 -170.5 -67t-65.5 -177t65.5 -177t170.5 -67zM227 314v82h411v-82h-411z" />
    <glyph glyph-name="Iota" unicode="&#x399;" horiz-adv-x="313" 
d="M221 0h-129v700h129v-700z" />
    <glyph glyph-name="Kappa" unicode="&#x39a;" horiz-adv-x="759" 
d="M734 0h-150l-218 312l-145 -159v-153h-129v700h129v-385l336 385h161l-265 -291z" />
    <glyph glyph-name="Lambda" unicode="&#x39b;" horiz-adv-x="772" 
d="M17 0l305 700h128l304 -700h-136l-230 548h-4l-229 -548h-138z" />
    <glyph glyph-name="Mu" unicode="&#x39c;" horiz-adv-x="926" 
d="M463 294l252 406h119v-700h-129v468l-221 -339h-42l-221 340v-469h-129v700h120z" />
    <glyph glyph-name="Nu" unicode="&#x39d;" horiz-adv-x="816" 
d="M221 0h-129v700h111l391 -477v477h130v-700h-108l-395 483v-483z" />
    <glyph glyph-name="Xi" unicode="&#x39e;" horiz-adv-x="541" 
d="M491 593h-468v107h468v-107zM443 301h-378v102h378v-102zM491 0h-468v107h468v-107z" />
    <glyph glyph-name="Omicron" unicode="&#x39f;" horiz-adv-x="863" 
d="M431 -11q-161 0 -266 102t-105 259t105 259t267 102q161 0 266 -102t105 -259t-105 -259t-267 -102zM432 106q104 0 169.5 67t65.5 177t-65.5 177t-169.5 67q-105 0 -170.5 -67t-65.5 -177t65.5 -177t170.5 -67z" />
    <glyph glyph-name="Pi" unicode="&#x3a0;" horiz-adv-x="791" 
d="M699 700v-700h-129v593h-350v-593h-128v700h607z" />
    <glyph glyph-name="Rho" unicode="&#x3a1;" horiz-adv-x="707" 
d="M371 700q140 0 220 -65t80 -179q0 -115 -81 -180.5t-221 -65.5h-148v-210h-129v700h279zM221 324h146q175 0 175 132q0 65 -45.5 97.5t-128.5 32.5h-147v-262z" />
    <glyph glyph-name="Sigma" unicode="&#x3a3;" horiz-adv-x="638" 
d="M588 0h-537v88l235 266l-236 258v88h533v-107h-376l208 -239l-208 -247h381v-107z" />
    <glyph glyph-name="Tau" unicode="&#x3a4;" horiz-adv-x="651" 
d="M31 700h589v-114h-230v-586h-130v586h-229v114z" />
    <glyph glyph-name="Upsilon" unicode="&#x3a5;" horiz-adv-x="708" 
d="M554 700h142l-277 -444v-256h-130v259l-277 441h142l201 -333z" />
    <glyph glyph-name="Phi" unicode="&#x3a6;" horiz-adv-x="942" 
d="M882 350q0 -122 -95 -199t-254 -81v-79h-125v79q-159 4 -253.5 81t-94.5 199t94.5 199t253.5 81v79h125v-79q160 -4 254.5 -81t94.5 -199zM195 350q0 -79 57 -128t156 -53v362q-99 -4 -156 -53t-57 -128zM533 531v-362q100 4 156.5 52.5t56.5 128.5q0 79 -56 128t-157 53
z" />
    <glyph glyph-name="Chi" unicode="&#x3a7;" horiz-adv-x="743" 
d="M452 359l265 -359h-150l-195 262l-195 -262h-152l268 361l-253 339h152l180 -246l180 246h151z" />
    <glyph glyph-name="Psi" unicode="&#x3a8;" horiz-adv-x="849" 
d="M649 462v238h130v-213q0 -136 -73 -211.5t-219 -79.5v-196h-125v196q-147 5 -219.5 80.5t-72.5 211.5v212h130v-237q0 -169 162 -174v411h125v-411q79 1 120.5 44.5t41.5 128.5z" />
    <glyph glyph-name="uni03A9" unicode="&#x3a9;" horiz-adv-x="785" 
d="M725 410q0 -53 -13.5 -100t-41.5 -88t-51 -67t-62 -65l143 8v-98h-257v84q16 33 45.5 74t50.5 69t38 73.5t17 96.5q0 90 -56.5 145.5t-145.5 55.5t-145.5 -55.5t-56.5 -145.5q0 -51 17 -96.5t38.5 -74t51 -69t45.5 -73.5v-84h-256v98l144 -8q-43 43 -63 65.5t-50.5 65.5
t-43.5 89t-13 100q0 122 87 209.5t246 87.5q81 0 146 -25t104.5 -67t60.5 -94.5t21 -110.5z" />
    <glyph glyph-name="Iotadieresis" unicode="&#x3aa;" horiz-adv-x="313" 
d="M117 767h-90v120h90v-120zM286 767h-89v120h89v-120zM221 0h-129v700h129v-700z" />
    <glyph glyph-name="Upsilondieresis" unicode="&#x3ab;" horiz-adv-x="708" 
d="M218 887h90v-120h-90v120zM388 887h89v-120h-89v120zM554 700h142l-277 -444v-256h-130v259l-277 441h142l201 -333z" />
    <glyph glyph-name="alphatonos" unicode="&#x3ac;" horiz-adv-x="713" 
d="M306 751h108l-43 -147h-76zM512 547h125l-15 -274l15 -273h-125l-2 115q-69 -126 -207 -126q-112 0 -184.5 80.5t-72.5 202.5q0 125 72.5 205.5t183.5 80.5q139 0 208 -125zM336 90q75 0 123 51.5t48 131.5q0 81 -48 132.5t-123 51.5q-73 0 -119.5 -51.5t-46.5 -132.5
q0 -80 46.5 -131.5t119.5 -51.5z" />
    <glyph glyph-name="epsilontonos" unicode="&#x3ad;" horiz-adv-x="543" 
d="M322 751l-43 -147h-76l11 147h108zM276 -12q-97 0 -163.5 45.5t-66.5 120.5q0 81 76 123q-69 40 -69 119q0 75 64 118.5t166 43.5q127 0 225 -66l-39 -88q-86 51 -170 51q-56 0 -87 -19t-31 -50q0 -66 101 -66h110v-85h-110q-52 0 -80 -18.5t-28 -48.5q0 -27 31.5 -46.5
t89.5 -19.5q99 0 185 57l39 -98q-95 -73 -243 -73z" />
    <glyph glyph-name="etatonos" unicode="&#x3ae;" horiz-adv-x="677" 
d="M285 751h108l-43 -147h-76zM611 328v-328h-2v-171h-124v234h2v248q0 133 -128 133q-69 0 -114 -49t-45 -125v-270h-124v547h124v-66q71 78 189 78q101 0 161.5 -62t60.5 -169z" />
    <glyph glyph-name="iotatonos" unicode="&#x3af;" horiz-adv-x="332" 
d="M165 751l-43 -147h-76l11 147h108zM307 87v-98h-55q-89 0 -137.5 42t-48.5 148v368h125v-346q0 -62 20.5 -88t59.5 -26h36z" />
    <glyph glyph-name="upsilondieresistonos" unicode="&#x3b0;" horiz-adv-x="610" 
d="M367 790l-38 -146h-58l10 146h86zM234 593h-75v108h75v-108zM451 593h-74v108h74v-108zM51 222v325h125v-302q0 -159 122 -159q69 0 96 39.5t27 119.5v302h125v-325q0 -113 -67 -173t-181 -60q-106 0 -176.5 61t-70.5 172z" />
    <glyph glyph-name="alpha" unicode="&#x3b1;" horiz-adv-x="713" 
d="M512 547h125l-15 -274l15 -273h-125l-2 115q-69 -126 -207 -126q-112 0 -184.5 80.5t-72.5 202.5q0 125 72.5 205.5t183.5 80.5q139 0 208 -125zM336 90q75 0 123 51.5t48 131.5q0 81 -48 132.5t-123 51.5q-73 0 -119.5 -51.5t-46.5 -132.5q0 -80 46.5 -131.5
t119.5 -51.5z" />
    <glyph glyph-name="beta" unicode="&#x3b2;" horiz-adv-x="643" 
d="M207 -171h-125v701q0 88 53 141.5t169 53.5q90 0 156.5 -51t66.5 -144q0 -92 -76 -144q60 -11 103 -60.5t43 -117.5q0 -102 -65 -160.5t-178 -58.5q-81 0 -147 33v-193zM207 530v-405q62 -35 121 -35q66 0 104 33t38 91q0 52 -36 88.5t-91 36.5h-77v85h38q40 1 67 24.5
t30 60.5q2 46 -26.5 77.5t-71.5 31.5q-41 0 -68.5 -21t-27.5 -67z" />
    <glyph glyph-name="gamma" unicode="&#x3b3;" horiz-adv-x="634" 
d="M480 547h132l-234 -540v-178h-125v173l-231 545h131l162 -408h1z" />
    <glyph glyph-name="delta" unicode="&#x3b4;" horiz-adv-x="628" 
d="M539 648h-258q78 -54 142 -116t111.5 -141.5t47.5 -149.5q0 -110 -75.5 -181t-194.5 -71q-117 0 -191.5 71t-74.5 181q0 170 240 274q-74 65 -168 128v96h421v-91zM312 90q64 0 104.5 42.5t40.5 108.5q0 95 -114 218q-92 -49 -132.5 -99.5t-40.5 -118.5q0 -66 40 -108.5
t102 -42.5z" />
    <glyph glyph-name="epsilon" unicode="&#x3b5;" horiz-adv-x="543" 
d="M276 -12q-97 0 -163.5 45.5t-66.5 120.5q0 81 76 123q-69 40 -69 119q0 75 64 118.5t166 43.5q127 0 225 -66l-39 -88q-86 51 -170 51q-56 0 -87 -19t-31 -50q0 -66 101 -66h110v-85h-110q-52 0 -80 -18.5t-28 -48.5q0 -27 31.5 -46.5t89.5 -19.5q99 0 185 57l39 -98
q-95 -73 -243 -73z" />
    <glyph glyph-name="zeta" unicode="&#x3b6;" horiz-adv-x="510" 
d="M278 131l82 -32q70 -29 105 -58t35 -83t-46 -129h-107q47 72 47 100q0 29 -22 46.5t-75 36.5l-90 30q-78 29 -119.5 70.5t-41.5 118.5q0 61 29 124t76 116t95 94.5t99 74.5h-263v98h392l-2 -97l2 -1q-122 -82 -212.5 -189.5t-90.5 -210.5q0 -44 30 -68.5t77 -40.5z" />
    <glyph glyph-name="eta" unicode="&#x3b7;" horiz-adv-x="677" 
d="M611 328v-328h-2v-171h-124v234h2v248q0 133 -128 133q-69 0 -114 -49t-45 -125v-270h-124v547h124v-66q71 78 189 78q101 0 161.5 -62t60.5 -169z" />
    <glyph glyph-name="theta" unicode="&#x3b8;" horiz-adv-x="661" 
d="M331 742q130 0 207 -105t77 -272q0 -166 -76.5 -271.5t-208.5 -105.5q-130 0 -207 105t-77 273q0 165 77 270.5t208 105.5zM330 636q-71 0 -114.5 -64.5t-51.5 -166.5h333q-8 104 -52.5 167.5t-114.5 63.5zM331 94q71 0 114.5 64.5t51.5 166.5h-333q8 -104 52.5 -167.5
t114.5 -63.5z" />
    <glyph glyph-name="iota" unicode="&#x3b9;" horiz-adv-x="332" 
d="M307 87v-98h-55q-89 0 -137.5 42t-48.5 148v368h125v-346q0 -62 20.5 -88t59.5 -26h36z" />
    <glyph glyph-name="kappa" unicode="&#x3ba;" horiz-adv-x="624" 
d="M598 0h-136l-163 218h-99v-218h-124v548h124v-221h99l147 221h135l-195 -265z" />
    <glyph glyph-name="lambda" unicode="&#x3bb;" horiz-adv-x="591" 
d="M153 0h-131l219 507l-28 66q-18 46 -42.5 64t-59.5 18v83q62 5 99.5 -8t55.5 -37.5t39 -74.5l264 -618h-132l-141 334z" />
    <glyph glyph-name="uni03BC" unicode="&#x3bc;" horiz-adv-x="677" 
d="M477 277v270h124v-547h-124v66q-71 -78 -189 -78q-56 0 -98 19l3 -178h-124v346q-3 21 -3 44v328h124v-311q0 -133 128 -133q69 0 114 49t45 125z" />
    <glyph glyph-name="nu" unicode="&#x3bd;" horiz-adv-x="637" 
d="M386 0h-135l-229 547h136l160 -406h1l160 406h136z" />
    <glyph glyph-name="xi" unicode="&#x3be;" horiz-adv-x="520" 
d="M457 -172h-107q47 61 47 96q0 27 -18.5 41t-82.5 36l-94 33q-156 53 -156 185q0 68 40 117t115 62q-62 18 -95 62t-33 101q0 80 64 134t162 54q123 0 215 -61l-39 -68q-72 44 -160 44q-57 0 -90 -33t-33 -77q0 -54 37.5 -84.5t101.5 -30.5h74v-87h-95q-60 0 -98 -33
t-38 -85q0 -82 90 -111l100 -36q69 -24 104 -53.5t35 -84.5t-46 -121z" />
    <glyph glyph-name="omicron" unicode="&#x3bf;" 
d="M344 -11q-130 0 -214 80.5t-84 204.5t84.5 204.5t213.5 80.5q130 0 214.5 -80.5t84.5 -203.5q0 -124 -84.5 -205t-214.5 -81zM345 101q76 0 124 48t48 125q0 78 -48 125t-125 47q-76 0 -124.5 -47t-48.5 -124q0 -78 49 -126t125 -48z" />
    <glyph glyph-name="pi" unicode="&#x3c0;" horiz-adv-x="675" 
d="M599 547v-547h-125v450h-274v-450h-124v547h523z" />
    <glyph glyph-name="rho" unicode="&#x3c1;" horiz-adv-x="718" 
d="M200 -171h-124v445q0 123 84.5 204t213.5 81t213.5 -80.5t84.5 -203.5q0 -124 -84.5 -205t-213.5 -81q-62 0 -112.5 31t-72.5 82zM201 275q0 -80 49 -132t125 -52q74 0 123 52t49 131t-49 131t-124 52q-76 0 -124.5 -51t-48.5 -131z" />
    <glyph glyph-name="uni03C2" unicode="&#x3c2;" horiz-adv-x="583" 
d="M475 -171h-106q47 72 47 100t-22 45.5t-76 37.5l-75 28q-197 73 -197 250q0 116 81 192.5t206 76.5q135 0 218 -95l-77 -70q-55 64 -139 64q-71 0 -117 -44.5t-46 -116.5q1 -115 141 -170l68 -28q35 -15 55.5 -25.5t42.5 -27t32 -38.5t10 -50q0 -54 -46 -129z" />
    <glyph glyph-name="sigma" unicode="&#x3c3;" horiz-adv-x="696" 
d="M697 560v-122l-109 7q55 -72 55 -170q0 -124 -84.5 -205t-214.5 -81t-214 80.5t-84 204.5t84.5 204.5t213.5 80.5zM345 101q76 0 124 48t48 125q0 78 -48 125t-125 47q-76 0 -124.5 -47t-48.5 -124q0 -78 49 -126t125 -48z" />
    <glyph glyph-name="tau" unicode="&#x3c4;" horiz-adv-x="482" 
d="M441 547v-98h-182v-248q0 -62 20 -88t60 -26h36v-98h-56q-89 0 -137 42t-48 148v270h-97v98h404z" />
    <glyph glyph-name="upsilon" unicode="&#x3c5;" horiz-adv-x="610" 
d="M51 222v325h125v-302q0 -159 122 -159q69 0 96 39.5t27 119.5v302h125v-325q0 -113 -67 -173t-181 -60q-106 0 -176.5 61t-70.5 172z" />
    <glyph glyph-name="phi" unicode="&#x3c6;" horiz-adv-x="832" 
d="M785 274q0 -118 -85.5 -194t-221.5 -80v-170h-124v170q-137 3 -222.5 79t-85.5 194q0 119 85.5 195t222.5 79v153h124v-153q136 -3 221.5 -79t85.5 -194zM171 274q0 -79 49.5 -126.5t133.5 -49.5v352q-84 -2 -133.5 -49.5t-49.5 -126.5zM478 450v-352q84 2 132.5 49
t48.5 126t-49 127t-132 50z" />
    <glyph glyph-name="chi" unicode="&#x3c7;" horiz-adv-x="634" 
d="M391 198l220 -369h-139l-155 260l-155 -260h-139l220 369l-209 349h144l139 -244l139 244h144z" />
    <glyph glyph-name="psi" unicode="&#x3c8;" horiz-adv-x="813" 
d="M617 270v277h120v-273q0 -131 -75.5 -196.5t-200.5 -68.5v-180h-116v180q-120 4 -199.5 70t-79.5 195v273h120v-277q0 -71 44 -113t115 -46v436h116v-436q74 4 115 45.5t41 113.5z" />
    <glyph glyph-name="omega" unicode="&#x3c9;" horiz-adv-x="903" 
d="M46 249q0 152 94 298h126q-96 -139 -96 -278q0 -83 28 -130.5t85 -47.5q115 0 115 154v133h107v-133q0 -80 26.5 -117t88.5 -37q56 0 84.5 48t28.5 130q0 137 -96 278h125q95 -150 95 -298q0 -120 -62 -190t-155 -70q-165 0 -188 144q-28 -144 -188 -144q-94 0 -156 69.5
t-62 190.5z" />
    <glyph glyph-name="iotadieresis" unicode="&#x3ca;" horiz-adv-x="332" 
d="M72 614h-90v120h90v-120zM241 614h-89v120h89v-120zM307 87v-98h-55q-89 0 -137.5 42t-48.5 148v368h125v-346q0 -62 20.5 -88t59.5 -26h36z" />
    <glyph glyph-name="upsilondieresis" unicode="&#x3cb;" horiz-adv-x="610" 
d="M267 614h-90v120h90v-120zM436 614h-89v120h89v-120zM51 222v325h125v-302q0 -159 122 -159q69 0 96 39.5t27 119.5v302h125v-325q0 -113 -67 -173t-181 -60q-106 0 -176.5 61t-70.5 172z" />
    <glyph glyph-name="omicrontonos" unicode="&#x3cc;" 
d="M392 751l-43 -147h-76l11 147h108zM344 -11q-130 0 -214 80.5t-84 204.5t84.5 204.5t213.5 80.5q130 0 214.5 -80.5t84.5 -203.5q0 -124 -84.5 -205t-214.5 -81zM345 101q76 0 124 48t48 125q0 78 -48 125t-125 47q-76 0 -124.5 -47t-48.5 -124q0 -78 49 -126t125 -48z
" />
    <glyph glyph-name="upsilontonos" unicode="&#x3cd;" horiz-adv-x="610" 
d="M360 751l-43 -147h-76l11 147h108zM51 222v325h125v-302q0 -159 122 -159q69 0 96 39.5t27 119.5v302h125v-325q0 -113 -67 -173t-181 -60q-106 0 -176.5 61t-70.5 172z" />
    <glyph glyph-name="omegatonos" unicode="&#x3ce;" horiz-adv-x="903" 
d="M505 751l-43 -147h-76l11 147h108zM46 249q0 152 94 298h126q-96 -139 -96 -278q0 -83 28 -130.5t85 -47.5q115 0 115 154v133h107v-133q0 -80 26.5 -117t88.5 -37q56 0 84.5 48t28.5 130q0 137 -96 278h125q95 -150 95 -298q0 -120 -62 -190t-155 -70q-165 0 -188 144
q-28 -144 -188 -144q-94 0 -156 69.5t-62 190.5z" />
    <glyph glyph-name="uni0400" unicode="&#x400;" horiz-adv-x="701" 
d="M299 903l93 -147l-88 -7l-122 130zM219 304v-190h431v-114h-558v700h548v-114h-421v-168h377v-114h-377z" />
    <glyph glyph-name="uni0401" unicode="&#x401;" horiz-adv-x="701" 
d="M217 887h90v-120h-90v120zM387 887h89v-120h-89v120zM219 304v-190h431v-114h-558v700h548v-114h-421v-168h377v-114h-377z" />
    <glyph glyph-name="uni0402" unicode="&#x402;" horiz-adv-x="811" 
d="M527 442q101 0 162.5 -64t61.5 -177v-25q0 -93 -52 -138.5t-139 -45.5q-54 0 -99 24l28 74q21 -13 49 -13q36 0 62.5 21.5t26.5 69.5v24q0 69 -37 108.5t-102 39.5q-73 0 -144 -23v-317h-130v593h-183v107h589v-107h-276v-181q102 30 183 30z" />
    <glyph glyph-name="uni0403" unicode="&#x403;" horiz-adv-x="624" 
d="M468 879l-121 -130l-88 7l92 147zM92 0v700h511v-114h-383v-586h-128z" />
    <glyph glyph-name="uni0404" unicode="&#x404;" horiz-adv-x="731" 
d="M622 185l85 -79q-103 -117 -275 -117q-159 0 -265.5 103.5t-106.5 257.5q0 155 105 258t263 103q169 0 277 -113l-85 -81q-73 78 -187 78q-90 0 -154 -53t-80 -140h325v-94h-326q13 -92 78 -147.5t156 -55.5q115 0 190 80z" />
    <glyph glyph-name="uni0405" unicode="&#x405;" horiz-adv-x="648" 
d="M331 -11q-170 0 -293 100l59 99q119 -82 242 -82q64 0 99 23t35 59q0 43 -34 63t-123 39q-128 27 -193 78t-65 140q0 96 76 149.5t195 53.5q140 0 255 -83l-69 -94q-84 60 -193 60q-128 0 -128 -87q0 -38 35.5 -61t121.5 -42q137 -30 197.5 -74t60.5 -132
q0 -96 -77.5 -152.5t-200.5 -56.5z" />
    <glyph glyph-name="uni0406" unicode="&#x406;" horiz-adv-x="313" 
d="M221 0h-129v700h129v-700z" />
    <glyph glyph-name="uni0407" unicode="&#x407;" horiz-adv-x="313" 
d="M117 767h-90v120h90v-120zM286 767h-89v120h89v-120zM221 0h-129v700h129v-700z" />
    <glyph glyph-name="uni0408" unicode="&#x408;" horiz-adv-x="582" 
d="M256 -11q-78 0 -142.5 34t-102.5 91l84 78q60 -86 154 -86q62 0 99.5 42t37.5 109v329h-240v114h365v-444q0 -120 -70 -193.5t-185 -73.5z" />
    <glyph glyph-name="uni0409" unicode="&#x409;" horiz-adv-x="1131" 
d="M675 490h118q139 0 219.5 -65.5t80.5 -180.5q0 -114 -80 -179t-220 -65h-248v593h-269l-6 -269q-2 -81 -16.5 -140.5t-37 -94.5t-56 -55.5t-66 -27t-73.5 -6.5v102q26 1 45.5 10.5t36.5 33t27 67.5t11 108l9 379h525v-210zM675 102h115q82 0 128 37.5t46 104.5
q0 68 -46 106t-128 38h-115v-286z" />
    <glyph glyph-name="uni040A" unicode="&#x40a;" horiz-adv-x="1121" 
d="M672 451h119q135 0 214 -58.5t79 -164.5q0 -102 -79.5 -165t-211.5 -63h-252l2 2v336h-322v-338h-129v700h129v-255h322v255h129v-249zM672 93h116q79 0 122.5 35t43.5 92q0 60 -43 94.5t-123 34.5h-116v-256z" />
    <glyph glyph-name="uni040B" unicode="&#x40b;" horiz-adv-x="817" 
d="M527 442q101 0 162.5 -63.5t61.5 -174.5v-204h-124v176q0 75 -40 117t-106 42q-73 0 -137 -22v-313h-130v593h-183v107h589v-107h-276v-181q102 30 183 30z" />
    <glyph glyph-name="uni040C" unicode="&#x40c;" horiz-adv-x="756" 
d="M420 902l117 -23l-122 -130l-88 7zM693 0h-143l-212 292h-117v-292h-129v700h129v-291h120l191 291h146l-242 -342z" />
    <glyph glyph-name="uni040D" unicode="&#x40d;" horiz-adv-x="816" 
d="M454 756l-88 -7l-122 130l117 24zM724 700v-700h-129v483l-395 -483h-108v700h130v-477l391 477h111z" />
    <glyph glyph-name="uni040E" unicode="&#x40e;" horiz-adv-x="614" 
d="M306 742q-68 0 -109 37.5t-41 101.5l93 1q0 -36 13 -52t44 -16t44.5 16t13.5 52l93 -1q0 -64 -41 -101.5t-110 -37.5zM308 302l161 397h128l-228 -527l-18 -39q-33 -75 -73.5 -106t-111.5 -31q-32 0 -71 9.5t-57 21.5l38 89q35 -16 81 -16q31 0 50 15t35 51l3 6l-228 527
h128l162 -397h1z" />
    <glyph glyph-name="uni040F" unicode="&#x40f;" horiz-adv-x="791" 
d="M570 107v593h129v-700h-236v-129h-130v129h-241v700h128v-593h350z" />
    <glyph glyph-name="uni0410" unicode="&#x410;" horiz-adv-x="792" 
d="M775 0h-138l-56 129h-372l-56 -129h-136l314 700h129zM395 559l-137 -317h274z" />
    <glyph glyph-name="uni0411" unicode="&#x411;" horiz-adv-x="739" 
d="M221 441h205q70 0 123 -21t82 -55.5t43 -73.5t14 -81q0 -95 -69 -152.5t-181 -57.5h-346v700h501v-110h-372v-149zM221 109h191q148 0 148 113q0 52 -40 82.5t-103 30.5h-196v-226z" />
    <glyph glyph-name="uni0412" unicode="&#x412;" horiz-adv-x="761" 
d="M572 361q62 -17 99.5 -64t37.5 -110q0 -87 -69 -137t-189 -50h-359v700h349q111 0 175 -47t64 -129q0 -56 -29.5 -100t-78.5 -63zM415 585h-194v-175h194q72 0 104.5 22t32.5 66q0 46 -33 66.5t-104 20.5zM221 115h212q77 0 112 22t35 68q0 49 -37 70.5t-115 21.5h-207
v-182z" />
    <glyph glyph-name="uni0413" unicode="&#x413;" horiz-adv-x="624" 
d="M92 0v700h511v-114h-383v-586h-128z" />
    <glyph glyph-name="uni0414" unicode="&#x414;" horiz-adv-x="830" 
d="M684 700v-593h116v-226h-131v119h-508v-119h-130v226h60q18 1 29.5 7.5t23.5 27.5t18.5 67.5t9.5 120.5l11 370h501zM266 107h289v486h-246l-9 -276q-4 -139 -34 -210z" />
    <glyph glyph-name="uni0415" unicode="&#x415;" horiz-adv-x="701" 
d="M219 304v-190h431v-114h-558v700h548v-114h-421v-168h377v-114h-377z" />
    <glyph glyph-name="uni0416" unicode="&#x416;" horiz-adv-x="1029" 
d="M1003 0h-143l-212 292h-72v-292h-129v292h-71l-208 -292h-143l253 359l-238 341h147l185 -291h75v291h129v-291h75l191 291h147l-243 -341z" />
    <glyph glyph-name="uni0417" unicode="&#x417;" horiz-adv-x="1301" 
d="M795 504h443v-162h-1174v162h444v1q0 8 1 12v2v1q0 4 2 12q0 3 2 9q12 47 50 77t88 30q59 0 101.5 -42t42.5 -101v-1zM653 371q55 0 93 38.5t38 93.5q0 54 -38 92.5t-93 38.5t-93.5 -38.5t-38.5 -92.5q0 -55 38.5 -93.5t93.5 -38.5zM713 602q8 -7 17 -11h-159q6 5 18 13
q11 5 20 8q18 9 42 9q23 0 44 -9q12 -6 18 -10zM742 427h-155l152 155q31 -40 31 -78q0 -21 -7 -41q-5 -17 -21 -36zM562 577h154l-153 -154q-15 16 -22 38q-8 22 -8 43q0 6 2 18t7 22q4 19 20 33zM145 450h25v27h-81v-27h26v-75h30v75zM245 375h26l-18 32q-8 10 -19 10h3
q9 0 16.5 7t7.5 17q0 16 -10.5 26t-25.5 10h-42v-102h29v31h8l13 -22q3 -9 12 -9zM282 375h30v102h-30v-102zM413 375h23l-44 102h-27l-44 -102h23q7 0 14 10l2 7h36l4 -7q3 -10 13 -10zM446 375h64v27h-35v75h-29v-102zM870 372q23 0 38 14.5t15 37.5t-15 38t-38 15
t-37.5 -15t-14.5 -38q0 -22 15 -37t37 -15zM1010 374h22v101h-29v-35q0 -12 3 -20h-1l-30 46q-6 9 -13 9h-24v-101h29l1 40q0 10 -4 19l36 -53q5 -6 10 -6zM1052 374h65v26h-35v75h-30v-101zM1177 414l37 61h-27q-9 0 -13 -7l-10 -19q-4 -8 -4 -17h-1q0 8 -4 17l-10 19
q-4 7 -13 7h-27l37 -61q3 -3 3 -10v-30h29v30q0 6 3 10zM212 449h11q7 0 7 -8q0 -7 -7 -7h-11v15zM870 449q10 0 17 -7t7 -18q0 -10 -7 -17t-17 -7t-16.5 7t-6.5 17q0 11 6.5 18t16.5 7zM378 445h1q0 -10 3 -19l6 -13h-19l6 13q0 1 1.5 7.5t1.5 11.5zM610 392q-17 7 -37 22
h157q-3 -3 -9 -7t-8 -6q-9 -6 -18 -9q-17 -4 -22 -5q-11 -3 -22 -3q-22 0 -41 8zM109 313v-8h-33v-23h28v-7h-28v-29h-7v67h40zM173 313v-41q0 -27 -27 -27q-11 0 -18.5 7.5t-7.5 19.5v41h8v-41q0 -20 18 -20q20 0 20 20v41h7zM191 246v67h7v-60h30v-7h-37zM241 246v67h8
v-60h30v-7h-38zM376 313l-29 -67h-6l-29 67h4q4 0 5 -3l21 -49q2 -6 2 -7q0 1 2 7l21 49q1 3 5 3h4zM427 313v-8h-33v-21h27v-8h-27v-23h33v-7h-41v67h41zM471 273l21 -27h-5q-3 0 -7 3l-20 25h-10v-28h-8v67h23q8 0 14 -5.5t6 -14.5q0 -7 -5 -12t-11 -6h-2q2 0 4 -2z
M517 252q15 0 15 13q0 7 -14 13q-18 7 -18 18q0 17 19 17q11 0 17 -6l-1 -2q-3 -3 -6 -2q-5 3 -10 3q-12 0 -12 -10q0 -5 13 -11q19 -6 19 -20q0 -20 -22 -20q-12 0 -20 10l2 2q1 1 2.5 1.5t2.5 -0.5q6 -4 13 -6zM554 246v67h7v-67h-7zM645 279q0 -14 -10 -24t-25 -10
q-14 0 -24 10t-10 24t10 24t24 10q15 0 25 -10t10 -24zM659 313h6q2 0 5 -2l36 -53q-1 2 -1 5v50h8v-67h-6q-1 0 -3 2l-38 55q0 -1 0.5 -2.5t0.5 -2.5v-52h-8v67zM583 279q0 -11 8 -19t19 -8t19 8t8 19t-8 19t-19 8t-19 -8t-8 -19zM450 305v-23h15q13 0 13 11q0 12 -13 12
h-15zM1208 276h-457v7h457l-10 9q-3 3 -1 6l2 3l19 -17l2 -4q0 -2 -2 -4l-19 -18l-2 3q-1 2 1 6zM539 212q22 0 36 -14t14 -35q0 -22 -14 -36t-36 -14t-36.5 14t-14.5 36q0 21 14.5 35t36.5 14zM830 177q29 -6 29 -32q0 -14 -10.5 -23t-26.5 -9q-20 0 -38 16l6 11q7 10 20 4
q8 -5 12 -5q9 0 9 6q0 4 -9 7q-31 10 -31 31q0 29 33 29q19 0 30 -11l-6 -10q-6 -11 -18 -6q-4 2 -6 2q-5 0 -5 -4q0 -3 11 -6zM955 186q-21 0 -21 -23q0 -24 21 -24q6 0 12 4q11 8 19 -2l7 -9q-12 -19 -37 -19q-22 0 -36.5 14t-14.5 36q0 21 14.5 35t36.5 14q25 0 37 -19
l-7 -9q-8 -10 -19 -2q-8 4 -12 4zM1050 212q22 0 36 -14t14 -35q0 -22 -14 -36t-36 -14t-36 14t-14 36q0 21 14 35t36 14zM93 185h-26v26h75v-13q0 -8 -3 -11l-38 -51q5 5 12 5h28v-27h-78v13q0 7 5 13l36 48q-3 -3 -11 -3zM221 114h-67v97h67v-26h-38v-10h31v-24h-31v-10
h38v-27zM228 211h77v-26h-24v-71h-28v71h-25v26zM295 114l43 97h24l43 -97h-22q-8 0 -13 10l-3 6h-34l-3 -6q-5 -10 -13 -10h-22zM442 114h-28v97h66v-26h-38v-13h32v-25h-32v-33zM665 177v34h28v-97h-21q-5 0 -9 6l-34 50h-1q3 -9 3 -17v-39h-27v97h21q7 0 13 -9l29 -43
q-2 7 -2 18zM729 185h-25v26h77v-26h-24v-71h-28v71zM1174 167l18 35q3 9 11 9h25v-97h-28v42q0 8 3 15l-20 -41q-3 -7 -11 -7q-9 0 -12 7l-20 41q3 -7 3 -15v-42h-29v97h25q6 0 12 -9l17 -35q3 -5 3 -11h1q0 5 2 11zM539 139q10 0 16 6.5t6 17.5q0 10 -6 16.5t-16 6.5
t-16 -6.5t-6 -16.5q0 -11 6 -17.5t16 -6.5zM1050 139q10 0 16 6.5t6 17.5q0 10 -6 16.5t-16 6.5t-16 -6.5t-6 -16.5q0 -11 6 -17.5t16 -6.5zM346 162l-5 -13h18l-5 13q-4 8 -4 19q0 -11 -4 -19zM882 143q14 0 14 -16q0 -14 -14 -14q-15 0 -15 14q0 7 4.5 11.5t10.5 4.5z" />
    <glyph glyph-name="uni0418" unicode="&#x418;" horiz-adv-x="816" 
d="M724 700v-700h-129v483l-395 -483h-108v700h130v-477l391 477h111z" />
    <glyph glyph-name="uni0419" unicode="&#x419;" horiz-adv-x="816" 
d="M408 743q-68 0 -109 37.5t-41 101.5l93 1q0 -36 13 -52t44 -16t44.5 16t13.5 52l93 -1q0 -64 -41 -101.5t-110 -37.5zM222 223l391 477h111v-700h-129v483l-395 -483h-108v700h130v-477z" />
    <glyph glyph-name="uni041A" unicode="&#x41a;" horiz-adv-x="718" 
d="M693 0h-143l-212 292h-117v-292h-129v700h129v-291h120l191 291h146l-242 -342z" />
    <glyph glyph-name="uni041B" unicode="&#x41b;" horiz-adv-x="792" 
d="M700 700v-700h-129v593h-295l-6 -269q-2 -81 -16.5 -140.5t-37 -94.5t-56 -55.5t-66 -27t-73.5 -6.5v102q26 1 45.5 10.5t36.5 33t27 67.5t11 108l9 379h550z" />
    <glyph glyph-name="uni041C" unicode="&#x41c;" horiz-adv-x="926" 
d="M463 294l252 406h119v-700h-129v468l-221 -339h-42l-221 340v-469h-129v700h120z" />
    <glyph glyph-name="uni041D" unicode="&#x41d;" horiz-adv-x="805" 
d="M583 405v295h130v-700h-130v291h-361v-291h-130v700h130v-295h361z" />
    <glyph glyph-name="uni041E" unicode="&#x41e;" horiz-adv-x="863" 
d="M431 -11q-161 0 -266 102t-105 259t105 259t267 102q161 0 266 -102t105 -259t-105 -259t-267 -102zM432 106q104 0 169.5 67t65.5 177t-65.5 177t-169.5 67q-105 0 -170.5 -67t-65.5 -177t65.5 -177t170.5 -67z" />
    <glyph glyph-name="uni041F" unicode="&#x41f;" horiz-adv-x="791" 
d="M699 700v-700h-129v593h-350v-593h-128v700h607z" />
    <glyph glyph-name="uni0420" unicode="&#x420;" horiz-adv-x="707" 
d="M371 700q140 0 220 -65t80 -179q0 -115 -81 -180.5t-221 -65.5h-148v-210h-129v700h279zM221 324h146q175 0 175 132q0 65 -45.5 97.5t-128.5 32.5h-147v-262z" />
    <glyph glyph-name="uni0421" unicode="&#x421;" horiz-adv-x="731" 
d="M432 -11q-159 0 -265.5 103.5t-106.5 257.5q0 155 105 258t263 103q169 0 277 -113l-85 -81q-73 78 -187 78q-103 0 -170.5 -68.5t-67.5 -175.5q0 -109 67.5 -177.5t169.5 -68.5q115 0 190 80l85 -79q-103 -117 -275 -117z" />
    <glyph glyph-name="uni0422" unicode="&#x422;" horiz-adv-x="651" 
d="M31 700h589v-114h-230v-586h-130v586h-229v114z" />
    <glyph glyph-name="uni0423" unicode="&#x423;" horiz-adv-x="614" 
d="M308 302l161 397h128l-228 -527l-18 -39q-33 -75 -73.5 -106t-111.5 -31q-32 0 -71 9.5t-57 21.5l38 89q35 -16 81 -16q31 0 50 15t35 51l3 6l-228 527h128l162 -397h1z" />
    <glyph glyph-name="uni0424" unicode="&#x424;" horiz-adv-x="942" 
d="M882 350q0 -122 -95 -199t-254 -81v-79h-125v79q-159 4 -253.5 81t-94.5 199t94.5 199t253.5 81v79h125v-79q160 -4 254.5 -81t94.5 -199zM195 350q0 -79 57 -128t156 -53v362q-99 -4 -156 -53t-57 -128zM533 531v-362q100 4 156.5 52.5t56.5 128.5q0 79 -56 128t-157 53
z" />
    <glyph glyph-name="uni0425" unicode="&#x425;" horiz-adv-x="743" 
d="M452 359l265 -359h-150l-195 262l-195 -262h-152l268 361l-253 339h152l180 -246l180 246h151z" />
    <glyph glyph-name="uni0426" unicode="&#x426;" horiz-adv-x="824" 
d="M699 700v-590h94v-226h-130v116h-571v700h128v-593h350v593h129z" />
    <glyph glyph-name="uni0427" unicode="&#x427;" horiz-adv-x="734" 
d="M512 348v352h130v-700h-130v249q-116 -36 -218 -36q-101 0 -162.5 63t-61.5 174v250h125v-222q0 -74 40 -116.5t105 -42.5q91 0 172 29z" />
    <glyph glyph-name="uni0428" unicode="&#x428;" horiz-adv-x="1051" 
d="M829 107v593h131v-700h-868v700h129v-593h240v593h130v-593h238z" />
    <glyph glyph-name="uni0429" unicode="&#x429;" horiz-adv-x="1081" 
d="M960 700v-593h90v-226h-130v119h-828v700h129v-593h240v593h130v-593h238v593h131z" />
    <glyph glyph-name="uni042A" unicode="&#x42a;" horiz-adv-x="776" 
d="M280 500h148q139 0 220.5 -70t81.5 -186q0 -114 -80.5 -179t-220.5 -65h-279v589h-119v111h249v-200zM280 112h146q81 0 127.5 36t46.5 96q0 68 -46 106t-128 38h-146v-276z" />
    <glyph glyph-name="uni042B" unicode="&#x42b;" horiz-adv-x="1021" 
d="M221 500h148q139 0 220.5 -70t81.5 -186q0 -114 -80.5 -179t-220.5 -65h-279v700h130v-200zM800 0v700h129v-700h-129zM221 112h146q81 0 127 36t46 96q0 68 -45.5 106t-127.5 38h-146v-276z" />
    <glyph glyph-name="uni042C" unicode="&#x42c;" horiz-adv-x="708" 
d="M221 500h148q139 0 220.5 -70t81.5 -186q0 -114 -80.5 -179t-220.5 -65h-279v700h130v-200zM221 112h146q81 0 127 36t46 96q0 68 -45.5 106t-127.5 38h-146v-276z" />
    <glyph glyph-name="uni042D" unicode="&#x42d;" horiz-adv-x="731" 
d="M303 711q158 0 263 -103t105 -258q0 -154 -106.5 -257.5t-265.5 -103.5q-172 0 -275 117l85 79q75 -80 190 -80q91 0 156 55.5t78 147.5h-326v94h325q-16 87 -80 140t-154 53q-114 0 -187 -78l-85 81q108 113 277 113z" />
    <glyph glyph-name="uni042E" unicode="&#x42e;" horiz-adv-x="1156" 
d="M724 711q162 0 267 -102t105 -259t-105 -259t-267 -102q-147 0 -249 86t-119 224h-135v-299h-129v700h129v-294h136q19 136 120 220.5t247 84.5zM724 99q105 0 172.5 70.5t67.5 180.5t-68 181t-172 71t-171.5 -71t-67.5 -181t67.5 -180.5t171.5 -70.5z" />
    <glyph glyph-name="uni042F" unicode="&#x42f;" horiz-adv-x="721" 
d="M629 700v-700h-129v234h-110l-197 -234h-163l206 244q-95 20 -145.5 77t-50.5 145q0 111 79 172.5t221 61.5h289zM344 347h156v239h-157q-173 0 -173 -122q0 -63 43.5 -90t130.5 -27z" />
    <glyph glyph-name="uni0430" unicode="&#x430;" horiz-adv-x="607" 
d="M285 559q128 0 192 -60t64 -170v-329h-124v65q-70 -76 -194 -76q-86 0 -138.5 49t-52.5 126q0 79 54 131t166 52q78 0 164 -9q-3 52 -39.5 80.5t-104.5 28.5q-38 0 -80 -16t-72 -43l-61 91q96 80 226 80zM264 100q61 0 104 37t48 92v9q-62 9 -134 9q-131 0 -131 -76
q0 -71 113 -71z" />
    <glyph glyph-name="uni0431" unicode="&#x431;" horiz-adv-x="675" 
d="M350 -11q-144 0 -224 92.5t-80 255.5q0 174 81 264.5t240 107.5q15 2 47.5 5.5t44.5 5t31.5 5.5t36.5 9v-100q-18 -5 -40 -8.5t-57 -7t-58 -6.5q-194 -28 -194 -223q70 118 210 118q107 0 174 -76.5t67 -186.5q0 -117 -77 -186t-202 -69zM352 91q68 0 110.5 41.5
t42.5 111.5q0 65 -44.5 110t-110.5 45q-64 0 -113 -42t-49 -106q0 -18 5 -38t17 -42.5t30 -39.5t47 -28.5t65 -11.5z" />
    <glyph glyph-name="uni0432" unicode="&#x432;" horiz-adv-x="616" 
d="M445 284q59 -12 92 -48t33 -88q0 -70 -56 -109t-155 -39h-283v548h273q92 0 144 -37t52 -102q0 -45 -26.5 -78t-73.5 -47zM339 437h-139v-109h139q83 0 83 57q0 52 -83 52zM200 111h157q44 0 64.5 12.5t20.5 41.5q0 50 -81 50h-161v-104z" />
    <glyph glyph-name="uni0433" unicode="&#x433;" horiz-adv-x="502" 
d="M76 0v547h401v-97h-277v-450h-124z" />
    <glyph glyph-name="uni0434" unicode="&#x434;" horiz-adv-x="684" 
d="M567 547v-449h52v-177h-129v79h-339v-79h-129v177h33q23 0 41.5 36.5t20.5 99.5l9 313h441zM443 98v352h-196l-6 -198q-3 -97 -39 -154h241z" />
    <glyph glyph-name="uni0435" unicode="&#x435;" horiz-adv-x="623" 
d="M594 225h-419q12 -58 59 -91t116 -33q90 0 139 55l80 -71q-90 -95 -225 -95q-130 0 -214 80t-84 204t80.5 203.5t209.5 79.5q116 0 190 -73t74 -185q0 -25 -6 -74zM335 447q-62 0 -104 -32t-54 -87h300q-21 119 -142 119z" />
    <glyph glyph-name="uni0436" unicode="&#x436;" horiz-adv-x="859" 
d="M849 0h-137l-158 218h-64v-218h-121v218h-64l-159 -218h-136l208 289l-191 259h135l138 -211h69v210h121v-210h68l138 211h135l-190 -259z" />
    <glyph glyph-name="uni0437" unicode="&#x437;" horiz-adv-x="542" 
d="M266 -12q-146 0 -243 73l39 98q86 -57 186 -57q58 0 89 19.5t31 46.5q0 30 -28 48.5t-80 18.5h-109v85h109q102 0 102 66q0 31 -31 50t-87 19q-85 0 -171 -51l-39 88q100 66 225 66q102 0 166 -43.5t64 -118.5q0 -79 -69 -119q76 -42 76 -123q0 -75 -66 -120.5
t-164 -45.5z" />
    <glyph glyph-name="uni0438" unicode="&#x438;" horiz-adv-x="674" 
d="M598 547v-547h-124v353l-310 -353h-97v547h125v-348l306 348h100z" />
    <glyph glyph-name="uni0439" unicode="&#x439;" horiz-adv-x="674" 
d="M343 590q-68 0 -109 37.5t-41 101.5l93 1q0 -36 13 -52t44 -16t44.5 16t13.5 52l93 -1q0 -64 -41 -101.5t-110 -37.5zM192 199l306 348h100v-547h-124v353l-310 -353h-97v547h125v-348z" />
    <glyph glyph-name="uni043A" unicode="&#x43a;" horiz-adv-x="624" 
d="M598 0h-136l-163 218h-99v-218h-124v548h124v-221h99l147 221h135l-195 -265z" />
    <glyph glyph-name="uni043B" unicode="&#x43b;" horiz-adv-x="634" 
d="M558 547v-547h-125v450h-206l-4 -225q-2 -131 -48 -178t-150 -47v91q38 1 55.5 33t18.5 108l7 315h452z" />
    <glyph glyph-name="uni043C" unicode="&#x43c;" horiz-adv-x="787" 
d="M394 272l196 276h121v-548h-123v346l-179 -245h-30l-179 245v-346h-124v548h122z" />
    <glyph glyph-name="uni043D" unicode="&#x43d;" horiz-adv-x="675" 
d="M474 335v213h125v-548h-125v225h-274v-225h-124v548h124v-213h274z" />
    <glyph glyph-name="uni043E" unicode="&#x43e;" 
d="M344 -11q-130 0 -214 80.5t-84 204.5t84.5 204.5t213.5 80.5q130 0 214.5 -80.5t84.5 -203.5q0 -124 -84.5 -205t-214.5 -81zM345 101q76 0 124 48t48 125q0 78 -48 125t-125 47q-76 0 -124.5 -47t-48.5 -124q0 -78 49 -126t125 -48z" />
    <glyph glyph-name="uni043F" unicode="&#x43f;" horiz-adv-x="675" 
d="M599 547v-547h-125v450h-274v-450h-124v547h523z" />
    <glyph glyph-name="uni0440" unicode="&#x440;" horiz-adv-x="708" 
d="M394 558q112 0 190 -81t78 -205q0 -126 -77.5 -204.5t-191.5 -78.5q-123 0 -193 75v-236h-124v719h124v-64q73 75 194 75zM372 103q73 0 119.5 47t46.5 122q0 78 -46 125.5t-120 47.5q-76 0 -124 -46.5t-48 -125.5t47.5 -124.5t124.5 -45.5z" />
    <glyph glyph-name="uni0441" unicode="&#x441;" horiz-adv-x="585" 
d="M344 -11q-127 0 -212.5 80t-85.5 204q0 125 85.5 205.5t212.5 80.5q135 0 218 -95l-88 -74q-51 56 -132 56q-73 0 -121.5 -45.5t-48.5 -126.5t49 -127t125 -46q80 0 128 57l88 -75q-82 -94 -218 -94z" />
    <glyph glyph-name="uni0442" unicode="&#x442;" horiz-adv-x="568" 
d="M37 547h493v-111h-184v-436h-124v436h-185v111z" />
    <glyph glyph-name="uni0443" unicode="&#x443;" horiz-adv-x="646" 
d="M329 141l160 406h136l-229 -547l-18 -41q-33 -76 -78 -108.5t-123 -32.5q-73 0 -126 34l37 91q44 -21 83 -21q35 0 52.5 15t33.5 53l5 11h-1l-230 546h136l161 -406h1z" />
    <glyph glyph-name="uni0444" unicode="&#x444;" horiz-adv-x="832" 
d="M785 274q0 -118 -85.5 -194t-221.5 -80v-170h-124v170q-137 3 -222.5 79t-85.5 194q0 119 85.5 195t222.5 79v153h124v-153q136 -3 221.5 -79t85.5 -194zM171 274q0 -79 49.5 -126.5t133.5 -49.5v352q-84 -2 -133.5 -49.5t-49.5 -126.5zM478 450v-352q84 2 132.5 49
t48.5 126t-49 127t-132 50z" />
    <glyph glyph-name="uni0445" unicode="&#x445;" horiz-adv-x="639" 
d="M393 281l221 -281h-143l-153 196l-153 -196h-140l219 279l-211 268h148l139 -184l138 184h144z" />
    <glyph glyph-name="uni0446" unicode="&#x446;" horiz-adv-x="675" 
d="M579 548v-450h67v-177h-115v79h-455v548h124v-450h254v450h125z" />
    <glyph glyph-name="uni0447" unicode="&#x447;" horiz-adv-x="671" 
d="M470 301v246h125v-547h-125v202q-104 -45 -194 -45q-98 0 -154 61.5t-56 170.5v158h125v-135q0 -70 36 -110t100 -40q82 0 143 39z" />
    <glyph glyph-name="uni0448" unicode="&#x448;" horiz-adv-x="867" 
d="M666 98v449h125v-547h-715v547h124v-449h171v449h124v-449h171z" />
    <glyph glyph-name="uni0449" unicode="&#x449;" horiz-adv-x="876" 
d="M780 547v-449h67v-177h-114v79h-657v547h124v-449h165v449h124v-449h166v449h125z" />
    <glyph glyph-name="uni044A" unicode="&#x44a;" horiz-adv-x="680" 
d="M271 394h110q117 0 185 -53t68 -145q0 -91 -67.5 -143.5t-184.5 -52.5h-235v454h-110v93h234v-153zM271 98h108q60 0 95 26t35 72t-34.5 72.5t-96.5 26.5h-107v-197z" />
    <glyph glyph-name="uni044B" unicode="&#x44b;" horiz-adv-x="886" 
d="M200 394h110q117 0 185 -53t68 -145q0 -91 -67.5 -143.5t-184.5 -52.5h-235v547h124v-153zM686 0v547h124v-547h-124zM200 98h108q61 0 95.5 26t34.5 72q0 47 -34.5 73t-96.5 26h-107v-197z" />
    <glyph glyph-name="uni044C" unicode="&#x44c;" horiz-adv-x="610" 
d="M200 394h110q117 0 185 -53t68 -145q0 -91 -67.5 -143.5t-184.5 -52.5h-235v547h124v-153zM200 98h108q61 0 95.5 26t34.5 72q0 47 -34.5 73t-96.5 26h-107v-197z" />
    <glyph glyph-name="uni044D" unicode="&#x44d;" horiz-adv-x="586" 
d="M241 559q127 0 212.5 -80.5t85.5 -205.5q0 -124 -85.5 -204t-212.5 -80q-134 0 -218 94l88 75q49 -57 128 -57q64 0 109.5 32.5t59.5 91.5h-212v103h210q-15 56 -59 87t-104 31q-80 0 -132 -56l-88 74q85 95 218 95z" />
    <glyph glyph-name="uni044E" unicode="&#x44e;" horiz-adv-x="962" 
d="M617 559q130 0 214.5 -80.5t84.5 -203.5q0 -124 -84.5 -205t-214.5 -81q-114 0 -194 64t-98 167h-125v-220h-124v548h124v-217h125q19 102 99 165t193 63zM618 101q76 0 124 48t48 125q0 78 -48 125t-125 47q-75 0 -123.5 -47t-48.5 -124q0 -78 48.5 -126t124.5 -48z" />
    <glyph glyph-name="uni044F" unicode="&#x44f;" horiz-adv-x="633" 
d="M297 547h259v-547h-123v173h-103l-157 -173h-143l165 185q-68 20 -106 66t-38 112q0 86 66.5 135t179.5 49zM296 285h137v151h-138q-120 0 -120 -79q0 -31 19 -47.5t42 -20.5t60 -4z" />
    <glyph glyph-name="uni0450" unicode="&#x450;" horiz-adv-x="623" 
d="M276 750l93 -147l-88 -7l-122 130zM594 225h-419q12 -58 59 -91t116 -33q90 0 139 55l80 -71q-90 -95 -225 -95q-130 0 -214 80t-84 204t80.5 203.5t209.5 79.5q116 0 190 -73t74 -185q0 -25 -6 -74zM335 447q-62 0 -104 -32t-54 -87h300q-21 119 -142 119z" />
    <glyph glyph-name="uni0451" unicode="&#x451;" horiz-adv-x="623" 
d="M194 734h90v-120h-90v120zM364 734h89v-120h-89v120zM594 225h-419q12 -58 59 -91t116 -33q90 0 139 55l80 -71q-90 -95 -225 -95q-130 0 -214 80t-84 204t80.5 203.5t209.5 79.5q116 0 190 -73t74 -185q0 -25 -6 -74zM335 447q-62 0 -104 -32t-54 -87h300
q-21 119 -142 119z" />
    <glyph glyph-name="uni0452" unicode="&#x452;" horiz-adv-x="740" 
d="M456 506q98 0 153.5 -61.5t55.5 -171.5v-301q0 -74 -46.5 -112t-128.5 -38q-50 0 -98 23l28 75q20 -14 50 -14q32 0 51.5 19.5t19.5 57.5v268q0 69 -36 109.5t-100 40.5q-79 0 -144 -40v-361h-124v597h-64v70h64v71h124v-71h106v-70h-106v-137q103 46 195 46z" />
    <glyph glyph-name="uni0453" unicode="&#x453;" horiz-adv-x="502" 
d="M441 726l-121 -130l-88 7l92 147zM76 0v547h401v-97h-277v-450h-124z" />
    <glyph glyph-name="uni0454" unicode="&#x454;" horiz-adv-x="585" 
d="M346 101q80 0 128 57l88 -75q-82 -94 -218 -94q-127 0 -212.5 80t-85.5 204q0 125 85.5 205.5t212.5 80.5q135 0 218 -95l-88 -74q-51 56 -132 56q-59 0 -103.5 -31t-59.5 -87h210v-103h-212q14 -59 59.5 -91.5t109.5 -32.5z" />
    <glyph glyph-name="uni0455" unicode="&#x455;" horiz-adv-x="543" 
d="M270 -10q-127 0 -240 66l51 102q96 -55 194 -55q110 0 110 54q0 27 -26.5 41t-101.5 27q-117 20 -163 58.5t-46 107.5q0 80 55 123.5t155 43.5q57 0 125 -16t107 -41l-50 -104q-83 48 -190 48q-76 0 -76 -44q0 -22 24 -35t94 -27q123 -26 170 -67.5t47 -109.5
q0 -81 -64.5 -126.5t-174.5 -45.5z" />
    <glyph glyph-name="uni0456" unicode="&#x456;" horiz-adv-x="276" 
d="M202 614h-129v120h129v-120zM200 0h-124v547h124v-547z" />
    <glyph glyph-name="uni0457" unicode="&#x457;" horiz-adv-x="276" 
d="M98 614h-90v120h90v-120zM267 614h-89v120h89v-120zM200 0h-124v547h124v-547z" />
    <glyph glyph-name="uni0458" unicode="&#x458;" horiz-adv-x="291" 
d="M216 614h-129v120h129v-120zM-63 -155l32 99q20 -10 46 -10q36 0 55.5 18.5t19.5 53.5v541h125v-551q0 -82 -51.5 -127t-132.5 -45q-51 0 -94 21z" />
    <glyph glyph-name="uni0459" unicode="&#x459;" horiz-adv-x="930" 
d="M548 394h84q116 0 183.5 -53t67.5 -145t-64.5 -144t-180.5 -52h-210v450h-201l-4 -225q-2 -131 -48 -178t-150 -47v91q38 1 55.5 33t18.5 108l7 315h442v-153zM548 93h86q61 0 95.5 27t34.5 76t-34.5 76.5t-95.5 27.5h-86v-207z" />
    <glyph glyph-name="uni045A" unicode="&#x45a;" horiz-adv-x="977" 
d="M599 369h80q115 0 183.5 -50.5t68.5 -132.5q0 -88 -65.5 -137t-181.5 -49h-210v232h-274v-232h-124v548h124v-208h274v207h125v-178zM599 89h82q61 0 95.5 25t34.5 68q0 42 -35 67.5t-96 25.5h-81v-186z" />
    <glyph glyph-name="uni045B" unicode="&#x45b;" horiz-adv-x="696" 
d="M420 506q99 0 154.5 -61.5t55.5 -171.5v-273h-124v251q0 69 -36.5 109.5t-100.5 40.5q-78 0 -143 -40v-361h-124v597h-65v70h65v71h124v-71h105v-70h-105v-137q106 46 194 46z" />
    <glyph glyph-name="uni045C" unicode="&#x45c;" horiz-adv-x="632" 
d="M358 750l117 -24l-121 -130l-89 7zM598 0h-136l-163 218h-99v-218h-124v548h124v-221h99l147 221h135l-195 -265z" />
    <glyph glyph-name="uni045D" unicode="&#x45d;" horiz-adv-x="674" 
d="M389 603l-88 -7l-122 130l117 24zM598 547v-547h-124v353l-310 -353h-97v547h125v-348l306 348h100z" />
    <glyph glyph-name="uni045E" unicode="&#x45e;" horiz-adv-x="646" 
d="M339 590q-68 0 -109 37.5t-41 101.5l93 1q0 -36 13 -52t44 -16t44.5 16t13.5 52l93 -1q0 -64 -41 -101.5t-110 -37.5zM329 141l160 406h136l-229 -547l-18 -41q-33 -76 -78 -108.5t-123 -32.5q-73 0 -126 34l37 91q44 -21 83 -21q35 0 52.5 15t33.5 53l5 11h-1l-230 546
h136l161 -406h1z" />
    <glyph glyph-name="uni045F" unicode="&#x45f;" horiz-adv-x="675" 
d="M474 97v450h125v-547h-205v-122h-124v122h-194v547h124v-450h274z" />
    <glyph glyph-name="uni0474" unicode="&#x474;" horiz-adv-x="769" 
d="M450 0h-128l-305 700h137l230 -547h3l138 338q42 110 102.5 169.5t131.5 59.5v-130q-64 -1 -125 -148z" />
    <glyph glyph-name="uni0474" unicode="&#x475;" horiz-adv-x="769" 
d="M450 0h-128l-305 700h137l230 -547h3l138 338q42 110 102.5 169.5t131.5 59.5v-130q-64 -1 -125 -148z" />
    <glyph glyph-name="uni0490" unicode="&#x490;" horiz-adv-x="624" 
d="M587 830v-130h16v-114h-383v-586h-128v700h366v130h129z" />
    <glyph glyph-name="uni0491" unicode="&#x491;" horiz-adv-x="502" 
d="M357 655h121v-180h-1v-25h-277v-450h-124v547h281v108z" />
    <glyph glyph-name="uni04D9" unicode="&#x4d9;" horiz-adv-x="623" 
d="M279 557q130 0 214 -80t84 -204t-80.5 -203.5t-209.5 -79.5q-116 0 -190 73t-74 185q0 24 6 74h419q-12 58 -59 91t-116 33q-89 0 -139 -55l-80 71q90 95 225 95zM288 100q62 0 104 32t54 87h-300q21 -119 142 -119z" />
    <glyph glyph-name="uni1E0C" unicode="&#x1e0c;" horiz-adv-x="832" 
d="M387 0h-295v700h295q175 0 279.5 -95t104.5 -254q0 -160 -104 -255.5t-280 -95.5zM221 586v-472h161q117 0 185 62.5t68 173.5t-68 173.5t-186 62.5h-160zM298 -167v120h129v-120h-129z" />
    <glyph glyph-name="uni1E0D" unicode="&#x1e0d;" horiz-adv-x="716" 
d="M510 484v254h124v-738h-124v65q-73 -76 -194 -76q-112 0 -190 81t-78 205q0 126 77.5 205t191.5 79q121 0 193 -75zM338 102q76 0 124 46.5t48 125.5t-47.5 124.5t-124.5 45.5q-73 0 -119.5 -47t-46.5 -122q0 -78 46 -125.5t120 -47.5zM417 -167h-129v120h129v-120z" />
    <glyph glyph-name="uni1E0E" unicode="&#x1e0e;" horiz-adv-x="832" 
d="M387 0h-295v700h295q175 0 279.5 -95t104.5 -254q0 -160 -104 -255.5t-280 -95.5zM221 586v-472h161q117 0 185 62.5t68 173.5t-68 173.5t-186 62.5h-160zM526 -125h-317v77h317v-77z" />
    <glyph glyph-name="uni1E0F" unicode="&#x1e0f;" horiz-adv-x="716" 
d="M510 484v254h124v-738h-124v65q-73 -76 -194 -76q-112 0 -190 81t-78 205q0 126 77.5 205t191.5 79q121 0 193 -75zM338 102q76 0 124 46.5t48 125.5t-47.5 124.5t-124.5 45.5q-73 0 -119.5 -47t-46.5 -122q0 -78 46 -125.5t120 -47.5zM516 -125h-317v77h317v-77z" />
    <glyph glyph-name="uni1E20" unicode="&#x1e20;" horiz-adv-x="786" 
d="M598 775h-317v77h317v-77zM434 -11q-163 0 -268.5 102t-105.5 258q0 158 104.5 260t266.5 102q161 0 271 -111l-83 -81q-76 76 -185 76q-106 0 -172.5 -67t-66.5 -179t67 -178t178 -66q92 0 159 52v203h116v-259q-114 -112 -281 -112z" />
    <glyph glyph-name="uni1E21" unicode="&#x1e21;" horiz-adv-x="643" 
d="M178 709h317v-78h-317v78zM243 145h146q110 0 165 -40t55 -109q0 -81 -78 -129.5t-225 -48.5q-121 0 -188 37.5t-67 105.5q0 57 71 96q-48 29 -48 84q0 65 63 99q-62 50 -62 135t64.5 134.5t176.5 49.5q69 0 113 -20l143 48l28 -100l-80 -15q39 -37 39 -97
q0 -86 -64.5 -136t-176.5 -50q-54 0 -103 13q-19 -11 -19 -30q0 -27 47 -27zM317 453q-119 0 -119 -77q0 -81 119 -81t119 80q0 78 -119 78zM313 -71q88 0 129.5 13t41.5 47q0 28 -30 37t-101 9h-142q-34 -27 -34 -55q0 -30 32.5 -40.5t103.5 -10.5z" />
    <glyph glyph-name="uni1E24" unicode="&#x1e24;" horiz-adv-x="805" 
d="M583 405v295h130v-700h-130v291h-361v-291h-130v700h130v-295h361zM460 -167h-129v120h129v-120z" />
    <glyph glyph-name="uni1E25" unicode="&#x1e25;" horiz-adv-x="683" 
d="M395 559q101 0 161.5 -62t60.5 -169v-328h-124v311q0 133 -128 133q-69 0 -114 -49t-45 -125v-270h-124v738h124v-257q71 78 189 78zM402 -167h-129v120h129v-120z" />
    <glyph glyph-name="uni1E2A" unicode="&#x1e2a;" horiz-adv-x="805" 
d="M583 405v295h130v-700h-130v291h-361v-291h-130v700h130v-295h361zM405 -87q28 0 39.5 12t11.5 41l82 -1q0 -50 -36 -79.5t-97 -29.5t-97 29.5t-36 79.5l82 1q0 -29 11.5 -41t39.5 -12z" />
    <glyph glyph-name="uni1E2B" unicode="&#x1e2b;" horiz-adv-x="683" 
d="M395 559q101 0 161.5 -62t60.5 -169v-328h-124v311q0 133 -128 133q-69 0 -114 -49t-45 -125v-270h-124v738h124v-257q71 78 189 78zM348 -87q28 0 39.5 12t11.5 41l82 -1q0 -50 -36 -79.5t-97 -29.5t-97 29.5t-36 79.5l82 1q0 -29 11.5 -41t39.5 -12z" />
    <glyph glyph-name="uni1E36" unicode="&#x1e36;" horiz-adv-x="624" 
d="M603 0h-511v700h128v-586h383v-114zM243 -167v120h129v-120h-129z" />
    <glyph glyph-name="uni1E37" unicode="&#x1e37;" horiz-adv-x="288" 
d="M206 0h-124v738h124v-738zM73 -167v120h129v-120h-129z" />
    <glyph glyph-name="uni1E38" unicode="&#x1e38;" horiz-adv-x="624" 
d="M469 775h-317v77h317v-77zM603 0h-511v700h128v-586h383v-114zM243 -167v120h129v-120h-129z" />
    <glyph glyph-name="uni1E39" unicode="&#x1e39;" horiz-adv-x="288" 
d="M298 813h-317v77h317v-77zM206 0h-124v738h124v-738zM73 -167v120h129v-120h-129z" />
    <glyph glyph-name="uni1E3A" unicode="&#x1e3a;" horiz-adv-x="624" 
d="M603 0h-511v700h128v-586h383v-114zM471 -125h-317v77h317v-77z" />
    <glyph glyph-name="uni1E3B" unicode="&#x1e3b;" horiz-adv-x="288" 
d="M206 0h-124v738h124v-738zM301 -125h-317v77h317v-77z" />
    <glyph glyph-name="uni1E42" unicode="&#x1e42;" horiz-adv-x="926" 
d="M463 294l252 406h119v-700h-129v468l-221 -339h-42l-221 340v-469h-129v700h120zM521 -167h-129v120h129v-120z" />
    <glyph glyph-name="uni1E43" unicode="&#x1e43;" horiz-adv-x="1045" 
d="M777 559q94 0 148 -60t54 -167v-332h-125v315q0 129 -111 129q-62 0 -107.5 -49.5t-45.5 -121.5v-273h-125v315q0 129 -112 129q-62 0 -107.5 -49.5t-45.5 -121.5v-273h-124v547h124v-68q75 80 187 80q130 0 180 -108q32 47 87 77.5t123 30.5zM580 -167h-129v120h129
v-120z" />
    <glyph glyph-name="uni1E44" unicode="&#x1e44;" horiz-adv-x="816" 
d="M472 759h-129v117h129v-117zM221 0h-129v700h111l391 -477v477h130v-700h-108l-395 483v-483z" />
    <glyph glyph-name="uni1E45" unicode="&#x1e45;" horiz-adv-x="677" 
d="M274 734h129v-120h-129v120zM389 559q101 0 161.5 -62t60.5 -169v-328h-124v311q0 133 -128 133q-69 0 -114 -49t-45 -125v-270h-124v547h124v-66q71 78 189 78z" />
    <glyph glyph-name="uni1E46" unicode="&#x1e46;" horiz-adv-x="816" 
d="M221 0h-129v700h111l391 -477v477h130v-700h-108l-395 483v-483zM337 -167v120h129v-120h-129z" />
    <glyph glyph-name="uni1E47" unicode="&#x1e47;" horiz-adv-x="677" 
d="M389 559q101 0 161.5 -62t60.5 -169v-328h-124v311q0 133 -128 133q-69 0 -114 -49t-45 -125v-270h-124v547h124v-66q71 78 189 78zM397 -167h-129v120h129v-120z" />
    <glyph glyph-name="uni1E48" unicode="&#x1e48;" horiz-adv-x="816" 
d="M221 0h-129v700h111l391 -477v477h130v-700h-108l-395 483v-483zM565 -125h-317v77h317v-77z" />
    <glyph glyph-name="uni1E49" unicode="&#x1e49;" horiz-adv-x="677" 
d="M389 559q101 0 161.5 -62t60.5 -169v-328h-124v311q0 133 -128 133q-69 0 -114 -49t-45 -125v-270h-124v547h124v-66q71 78 189 78zM496 -125h-317v77h317v-77z" />
    <glyph glyph-name="uni1E5A" unicode="&#x1e5a;" horiz-adv-x="721" 
d="M486 244l205 -244h-163l-197 234h-110v-234h-129v700h289q142 0 221 -61.5t79 -172.5q0 -88 -50.5 -145t-144.5 -77zM378 586h-157v-239h156q87 0 131 27t44 90q0 122 -174 122zM430 -167h-129v120h129v-120z" />
    <glyph glyph-name="uni1E5B" unicode="&#x1e5b;" horiz-adv-x="434" 
d="M356 554q23 0 53 -4l-4 -127q-25 7 -54 7q-71 0 -111 -55.5t-40 -148.5v-226h-124v547h124v-70q58 77 156 77zM266 -167h-129v120h129v-120z" />
    <glyph glyph-name="uni1E5C" unicode="&#x1e5c;" horiz-adv-x="721" 
d="M210 852h317v-77h-317v77zM486 244l205 -244h-163l-197 234h-110v-234h-129v700h289q142 0 221 -61.5t79 -172.5q0 -88 -50.5 -145t-144.5 -77zM378 586h-157v-239h156q87 0 131 27t44 90q0 122 -174 122zM430 -167h-129v120h129v-120z" />
    <glyph glyph-name="uni1E5D" unicode="&#x1e5d;" horiz-adv-x="434" 
d="M59 709h317v-78h-317v78zM356 554q23 0 53 -4l-4 -127q-25 7 -54 7q-71 0 -111 -55.5t-40 -148.5v-226h-124v547h124v-70q58 77 156 77zM266 -167h-129v120h129v-120z" />
    <glyph glyph-name="uni1E5E" unicode="&#x1e5e;" horiz-adv-x="721" 
d="M331 234h-110v-234h-129v700h289q142 0 221 -61.5t79 -172.5q0 -88 -50.5 -145t-144.5 -77l205 -244h-163zM378 586h-157v-239h156q87 0 131 27t44 90q0 122 -174 122zM529 -125h-317v77h317v-77z" />
    <glyph glyph-name="uni1E5F" unicode="&#x1e5f;" horiz-adv-x="434" 
d="M356 554q23 0 53 -4l-4 -127q-25 7 -54 7q-71 0 -111 -55.5t-40 -148.5v-226h-124v547h124v-70q58 77 156 77zM365 -125h-317v77h317v-77z" />
    <glyph glyph-name="uni1E60" unicode="&#x1e60;" horiz-adv-x="648" 
d="M391 759h-129v117h129v-117zM331 -11q-170 0 -293 100l59 99q119 -82 242 -82q64 0 99 23t35 59q0 43 -34 63t-123 39q-128 27 -193 78t-65 140q0 96 76 149.5t195 53.5q140 0 255 -83l-69 -94q-84 60 -193 60q-128 0 -128 -87q0 -38 35.5 -61t121.5 -42
q137 -30 197.5 -74t60.5 -132q0 -96 -77.5 -152.5t-200.5 -56.5z" />
    <glyph glyph-name="uni1E61" unicode="&#x1e61;" horiz-adv-x="543" 
d="M339 614h-129v120h129v-120zM270 -10q-127 0 -240 66l51 102q96 -55 194 -55q110 0 110 54q0 27 -26.5 41t-101.5 27q-117 20 -163 58.5t-46 107.5q0 80 55 123.5t155 43.5q57 0 125 -16t107 -41l-50 -104q-83 48 -190 48q-76 0 -76 -44q0 -22 24 -35t94 -27
q123 -26 170 -67.5t47 -109.5q0 -81 -64.5 -126.5t-174.5 -45.5z" />
    <glyph glyph-name="uni1E62" unicode="&#x1e62;" horiz-adv-x="648" 
d="M331 -11q-170 0 -293 100l59 99q119 -82 242 -82q64 0 99 23t35 59q0 43 -34 63t-123 39q-128 27 -193 78t-65 140q0 96 76 149.5t195 53.5q140 0 255 -83l-69 -94q-84 60 -193 60q-128 0 -128 -87q0 -38 35.5 -61t121.5 -42q137 -30 197.5 -74t60.5 -132
q0 -96 -77.5 -152.5t-200.5 -56.5zM255 -167v120h129v-120h-129z" />
    <glyph glyph-name="uni1E63" unicode="&#x1e63;" horiz-adv-x="543" 
d="M270 -10q-127 0 -240 66l51 102q96 -55 194 -55q110 0 110 54q0 27 -26.5 41t-101.5 27q-117 20 -163 58.5t-46 107.5q0 80 55 123.5t155 43.5q57 0 125 -16t107 -41l-50 -104q-83 48 -190 48q-76 0 -76 -44q0 -22 24 -35t94 -27q123 -26 170 -67.5t47 -109.5
q0 -81 -64.5 -126.5t-174.5 -45.5zM204 -167v120h129v-120h-129z" />
    <glyph glyph-name="uni1E6C" unicode="&#x1e6c;" horiz-adv-x="651" 
d="M31 700h589v-114h-230v-586h-130v586h-229v114zM384 -167h-129v120h129v-120z" />
    <glyph glyph-name="uni1E6D" unicode="&#x1e6d;" horiz-adv-x="512" 
d="M448 122l24 -97q-63 -36 -153 -36q-85 0 -132 46t-47 132v269h-103v111h105l9 143h113v-143h187v-111h-187v-249q0 -40 21 -63.5t57 -23.5q59 0 106 22zM377 -168h-129v120h129v-120z" />
    <glyph glyph-name="uni1E6E" unicode="&#x1e6e;" horiz-adv-x="651" 
d="M31 586v114h589v-114h-230v-586h-130v586h-229zM483 -125h-317v77h317v-77z" />
    <glyph glyph-name="uni1E6F" unicode="&#x1e6f;" horiz-adv-x="512" 
d="M319 -11q-85 0 -132 46t-47 132v269h-103v111h105l9 143h113v-143h187v-111h-187v-249q0 -40 21 -63.5t57 -23.5q59 0 106 22l24 -97q-63 -36 -153 -36zM159 -126v77h317v-77h-317z" />
    <glyph glyph-name="Wgrave" unicode="&#x1e80;" horiz-adv-x="1094" 
d="M505 874l84 -123l-87 -6l-105 104zM777 160l163 540h136l-222 -700h-141l-165 484l-166 -484h-141l-224 700h138l164 -540l172 540h113z" />
    <glyph glyph-name="wgrave" unicode="&#x1e81;" horiz-adv-x="932" 
d="M418 750l93 -147l-88 -7l-122 130zM646 143l128 404h131l-187 -547h-139l-113 378l-113 -378h-138l-188 547h131l127 -404l117 404h126z" />
    <glyph glyph-name="Wacute" unicode="&#x1e82;" horiz-adv-x="1094" 
d="M591 874l108 -25l-105 -104l-87 6zM777 160l163 540h136l-222 -700h-141l-165 484l-166 -484h-141l-224 700h138l164 -540l172 540h113z" />
    <glyph glyph-name="wacute" unicode="&#x1e83;" horiz-adv-x="932" 
d="M513 750l117 -24l-122 -130l-88 7zM646 143l128 404h131l-187 -547h-139l-113 378l-113 -378h-138l-188 547h131l127 -404l117 404h126z" />
    <glyph glyph-name="Wdieresis" unicode="&#x1e84;" horiz-adv-x="1094" 
d="M423 875h105v-116h-105v116zM583 875h105v-116h-105v116zM777 160l163 540h136l-222 -700h-141l-165 484l-166 -484h-141l-224 700h138l164 -540l172 540h113z" />
    <glyph glyph-name="wdieresis" unicode="&#x1e85;" horiz-adv-x="932" 
d="M337 734h90v-120h-90v120zM507 734h89v-120h-89v120zM646 143l128 404h131l-187 -547h-139l-113 378l-113 -378h-138l-188 547h131l127 -404l117 404h126z" />
    <glyph glyph-name="uni1E8E" unicode="&#x1e8e;" horiz-adv-x="708" 
d="M290 876h129v-117h-129v117zM554 700h142l-277 -444v-256h-130v259l-277 441h142l201 -333z" />
    <glyph glyph-name="uni1E8F" unicode="&#x1e8f;" horiz-adv-x="646" 
d="M274 734h129v-120h-129v120zM329 141l160 406h136l-229 -547l-18 -41q-33 -76 -78 -108.5t-123 -32.5q-73 0 -126 34l37 91q44 -21 83 -21q35 0 52.5 15t33.5 53l5 11h-1l-230 546h136l161 -406h1z" />
    <glyph glyph-name="uni1E92" unicode="&#x1e92;" horiz-adv-x="700" 
d="M652 0h-601v81l414 505h-403v114h585v-81l-416 -505h421v-114zM278 -167v120h129v-120h-129z" />
    <glyph glyph-name="uni1E93" unicode="&#x1e93;" horiz-adv-x="559" 
d="M523 0h-486v75l308 360h-300v112h473v-74l-311 -361h316v-112zM206 -167v120h129v-120h-129z" />
    <glyph glyph-name="uni1E97" unicode="&#x1e97;" horiz-adv-x="512" 
d="M80 877h90v-120h-90v120zM250 877h89v-120h-89v120zM448 122l24 -97q-63 -36 -153 -36q-85 0 -132 46t-47 132v269h-103v111h105l9 143h113v-143h187v-111h-187v-249q0 -40 21 -63.5t57 -23.5q59 0 106 22z" />
    <glyph glyph-name="uni1E9E" unicode="&#x1e9e;" horiz-adv-x="789" 
d="M664 640l-84 -240q170 -59 170 -201q0 -98 -68 -154t-184 -56q-71 0 -135 19.5t-103 53.5l32 99q85 -57 193 -57q63 0 100 27t37 72q0 40 -35 69t-97 43q-18 3 -56 9l78 244q-84 28 -156 28t-114 -36.5t-42 -94.5v-465h-130v479q0 101 78.5 166.5t207.5 65.5
q144 0 308 -71z" />
    <glyph glyph-name="uni1EA0" unicode="&#x1ea0;" horiz-adv-x="792" 
d="M460 700l315 -700h-138l-56 129h-372l-56 -129h-136l314 700h129zM395 559l-137 -317h274zM454 -167h-129v120h129v-120z" />
    <glyph glyph-name="uni1EA1" unicode="&#x1ea1;" horiz-adv-x="607" 
d="M285 559q128 0 192 -60t64 -170v-329h-124v65q-70 -76 -194 -76q-86 0 -138.5 49t-52.5 126q0 79 54 131t166 52q78 0 164 -9q-3 52 -39.5 80.5t-104.5 28.5q-38 0 -80 -16t-72 -43l-61 91q96 80 226 80zM264 100q61 0 104 37t48 92v9q-62 9 -134 9q-131 0 -131 -76
q0 -71 113 -71zM351 -167h-129v120h129v-120z" />
    <glyph glyph-name="uni1EA2" unicode="&#x1ea2;" horiz-adv-x="792" 
d="M391 835q0 22 -20 31t-47 -7l-6 53q70 31 113 13.5t43 -60.5q0 -59 -63 -125l-57 16q2 3 8 11t8.5 12.5t7.5 12.5t7 14t4 14t2 15zM775 0h-138l-56 129h-372l-56 -129h-136l314 700h129zM395 559l-137 -317h274z" />
    <glyph glyph-name="uni1EA3" unicode="&#x1ea3;" horiz-adv-x="607" 
d="M287 684q0 22 -20 31t-47 -7l-6 53q70 31 113 13.5t43 -60.5q0 -59 -63 -125l-57 16q2 3 8 11t8.5 12.5t7.5 12.5t7 14t4 14t2 15zM285 559q128 0 192 -60t64 -170v-329h-124v65q-70 -76 -194 -76q-86 0 -138.5 49t-52.5 126q0 79 54 131t166 52q78 0 164 -9
q-3 52 -39.5 80.5t-104.5 28.5q-38 0 -80 -16t-72 -43l-61 91q96 80 226 80zM264 100q61 0 104 37t48 92v9q-62 9 -134 9q-131 0 -131 -76q0 -71 113 -71z" />
    <glyph glyph-name="uni1EA4" unicode="&#x1ea4;" horiz-adv-x="792" 
d="M599 926l97 -22l-95 -95l-79 5zM455 750l-57 81l-58 -81l-106 6l106 127h115l106 -127zM775 0h-138l-56 129h-372l-56 -129h-136l314 700h129zM395 559l-137 -317h274z" />
    <glyph glyph-name="uni1EA5" unicode="&#x1ea5;" horiz-adv-x="607" 
d="M339 945l117 -24l-122 -130l-88 7zM346 596l-54 90l-55 -90l-100 7l100 140h109l100 -140zM285 559q128 0 192 -60t64 -170v-329h-124v65q-70 -76 -194 -76q-86 0 -138.5 49t-52.5 126q0 79 54 131t166 52q78 0 164 -9q-3 52 -39.5 80.5t-104.5 28.5q-38 0 -80 -16
t-72 -43l-61 91q96 80 226 80zM264 100q61 0 104 37t48 92v9q-62 9 -134 9q-131 0 -131 -76q0 -71 113 -71z" />
    <glyph glyph-name="uni1EA6" unicode="&#x1ea6;" horiz-adv-x="792" 
d="M205 926l77 -112l-80 -5l-95 95zM398 831l-58 -81l-106 6l106 127h115l106 -127l-106 -6zM775 0h-138l-56 129h-372l-56 -129h-136l314 700h129zM395 559l-137 -317h274z" />
    <glyph glyph-name="uni1EA7" unicode="&#x1ea7;" horiz-adv-x="607" 
d="M244 945l93 -147l-88 -7l-122 130zM237 743h109l100 -140l-100 -7l-54 90l-55 -90l-100 7zM285 559q128 0 192 -60t64 -170v-329h-124v65q-70 -76 -194 -76q-86 0 -138.5 49t-52.5 126q0 79 54 131t166 52q78 0 164 -9q-3 52 -39.5 80.5t-104.5 28.5q-38 0 -80 -16
t-72 -43l-61 91q96 80 226 80zM264 100q61 0 104 37t48 92v9q-62 9 -134 9q-131 0 -131 -76q0 -71 113 -71z" />
    <glyph glyph-name="uni1EA8" unicode="&#x1ea8;" horiz-adv-x="792" 
d="M578 865q0 20 -18 28t-42 -7l-6 49q64 28 102.5 11.5t38.5 -54.5q0 -56 -57 -113l-51 14q33 47 33 72zM455 750l-57 81l-58 -81l-106 6l106 127h115l106 -127zM775 0h-138l-56 129h-372l-56 -129h-136l314 700h129zM395 559l-137 -317h274z" />
    <glyph glyph-name="uni1EA9" unicode="&#x1ea9;" horiz-adv-x="607" 
d="M287 877q0 22 -20 31t-47 -7l-6 53q70 31 113 13.5t43 -60.5q0 -59 -63 -125l-57 16q2 3 8 11t8.5 12.5t7.5 12.5t7 14t4 14t2 15zM346 596l-54 90l-55 -90l-100 7l100 140h109l100 -140zM285 559q128 0 192 -60t64 -170v-329h-124v65q-70 -76 -194 -76q-86 0 -138.5 49
t-52.5 126q0 79 54 131t166 52q78 0 164 -9q-3 52 -39.5 80.5t-104.5 28.5q-38 0 -80 -16t-72 -43l-61 91q96 80 226 80zM264 100q61 0 104 37t48 92v9q-62 9 -134 9q-131 0 -131 -76q0 -71 113 -71z" />
    <glyph glyph-name="uni1EAA" unicode="&#x1eaa;" horiz-adv-x="792" 
d="M329 967q-20 0 -33 -13t-13 -35l-61 16q0 49 27 78t68 29q30 0 73.5 -20t59.5 -20q20 0 32.5 13t12.5 35l61 -16q0 -49 -26.5 -78t-67.5 -29q-30 0 -73 20t-60 20zM455 883l106 -127l-106 -6l-57 81l-58 -81l-106 6l106 127h115zM775 0h-138l-56 129h-372l-56 -129h-136
l314 700h129zM395 559l-137 -317h274z" />
    <glyph glyph-name="uni1EAB" unicode="&#x1eab;" horiz-adv-x="607" 
d="M231 840q-20 0 -33 -13t-13 -34l-61 16q0 49 27 78t68 29q30 0 73.5 -20t59.5 -20q20 0 32.5 13t12.5 35l61 -16q0 -49 -26.5 -78t-67.5 -29q-30 0 -73 19.5t-60 19.5zM346 743l100 -140l-100 -7l-54 90l-55 -90l-100 7l100 140h109zM285 559q128 0 192 -60t64 -170v-329
h-124v65q-70 -76 -194 -76q-86 0 -138.5 49t-52.5 126q0 79 54 131t166 52q78 0 164 -9q-3 52 -39.5 80.5t-104.5 28.5q-38 0 -80 -16t-72 -43l-61 91q96 80 226 80zM264 100q61 0 104 37t48 92v9q-62 9 -134 9q-131 0 -131 -76q0 -71 113 -71z" />
    <glyph glyph-name="uni1EAC" unicode="&#x1eac;" horiz-adv-x="792" 
d="M455 750l-57 81l-58 -81l-106 6l106 127h115l106 -127zM460 700l315 -700h-138l-56 129h-372l-56 -129h-136l314 700h129zM395 559l-137 -317h274zM454 -167h-129v120h129v-120z" />
    <glyph glyph-name="uni1EAD" unicode="&#x1ead;" horiz-adv-x="607" 
d="M346 596l-54 90l-55 -90l-100 7l100 140h109l100 -140zM285 559q128 0 192 -60t64 -170v-329h-124v65q-70 -76 -194 -76q-86 0 -138.5 49t-52.5 126q0 79 54 131t166 52q78 0 164 -9q-3 52 -39.5 80.5t-104.5 28.5q-38 0 -80 -16t-72 -43l-61 91q96 80 226 80zM264 100
q61 0 104 37t48 92v9q-62 9 -134 9q-131 0 -131 -76q0 -71 113 -71zM351 -167h-129v120h129v-120z" />
    <glyph glyph-name="uni1EAE" unicode="&#x1eae;" horiz-adv-x="792" 
d="M438 1026l108 -25l-105 -104l-87 6zM392 743q-68 0 -109 37.5t-41 101.5l93 1q0 -36 13 -52t44 -16t44.5 16t13.5 52l93 -1q0 -64 -41 -101.5t-110 -37.5zM775 0h-138l-56 129h-372l-56 -129h-136l314 700h129zM395 559l-137 -317h274z" />
    <glyph glyph-name="uni1EAF" unicode="&#x1eaf;" horiz-adv-x="619" 
d="M349 937l117 -23l-122 -131l-88 7zM301 592q-69 0 -109.5 37.5t-40.5 100.5l93 2q0 -36 13 -52t44 -16t44.5 16t13.5 52l92 -2q0 -63 -40.5 -100.5t-109.5 -37.5zM285 559q128 0 192 -60t64 -170v-329h-124v65q-70 -76 -194 -76q-86 0 -138.5 49t-52.5 126q0 79 54 131
t166 52q78 0 164 -9q-3 52 -39.5 80.5t-104.5 28.5q-38 0 -80 -16t-72 -43l-61 91q96 80 226 80zM264 100q61 0 104 37t48 92v9q-62 9 -134 9q-131 0 -131 -76q0 -71 113 -71z" />
    <glyph glyph-name="uni1EB0" unicode="&#x1eb0;" horiz-adv-x="792" 
d="M353 1026l84 -123l-87 -6l-105 104zM392 743q-68 0 -109 37.5t-41 101.5l93 1q0 -36 13 -52t44 -16t44.5 16t13.5 52l93 -1q0 -64 -41 -101.5t-110 -37.5zM775 0h-138l-56 129h-372l-56 -129h-136l314 700h129zM395 559l-137 -317h274z" />
    <glyph glyph-name="uni1EB1" unicode="&#x1eb1;" horiz-adv-x="619" 
d="M254 937l92 -147l-88 -7l-121 131zM301 664q31 0 44.5 16t13.5 52l92 -2q0 -63 -40.5 -100.5t-109.5 -37.5t-109.5 37.5t-40.5 100.5l93 2q0 -36 13 -52t44 -16zM285 559q128 0 192 -60t64 -170v-329h-124v65q-70 -76 -194 -76q-86 0 -138.5 49t-52.5 126q0 79 54 131
t166 52q78 0 164 -9q-3 52 -39.5 80.5t-104.5 28.5q-38 0 -80 -16t-72 -43l-61 91q96 80 226 80zM264 100q61 0 104 37t48 92v9q-62 9 -134 9q-131 0 -131 -76q0 -71 113 -71z" />
    <glyph glyph-name="uni1EB2" unicode="&#x1eb2;" horiz-adv-x="792" 
d="M388 977q0 19 -17.5 27t-41.5 -6l-5 47q62 27 99.5 11.5t37.5 -52.5q0 -52 -55 -110l-50 14q1 2 6.5 9.5t7.5 11t6.5 11t6.5 12.5t3.5 12t1.5 13zM392 743q-68 0 -109 37.5t-41 101.5l93 1q0 -36 13 -52t44 -16t44.5 16t13.5 52l93 -1q0 -64 -41 -101.5t-110 -37.5z
M775 0h-138l-56 129h-372l-56 -129h-136l314 700h129zM395 559l-137 -317h274z" />
    <glyph glyph-name="uni1EB3" unicode="&#x1eb3;" horiz-adv-x="619" 
d="M296 869q0 22 -19.5 31t-46.5 -7l-7 53q71 31 113.5 13.5t42.5 -60.5q0 -62 -63 -125l-56 17q2 2 7 9.5t7 11t6.5 10t6.5 11.5t4.5 11t3.5 12.5t1 12.5zM301 592q-69 0 -109.5 37.5t-40.5 100.5l93 2q0 -36 13 -52t44 -16t44.5 16t13.5 52l92 -2q0 -63 -40.5 -100.5
t-109.5 -37.5zM285 559q128 0 192 -60t64 -170v-329h-124v65q-70 -76 -194 -76q-86 0 -138.5 49t-52.5 126q0 79 54 131t166 52q78 0 164 -9q-3 52 -39.5 80.5t-104.5 28.5q-38 0 -80 -16t-72 -43l-61 91q96 80 226 80zM264 100q61 0 104 37t48 92v9q-62 9 -134 9
q-131 0 -131 -76q0 -71 113 -71z" />
    <glyph glyph-name="uni1EB4" unicode="&#x1eb4;" horiz-adv-x="792" 
d="M329 944q-20 0 -33 -13t-13 -35l-61 16q0 49 27 78t68 29q30 0 73.5 -20t59.5 -20q20 0 32.5 13t12.5 35l61 -16q0 -49 -26.5 -78t-67.5 -29q-30 0 -73 20t-60 20zM392 815q31 0 44.5 16t13.5 52l93 -1q0 -64 -41 -101.5t-110 -37.5q-68 0 -109 37.5t-41 101.5l93 1
q0 -36 13 -52t44 -16zM775 0h-138l-56 129h-372l-56 -129h-136l314 700h129zM395 559l-137 -317h274z" />
    <glyph glyph-name="uni1EB5" unicode="&#x1eb5;" horiz-adv-x="619" 
d="M245 832q-20 0 -32.5 -12.5t-12.5 -34.5l-62 16q0 48 27 77.5t68 29.5q30 0 73.5 -20t59.5 -20q20 0 33 13t13 35l61 -16q0 -49 -26.5 -78t-68.5 -29q-30 0 -73 19.5t-60 19.5zM301 664q31 0 44.5 16t13.5 52l92 -2q0 -63 -40.5 -100.5t-109.5 -37.5t-109.5 37.5
t-40.5 100.5l93 2q0 -36 13 -52t44 -16zM285 559q128 0 192 -60t64 -170v-329h-124v65q-70 -76 -194 -76q-86 0 -138.5 49t-52.5 126q0 79 54 131t166 52q78 0 164 -9q-3 52 -39.5 80.5t-104.5 28.5q-38 0 -80 -16t-72 -43l-61 91q96 80 226 80zM264 100q61 0 104 37t48 92
v9q-62 9 -134 9q-131 0 -131 -76q0 -71 113 -71z" />
    <glyph glyph-name="uni1EB6" unicode="&#x1eb6;" horiz-adv-x="792" 
d="M392 743q-68 0 -109 37.5t-41 101.5l93 1q0 -36 13 -52t44 -16t44.5 16t13.5 52l93 -1q0 -64 -41 -101.5t-110 -37.5zM460 700l315 -700h-138l-56 129h-372l-56 -129h-136l314 700h129zM395 559l-137 -317h274zM454 -167h-129v120h129v-120z" />
    <glyph glyph-name="uni1EB7" unicode="&#x1eb7;" horiz-adv-x="607" 
d="M291 592q-68 0 -109 37.5t-41 101.5l93 1q0 -36 13 -52t44 -16t44.5 16t13.5 52l93 -1q0 -64 -41 -101.5t-110 -37.5zM285 559q128 0 192 -60t64 -170v-329h-124v65q-70 -76 -194 -76q-86 0 -138.5 49t-52.5 126q0 79 54 131t166 52q78 0 164 -9q-3 52 -39.5 80.5
t-104.5 28.5q-38 0 -80 -16t-72 -43l-61 91q96 80 226 80zM264 100q61 0 104 37t48 92v9q-62 9 -134 9q-131 0 -131 -76q0 -71 113 -71zM351 -167h-129v120h129v-120z" />
    <glyph glyph-name="uni1EB8" unicode="&#x1eb8;" horiz-adv-x="701" 
d="M219 304v-190h431v-114h-558v700h548v-114h-421v-168h377v-114h-377zM404 -167h-129v120h129v-120z" />
    <glyph glyph-name="uni1EB9" unicode="&#x1eb9;" horiz-adv-x="623" 
d="M594 225h-419q12 -58 59 -91t116 -33q90 0 139 55l80 -71q-90 -95 -225 -95q-130 0 -214 80t-84 204t80.5 203.5t209.5 79.5q116 0 190 -73t74 -185q0 -25 -6 -74zM335 447q-62 0 -104 -32t-54 -87h300q-21 119 -142 119zM384 -169h-129v120h129v-120z" />
    <glyph glyph-name="uni1EBA" unicode="&#x1eba;" horiz-adv-x="701" 
d="M341 835q0 22 -20 31t-47 -7l-6 53q70 31 113 13.5t43 -60.5q0 -59 -63 -125l-57 16q2 3 8 11t8.5 12.5t7.5 12.5t7 14t4 14t2 15zM219 304v-190h431v-114h-558v700h548v-114h-421v-168h377v-114h-377z" />
    <glyph glyph-name="uni1EBB" unicode="&#x1ebb;" horiz-adv-x="623" 
d="M318 682q0 22 -20 31t-47 -7l-6 53q71 31 113.5 13.5t42.5 -60.5q0 -59 -63 -125l-57 16q2 3 8 11t8.5 12.5t7.5 12.5t7 14t4 14t2 15zM594 225h-419q12 -58 59 -91t116 -33q90 0 139 55l80 -71q-90 -95 -225 -95q-130 0 -214 80t-84 204t80.5 203.5t209.5 79.5
q116 0 190 -73t74 -185q0 -25 -6 -74zM335 447q-62 0 -104 -32t-54 -87h300q-21 119 -142 119z" />
    <glyph glyph-name="uni1EBC" unicode="&#x1ebc;" horiz-adv-x="701" 
d="M279 792q-20 0 -33 -13t-13 -35l-61 16q0 49 27 78t68 29q30 0 73.5 -20t59.5 -20q20 0 32.5 13t12.5 35l61 -16q0 -49 -26.5 -78t-67.5 -29q-30 0 -73 20t-60 20zM219 304v-190h431v-114h-558v700h548v-114h-421v-168h377v-114h-377z" />
    <glyph glyph-name="uni1EBD" unicode="&#x1ebd;" horiz-adv-x="623" 
d="M262 645q-20 0 -33 -13t-13 -34l-61 16q0 49 27 78t68 29q30 0 73.5 -20t59.5 -20q20 0 32.5 13t12.5 35l61 -16q0 -49 -26.5 -78t-67.5 -29q-30 0 -73 19.5t-60 19.5zM594 225h-419q12 -58 59 -91t116 -33q90 0 139 55l80 -71q-90 -95 -225 -95q-130 0 -214 80t-84 204
t80.5 203.5t209.5 79.5q116 0 190 -73t74 -185q0 -25 -6 -74zM335 447q-62 0 -104 -32t-54 -87h300q-21 119 -142 119z" />
    <glyph glyph-name="uni1EBE" unicode="&#x1ebe;" horiz-adv-x="701" 
d="M560 913l97 -22l-95 -95l-79 5zM406 750l-57 81l-58 -81l-106 6l106 127h115l106 -127zM596 304h-377v-190h431v-114h-558v700h548v-114h-421v-168h377v-114z" />
    <glyph glyph-name="uni1EBF" unicode="&#x1ebf;" horiz-adv-x="623" 
d="M371 943l117 -24l-122 -130l-88 7zM378 594l-54 90l-55 -90l-100 7l100 140h109l100 -140zM594 225h-419q12 -58 59 -91t116 -33q90 0 139 55l80 -71q-90 -95 -225 -95q-130 0 -214 80t-84 204t80.5 203.5t209.5 79.5q116 0 190 -73t74 -185q0 -25 -6 -74zM335 447
q-62 0 -104 -32t-54 -87h300q-21 119 -142 119z" />
    <glyph glyph-name="uni1EC0" unicode="&#x1ec0;" horiz-adv-x="701" 
d="M185 756l41 49l-57 -4l-95 95l97 22l67 -98l53 63h115l106 -127l-106 -6l-57 81l-58 -81zM219 304v-190h431v-114h-558v700h548v-114h-421v-168h377v-114h-377z" />
    <glyph glyph-name="uni1EC1" unicode="&#x1ec1;" horiz-adv-x="623" 
d="M276 943l93 -147l-88 -7l-122 130zM269 741h109l100 -140l-100 -7l-54 90l-55 -90l-100 7zM594 225h-419q12 -58 59 -91t116 -33q90 0 139 55l80 -71q-90 -95 -225 -95q-130 0 -214 80t-84 204t80.5 203.5t209.5 79.5q116 0 190 -73t74 -185q0 -25 -6 -74zM335 447
q-62 0 -104 -32t-54 -87h300q-21 119 -142 119z" />
    <glyph glyph-name="uni1EC2" unicode="&#x1ec2;" horiz-adv-x="701" 
d="M526 867q0 19 -17.5 26.5t-41.5 -6.5l-5 47q62 26 98.5 11t36.5 -52q0 -52 -54 -109l-49 14q1 2 6.5 9.5t7.5 11t6.5 11t6.5 12.5t3.5 12t1.5 13zM406 750l-57 81l-58 -81l-106 6l106 127h115l106 -127zM219 304v-190h431v-114h-558v700h548v-114h-421v-168h377v-114
h-377z" />
    <glyph glyph-name="uni1EC3" unicode="&#x1ec3;" horiz-adv-x="623" 
d="M318 875q0 22 -20 31t-47 -7l-6 53q71 31 113.5 13.5t42.5 -60.5q0 -59 -63 -125l-57 16q2 3 8 11t8.5 12.5t7.5 12.5t7 14t4 14t2 15zM378 594l-54 90l-55 -90l-100 7l100 140h109l100 -140zM594 225h-419q12 -58 59 -91t116 -33q90 0 139 55l80 -71q-90 -95 -225 -95
q-130 0 -214 80t-84 204t80.5 203.5t209.5 79.5q116 0 190 -73t74 -185q0 -25 -6 -74zM335 447q-62 0 -104 -32t-54 -87h300q-21 119 -142 119z" />
    <glyph glyph-name="uni1EC4" unicode="&#x1ec4;" horiz-adv-x="701" 
d="M279 967q-20 0 -33 -13t-13 -35l-61 16q0 49 27 78t68 29q30 0 73.5 -20t59.5 -20q20 0 32.5 13t12.5 35l61 -16q0 -49 -26.5 -78t-67.5 -29q-30 0 -73 20t-60 20zM406 883l106 -127l-106 -6l-57 81l-58 -81l-106 6l106 127h115zM219 304v-190h431v-114h-558v700h548
v-114h-421v-168h377v-114h-377z" />
    </font>
</defs>
</svg>
